<?xml version="1.0" encoding="utf-8"?>
<svg version="1.1" xmlns:xlink="http://www.w3.org/1999/xlink" width="14px" height="14px" xmlns="http://www.w3.org/2000/svg">
  <g transform="matrix(1 0 0 1 0 -3 )">
    <path d="M 0.5 4  A 0.5 0.5 0 0 1 1 3.5 L 13 3.5  A 0.5 0.5 0 0 1 13.5 4 L 13.5 16  A 0.5 0.5 0 0 1 13 16.5 L 1 16.5  A 0.5 0.5 0 0 1 0.5 16 L 0.5 4  Z " fill-rule="nonzero" fill="#ffffff" stroke="none" />
    <path d="M 0.5 4  A 0.5 0.5 0 0 1 1 3.5 L 13 3.5  A 0.5 0.5 0 0 1 13.5 4 L 13.5 16  A 0.5 0.5 0 0 1 13 16.5 L 1 16.5  A 0.5 0.5 0 0 1 0.5 16 L 0.5 4  Z " stroke-width="1" stroke="#dcdee2" fill="none" />
  </g>
</svg>