<?xml version="1.0" encoding="utf-8"?>
<svg version="1.1" xmlns:xlink="http://www.w3.org/1999/xlink" width="34px" height="26px" xmlns="http://www.w3.org/2000/svg">
  <g transform="matrix(1 0 0 1 -632 -587 )">
    <path d="M 15.8565022421525 19.5  L 16.9237668161435 19.5  L 19.1345291479821 17.3579545454545  L 16.237668161435 14.5511363636364  L 14.0269058295964 16.6931818181818  L 14.0269058295964 17.7272727272727  L 15.8565022421525 17.7272727272727  L 15.8565022421525 19.5  Z M 25.2903587443946 6.81392045454546  C 25.5063527653214 6.60464015151515  25.5127055306428 6.40151515151515  25.3094170403587 6.20454545454546  C 25.1061285500747 6.00757575757576  24.8964872944694 6.01373106060606  24.6804932735426 6.22301136363636  L 18.0100896860987 12.6860795454545  C 17.7940956651719 12.8953598484848  17.7877428998505 13.0984848484848  17.9910313901345 13.2954545454545  C 18.1943198804185 13.4924242424242  18.4039611360239 13.4862689393939  18.6199551569507 13.2769886363636  L 25.2903587443946 6.81392045454546  Z M 26.4529147982063 16.6377840909091  C 26.7070254110613 16.7362689393939  26.8340807174888 16.9147727272727  26.8340807174888 17.1732954545455  L 26.8340807174888 20.6818181818182  C 26.8340807174888 22.1467803030303  26.2972720478326 23.399384469697  25.2236547085202 24.4396306818182  C 24.1500373692078 25.4798768939394  22.8572496263079 26  21.3452914798206 26  L 5.48878923766816 26  C 3.97683109118087 26  2.68404334828102 25.4798768939394  1.61042600896861 24.4396306818182  C 0.536808669656203 23.399384469697  0 22.1467803030303  0 20.6818181818182  L 0 5.31818181818182  C 0 3.85321969696969  0.536808669656203 2.60061553030303  1.61042600896861 1.56036931818182  C 2.68404334828102 0.520123106060604  3.97683109118087 0  5.48878923766816 0  L 21.3452914798206 0  C 22.1457399103139 0  22.8890134529148 0.153882575757574  23.5751121076233 0.461647727272726  C 23.7656950672646 0.547821969696968  23.8800448430493 0.689393939393939  23.9181614349776 0.886363636363636  C 23.9562780269058 1.09564393939394  23.8991031390135 1.27414772727273  23.7466367713004 1.421875  L 22.8127802690583 2.32670454545455  C 22.6349028400598 2.49905303030303  22.4316143497758 2.54829545454546  22.2029147982063 2.47443181818182  C 21.910687593423 2.40056818181818  21.6248131539611 2.36363636363636  21.3452914798206 2.36363636363636  L 5.48878923766816 2.36363636363636  C 4.65022421524664 2.36363636363636  3.93236173393124 2.6529356060606  3.33520179372197 3.23153409090909  C 2.73804185351271 3.81013257575757  2.43946188340807 4.50568181818182  3 5.31818181818182  L 3 20.6818181818182  C 2.43946188340807 21.4943181818182  2.73804185351271 22.1898674242424  3.33520179372197 22.7684659090909  C 3.93236173393124 23.3470643939394  4.65022421524664 23.6363636363636  5.48878923766816 23.6363636363636  L 21.3452914798206 23.6363636363636  C 22.1838565022422 23.6363636363636  22.9017189835575 23.3470643939394  23.4988789237668 22.7684659090909  C 24.0960388639761 22.1898674242424  24.3946188340807 21.4943181818182  24.3946188340807 20.6818181818182  L 24.3946188340807 18.3551136363636  C 24.3946188340807 18.1950757575758  24.4517937219731 18.0596590909091  24.5661434977578 17.9488636363636  L 25.7858744394619 16.7670454545455  C 25.9764573991031 16.5823863636364  26.1988041853513 16.5392992424242  26.4529147982063 16.6377840909091  Z M 12.1973094170404 15.9545454545455  L 25.0044843049327 3.54545454545455  L 30.4932735426009 8.86363636363637  L 17.6860986547085 21.2727272727273  L 12.1973094170404 21.2727272727273  L 12.1973094170404 15.9545454545455  Z M 34 4.72727272727273  C 34 5.21969696969697  33.8221225710015 5.63825757575757  33.4663677130045 5.98295454545455  L 31.7130044843049 7.68181818181818  L 26.2242152466368 2.36363636363636  L 27.9775784753363 0.664772727272726  C 28.3333333333333 0.320075757575755  28.7653213751868 0.147727272727274  29.2735426008969 0.147727272727274  C 29.7817638266069 0.147727272727274  30.2137518684604 0.320075757575755  30.5695067264574 0.664772727272726  L 33.4663677130045 3.47159090909091  C 33.8221225710015 3.81628787878787  34 4.23484848484848  34 4.72727272727273  Z " fill-rule="nonzero" fill="#18bc9c" stroke="none" transform="matrix(1 0 0 1 632 587 )" />
  </g>
</svg>