<?xml version="1.0" encoding="utf-8"?>
<svg version="1.1" xmlns:xlink="http://www.w3.org/1999/xlink" width="16px" height="16px" xmlns="http://www.w3.org/2000/svg">
  <g transform="matrix(1 0 0 1 -26 -389 )">
    <path d="M 9.58444444444445 0.416666666666667  C 9.03666666666667 0.176666666666667  8.54 0.0366666666666666  8 0.0366666666666666  C 7.46 0.0366666666666666  6.96333333333333 0.176666666666667  6.41444444444445 0.416666666666667  C 5.88111111111111 0.648888888888889  5.26444444444444 0.992222222222222  4.48777777777778 1.42444444444444  L 1.41888888888889 3.13333333333333  C 0.992222222222222 3.37111111111111  0.634444444444444 3.67  0.388888888888889 4.07222222222222  C 0.142222222222222 4.47666666666667  0.0366666666666666 4.93888888888889  0.0366666666666666 5.46  L 0.0366666666666666 5.50888888888889  C 0.0366666666666666 5.69777777777778  0.0366666666666666 5.89  0.0811111111111111 6.06111111111111  C 0.196666666666667 6.49444444444444  0.47 6.77222222222222  0.805555555555556 6.92111111111111  C 1.04444444444444 7.02777777777778  1.3 7.06222222222222  1.51888888888889 7.07222222222222  L 1.51888888888889 12.58  C 0.607052432888905 13.0607743911932  0.0364336444685898 14.0069578694434  0.0366666666666663 15.0377777777778  C 0.0366666666666663 15.5488888888889  0.451111111111111 15.9644444444444  0.963333333333333 16  L 15.0366666666667 16  C 15.5477777777778 15.9644444444444  15.9633333333333 15.55  15.9633333333333 15.0377777777778  C 15.963154102634 14.0073569141565  15.3925945673828 13.0616993935865  14.4811111111111 12.5811111111111  L 14.4811111111111 7.07111111111111  C 14.7 7.06  14.9555555555556 7.02666666666667  15.1944444444444 6.92  C 15.53 6.77111111111111  15.8033333333333 6.49222222222222  15.9177777777778 6.06  C 15.9633333333333 5.88888888888889  15.9633333333333 5.69666666666667  15.9622222222222 5.50777777777778  L 15.9622222222222 5.45888888888889  C 15.9622222222222 4.93888888888889  15.8577777777778 4.47555555555556  15.6111111111111 4.07  C 15.3655555555556 3.66888888888889  15.0077777777778 3.37  14.5811111111111 3.13222222222222  L 11.5111111111111 1.42444444444444  C 10.7344444444444 0.992222222222222  10.1166666666667 0.648888888888889  9.58444444444445 0.416666666666667  Z M 1.95888888888889 4.10333333333333  L 5.00333333333333 2.40888888888889  C 5.81 1.96  6.38111111111111 1.64222222222222  6.85888888888889 1.43444444444444  C 7.32555555555555 1.23  7.66555555555556 1.14777777777778  8 1.14777777777778  C 8.33333333333333 1.14777777777778  8.67444444444444 1.23  9.14111111111111 1.43444444444444  C 9.61888888888889 1.64333333333333  10.19 1.96  10.9966666666667 2.40888888888889  L 14.0411111111111 4.10333333333333  C 14.3522222222222 4.27777777777778  14.5444444444444 4.45555555555556  14.6622222222222 4.65  C 14.7788888888889 4.84111111111111  14.8511111111111 5.09222222222222  14.8511111111111 5.45888888888889  C 14.8511111111111 5.58333333333333  14.8511111111111 5.65888888888889  14.8488888888889 5.71555555555556  C 14.8486693836294 5.73562906538745  14.8471849597906 5.75566878721156  14.8444444444444 5.77555555555556  C 14.8377806013125 5.80795962491206  14.8237099964552 5.83838255433326  14.8033333333333 5.86444444444445  C 14.7862836804028 5.88253398163454  14.7654035243653 5.89658063205979  14.7422222222222 5.90555555555556  C 14.6611111111111 5.94111111111111  14.5266666666667 5.96333333333333  14.32 6  L 1.68 6  C 1.47222222222222 5.96333333333333  1.33777777777778 5.94111111111111  1.25666666666667 5.90555555555556  C 1.23386650268477 5.89646887121649  1.21337197455439 5.8824263241642  1.19666666666667 5.86444444444445  C 1.17585770528099 5.83851012166988  1.16139899184908 5.80807072497111  1.15444444444444 5.77555555555556  C 1.15170392909833 5.75566878721156  1.15021950525951 5.73562906538745  1.15 5.71555555555556  C 1.14718495079612 5.63003061557037  1.1460736192935 5.54445808986858  1.14666666666667 5.45888888888889  C 1.14666666666667 5.09222222222222  1.22 4.84111111111111  1.33666666666667 4.65  C 1.45444444444444 4.45555555555556  1.64555555555556 4.27777777777778  1.95888888888889 4.10333333333333  Z M 13.37 12.2655555555556  L 13.37 12.2644444444444  L 13.2033333333333 12.2588888888889  L 11.5188888888889 12.2588888888889  L 11.5188888888889 7.07444444444444  L 13.37 7.07444444444444  L 13.37 12.2655555555556  Z M 10.4077777777778 7.07444444444444  L 10.4077777777778 12.2588888888889  L 5.59222222222222 12.2588888888889  L 5.59222222222222 7.07444444444444  L 10.4077777777778 7.07444444444444  Z M 4.48111111111111 7.07444444444444  L 4.48111111111111 12.2588888888889  L 2.81444444444444 12.2588888888889  C 2.75290687926349 12.2591075213952  2.6913927699961 12.261330922935  2.63 12.2655555555556  L 2.63 7.07444444444444  L 4.48111111111111 7.07444444444444  Z M 1.15777777777778 14.8522222222222  C 1.25175465693853 14.0082495504439  1.96525570812088 13.3698790593123  2.81444444444444 13.37  L 13.1855555555556 13.37  C 14.0343198288838 13.3704449747048  14.7471813019294 14.008671286814  14.8411111111111 14.8522222222222  L 1.15777777777778 14.8522222222222  Z " fill-rule="nonzero" fill="#165dff" stroke="none" fill-opacity="0.8" transform="matrix(1 0 0 1 26 389 )" />
  </g>
</svg>