<?xml version="1.0" encoding="utf-8"?>
<svg version="1.1" xmlns:xlink="http://www.w3.org/1999/xlink" width="58px" height="37px" xmlns="http://www.w3.org/2000/svg">
  <g transform="matrix(1 0 0 1 -12 -641 )">
    <path d="M 12 665  C 12 665  12 645  12 645  C 12 642.790861000677  13.7908610006768 641  16 641  C 16 641  66 641  66 641  C 68.2091389993232 641  70 642.790861000677  70 645  C 70 645  70 665  70 665  C 70 667.209138999323  68.2091389993232 669  66 669  C 66 669  35.2 669  35.2 669  C 35.2 669  26.2 678  26.2 678  C 26.2 678  16.7 669  16.7 669  C 16.7 669  16 669  16 669  C 13.7908610006768 669  12 667.209138999323  12 665  Z " fill-rule="nonzero" fill="#000000" stroke="none" fill-opacity="0.498039215686275" />
  </g>
</svg>