<?xml version="1.0" encoding="utf-8"?>
<svg version="1.1" xmlns:xlink="http://www.w3.org/1999/xlink" width="40px" height="50px" xmlns="http://www.w3.org/2000/svg">
  <defs>
    <filter x="170px" y="234px" width="40px" height="50px" filterUnits="userSpaceOnUse" id="filter35">
      <feOffset dx="1" dy="1" in="SourceAlpha" result="shadowOffsetInner" />
      <feGaussianBlur stdDeviation="2.5" in="shadowOffsetInner" result="shadowGaussian" />
      <feComposite in2="shadowGaussian" operator="atop" in="SourceAlpha" result="shadowComposite" />
      <feColorMatrix type="matrix" values="0 0 0 0 0  0 0 0 0 0  0 0 0 0 0  0 0 0 0.698039215686274 0  " in="shadowComposite" />
    </filter>
    <g id="widget36">
      <path d="M 189 277.036928468354  C 183.2 267.40734059591  174.5 261.629587872444  174.5 252  C 174.5 246.985714285714  177.4 238.5  189 238.5  C 200.6 238.5  203.5 246.985714285714  203.5 252  C 203.5 261.629587872444  194.8 267.40734059591  189 277.036928468354  Z " fill-rule="nonzero" fill="#009dd9" stroke="none" />
      <path d="M 189 278  C 183 268  174 262  174 252  C 174 246.8  177 238  189 238  C 201 238  204 246.8  204 252  C 204 262  195 268  189 278  Z M 189 276.073856936707  C 194.6 266.81468119182  203 261.259175744887  203 252  C 203 247.171428571429  200.2 239  189 239  C 177.8 239  175 247.171428571429  175 252  C 175 261.259175744887  183.4 266.81468119182  189 276.073856936707  Z " fill-rule="nonzero" fill="#ffffff" stroke="none" />
    </g>
  </defs>
  <g transform="matrix(1 0 0 1 -170 -234 )">
    <use xlink:href="#widget36" filter="url(#filter35)" />
    <use xlink:href="#widget36" />
  </g>
</svg>