<?xml version="1.0" encoding="utf-8"?>
<svg version="1.1" xmlns:xlink="http://www.w3.org/1999/xlink" width="30px" height="26px" xmlns="http://www.w3.org/2000/svg">
  <g transform="matrix(1 0 0 1 -1642 -424 )">
    <path d="M 25.0390859891762 14.2741477272727  C 25.2796151533373 14.3726325757576  25.3998797354179 14.5511363636364  25.3998797354179 14.8096590909091  L 25.3998797354179 20.6818181818182  C 25.3998797354179 22.1467803030303  24.8917618761275 23.399384469697  23.8755261575466 24.4396306818182  C 22.8592904389657 25.4798768939394  21.6355983162959 26  20.204449789537 26  L 5.19542994588094 26  C 3.76428141912207 26  2.5405892964522 25.4798768939394  1.52435357787132 24.4396306818182  C 0.508117859290439 23.399384469697  0 22.1467803030303  0 20.6818181818182  L 0 5.31818181818182  C 0 3.85321969696969  0.508117859290439 2.60061553030303  1.52435357787132 1.56036931818182  C 2.5405892964522 0.520123106060604  3.76428141912207 0  5.19542994588094 0  L 20.204449789537 0  C 20.9621166566446 0  21.665664461816 0.153882575757574  22.3150932050511 0.461647727272726  C 22.495490078172 0.547821969696968  22.6037282020445 0.689393939393939  22.6398075766687 0.886363636363636  C 22.6758869512928 1.09564393939394  22.6217678893566 1.27414772727273  22.4774503908599 1.421875  L 21.5935057125676 2.32670454545455  C 21.4732411304871 2.4498106060606  21.3349368610944 2.51136363636364  21.1785929043897 2.51136363636364  C 21.1425135297655 2.51136363636364  21.0883944678292 2.49905303030303  21.0162357185809 2.47443181818182  C 20.7396271797956 2.40056818181818  20.4690318701143 2.36363636363636  20.204449789537 2.36363636363636  L 5.19542994588094 2.36363636363636  C 4.40168370414913 2.36363636363636  3.72218881539387 2.6529356060606  3.15694527961515 3.23153409090909  C 2.59170174383644 3.81013257575757  2.30907997594708 4.50568181818182  2.30907997594708 5.31818181818182  L 2.30907997594708 20.6818181818182  C 2.30907997594708 21.4943181818182  2.59170174383644 22.1898674242424  3.15694527961515 22.7684659090909  C 3.72218881539387 23.3470643939394  4.40168370414913 23.6363636363636  5.19542994588094 23.6363636363636  L 20.204449789537 23.6363636363636  C 20.9981960312688 23.6363636363636  21.6776909200241 23.3470643939394  22.2429344558028 22.7684659090909  C 22.8081779915815 22.1898674242424  23.0907997594708 21.4943181818182  23.0907997594708 20.6818181818182  L 23.0907997594708 15.9914772727273  C 23.0907997594708 15.8314393939394  23.1449188214071 15.6960227272727  23.2531569452796 15.5852272727273  L 24.4076969332532 14.4034090909091  C 24.5279615153337 14.280303030303  24.6662657847264 14.21875  24.8226097414312 14.21875  C 24.8947684906795 14.21875  24.9669272399278 14.2372159090909  25.0390859891762 14.2741477272727  Z M 30 4.72727272727273  C 30 5.13352272727273  29.8556825015033 5.484375  29.5670475045099 5.77982954545455  L 14.8827420324714 20.8110795454545  C 14.5941070354781 21.1065340909091  14.2513529765484 21.2542613636364  13.8544798556825 21.2542613636364  C 13.4576067348166 21.2542613636364  13.114852675887 21.1065340909091  12.8262176788936 20.8110795454545  L 5.06915213469633 12.8707386363636  C 4.78051713770295 12.5752840909091  4.63619963920625 12.2244318181818  4.63619963920625 11.8181818181818  C 4.63619963920625 11.4119318181818  4.78051713770295 11.0610795454545  5.06915213469633 10.765625  L 7.05351773902586 8.734375  C 7.34215273601924 8.43892045454546  7.68490679494889 8.29119318181818  8.08177991581479 8.29119318181818  C 8.4786530366807 8.29119318181818  8.82140709561034 8.43892045454546  9.11004209260373 8.734375  L 13.8544798556825 13.5909090909091  L 25.5261575466025 1.64346590909091  C 25.8147925435959 1.34801136363636  26.1575466025256 1.20028409090909  26.5544197233915 1.20028409090909  C 26.9512928442574 1.20028409090909  27.294046903187 1.34801136363636  27.5826819001804 1.64346590909091  L 29.5670475045099 3.67471590909091  C 29.8556825015033 3.97017045454546  30 4.32102272727273  30 4.72727272727273  Z " fill-rule="nonzero" fill="#18bc9c" stroke="none" transform="matrix(1 0 0 1 1642 424 )" />
  </g>
</svg>