<svg width="935" height="34" viewBox="0 0 935 34" fill="none" xmlns="http://www.w3.org/2000/svg">
<path d="M70 4C70 2.34315 71.3431 1 73 1H104.148C105.805 1 107.148 2.34315 107.148 4V30.5703C107.148 32.2272 105.805 33.5703 104.148 33.5703H73C71.3431 33.5703 70 32.2272 70 30.5703V4Z" fill="#444C69"/>
<g clip-path="url(#clip0_16_11)">
<path d="M93.96 18.1629C93.96 18.1829 93.9567 18.1995 93.95 18.2129C93.6433 19.5062 92.9967 20.5562 92.01 21.3629C91.0233 22.1695 89.8667 22.5729 88.54 22.5729C87.8333 22.5729 87.15 22.4395 86.49 22.1729C85.83 21.9062 85.2433 21.5262 84.73 21.0329L83.79 21.9729C83.6967 22.0595 83.5867 22.1029 83.46 22.1029C83.34 22.1029 83.2333 22.0595 83.14 21.9729C83.0467 21.8795 83 21.7695 83 21.6429V18.3929C83 18.2662 83.0467 18.1562 83.14 18.0629C83.2333 17.9762 83.34 17.9329 83.46 17.9329H86.71C86.8367 17.9329 86.9467 17.9762 87.04 18.0629C87.1333 18.1562 87.18 18.2662 87.18 18.3929C87.18 18.5195 87.1333 18.6295 87.04 18.7229L86.05 19.7129C86.39 20.0329 86.7767 20.2795 87.21 20.4529C87.65 20.6262 88.1033 20.7129 88.57 20.7129C89.2167 20.7129 89.8233 20.5562 90.39 20.2429C90.95 19.9295 91.3967 19.4962 91.73 18.9429C91.7833 18.8629 91.9133 18.5795 92.12 18.0929C92.16 17.9862 92.2333 17.9329 92.34 17.9329H93.73C93.79 17.9329 93.8433 17.9529 93.89 17.9929C93.9367 18.0395 93.96 18.0962 93.96 18.1629ZM94.14 12.3529V15.6029C94.14 15.7295 94.0967 15.8395 94.01 15.9329C93.9167 16.0262 93.8067 16.0729 93.68 16.0729H90.43C90.3033 16.0729 90.1933 16.0262 90.1 15.9329C90.0067 15.8395 89.96 15.7295 89.96 15.6029C89.96 15.4829 90.0067 15.3762 90.1 15.2829L91.1 14.2829C90.3867 13.6162 89.5433 13.2829 88.57 13.2829C87.9233 13.2829 87.32 13.4395 86.76 13.7529C86.2 14.0729 85.75 14.5062 85.41 15.0529C85.3567 15.1395 85.2267 15.4229 85.02 15.9029C84.9867 16.0162 84.9167 16.0729 84.81 16.0729H83.36C83.3 16.0729 83.2467 16.0495 83.2 16.0029C83.1533 15.9562 83.13 15.9029 83.13 15.8429V15.7929C83.4433 14.4929 84.0967 13.4395 85.09 12.6329C86.0833 11.8329 87.2433 11.4329 88.57 11.4329C89.2767 11.4329 89.9633 11.5662 90.63 11.8329C91.2967 12.0995 91.89 12.4762 92.41 12.9629L93.35 12.0329C93.4433 11.9395 93.5533 11.8929 93.68 11.8929C93.8067 11.8929 93.9167 11.9395 94.01 12.0329C94.0967 12.1262 94.14 12.2329 94.14 12.3529Z" fill="white"/>
</g>
<path d="M112 4C112 2.34315 113.343 1 115 1H174.836C176.493 1 177.836 2.34315 177.836 4V30.5703C177.836 32.2272 176.493 33.5703 174.836 33.5703H115C113.343 33.5703 112 32.2272 112 30.5703V4Z" fill="#18BC9C"/>
<g clip-path="url(#clip1_16_11)">
<path d="M135.21 16.3071V17.6971C135.21 17.8905 135.143 18.0538 135.01 18.1871C134.877 18.3271 134.713 18.3971 134.52 18.3971H131.5V21.4071C131.5 21.6005 131.433 21.7671 131.3 21.9071C131.16 22.0405 130.993 22.1071 130.8 22.1071H129.41C129.217 22.1071 129.053 22.0405 128.92 21.9071C128.78 21.7671 128.71 21.6005 128.71 21.4071V18.3971H125.7C125.507 18.3971 125.34 18.3271 125.2 18.1871C125.067 18.0538 125 17.8905 125 17.6971V16.3071C125 16.1138 125.067 15.9471 125.2 15.8071C125.34 15.6738 125.507 15.6071 125.7 15.6071H128.71V12.5871C128.71 12.3938 128.78 12.2305 128.92 12.0971C129.053 11.9638 129.217 11.8971 129.41 11.8971H130.8C130.993 11.8971 131.16 11.9638 131.3 12.0971C131.433 12.2305 131.5 12.3938 131.5 12.5871V15.6071H134.52C134.713 15.6071 134.877 15.6738 135.01 15.8071C135.143 15.9471 135.21 16.1138 135.21 16.3071Z" fill="white"/>
</g>
<path d="M143.021 17.9833L143.801 18.2563C143.706 18.6203 143.58 18.9973 143.424 19.3873C143.277 19.7686 143.095 20.1326 142.878 20.4793C142.662 20.826 142.402 21.1293 142.098 21.3893L141.383 20.8303C141.661 20.5963 141.903 20.3233 142.111 20.0113C142.319 19.6993 142.497 19.37 142.644 19.0233C142.8 18.668 142.926 18.3213 143.021 17.9833ZM146.128 18.4773L146.869 18.2173C147.086 18.6506 147.277 19.1273 147.441 19.6473C147.615 20.1586 147.732 20.605 147.792 20.9863L146.999 21.2723C146.973 21.021 146.913 20.735 146.817 20.4143C146.731 20.085 146.627 19.7513 146.505 19.4133C146.393 19.0753 146.267 18.7633 146.128 18.4773ZM147.727 18.1783L148.494 17.8013C148.763 18.122 149.023 18.4773 149.274 18.8673C149.534 19.2486 149.764 19.6256 149.963 19.9983C150.171 20.3623 150.327 20.696 150.431 20.9993L149.599 21.4283C149.504 21.125 149.357 20.7826 149.157 20.4013C148.958 20.02 148.733 19.6386 148.481 19.2573C148.239 18.8673 147.987 18.5076 147.727 18.1783ZM147.285 14.4343C147.502 14.8416 147.775 15.236 148.104 15.6173C148.434 15.9986 148.802 16.341 149.209 16.6443C149.617 16.939 150.033 17.1816 150.457 17.3723C150.388 17.4243 150.31 17.498 150.223 17.5933C150.137 17.6886 150.054 17.7883 149.976 17.8923C149.907 17.9876 149.846 18.0743 149.794 18.1523C149.344 17.927 148.906 17.6366 148.481 17.2813C148.065 16.926 147.68 16.5316 147.324 16.0983C146.978 15.6563 146.683 15.197 146.44 14.7203L147.285 14.4343ZM145.075 12.1593L146.063 12.3153C145.717 13.7626 145.179 14.976 144.451 15.9553C143.732 16.9346 142.809 17.7233 141.682 18.3213C141.639 18.252 141.578 18.1696 141.5 18.0743C141.422 17.979 141.34 17.8836 141.253 17.7883C141.167 17.693 141.089 17.615 141.019 17.5543C142.111 17.043 142.987 16.341 143.645 15.4483C144.313 14.5556 144.789 13.4593 145.075 12.1593ZM148.728 10.9113L149.495 11.6653C149.027 11.8126 148.499 11.9426 147.909 12.0553C147.32 12.168 146.696 12.2676 146.037 12.3543C145.387 12.441 144.729 12.5103 144.061 12.5623C143.394 12.6143 142.748 12.6576 142.124 12.6923C142.116 12.571 142.081 12.4323 142.02 12.2763C141.968 12.1116 141.916 11.973 141.864 11.8603C142.471 11.8256 143.095 11.7823 143.736 11.7303C144.386 11.6696 145.019 11.6003 145.634 11.5223C146.25 11.4443 146.822 11.3533 147.35 11.2493C147.888 11.1453 148.347 11.0326 148.728 10.9113ZM141.409 14.0183H150.132V14.9283H141.409V14.0183ZM144.646 16.6183H145.556V21.6753C145.556 21.9266 145.526 22.1216 145.465 22.2603C145.405 22.4076 145.283 22.516 145.101 22.5853C144.928 22.6633 144.694 22.7066 144.399 22.7153C144.113 22.7326 143.749 22.7413 143.307 22.7413C143.29 22.62 143.255 22.477 143.203 22.3123C143.151 22.1476 143.091 22.0003 143.021 21.8703C143.351 21.879 143.645 21.8833 143.905 21.8833C144.165 21.8833 144.339 21.8833 144.425 21.8833C144.573 21.8746 144.646 21.8053 144.646 21.6753V16.6183ZM138.926 11.6133L139.498 10.9113C139.741 11.024 139.997 11.1583 140.265 11.3143C140.534 11.4703 140.785 11.6306 141.019 11.7953C141.262 11.9513 141.457 12.103 141.604 12.2503L141.019 13.0433C140.881 12.8873 140.694 12.727 140.46 12.5623C140.226 12.389 139.975 12.22 139.706 12.0553C139.438 11.882 139.178 11.7346 138.926 11.6133ZM138.315 15.1363L138.848 14.4213C139.117 14.5166 139.39 14.638 139.667 14.7853C139.945 14.924 140.205 15.0713 140.447 15.2273C140.69 15.3746 140.889 15.5176 141.045 15.6563L140.486 16.4493C140.33 16.3106 140.131 16.1633 139.888 16.0073C139.654 15.8426 139.399 15.6866 139.121 15.5393C138.844 15.3833 138.575 15.249 138.315 15.1363ZM138.601 22.0393C138.775 21.71 138.965 21.3286 139.173 20.8953C139.39 20.4533 139.602 19.9896 139.81 19.5043C140.027 19.0103 140.226 18.5293 140.408 18.0613L141.188 18.6073C141.024 19.0406 140.842 19.4913 140.642 19.9593C140.452 20.4273 140.257 20.8866 140.057 21.3373C139.867 21.7793 139.672 22.1953 139.472 22.5853L138.601 22.0393ZM158.686 20.6613H162.222V21.5973H158.686V20.6613ZM151.51 13.2513H156.515V14.2133H151.51V13.2513ZM158.257 12.4063H162.69V22.4553H161.715V13.3553H159.193V22.5593H158.257V12.4063ZM156.255 13.2513H157.191C157.191 13.2513 157.191 13.286 157.191 13.3553C157.191 13.416 157.191 13.4896 157.191 13.5763C157.191 13.6543 157.191 13.715 157.191 13.7583C157.165 15.2056 157.139 16.4233 157.113 17.4113C157.087 18.3993 157.053 19.2096 157.009 19.8423C156.966 20.4663 156.91 20.9473 156.84 21.2853C156.78 21.6233 156.697 21.8616 156.593 22.0003C156.472 22.165 156.346 22.282 156.216 22.3513C156.086 22.4293 155.926 22.4813 155.735 22.5073C155.553 22.5333 155.319 22.542 155.033 22.5333C154.756 22.5333 154.474 22.5246 154.188 22.5073C154.18 22.36 154.149 22.1953 154.097 22.0133C154.054 21.8313 153.989 21.671 153.902 21.5323C154.206 21.5583 154.487 21.5756 154.747 21.5843C155.007 21.5843 155.194 21.5843 155.306 21.5843C155.402 21.593 155.484 21.5843 155.553 21.5583C155.623 21.5236 155.688 21.463 155.748 21.3763C155.818 21.281 155.878 21.0773 155.93 20.7653C155.982 20.4446 156.03 19.981 156.073 19.3743C156.117 18.7676 156.151 17.9833 156.177 17.0213C156.203 16.0506 156.229 14.872 156.255 13.4853V13.2513ZM153.356 10.9633H154.318C154.31 12.168 154.288 13.3423 154.253 14.4863C154.219 15.6303 154.128 16.7136 153.98 17.7363C153.842 18.759 153.608 19.6993 153.278 20.5573C152.958 21.4066 152.511 22.1433 151.939 22.7673C151.887 22.6893 151.818 22.607 151.731 22.5203C151.645 22.4423 151.554 22.3643 151.458 22.2863C151.363 22.2083 151.272 22.1433 151.185 22.0913C151.619 21.6406 151.97 21.112 152.238 20.5053C152.516 19.8986 152.732 19.2356 152.888 18.5163C153.044 17.7883 153.153 17.017 153.213 16.2023C153.283 15.379 153.322 14.5296 153.33 13.6543C153.348 12.7703 153.356 11.8733 153.356 10.9633Z" fill="white"/>
<path d="M324.805 0.5H931.023C932.404 0.5 933.523 1.61929 933.523 3V30.9922C933.523 32.3729 932.404 33.4922 931.023 33.4922H324.805C323.424 33.4922 322.305 32.3729 322.305 30.9922V3C322.305 1.61929 323.424 0.5 324.805 0.5Z" fill="#F4F4F4"/>
<path d="M324.805 0.5H931.023C932.404 0.5 933.523 1.61929 933.523 3V30.9922C933.523 32.3729 932.404 33.4922 931.023 33.4922H324.805C323.424 33.4922 322.305 32.3729 322.305 30.9922V3C322.305 1.61929 323.424 0.5 324.805 0.5Z" stroke="#DDDDDD"/>
<g clip-path="url(#clip2_16_11)">
<path d="M342.445 18.76C342.445 19.5533 342.185 20.24 341.665 20.82C341.151 21.3933 340.478 21.7467 339.645 21.88V23.25C339.645 23.3233 339.621 23.3833 339.575 23.43C339.528 23.4767 339.468 23.5 339.395 23.5H338.345C338.278 23.5 338.218 23.4767 338.165 23.43C338.118 23.3767 338.095 23.3167 338.095 23.25V21.88C337.748 21.8333 337.415 21.7533 337.095 21.64C336.775 21.5267 336.511 21.41 336.305 21.29C336.098 21.1767 335.905 21.0533 335.725 20.92C335.551 20.7867 335.431 20.6867 335.365 20.62C335.298 20.56 335.251 20.5133 335.225 20.48C335.138 20.3733 335.135 20.2667 335.215 20.16L336.015 19.11C336.055 19.0567 336.115 19.0267 336.195 19.02C336.275 19.0067 336.338 19.03 336.385 19.09C336.385 19.09 336.388 19.0933 336.395 19.1C336.988 19.6133 337.621 19.94 338.295 20.08C338.488 20.12 338.681 20.14 338.875 20.14C339.295 20.14 339.665 20.0267 339.985 19.8C340.305 19.58 340.465 19.2633 340.465 18.85C340.465 18.7033 340.428 18.5667 340.355 18.44C340.275 18.3067 340.188 18.1967 340.095 18.11C339.995 18.0233 339.841 17.9267 339.635 17.82C339.428 17.7133 339.255 17.63 339.115 17.57C338.981 17.51 338.775 17.4233 338.495 17.31C338.288 17.23 338.128 17.1667 338.015 17.12C337.895 17.0733 337.735 17.0033 337.535 16.91C337.328 16.8167 337.165 16.7367 337.045 16.67C336.918 16.5967 336.771 16.5033 336.605 16.39C336.431 16.2767 336.291 16.1667 336.185 16.06C336.078 15.9533 335.965 15.8267 335.845 15.68C335.725 15.5267 335.631 15.3733 335.565 15.22C335.498 15.0667 335.445 14.8933 335.405 14.7C335.358 14.5067 335.335 14.3033 335.335 14.09C335.335 13.3767 335.591 12.7467 336.105 12.2C336.611 11.66 337.275 11.3133 338.095 11.16V9.75C338.095 9.68333 338.118 9.62333 338.165 9.57C338.218 9.52333 338.278 9.5 338.345 9.5H339.395C339.468 9.5 339.528 9.52333 339.575 9.57C339.621 9.61667 339.645 9.67667 339.645 9.75V11.12C339.945 11.1533 340.235 11.2133 340.515 11.3C340.795 11.3933 341.021 11.4833 341.195 11.57C341.368 11.6567 341.531 11.7533 341.685 11.86C341.845 11.9667 341.948 12.0433 341.995 12.09C342.041 12.13 342.078 12.1667 342.105 12.2C342.198 12.2933 342.211 12.39 342.145 12.49L341.515 13.63C341.475 13.71 341.415 13.7533 341.335 13.76C341.261 13.7733 341.191 13.7533 341.125 13.7C341.111 13.6867 341.075 13.6567 341.015 13.61C340.955 13.5633 340.851 13.4933 340.705 13.4C340.565 13.3133 340.415 13.23 340.255 13.15C340.088 13.0767 339.891 13.01 339.665 12.95C339.438 12.89 339.218 12.86 339.005 12.86C338.505 12.86 338.098 12.9733 337.785 13.2C337.478 13.42 337.325 13.7067 337.325 14.06C337.325 14.2 337.345 14.3267 337.385 14.44C337.431 14.5533 337.508 14.66 337.615 14.76C337.728 14.86 337.831 14.9467 337.925 15.02C338.025 15.0867 338.171 15.1667 338.365 15.26C338.558 15.3533 338.715 15.4233 338.835 15.47C338.955 15.5233 339.138 15.5967 339.385 15.69C339.658 15.79 339.868 15.87 340.015 15.93C340.161 15.99 340.358 16.0833 340.605 16.21C340.858 16.33 341.055 16.44 341.195 16.54C341.341 16.64 341.505 16.77 341.685 16.93C341.865 17.09 342.001 17.2567 342.095 17.43C342.195 17.5967 342.278 17.7933 342.345 18.02C342.411 18.2533 342.445 18.5 342.445 18.76Z" fill="#1E90FF"/>
</g>
<path d="M349.677 12.426H350.517V16.43C350.517 16.9433 350.489 17.4893 350.433 18.068C350.377 18.6373 350.256 19.2067 350.069 19.776C349.892 20.3453 349.621 20.8913 349.257 21.414C348.893 21.9273 348.403 22.3847 347.787 22.786C347.731 22.702 347.643 22.5947 347.521 22.464C347.409 22.3333 347.307 22.2307 347.213 22.156C347.792 21.8107 348.249 21.4047 348.585 20.938C348.921 20.462 349.164 19.9627 349.313 19.44C349.472 18.9173 349.57 18.3993 349.607 17.886C349.654 17.3633 349.677 16.878 349.677 16.43V12.426ZM350.181 19.93L350.839 19.454C351.054 19.706 351.273 19.9813 351.497 20.28C351.731 20.5693 351.945 20.854 352.141 21.134C352.337 21.4047 352.496 21.6473 352.617 21.862L351.903 22.436C351.801 22.212 351.651 21.9553 351.455 21.666C351.269 21.3767 351.063 21.0827 350.839 20.784C350.615 20.476 350.396 20.1913 350.181 19.93ZM347.885 10.648H352.267V19.23H351.427V11.516H348.711V19.272H347.885V10.648ZM352.631 15.436H359.925V16.416H352.631V15.436ZM356.887 16.01C357.074 16.822 357.321 17.6013 357.629 18.348C357.937 19.0947 358.306 19.762 358.735 20.35C359.174 20.9287 359.664 21.3953 360.205 21.75C360.131 21.806 360.047 21.8807 359.953 21.974C359.869 22.0673 359.785 22.1653 359.701 22.268C359.617 22.38 359.547 22.478 359.491 22.562C358.922 22.142 358.409 21.6147 357.951 20.98C357.494 20.336 357.102 19.608 356.775 18.796C356.449 17.984 356.183 17.1253 355.977 16.22L356.887 16.01ZM353.695 22.94C353.677 22.8653 353.639 22.772 353.583 22.66C353.537 22.5573 353.485 22.4547 353.429 22.352C353.373 22.2493 353.317 22.1607 353.261 22.086C353.383 22.03 353.513 21.932 353.653 21.792C353.803 21.652 353.877 21.442 353.877 21.162V10.27H354.871V22.002C354.871 22.002 354.829 22.0207 354.745 22.058C354.661 22.1047 354.559 22.1607 354.437 22.226C354.325 22.3007 354.213 22.38 354.101 22.464C353.989 22.548 353.891 22.632 353.807 22.716C353.733 22.8 353.695 22.8747 353.695 22.94ZM358.469 10.606L359.449 10.914C359.179 11.4367 358.861 11.95 358.497 12.454C358.143 12.958 357.76 13.4247 357.349 13.854C356.939 14.2833 356.523 14.666 356.103 15.002C356.047 14.9367 355.973 14.8573 355.879 14.764C355.795 14.6613 355.702 14.5633 355.599 14.47C355.506 14.3673 355.417 14.288 355.333 14.232C355.959 13.7933 356.551 13.2567 357.111 12.622C357.671 11.978 358.124 11.306 358.469 10.606ZM353.695 22.94L353.583 22.03L354.003 21.624L356.929 20.56C356.929 20.7093 356.939 20.8727 356.957 21.05C356.985 21.2273 357.009 21.372 357.027 21.484C356.355 21.764 355.809 21.988 355.389 22.156C354.979 22.324 354.657 22.4547 354.423 22.548C354.199 22.6507 354.036 22.73 353.933 22.786C353.831 22.842 353.751 22.8933 353.695 22.94ZM363.061 12.16H364.153V15.212C364.153 15.7813 364.125 16.402 364.069 17.074C364.023 17.746 363.925 18.432 363.775 19.132C363.635 19.8227 363.425 20.4947 363.145 21.148C362.875 21.8013 362.52 22.4033 362.081 22.954C362.016 22.8793 361.927 22.8 361.815 22.716C361.703 22.632 361.587 22.5527 361.465 22.478C361.353 22.4033 361.255 22.352 361.171 22.324C361.601 21.8013 361.941 21.2413 362.193 20.644C362.445 20.0373 362.632 19.4167 362.753 18.782C362.884 18.1473 362.968 17.5267 363.005 16.92C363.043 16.304 363.061 15.7347 363.061 15.212V12.16ZM366.869 10.186L367.877 9.92C368.045 10.2467 368.209 10.6013 368.367 10.984C368.526 11.3573 368.647 11.684 368.731 11.964L367.667 12.286C367.593 11.9967 367.476 11.656 367.317 11.264C367.159 10.872 367.009 10.5127 366.869 10.186ZM363.747 12.16H372.525V17.858H371.461V13.14H363.747V12.16ZM363.747 15.954H372.049V16.934H363.747V15.954ZM385.321 18.754L386.119 18.292C386.399 18.6 386.67 18.936 386.931 19.3C387.202 19.664 387.44 20.0233 387.645 20.378C387.86 20.7327 388.014 21.0593 388.107 21.358L387.253 21.89C387.151 21.6007 386.997 21.274 386.791 20.91C386.595 20.546 386.367 20.1773 386.105 19.804C385.853 19.4307 385.592 19.0807 385.321 18.754ZM380.463 17.984L381.205 17.396C381.523 17.592 381.84 17.8253 382.157 18.096C382.484 18.3573 382.787 18.6233 383.067 18.894C383.357 19.1553 383.585 19.398 383.753 19.622L382.969 20.294C382.801 20.0607 382.577 19.8087 382.297 19.538C382.027 19.258 381.728 18.9827 381.401 18.712C381.084 18.432 380.771 18.1893 380.463 17.984ZM378.629 18.376H379.735V21.26C379.735 21.4653 379.796 21.6007 379.917 21.666C380.048 21.7313 380.337 21.764 380.785 21.764C380.869 21.764 381.005 21.764 381.191 21.764C381.387 21.764 381.611 21.764 381.863 21.764C382.115 21.764 382.367 21.764 382.619 21.764C382.871 21.764 383.105 21.764 383.319 21.764C383.534 21.764 383.693 21.764 383.795 21.764C384.029 21.764 384.201 21.7313 384.313 21.666C384.435 21.6007 384.519 21.4653 384.565 21.26C384.612 21.0547 384.649 20.7467 384.677 20.336C384.752 20.392 384.85 20.4433 384.971 20.49C385.093 20.5367 385.214 20.5833 385.335 20.63C385.457 20.6673 385.569 20.6953 385.671 20.714C385.615 21.246 385.531 21.6567 385.419 21.946C385.307 22.2447 385.13 22.4453 384.887 22.548C384.645 22.66 384.309 22.716 383.879 22.716C383.805 22.716 383.66 22.716 383.445 22.716C383.24 22.716 382.997 22.716 382.717 22.716C382.437 22.716 382.157 22.716 381.877 22.716C381.597 22.716 381.35 22.716 381.135 22.716C380.93 22.716 380.795 22.716 380.729 22.716C380.179 22.716 379.749 22.674 379.441 22.59C379.143 22.506 378.933 22.3567 378.811 22.142C378.69 21.9367 378.629 21.6473 378.629 21.274V18.376ZM376.613 18.6L377.607 18.782C377.486 19.3513 377.309 19.9393 377.075 20.546C376.851 21.1527 376.581 21.666 376.263 22.086L375.297 21.624C375.493 21.3907 375.675 21.106 375.843 20.77C376.011 20.434 376.161 20.0793 376.291 19.706C376.422 19.3233 376.529 18.9547 376.613 18.6ZM378.293 10.466L379.189 10.046C379.507 10.41 379.805 10.8113 380.085 11.25C380.365 11.6793 380.571 12.062 380.701 12.398L379.735 12.888C379.661 12.664 379.549 12.412 379.399 12.132C379.25 11.852 379.077 11.5673 378.881 11.278C378.695 10.9793 378.499 10.7087 378.293 10.466ZM384.271 10.004L385.349 10.438C385.041 10.97 384.719 11.5113 384.383 12.062C384.047 12.6127 383.725 13.0887 383.417 13.49L382.563 13.07C382.759 12.7993 382.96 12.4867 383.165 12.132C383.38 11.768 383.585 11.3993 383.781 11.026C383.977 10.6527 384.141 10.312 384.271 10.004ZM378.405 13.812V16.276H385.013V13.812H378.405ZM377.299 12.818H386.175V17.284H377.299V12.818ZM396.955 16.85H398.005V21.26C398.005 21.4747 398.043 21.6147 398.117 21.68C398.201 21.736 398.379 21.764 398.649 21.764C398.715 21.764 398.827 21.764 398.985 21.764C399.144 21.764 399.321 21.764 399.517 21.764C399.723 21.764 399.909 21.764 400.077 21.764C400.245 21.764 400.371 21.764 400.455 21.764C400.651 21.764 400.796 21.708 400.889 21.596C400.983 21.484 401.048 21.2553 401.085 20.91C401.123 20.5647 401.151 20.042 401.169 19.342C401.244 19.398 401.337 19.4587 401.449 19.524C401.571 19.58 401.692 19.6313 401.813 19.678C401.935 19.7153 402.042 19.7527 402.135 19.79C402.107 20.574 402.042 21.1853 401.939 21.624C401.846 22.0533 401.687 22.352 401.463 22.52C401.249 22.688 400.941 22.772 400.539 22.772C400.474 22.772 400.348 22.772 400.161 22.772C399.975 22.772 399.765 22.772 399.531 22.772C399.307 22.772 399.102 22.772 398.915 22.772C398.729 22.772 398.603 22.772 398.537 22.772C398.117 22.772 397.791 22.7253 397.557 22.632C397.333 22.548 397.175 22.394 397.081 22.17C396.997 21.9553 396.955 21.652 396.955 21.26V16.85ZM393.329 16.934H394.421C394.365 17.69 394.263 18.3807 394.113 19.006C393.973 19.6313 393.74 20.1867 393.413 20.672C393.096 21.1573 392.657 21.582 392.097 21.946C391.537 22.31 390.814 22.6133 389.927 22.856C389.89 22.7627 389.834 22.66 389.759 22.548C389.694 22.436 389.619 22.324 389.535 22.212C389.461 22.1093 389.381 22.0253 389.297 21.96C390.119 21.7547 390.781 21.5027 391.285 21.204C391.799 20.896 392.191 20.5367 392.461 20.126C392.741 19.7153 392.942 19.244 393.063 18.712C393.185 18.18 393.273 17.5873 393.329 16.934ZM397.053 13.574L397.893 13.042C398.36 13.3873 398.836 13.7747 399.321 14.204C399.807 14.6333 400.259 15.0627 400.679 15.492C401.099 15.9213 401.435 16.3133 401.687 16.668L400.763 17.284C400.53 16.92 400.208 16.5187 399.797 16.08C399.396 15.6413 398.953 15.2027 398.467 14.764C397.991 14.3253 397.52 13.9287 397.053 13.574ZM393.763 12.23L394.883 12.58C394.687 12.9813 394.473 13.4013 394.239 13.84C394.015 14.2787 393.787 14.6987 393.553 15.1C393.32 15.492 393.101 15.842 392.895 16.15L392.027 15.828C392.223 15.5107 392.429 15.142 392.643 14.722C392.867 14.302 393.077 13.8727 393.273 13.434C393.469 12.9953 393.633 12.594 393.763 12.23ZM390.067 15.492C390.889 15.4733 391.85 15.45 392.951 15.422C394.062 15.3847 395.238 15.3473 396.479 15.31C397.73 15.2633 398.971 15.2167 400.203 15.17L400.161 16.122C398.957 16.1873 397.739 16.248 396.507 16.304C395.285 16.36 394.123 16.4113 393.021 16.458C391.929 16.5047 390.959 16.542 390.109 16.57L390.067 15.492ZM389.633 11.684H401.799V12.678H389.633V11.684ZM395.135 9.99H396.199V12.23H395.135V9.99ZM407.301 11.418H415.687V12.356H407.301V11.418ZM406.699 21.554H416.107V22.464H406.699V21.554ZM408.043 13.658H414.861V21.806H413.881V14.484H408.995V21.806H408.043V13.658ZM408.701 15.66H414.105V16.444H408.701V15.66ZM408.687 17.648H414.315V18.404H408.687V17.648ZM408.687 19.622H414.133V20.392H408.687V19.622ZM411.081 9.99L412.201 10.06C412.127 10.4987 412.038 10.9653 411.935 11.46C411.833 11.9453 411.73 12.412 411.627 12.86C411.525 13.2987 411.422 13.6813 411.319 14.008L410.409 13.91C410.493 13.574 410.577 13.1727 410.661 12.706C410.755 12.2393 410.839 11.768 410.913 11.292C410.988 10.816 411.044 10.382 411.081 9.99ZM406.391 10.004L407.357 10.312C407.068 11.096 406.732 11.8753 406.349 12.65C405.976 13.4153 405.565 14.1387 405.117 14.82C404.669 15.5013 404.207 16.108 403.731 16.64C403.694 16.556 403.638 16.4487 403.563 16.318C403.498 16.1873 403.428 16.0567 403.353 15.926C403.279 15.786 403.209 15.674 403.143 15.59C403.573 15.1327 403.988 14.6053 404.389 14.008C404.791 13.4107 405.164 12.7713 405.509 12.09C405.855 11.4087 406.149 10.7133 406.391 10.004ZM404.921 13.672L405.887 12.678L405.901 12.692V22.87H404.921V13.672ZM423.695 14.134C423.415 14.134 423.168 14.0407 422.953 13.854C422.739 13.658 422.631 13.4013 422.631 13.084C422.631 12.7667 422.739 12.5147 422.953 12.328C423.168 12.132 423.415 12.034 423.695 12.034C423.975 12.034 424.223 12.132 424.437 12.328C424.652 12.5147 424.759 12.7667 424.759 13.084C424.759 13.4013 424.652 13.658 424.437 13.854C424.223 14.0407 423.975 14.134 423.695 14.134ZM423.695 20.994C423.415 20.994 423.168 20.9007 422.953 20.714C422.739 20.518 422.631 20.2613 422.631 19.944C422.631 19.6173 422.739 19.3607 422.953 19.174C423.168 18.978 423.415 18.88 423.695 18.88C423.975 18.88 424.223 18.978 424.437 19.174C424.652 19.3607 424.759 19.6173 424.759 19.944C424.759 20.2613 424.652 20.518 424.437 20.714C424.223 20.9007 423.975 20.994 423.695 20.994Z" fill="#1E90FF"/>
<path d="M513.756 10.998C513.476 11.4273 513.126 11.88 512.706 12.356C512.296 12.832 511.838 13.308 511.334 13.784C510.83 14.26 510.294 14.7173 509.724 15.156C509.155 15.5947 508.572 15.9913 507.974 16.346C507.928 16.262 507.867 16.1733 507.792 16.08C507.718 15.9773 507.638 15.8747 507.554 15.772C507.47 15.6693 507.391 15.5853 507.316 15.52C507.923 15.1747 508.516 14.778 509.094 14.33C509.673 13.882 510.219 13.4107 510.732 12.916C511.255 12.412 511.726 11.908 512.146 11.404C512.566 10.9 512.912 10.4147 513.182 9.948H514.232C514.596 10.4707 515.016 10.9933 515.492 11.516C515.968 12.0293 516.477 12.524 517.018 13C517.569 13.476 518.129 13.9193 518.698 14.33C519.277 14.7313 519.837 15.0767 520.378 15.366C520.248 15.4873 520.122 15.632 520 15.8C519.879 15.9587 519.772 16.1173 519.678 16.276C519.137 15.9493 518.582 15.576 518.012 15.156C517.452 14.736 516.906 14.2927 516.374 13.826C515.842 13.35 515.352 12.874 514.904 12.398C514.456 11.9127 514.074 11.446 513.756 10.998ZM510.76 14.414H516.892V15.394H510.76V14.414ZM508.954 17.158H517.452V18.166H508.954V17.158ZM517.242 17.158H517.396L517.592 17.102L518.418 17.354C518.194 17.8673 517.933 18.4507 517.634 19.104C517.345 19.748 517.037 20.4013 516.71 21.064C516.393 21.7173 516.085 22.338 515.786 22.926L514.694 22.618C514.918 22.1887 515.152 21.7313 515.394 21.246C515.637 20.7513 515.875 20.2613 516.108 19.776C516.342 19.2907 516.556 18.8333 516.752 18.404C516.948 17.9747 517.112 17.606 517.242 17.298V17.158ZM523.29 10.942H532.474V22.646H531.354V11.992H524.368V22.716H523.29V10.942ZM524.018 15.786H531.83V16.822H524.018V15.786ZM523.99 20.756H531.844V21.806H523.99V20.756ZM543.086 16.85H544.136V21.26C544.136 21.4747 544.174 21.6147 544.248 21.68C544.332 21.736 544.51 21.764 544.78 21.764C544.846 21.764 544.958 21.764 545.116 21.764C545.275 21.764 545.452 21.764 545.648 21.764C545.854 21.764 546.04 21.764 546.208 21.764C546.376 21.764 546.502 21.764 546.586 21.764C546.782 21.764 546.927 21.708 547.02 21.596C547.114 21.484 547.179 21.2553 547.216 20.91C547.254 20.5647 547.282 20.042 547.3 19.342C547.375 19.398 547.468 19.4587 547.58 19.524C547.702 19.58 547.823 19.6313 547.944 19.678C548.066 19.7153 548.173 19.7527 548.266 19.79C548.238 20.574 548.173 21.1853 548.07 21.624C547.977 22.0533 547.818 22.352 547.594 22.52C547.38 22.688 547.072 22.772 546.67 22.772C546.605 22.772 546.479 22.772 546.292 22.772C546.106 22.772 545.896 22.772 545.662 22.772C545.438 22.772 545.233 22.772 545.046 22.772C544.86 22.772 544.734 22.772 544.668 22.772C544.248 22.772 543.922 22.7253 543.688 22.632C543.464 22.548 543.306 22.394 543.212 22.17C543.128 21.9553 543.086 21.652 543.086 21.26V16.85ZM539.46 16.934H540.552C540.496 17.69 540.394 18.3807 540.244 19.006C540.104 19.6313 539.871 20.1867 539.544 20.672C539.227 21.1573 538.788 21.582 538.228 21.946C537.668 22.31 536.945 22.6133 536.058 22.856C536.021 22.7627 535.965 22.66 535.89 22.548C535.825 22.436 535.75 22.324 535.666 22.212C535.592 22.1093 535.512 22.0253 535.428 21.96C536.25 21.7547 536.912 21.5027 537.416 21.204C537.93 20.896 538.322 20.5367 538.592 20.126C538.872 19.7153 539.073 19.244 539.194 18.712C539.316 18.18 539.404 17.5873 539.46 16.934ZM543.184 13.574L544.024 13.042C544.491 13.3873 544.967 13.7747 545.452 14.204C545.938 14.6333 546.39 15.0627 546.81 15.492C547.23 15.9213 547.566 16.3133 547.818 16.668L546.894 17.284C546.661 16.92 546.339 16.5187 545.928 16.08C545.527 15.6413 545.084 15.2027 544.598 14.764C544.122 14.3253 543.651 13.9287 543.184 13.574ZM539.894 12.23L541.014 12.58C540.818 12.9813 540.604 13.4013 540.37 13.84C540.146 14.2787 539.918 14.6987 539.684 15.1C539.451 15.492 539.232 15.842 539.026 16.15L538.158 15.828C538.354 15.5107 538.56 15.142 538.774 14.722C538.998 14.302 539.208 13.8727 539.404 13.434C539.6 12.9953 539.764 12.594 539.894 12.23ZM536.198 15.492C537.02 15.4733 537.981 15.45 539.082 15.422C540.193 15.3847 541.369 15.3473 542.61 15.31C543.861 15.2633 545.102 15.2167 546.334 15.17L546.292 16.122C545.088 16.1873 543.87 16.248 542.638 16.304C541.416 16.36 540.254 16.4113 539.152 16.458C538.06 16.5047 537.09 16.542 536.24 16.57L536.198 15.492ZM535.764 11.684H547.93V12.678H535.764V11.684ZM541.266 9.99H542.33V12.23H541.266V9.99ZM553.432 11.418H561.818V12.356H553.432V11.418ZM552.83 21.554H562.238V22.464H552.83V21.554ZM554.174 13.658H560.992V21.806H560.012V14.484H555.126V21.806H554.174V13.658ZM554.832 15.66H560.236V16.444H554.832V15.66ZM554.818 17.648H560.446V18.404H554.818V17.648ZM554.818 19.622H560.264V20.392H554.818V19.622ZM557.212 9.99L558.332 10.06C558.258 10.4987 558.169 10.9653 558.066 11.46C557.964 11.9453 557.861 12.412 557.758 12.86C557.656 13.2987 557.553 13.6813 557.45 14.008L556.54 13.91C556.624 13.574 556.708 13.1727 556.792 12.706C556.886 12.2393 556.97 11.768 557.044 11.292C557.119 10.816 557.175 10.382 557.212 9.99ZM552.522 10.004L553.488 10.312C553.199 11.096 552.863 11.8753 552.48 12.65C552.107 13.4153 551.696 14.1387 551.248 14.82C550.8 15.5013 550.338 16.108 549.862 16.64C549.825 16.556 549.769 16.4487 549.694 16.318C549.629 16.1873 549.559 16.0567 549.484 15.926C549.41 15.786 549.34 15.674 549.274 15.59C549.704 15.1327 550.119 14.6053 550.52 14.008C550.922 13.4107 551.295 12.7713 551.64 12.09C551.986 11.4087 552.28 10.7133 552.522 10.004ZM551.052 13.672L552.018 12.678L552.032 12.692V22.87H551.052V13.672ZM563.372 17.466H570.26V18.334H563.372V17.466ZM563.456 12.566H570.204V13.434H563.456V12.566ZM565.976 16.248L566.97 16.472C566.756 16.92 566.518 17.4007 566.256 17.914C566.004 18.418 565.752 18.908 565.5 19.384C565.258 19.8507 565.029 20.2707 564.814 20.644L563.89 20.322C564.096 19.9673 564.324 19.5567 564.576 19.09C564.828 18.6233 565.076 18.1427 565.318 17.648C565.57 17.144 565.79 16.6773 565.976 16.248ZM568.076 17.984L569.056 18.11C568.944 18.7913 568.758 19.3933 568.496 19.916C568.244 20.4293 567.908 20.8773 567.488 21.26C567.078 21.6333 566.574 21.9507 565.976 22.212C565.388 22.4733 564.688 22.6927 563.876 22.87C563.839 22.73 563.774 22.576 563.68 22.408C563.596 22.24 563.508 22.1 563.414 21.988C564.394 21.82 565.202 21.5773 565.836 21.26C566.471 20.9333 566.966 20.504 567.32 19.972C567.684 19.4307 567.936 18.768 568.076 17.984ZM568.958 10.256L569.868 10.648C569.663 10.9747 569.448 11.3013 569.224 11.628C569.01 11.9547 568.804 12.2347 568.608 12.468L567.894 12.118C568.072 11.8753 568.263 11.5767 568.468 11.222C568.674 10.858 568.837 10.536 568.958 10.256ZM566.354 9.976H567.334V16.416H566.354V9.976ZM563.988 10.648L564.772 10.326C564.978 10.606 565.164 10.914 565.332 11.25C565.51 11.586 565.631 11.88 565.696 12.132L564.856 12.496C564.8 12.2533 564.688 11.9593 564.52 11.614C564.352 11.2593 564.175 10.9373 563.988 10.648ZM566.382 12.958L567.082 13.364C566.858 13.756 566.569 14.148 566.214 14.54C565.869 14.932 565.491 15.296 565.08 15.632C564.679 15.9587 564.278 16.234 563.876 16.458C563.82 16.3367 563.736 16.1967 563.624 16.038C563.512 15.8793 563.405 15.7533 563.302 15.66C563.694 15.4827 564.086 15.254 564.478 14.974C564.87 14.694 565.234 14.3767 565.57 14.022C565.906 13.6673 566.177 13.3127 566.382 12.958ZM567.222 13.434C567.344 13.4993 567.526 13.6067 567.768 13.756C568.02 13.9053 568.286 14.0687 568.566 14.246C568.846 14.4233 569.103 14.5867 569.336 14.736C569.57 14.8853 569.738 15.002 569.84 15.086L569.252 15.842C569.131 15.73 568.958 15.5853 568.734 15.408C568.51 15.2307 568.268 15.044 568.006 14.848C567.754 14.652 567.512 14.4653 567.278 14.288C567.045 14.1107 566.854 13.9753 566.704 13.882L567.222 13.434ZM571.282 12.566H576.266V13.546H571.282V12.566ZM571.632 9.976L572.682 10.13C572.533 11.0447 572.337 11.9267 572.094 12.776C571.861 13.616 571.586 14.4 571.268 15.128C570.951 15.8467 570.587 16.4767 570.176 17.018C570.12 16.9527 570.041 16.878 569.938 16.794C569.836 16.7007 569.724 16.612 569.602 16.528C569.49 16.4347 569.397 16.36 569.322 16.304C569.714 15.8093 570.06 15.2307 570.358 14.568C570.657 13.896 570.909 13.1727 571.114 12.398C571.329 11.614 571.502 10.8067 571.632 9.976ZM574.376 13.126L575.454 13.238C575.23 14.8527 574.894 16.2713 574.446 17.494C574.008 18.7167 573.41 19.7713 572.654 20.658C571.908 21.5447 570.946 22.296 569.77 22.912C569.733 22.8187 569.677 22.7113 569.602 22.59C569.528 22.478 569.448 22.3613 569.364 22.24C569.29 22.128 569.215 22.0347 569.14 21.96C570.251 21.4373 571.156 20.7747 571.856 19.972C572.556 19.16 573.102 18.1893 573.494 17.06C573.896 15.9213 574.19 14.61 574.376 13.126ZM571.842 13.434C572.048 14.722 572.337 15.9307 572.71 17.06C573.093 18.18 573.588 19.1647 574.194 20.014C574.801 20.854 575.538 21.5027 576.406 21.96C576.322 22.0347 576.229 22.1233 576.126 22.226C576.033 22.3287 575.944 22.436 575.86 22.548C575.776 22.66 575.706 22.7673 575.65 22.87C574.745 22.3287 573.98 21.6053 573.354 20.7C572.729 19.7853 572.22 18.726 571.828 17.522C571.436 16.318 571.124 15.0067 570.89 13.588L571.842 13.434ZM564.73 20.14L565.276 19.426C565.836 19.6313 566.392 19.8693 566.942 20.14C567.493 20.4013 568.006 20.672 568.482 20.952C568.958 21.232 569.364 21.5027 569.7 21.764L568.972 22.52C568.655 22.2493 568.268 21.974 567.81 21.694C567.353 21.414 566.858 21.1387 566.326 20.868C565.804 20.5973 565.272 20.3547 564.73 20.14ZM583.826 14.134C583.546 14.134 583.299 14.0407 583.084 13.854C582.87 13.658 582.762 13.4013 582.762 13.084C582.762 12.7667 582.87 12.5147 583.084 12.328C583.299 12.132 583.546 12.034 583.826 12.034C584.106 12.034 584.354 12.132 584.568 12.328C584.783 12.5147 584.89 12.7667 584.89 13.084C584.89 13.4013 584.783 13.658 584.568 13.854C584.354 14.0407 584.106 14.134 583.826 14.134ZM583.826 20.994C583.546 20.994 583.299 20.9007 583.084 20.714C582.87 20.518 582.762 20.2613 582.762 19.944C582.762 19.6173 582.87 19.3607 583.084 19.174C583.299 18.978 583.546 18.88 583.826 18.88C584.106 18.88 584.354 18.978 584.568 19.174C584.783 19.3607 584.89 19.6173 584.89 19.944C584.89 20.2613 584.783 20.518 584.568 20.714C584.354 20.9007 584.106 20.994 583.826 20.994Z" fill="#1E90FF"/>
<path d="M649.593 25.25V11.25H650.405V25.25H649.593ZM652.97 25.25V11.25H653.782V25.25H652.97ZM661.989 10.998C661.709 11.4273 661.359 11.88 660.939 12.356C660.528 12.832 660.071 13.308 659.567 13.784C659.063 14.26 658.526 14.7173 657.957 15.156C657.387 15.5947 656.804 15.9913 656.207 16.346C656.16 16.262 656.099 16.1733 656.025 16.08C655.95 15.9773 655.871 15.8747 655.787 15.772C655.703 15.6693 655.623 15.5853 655.549 15.52C656.155 15.1747 656.748 14.778 657.327 14.33C657.905 13.882 658.451 13.4107 658.965 12.916C659.487 12.412 659.959 11.908 660.379 11.404C660.799 10.9 661.144 10.4147 661.415 9.948H662.465C662.829 10.4707 663.249 10.9933 663.725 11.516C664.201 12.0293 664.709 12.524 665.251 13C665.801 13.476 666.361 13.9193 666.931 14.33C667.509 14.7313 668.069 15.0767 668.611 15.366C668.48 15.4873 668.354 15.632 668.233 15.8C668.111 15.9587 668.004 16.1173 667.911 16.276C667.369 15.9493 666.814 15.576 666.245 15.156C665.685 14.736 665.139 14.2927 664.607 13.826C664.075 13.35 663.585 12.874 663.137 12.398C662.689 11.9127 662.306 11.446 661.989 10.998ZM658.993 14.414H665.125V15.394H658.993V14.414ZM657.187 17.158H665.685V18.166H657.187V17.158ZM665.475 17.158H665.629L665.825 17.102L666.651 17.354C666.427 17.8673 666.165 18.4507 665.867 19.104C665.577 19.748 665.269 20.4013 664.943 21.064C664.625 21.7173 664.317 22.338 664.019 22.926L662.927 22.618C663.151 22.1887 663.384 21.7313 663.627 21.246C663.869 20.7513 664.107 20.2613 664.341 19.776C664.574 19.2907 664.789 18.8333 664.985 18.404C665.181 17.9747 665.344 17.606 665.475 17.298V17.158ZM671.523 10.942H680.707V22.646H679.587V11.992H672.601V22.716H671.523V10.942ZM672.251 15.786H680.063V16.822H672.251V15.786ZM672.223 20.756H680.077V21.806H672.223V20.756ZM686.237 16.528H693.923V17.382H686.237V16.528ZM686.237 18.81H693.923V19.65H686.237V18.81ZM686.237 21.134H693.965V22.072H686.237V21.134ZM683.815 11.922H696.345V12.902H683.815V11.922ZM685.411 14.204H694.721V22.87H693.629V15.142H686.461V22.87H685.411V14.204ZM689.541 12.426L690.829 12.524C690.698 12.9347 690.553 13.35 690.395 13.77C690.245 14.1807 690.105 14.5353 689.975 14.834L688.967 14.68C689.041 14.4653 689.116 14.2273 689.191 13.966C689.265 13.6953 689.331 13.4247 689.387 13.154C689.452 12.8833 689.503 12.6407 689.541 12.426ZM692.887 9.962L694.049 10.27C693.787 10.6433 693.512 11.0167 693.223 11.39C692.933 11.7633 692.667 12.0853 692.425 12.356L691.515 12.048C691.673 11.852 691.837 11.6327 692.005 11.39C692.173 11.1473 692.331 10.9047 692.481 10.662C692.639 10.41 692.775 10.1767 692.887 9.962ZM686.251 10.34L687.175 9.934C687.436 10.186 687.688 10.4707 687.931 10.788C688.183 11.096 688.374 11.3667 688.505 11.6L687.539 12.104C687.417 11.8613 687.231 11.5767 686.979 11.25C686.736 10.914 686.493 10.6107 686.251 10.34ZM705.319 16.85H706.369V21.26C706.369 21.4747 706.406 21.6147 706.481 21.68C706.565 21.736 706.742 21.764 707.013 21.764C707.078 21.764 707.19 21.764 707.349 21.764C707.507 21.764 707.685 21.764 707.881 21.764C708.086 21.764 708.273 21.764 708.441 21.764C708.609 21.764 708.735 21.764 708.819 21.764C709.015 21.764 709.159 21.708 709.253 21.596C709.346 21.484 709.411 21.2553 709.449 20.91C709.486 20.5647 709.514 20.042 709.533 19.342C709.607 19.398 709.701 19.4587 709.813 19.524C709.934 19.58 710.055 19.6313 710.177 19.678C710.298 19.7153 710.405 19.7527 710.499 19.79C710.471 20.574 710.405 21.1853 710.303 21.624C710.209 22.0533 710.051 22.352 709.827 22.52C709.612 22.688 709.304 22.772 708.903 22.772C708.837 22.772 708.711 22.772 708.525 22.772C708.338 22.772 708.128 22.772 707.895 22.772C707.671 22.772 707.465 22.772 707.279 22.772C707.092 22.772 706.966 22.772 706.901 22.772C706.481 22.772 706.154 22.7253 705.921 22.632C705.697 22.548 705.538 22.394 705.445 22.17C705.361 21.9553 705.319 21.652 705.319 21.26V16.85ZM701.693 16.934H702.785C702.729 17.69 702.626 18.3807 702.477 19.006C702.337 19.6313 702.103 20.1867 701.777 20.672C701.459 21.1573 701.021 21.582 700.461 21.946C699.901 22.31 699.177 22.6133 698.291 22.856C698.253 22.7627 698.197 22.66 698.123 22.548C698.057 22.436 697.983 22.324 697.899 22.212C697.824 22.1093 697.745 22.0253 697.661 21.96C698.482 21.7547 699.145 21.5027 699.649 21.204C700.162 20.896 700.554 20.5367 700.825 20.126C701.105 19.7153 701.305 19.244 701.427 18.712C701.548 18.18 701.637 17.5873 701.693 16.934ZM705.417 13.574L706.257 13.042C706.723 13.3873 707.199 13.7747 707.685 14.204C708.17 14.6333 708.623 15.0627 709.043 15.492C709.463 15.9213 709.799 16.3133 710.051 16.668L709.127 17.284C708.893 16.92 708.571 16.5187 708.161 16.08C707.759 15.6413 707.316 15.2027 706.831 14.764C706.355 14.3253 705.883 13.9287 705.417 13.574ZM702.127 12.23L703.247 12.58C703.051 12.9813 702.836 13.4013 702.603 13.84C702.379 14.2787 702.15 14.6987 701.917 15.1C701.683 15.492 701.464 15.842 701.259 16.15L700.391 15.828C700.587 15.5107 700.792 15.142 701.007 14.722C701.231 14.302 701.441 13.8727 701.637 13.434C701.833 12.9953 701.996 12.594 702.127 12.23ZM698.431 15.492C699.252 15.4733 700.213 15.45 701.315 15.422C702.425 15.3847 703.601 15.3473 704.843 15.31C706.093 15.2633 707.335 15.2167 708.567 15.17L708.525 16.122C707.321 16.1873 706.103 16.248 704.871 16.304C703.648 16.36 702.486 16.4113 701.385 16.458C700.293 16.5047 699.322 16.542 698.473 16.57L698.431 15.492ZM697.997 11.684H710.163V12.678H697.997V11.684ZM703.499 9.99H704.563V12.23H703.499V9.99ZM717.331 10.424H718.507C718.488 10.788 718.455 11.2687 718.409 11.866C718.362 12.4633 718.273 13.14 718.143 13.896C718.021 14.6427 717.83 15.422 717.569 16.234C717.307 17.046 716.957 17.8487 716.519 18.642C716.08 19.4353 715.52 20.1867 714.839 20.896C714.167 21.6053 713.345 22.2213 712.375 22.744C712.291 22.6133 712.169 22.4733 712.011 22.324C711.852 22.1747 711.689 22.044 711.521 21.932C712.482 21.4373 713.289 20.8587 713.943 20.196C714.596 19.5333 715.133 18.824 715.553 18.068C715.973 17.312 716.299 16.5513 716.533 15.786C716.766 15.0113 716.939 14.274 717.051 13.574C717.163 12.874 717.233 12.2533 717.261 11.712C717.298 11.1613 717.321 10.732 717.331 10.424ZM718.451 10.704C718.46 10.8627 718.479 11.138 718.507 11.53C718.544 11.9127 718.609 12.3793 718.703 12.93C718.796 13.4807 718.931 14.078 719.109 14.722C719.286 15.366 719.524 16.0287 719.823 16.71C720.121 17.3913 720.49 18.054 720.929 18.698C721.367 19.342 721.895 19.9393 722.511 20.49C723.127 21.0313 723.85 21.4887 724.681 21.862C724.522 21.9833 724.368 22.1233 724.219 22.282C724.079 22.45 723.962 22.604 723.869 22.744C723.029 22.3427 722.287 21.8527 721.643 21.274C721.008 20.686 720.462 20.0513 720.005 19.37C719.557 18.6793 719.179 17.9747 718.871 17.256C718.572 16.5373 718.329 15.8373 718.143 15.156C717.956 14.4653 717.816 13.826 717.723 13.238C717.629 12.6407 717.564 12.132 717.527 11.712C717.489 11.2827 717.466 10.9747 717.457 10.788L718.451 10.704ZM732.059 14.134C731.779 14.134 731.531 14.0407 731.317 13.854C731.102 13.658 730.995 13.4013 730.995 13.084C730.995 12.7667 731.102 12.5147 731.317 12.328C731.531 12.132 731.779 12.034 732.059 12.034C732.339 12.034 732.586 12.132 732.801 12.328C733.015 12.5147 733.123 12.7667 733.123 13.084C733.123 13.4013 733.015 13.658 732.801 13.854C732.586 14.0407 732.339 14.134 732.059 14.134ZM732.059 20.994C731.779 20.994 731.531 20.9007 731.317 20.714C731.102 20.518 730.995 20.2613 730.995 19.944C730.995 19.6173 731.102 19.3607 731.317 19.174C731.531 18.978 731.779 18.88 732.059 18.88C732.339 18.88 732.586 18.978 732.801 19.174C733.015 19.3607 733.123 19.6173 733.123 19.944C733.123 20.2613 733.015 20.518 732.801 20.714C732.586 20.9007 732.339 20.994 732.059 20.994Z" fill="#1E90FF"/>
<path d="M780.71 25.25V11.25H781.522V25.25H780.71ZM784.087 25.25V11.25H784.899V25.25H784.087ZM795.909 10.998C795.629 11.4273 795.279 11.88 794.859 12.356C794.448 12.832 793.991 13.308 793.487 13.784C792.983 14.26 792.446 14.7173 791.877 15.156C791.307 15.5947 790.724 15.9913 790.127 16.346C790.08 16.262 790.019 16.1733 789.945 16.08C789.87 15.9773 789.791 15.8747 789.707 15.772C789.623 15.6693 789.543 15.5853 789.469 15.52C790.075 15.1747 790.668 14.778 791.247 14.33C791.825 13.882 792.371 13.4107 792.885 12.916C793.407 12.412 793.879 11.908 794.299 11.404C794.719 10.9 795.064 10.4147 795.335 9.948H796.385C796.749 10.4707 797.169 10.9933 797.645 11.516C798.121 12.0293 798.629 12.524 799.171 13C799.721 13.476 800.281 13.9193 800.851 14.33C801.429 14.7313 801.989 15.0767 802.531 15.366C802.4 15.4873 802.274 15.632 802.153 15.8C802.031 15.9587 801.924 16.1173 801.831 16.276C801.289 15.9493 800.734 15.576 800.165 15.156C799.605 14.736 799.059 14.2927 798.527 13.826C797.995 13.35 797.505 12.874 797.057 12.398C796.609 11.9127 796.226 11.446 795.909 10.998ZM792.913 14.414H799.045V15.394H792.913V14.414ZM791.107 17.158H799.605V18.166H791.107V17.158ZM799.395 17.158H799.549L799.745 17.102L800.571 17.354C800.347 17.8673 800.085 18.4507 799.787 19.104C799.497 19.748 799.189 20.4013 798.863 21.064C798.545 21.7173 798.237 22.338 797.939 22.926L796.847 22.618C797.071 22.1887 797.304 21.7313 797.547 21.246C797.789 20.7513 798.027 20.2613 798.261 19.776C798.494 19.2907 798.709 18.8333 798.905 18.404C799.101 17.9747 799.264 17.606 799.395 17.298V17.158ZM805.443 10.942H814.627V22.646H813.507V11.992H806.521V22.716H805.443V10.942ZM806.171 15.786H813.983V16.822H806.171V15.786ZM806.143 20.756H813.997V21.806H806.143V20.756ZM820.157 16.528H827.843V17.382H820.157V16.528ZM820.157 18.81H827.843V19.65H820.157V18.81ZM820.157 21.134H827.885V22.072H820.157V21.134ZM817.735 11.922H830.265V12.902H817.735V11.922ZM819.331 14.204H828.641V22.87H827.549V15.142H820.381V22.87H819.331V14.204ZM823.461 12.426L824.749 12.524C824.618 12.9347 824.473 13.35 824.315 13.77C824.165 14.1807 824.025 14.5353 823.895 14.834L822.887 14.68C822.961 14.4653 823.036 14.2273 823.111 13.966C823.185 13.6953 823.251 13.4247 823.307 13.154C823.372 12.8833 823.423 12.6407 823.461 12.426ZM826.807 9.962L827.969 10.27C827.707 10.6433 827.432 11.0167 827.143 11.39C826.853 11.7633 826.587 12.0853 826.345 12.356L825.435 12.048C825.593 11.852 825.757 11.6327 825.925 11.39C826.093 11.1473 826.251 10.9047 826.401 10.662C826.559 10.41 826.695 10.1767 826.807 9.962ZM820.171 10.34L821.095 9.934C821.356 10.186 821.608 10.4707 821.851 10.788C822.103 11.096 822.294 11.3667 822.425 11.6L821.459 12.104C821.337 11.8613 821.151 11.5767 820.899 11.25C820.656 10.914 820.413 10.6107 820.171 10.34ZM839.239 16.85H840.289V21.26C840.289 21.4747 840.326 21.6147 840.401 21.68C840.485 21.736 840.662 21.764 840.933 21.764C840.998 21.764 841.11 21.764 841.269 21.764C841.427 21.764 841.605 21.764 841.801 21.764C842.006 21.764 842.193 21.764 842.361 21.764C842.529 21.764 842.655 21.764 842.739 21.764C842.935 21.764 843.079 21.708 843.173 21.596C843.266 21.484 843.331 21.2553 843.369 20.91C843.406 20.5647 843.434 20.042 843.453 19.342C843.527 19.398 843.621 19.4587 843.733 19.524C843.854 19.58 843.975 19.6313 844.097 19.678C844.218 19.7153 844.325 19.7527 844.419 19.79C844.391 20.574 844.325 21.1853 844.223 21.624C844.129 22.0533 843.971 22.352 843.747 22.52C843.532 22.688 843.224 22.772 842.823 22.772C842.757 22.772 842.631 22.772 842.445 22.772C842.258 22.772 842.048 22.772 841.815 22.772C841.591 22.772 841.385 22.772 841.199 22.772C841.012 22.772 840.886 22.772 840.821 22.772C840.401 22.772 840.074 22.7253 839.841 22.632C839.617 22.548 839.458 22.394 839.365 22.17C839.281 21.9553 839.239 21.652 839.239 21.26V16.85ZM835.613 16.934H836.705C836.649 17.69 836.546 18.3807 836.397 19.006C836.257 19.6313 836.023 20.1867 835.697 20.672C835.379 21.1573 834.941 21.582 834.381 21.946C833.821 22.31 833.097 22.6133 832.211 22.856C832.173 22.7627 832.117 22.66 832.043 22.548C831.977 22.436 831.903 22.324 831.819 22.212C831.744 22.1093 831.665 22.0253 831.581 21.96C832.402 21.7547 833.065 21.5027 833.569 21.204C834.082 20.896 834.474 20.5367 834.745 20.126C835.025 19.7153 835.225 19.244 835.347 18.712C835.468 18.18 835.557 17.5873 835.613 16.934ZM839.337 13.574L840.177 13.042C840.643 13.3873 841.119 13.7747 841.605 14.204C842.09 14.6333 842.543 15.0627 842.963 15.492C843.383 15.9213 843.719 16.3133 843.971 16.668L843.047 17.284C842.813 16.92 842.491 16.5187 842.081 16.08C841.679 15.6413 841.236 15.2027 840.751 14.764C840.275 14.3253 839.803 13.9287 839.337 13.574ZM836.047 12.23L837.167 12.58C836.971 12.9813 836.756 13.4013 836.523 13.84C836.299 14.2787 836.07 14.6987 835.837 15.1C835.603 15.492 835.384 15.842 835.179 16.15L834.311 15.828C834.507 15.5107 834.712 15.142 834.927 14.722C835.151 14.302 835.361 13.8727 835.557 13.434C835.753 12.9953 835.916 12.594 836.047 12.23ZM832.351 15.492C833.172 15.4733 834.133 15.45 835.235 15.422C836.345 15.3847 837.521 15.3473 838.763 15.31C840.013 15.2633 841.255 15.2167 842.487 15.17L842.445 16.122C841.241 16.1873 840.023 16.248 838.791 16.304C837.568 16.36 836.406 16.4113 835.305 16.458C834.213 16.5047 833.242 16.542 832.393 16.57L832.351 15.492ZM831.917 11.684H844.083V12.678H831.917V11.684ZM837.419 9.99H838.483V12.23H837.419V9.99ZM851.923 10.998C851.54 11.5487 851.045 12.1227 850.439 12.72C849.841 13.308 849.174 13.8727 848.437 14.414C847.709 14.9553 846.948 15.436 846.155 15.856C846.108 15.772 846.047 15.6787 845.973 15.576C845.898 15.4733 845.819 15.3753 845.735 15.282C845.66 15.1793 845.581 15.0907 845.497 15.016C846.309 14.6147 847.088 14.134 847.835 13.574C848.591 13.0047 849.272 12.4073 849.879 11.782C850.485 11.1567 850.971 10.5547 851.335 9.976H852.399C852.772 10.4707 853.197 10.9607 853.673 11.446C854.149 11.9313 854.653 12.3887 855.185 12.818C855.726 13.238 856.277 13.6207 856.837 13.966C857.406 14.3113 857.966 14.6053 858.517 14.848C858.386 14.9787 858.26 15.128 858.139 15.296C858.017 15.464 857.91 15.6273 857.817 15.786C857.285 15.506 856.739 15.184 856.179 14.82C855.619 14.4467 855.073 14.05 854.541 13.63C854.018 13.2007 853.533 12.7667 853.085 12.328C852.637 11.88 852.249 11.4367 851.923 10.998ZM848.465 14.26H855.479V15.198H848.465V14.26ZM846.645 17.074H857.299V17.998H846.645V17.074ZM846.001 21.498H857.971V22.422H846.001V21.498ZM851.363 14.624H852.469V21.974H851.363V14.624ZM847.807 18.712L848.661 18.376C848.857 18.628 849.043 18.908 849.221 19.216C849.407 19.5147 849.571 19.8133 849.711 20.112C849.851 20.4013 849.949 20.6627 850.005 20.896L849.095 21.288C849.039 21.0547 848.945 20.7887 848.815 20.49C848.684 20.1913 848.53 19.888 848.353 19.58C848.175 19.272 847.993 18.9827 847.807 18.712ZM855.143 18.348L856.137 18.74C855.866 19.1787 855.577 19.636 855.269 20.112C854.97 20.5787 854.685 20.9707 854.415 21.288L853.631 20.952C853.799 20.7187 853.976 20.4527 854.163 20.154C854.349 19.846 854.527 19.5333 854.695 19.216C854.872 18.8987 855.021 18.6093 855.143 18.348ZM866.189 10.83H872.321V11.754H866.189V10.83ZM868.877 11.362L869.787 11.586C869.656 11.95 869.521 12.3187 869.381 12.692C869.241 13.0653 869.105 13.3873 868.975 13.658L868.163 13.434C868.247 13.2473 868.331 13.0327 868.415 12.79C868.508 12.538 868.597 12.286 868.681 12.034C868.765 11.782 868.83 11.558 868.877 11.362ZM866.413 13.21H871.803V19.79H870.879V14.064H867.309V19.818H866.413V13.21ZM868.681 14.848H869.605C869.586 16.0053 869.535 17.0227 869.451 17.9C869.376 18.7773 869.217 19.538 868.975 20.182C868.732 20.8167 868.368 21.358 867.883 21.806C867.407 22.254 866.753 22.6273 865.923 22.926C865.876 22.814 865.797 22.6833 865.685 22.534C865.582 22.3847 865.484 22.268 865.391 22.184C866.147 21.9133 866.744 21.582 867.183 21.19C867.621 20.798 867.943 20.3173 868.149 19.748C868.363 19.1693 868.503 18.4787 868.569 17.676C868.634 16.8733 868.671 15.9307 868.681 14.848ZM869.311 20.574L869.871 19.93C870.179 20.1447 870.505 20.3827 870.851 20.644C871.196 20.9053 871.523 21.162 871.831 21.414C872.139 21.666 872.391 21.89 872.587 22.086L871.999 22.828C871.803 22.6227 871.551 22.3847 871.243 22.114C870.944 21.8527 870.622 21.5867 870.277 21.316C869.941 21.0453 869.619 20.798 869.311 20.574ZM859.833 11.334H865.937V13.448H864.985V12.202H860.757V13.448H859.833V11.334ZM860.743 18.488H865.125V22.744H864.145V19.342H861.695V22.772H860.743V18.488ZM861.107 21.456H864.579V22.31H861.107V21.456ZM861.961 12.664L862.913 12.832C862.633 13.42 862.273 14.008 861.835 14.596C861.396 15.184 860.836 15.716 860.155 16.192C860.117 16.1267 860.061 16.052 859.987 15.968C859.912 15.8747 859.837 15.7907 859.763 15.716C859.688 15.632 859.613 15.5713 859.539 15.534C860.145 15.1327 860.649 14.6707 861.051 14.148C861.461 13.6253 861.765 13.1307 861.961 12.664ZM862.087 13.644H864.621V14.47H861.681L862.087 13.644ZM864.425 13.644H864.635L864.831 13.602L865.405 13.98C865.059 14.7453 864.597 15.4313 864.019 16.038C863.449 16.6447 862.815 17.172 862.115 17.62C861.415 18.068 860.696 18.432 859.959 18.712C859.931 18.6187 859.889 18.5113 859.833 18.39C859.786 18.2687 859.735 18.152 859.679 18.04C859.632 17.928 859.581 17.8393 859.525 17.774C860.215 17.5407 860.883 17.2373 861.527 16.864C862.171 16.4813 862.745 16.0333 863.249 15.52C863.762 15.0067 864.154 14.442 864.425 13.826V13.644ZM861.975 10.256L862.927 10.032C863.076 10.284 863.23 10.5593 863.389 10.858C863.557 11.1567 863.687 11.4133 863.781 11.628L862.773 11.908C862.698 11.6933 862.581 11.432 862.423 11.124C862.273 10.8067 862.124 10.5173 861.975 10.256ZM861.065 15.926L861.737 15.296C862.082 15.464 862.451 15.6507 862.843 15.856C863.235 16.0613 863.622 16.2713 864.005 16.486C864.397 16.6913 864.765 16.8967 865.111 17.102C865.456 17.298 865.75 17.48 865.993 17.648L865.279 18.376C865.045 18.2173 864.761 18.0353 864.425 17.83C864.098 17.6153 863.739 17.4007 863.347 17.186C862.964 16.962 862.572 16.7427 862.171 16.528C861.779 16.304 861.41 16.1033 861.065 15.926ZM879.979 14.134C879.699 14.134 879.451 14.0407 879.237 13.854C879.022 13.658 878.915 13.4013 878.915 13.084C878.915 12.7667 879.022 12.5147 879.237 12.328C879.451 12.132 879.699 12.034 879.979 12.034C880.259 12.034 880.506 12.132 880.721 12.328C880.935 12.5147 881.043 12.7667 881.043 13.084C881.043 13.4013 880.935 13.658 880.721 13.854C880.506 14.0407 880.259 14.134 879.979 14.134ZM879.979 20.994C879.699 20.994 879.451 20.9007 879.237 20.714C879.022 20.518 878.915 20.2613 878.915 19.944C878.915 19.6173 879.022 19.3607 879.237 19.174C879.451 18.978 879.699 18.88 879.979 18.88C880.259 18.88 880.506 18.978 880.721 19.174C880.935 19.3607 881.043 19.6173 881.043 19.944C881.043 20.2613 880.935 20.518 880.721 20.714C880.506 20.9007 880.259 20.994 879.979 20.994Z" fill="#1E90FF"/>
<g opacity="0.65">
<path d="M251.148 3.71094C251.148 2.05408 252.492 0.710938 254.148 0.710938H314.914C316.571 0.710938 317.914 2.05408 317.914 3.71094V30.2812C317.914 31.9381 316.571 33.2812 314.914 33.2812H254.148C252.492 33.2812 251.148 31.9381 251.148 30.2812V3.71094Z" fill="#444C69"/>
<g clip-path="url(#clip3_16_11)">
<path d="M271.028 18.0238C271.395 17.6638 271.578 17.2271 271.578 16.7138C271.578 16.2005 271.395 15.7605 271.028 15.3938C270.668 15.0338 270.232 14.8538 269.718 14.8538C269.205 14.8538 268.768 15.0338 268.408 15.3938C268.042 15.7605 267.858 16.2005 267.858 16.7138C267.858 17.2271 268.042 17.6638 268.408 18.0238C268.768 18.3838 269.205 18.5638 269.718 18.5638C270.232 18.5638 270.668 18.3838 271.028 18.0238ZM275.288 15.9238V17.5338C275.288 17.5871 275.268 17.6405 275.228 17.6938C275.195 17.7471 275.148 17.7805 275.088 17.7938L273.748 17.9938C273.655 18.2538 273.558 18.4738 273.458 18.6538C273.632 18.8938 273.892 19.2271 274.238 19.6538C274.285 19.7138 274.308 19.7738 274.308 19.8338C274.308 19.9005 274.288 19.9571 274.248 20.0038C274.115 20.1838 273.875 20.4438 273.528 20.7838C273.182 21.1305 272.955 21.3038 272.848 21.3038C272.788 21.3038 272.725 21.2805 272.658 21.2338L271.658 20.4538C271.445 20.5671 271.225 20.6605 270.998 20.7338C270.918 21.3871 270.848 21.8371 270.788 22.0838C270.755 22.2171 270.668 22.2838 270.528 22.2838H268.918C268.845 22.2838 268.785 22.2638 268.738 22.2238C268.685 22.1838 268.658 22.1305 268.658 22.0638L268.448 20.7338C268.215 20.6538 267.998 20.5638 267.798 20.4638L266.778 21.2338C266.725 21.2805 266.662 21.3038 266.588 21.3038C266.522 21.3038 266.462 21.2771 266.408 21.2238C265.802 20.6705 265.405 20.2638 265.218 20.0038C265.185 19.9571 265.168 19.9005 265.168 19.8338C265.168 19.7805 265.185 19.7271 265.218 19.6738C265.292 19.5671 265.415 19.4038 265.588 19.1838C265.762 18.9638 265.895 18.7938 265.988 18.6738C265.855 18.4338 265.755 18.1938 265.688 17.9538L264.358 17.7638C264.298 17.7505 264.248 17.7205 264.208 17.6738C264.168 17.6205 264.148 17.5638 264.148 17.5038V15.8938C264.148 15.8338 264.168 15.7771 264.208 15.7238C264.248 15.6705 264.295 15.6405 264.348 15.6338L265.698 15.4238C265.765 15.2038 265.858 14.9838 265.978 14.7638C265.785 14.4838 265.525 14.1471 265.198 13.7538C265.152 13.7005 265.128 13.6438 265.128 13.5838C265.128 13.5371 265.148 13.4805 265.188 13.4138C265.315 13.2405 265.555 12.9805 265.908 12.6338C266.262 12.2938 266.488 12.1238 266.588 12.1238C266.655 12.1238 266.718 12.1471 266.778 12.1938L267.778 12.9638C267.992 12.8571 268.212 12.7671 268.438 12.6938C268.518 12.0338 268.592 11.5838 268.658 11.3438C268.692 11.2105 268.778 11.1438 268.918 11.1438H270.528C270.595 11.1438 270.652 11.1638 270.698 11.2038C270.752 11.2438 270.782 11.2938 270.788 11.3538L270.988 12.6938C271.228 12.7671 271.445 12.8571 271.638 12.9638L272.668 12.1838C272.715 12.1438 272.775 12.1238 272.848 12.1238C272.908 12.1238 272.968 12.1471 273.028 12.1938C273.655 12.7671 274.055 13.1771 274.228 13.4238C274.262 13.4638 274.278 13.5171 274.278 13.5838C274.278 13.6438 274.258 13.7005 274.218 13.7538C274.145 13.8538 274.022 14.0138 273.848 14.2338C273.675 14.4538 273.545 14.6238 273.458 14.7438C273.585 14.9838 273.682 15.2205 273.748 15.4538L275.078 15.6638C275.145 15.6705 275.195 15.7005 275.228 15.7538C275.268 15.8005 275.288 15.8571 275.288 15.9238Z" fill="white"/>
</g>
<path d="M278.744 11.1942H290.054V12.0782H278.744V11.1942ZM283.97 11.5712H284.984V16.6152C284.984 17.1179 284.945 17.6076 284.867 18.0842C284.789 18.5522 284.638 19.0029 284.412 19.4362C284.187 19.8696 283.858 20.2769 283.424 20.6582C282.991 21.0396 282.419 21.3819 281.708 21.6852C281.006 21.9886 280.135 22.2529 279.095 22.4782C279.061 22.4002 279.009 22.3092 278.939 22.2052C278.87 22.1012 278.796 21.9929 278.718 21.8802C278.649 21.7762 278.58 21.6896 278.51 21.6202C279.524 21.4296 280.365 21.2042 281.032 20.9442C281.7 20.6842 282.228 20.3939 282.618 20.0732C283.017 19.7439 283.312 19.3972 283.502 19.0332C283.693 18.6606 283.819 18.2706 283.879 17.8632C283.94 17.4559 283.97 17.0356 283.97 16.6022V11.5712ZM280.863 16.0822V17.4082H288.273V16.0822H280.863ZM280.863 14.0022V15.3022H288.273V14.0022H280.863ZM279.927 13.1832H289.248V18.2142H279.927V13.1832ZM281.175 18.3312C281.591 18.9726 282.09 19.4926 282.67 19.8912C283.251 20.2899 283.923 20.5976 284.685 20.8142C285.457 21.0309 286.323 21.1869 287.285 21.2822C288.247 21.3689 289.318 21.4296 290.496 21.4642C290.41 21.5769 290.323 21.7242 290.236 21.9062C290.158 22.0882 290.106 22.2616 290.08 22.4262C288.876 22.3742 287.775 22.2832 286.778 22.1532C285.782 22.0319 284.88 21.8369 284.074 21.5682C283.268 21.3082 282.553 20.9442 281.929 20.4762C281.305 20.0082 280.777 19.4059 280.343 18.6692L281.175 18.3312ZM294.162 13.3782L294.825 12.8062C295.146 12.9536 295.48 13.1269 295.826 13.3262C296.182 13.5256 296.511 13.7292 296.814 13.9372C297.126 14.1452 297.382 14.3402 297.581 14.5222L296.892 15.1592C296.702 14.9772 296.455 14.7822 296.151 14.5742C295.848 14.3576 295.523 14.1452 295.176 13.9372C294.83 13.7206 294.492 13.5342 294.162 13.3782ZM300.181 11.5972H300.376L300.545 11.5582L301.169 11.9352C300.745 12.6892 300.203 13.3739 299.544 13.9892C298.886 14.5959 298.149 15.1332 297.334 15.6012C296.528 16.0606 295.683 16.4549 294.799 16.7842C293.924 17.1049 293.057 17.3606 292.199 17.5512C292.156 17.4212 292.091 17.2739 292.004 17.1092C291.918 16.9359 291.831 16.7929 291.744 16.6802C292.568 16.5329 293.4 16.3162 294.24 16.0302C295.081 15.7356 295.887 15.3802 296.658 14.9642C297.43 14.5396 298.119 14.0586 298.725 13.5212C299.341 12.9839 299.826 12.3946 300.181 11.7532V11.5972ZM295.826 11.5972H300.415V12.4292H295.826V11.5972ZM296.788 10.4792L297.893 10.7132C297.287 11.4066 296.537 12.0652 295.644 12.6892C294.76 13.3132 293.716 13.8679 292.511 14.3532C292.468 14.2752 292.407 14.1886 292.329 14.0932C292.251 13.9979 292.169 13.9112 292.082 13.8332C291.996 13.7466 291.913 13.6772 291.835 13.6252C292.624 13.3479 293.335 13.0359 293.967 12.6892C294.6 12.3426 295.155 11.9786 295.631 11.5972C296.108 11.2159 296.494 10.8432 296.788 10.4792ZM295.826 18.1362L296.554 17.5772C296.892 17.7506 297.243 17.9542 297.607 18.1882C297.98 18.4136 298.327 18.6476 298.647 18.8902C298.968 19.1242 299.232 19.3496 299.44 19.5662L298.673 20.1902C298.483 19.9736 298.227 19.7482 297.906 19.5142C297.594 19.2716 297.256 19.0289 296.892 18.7862C296.528 18.5436 296.173 18.3269 295.826 18.1362ZM302.066 16.1472H302.274L302.456 16.1082L303.093 16.4592C302.677 17.4039 302.127 18.2229 301.442 18.9162C300.758 19.6096 299.973 20.1946 299.089 20.6712C298.205 21.1392 297.256 21.5206 296.242 21.8152C295.237 22.1099 294.206 22.3352 293.148 22.4912C293.114 22.3612 293.053 22.2052 292.966 22.0232C292.888 21.8499 292.806 21.7112 292.719 21.6072C293.725 21.4859 294.708 21.2952 295.67 21.0352C296.641 20.7666 297.542 20.4199 298.374 19.9952C299.215 19.5706 299.952 19.0549 300.584 18.4482C301.226 17.8329 301.72 17.1179 302.066 16.3032V16.1472ZM297.854 16.1472H302.326V16.9922H297.854V16.1472ZM298.894 14.9382L299.986 15.1852C299.328 15.9479 298.483 16.6716 297.451 17.3562C296.42 18.0409 295.189 18.6346 293.759 19.1372C293.725 19.0592 293.668 18.9726 293.59 18.8772C293.521 18.7819 293.447 18.6909 293.369 18.6042C293.3 18.5089 293.231 18.4352 293.161 18.3832C294.071 18.0886 294.899 17.7549 295.644 17.3822C296.39 17.0096 297.035 16.6109 297.581 16.1862C298.127 15.7616 298.565 15.3456 298.894 14.9382Z" fill="white"/>
<g opacity="0.65">
<path d="M181 4C181 2.34315 182.343 1 184 1H243.836C245.493 1 246.836 2.34315 246.836 4V30.5703C246.836 32.2272 245.493 33.5703 243.836 33.5703H184C182.343 33.5703 181 32.2272 181 30.5703V4Z" fill="#F75444"/>
<g clip-path="url(#clip4_16_11)">
<path d="M197.71 20.4829V15.3729C197.71 15.3062 197.69 15.2529 197.65 15.2129C197.603 15.1662 197.547 15.1429 197.48 15.1429H197.02C196.953 15.1429 196.897 15.1662 196.85 15.2129C196.81 15.2529 196.79 15.3062 196.79 15.3729V20.4829C196.79 20.5495 196.81 20.6062 196.85 20.6529C196.897 20.6929 196.953 20.7129 197.02 20.7129H197.48C197.547 20.7129 197.603 20.6929 197.65 20.6529C197.69 20.6062 197.71 20.5495 197.71 20.4829ZM199.57 20.4829V15.3729C199.57 15.3062 199.55 15.2529 199.51 15.2129C199.463 15.1662 199.407 15.1429 199.34 15.1429H198.88C198.807 15.1429 198.75 15.1662 198.71 15.2129C198.663 15.2529 198.64 15.3062 198.64 15.3729V20.4829C198.64 20.5495 198.663 20.6062 198.71 20.6529C198.75 20.6929 198.807 20.7129 198.88 20.7129H199.34C199.407 20.7129 199.463 20.6929 199.51 20.6529C199.55 20.6062 199.57 20.5495 199.57 20.4829ZM201.43 20.4829V15.3729C201.43 15.3062 201.407 15.2529 201.36 15.2129C201.32 15.1662 201.267 15.1429 201.2 15.1429H200.73C200.663 15.1429 200.61 15.1662 200.57 15.2129C200.523 15.2529 200.5 15.3062 200.5 15.3729V20.4829C200.5 20.5495 200.523 20.6062 200.57 20.6529C200.61 20.6929 200.663 20.7129 200.73 20.7129H201.2C201.267 20.7129 201.32 20.6929 201.36 20.6529C201.407 20.6062 201.43 20.5495 201.43 20.4829ZM197.84 12.4329L197.48 13.2829H200.73L200.38 12.4329C200.347 12.3929 200.307 12.3662 200.26 12.3529H197.96C197.913 12.3662 197.873 12.3929 197.84 12.4329ZM204.21 13.5129V13.9829C204.21 14.0495 204.19 14.1062 204.15 14.1529C204.103 14.1929 204.047 14.2129 203.98 14.2129H203.29V21.0929C203.29 21.4929 203.173 21.8395 202.94 22.1329C202.713 22.4262 202.443 22.5729 202.13 22.5729H196.09C195.77 22.5729 195.497 22.4295 195.27 22.1429C195.043 21.8629 194.93 21.5229 194.93 21.1229V14.2129H194.23C194.163 14.2129 194.11 14.1929 194.07 14.1529C194.023 14.1062 194 14.0495 194 13.9829V13.5129C194 13.4462 194.023 13.3929 194.07 13.3529C194.11 13.3062 194.163 13.2829 194.23 13.2829H196.47L196.98 12.0729C197.053 11.8929 197.183 11.7395 197.37 11.6129C197.563 11.4929 197.757 11.4329 197.95 11.4329H200.27C200.463 11.4329 200.653 11.4929 200.84 11.6129C201.027 11.7395 201.157 11.8929 201.23 12.0729L201.74 13.2829H203.98C204.047 13.2829 204.103 13.3062 204.15 13.3529C204.19 13.3929 204.21 13.4462 204.21 13.5129Z" fill="white"/>
</g>
<path d="M216.038 12.2373H216.831V19.5823H216.038V12.2373ZM217.923 11.0153H218.781V21.6493C218.781 21.918 218.747 22.1216 218.677 22.2603C218.608 22.4076 218.491 22.516 218.326 22.5853C218.162 22.6546 217.941 22.698 217.663 22.7153C217.395 22.7413 217.052 22.7543 216.636 22.7543C216.619 22.6416 216.58 22.4986 216.519 22.3253C216.467 22.1606 216.411 22.0133 216.35 21.8833C216.662 21.892 216.94 21.8963 217.182 21.8963C217.434 21.8963 217.603 21.8963 217.689 21.8963C217.776 21.8963 217.837 21.879 217.871 21.8443C217.906 21.8096 217.923 21.7446 217.923 21.6493V11.0153ZM208.537 11.2103H210.825V12.0813H208.537V11.2103ZM208.225 11.2103H209.044V17.4113C209.044 17.9833 209.023 18.5943 208.979 19.2443C208.936 19.8943 208.841 20.527 208.693 21.1423C208.555 21.7576 208.338 22.2993 208.043 22.7673C208 22.7153 207.935 22.6546 207.848 22.5853C207.762 22.5246 207.671 22.464 207.575 22.4033C207.48 22.3426 207.398 22.2993 207.328 22.2733C207.606 21.8313 207.805 21.3373 207.926 20.7913C208.056 20.2453 208.139 19.682 208.173 19.1013C208.208 18.512 208.225 17.9486 208.225 17.4113V11.2103ZM210.253 11.2103H211.072V21.5713C211.072 21.7966 211.046 21.9786 210.994 22.1173C210.942 22.256 210.843 22.36 210.695 22.4293C210.557 22.5073 210.375 22.555 210.149 22.5723C209.924 22.5983 209.638 22.6113 209.291 22.6113C209.283 22.49 209.252 22.3426 209.2 22.1693C209.148 22.0046 209.096 21.866 209.044 21.7533C209.278 21.762 209.491 21.762 209.681 21.7533C209.872 21.7533 210.002 21.7533 210.071 21.7533C210.141 21.7533 210.188 21.7403 210.214 21.7143C210.24 21.6796 210.253 21.6276 210.253 21.5583V11.2103ZM212.294 11.2103H214.569V12.0813H212.294V11.2103ZM211.982 11.2103H212.801V16.8393C212.801 17.29 212.788 17.7796 212.762 18.3083C212.745 18.8283 212.706 19.3526 212.645 19.8813C212.593 20.41 212.507 20.9213 212.385 21.4153C212.264 21.9006 212.108 22.3426 211.917 22.7413C211.865 22.698 211.796 22.646 211.709 22.5853C211.623 22.5333 211.532 22.4813 211.436 22.4293C211.35 22.3773 211.272 22.3383 211.202 22.3123C211.384 21.931 211.527 21.515 211.631 21.0643C211.744 20.6136 211.822 20.1456 211.865 19.6603C211.917 19.1663 211.948 18.681 211.956 18.2043C211.974 17.7276 211.982 17.277 211.982 16.8523V11.2103ZM214.01 11.2103H214.829V21.5713C214.829 21.7966 214.803 21.9786 214.751 22.1173C214.699 22.256 214.6 22.3643 214.452 22.4423C214.322 22.5116 214.145 22.555 213.919 22.5723C213.694 22.5983 213.404 22.6113 213.048 22.6113C213.04 22.49 213.009 22.3426 212.957 22.1693C212.914 22.0046 212.862 21.866 212.801 21.7533C213.035 21.762 213.248 21.7663 213.438 21.7663C213.629 21.7663 213.759 21.7663 213.828 21.7663C213.898 21.7576 213.945 21.7403 213.971 21.7143C213.997 21.6883 214.01 21.6363 214.01 21.5583V11.2103ZM207.393 15.8643H215.505V16.7613H207.393V15.8643ZM225.749 14.5903H230.793V15.4223H225.749V14.5903ZM224.878 17.0473H231.807V17.8923H224.878V17.0473ZM228.206 11.7173C227.964 12.1246 227.652 12.5493 227.27 12.9913C226.889 13.4246 226.469 13.845 226.009 14.2523C225.559 14.651 225.082 15.0063 224.579 15.3183C224.527 15.197 224.454 15.0626 224.358 14.9153C224.263 14.768 224.172 14.6466 224.085 14.5513C224.579 14.2566 225.06 13.9056 225.528 13.4983C225.996 13.0823 226.421 12.6446 226.802 12.1853C227.184 11.7173 227.491 11.2623 227.725 10.8203H228.609C228.93 11.297 229.298 11.765 229.714 12.2243C230.139 12.6836 230.585 13.104 231.053 13.4853C231.53 13.8666 231.998 14.183 232.457 14.4343C232.371 14.547 232.275 14.6813 232.171 14.8373C232.067 14.9846 231.981 15.1233 231.911 15.2533C231.469 14.9673 231.014 14.6293 230.546 14.2393C230.078 13.8493 229.641 13.4376 229.233 13.0043C228.835 12.5623 228.492 12.1333 228.206 11.7173ZM227.764 14.9933H228.7V21.6493C228.7 21.9006 228.666 22.1 228.596 22.2473C228.536 22.3946 228.419 22.5073 228.245 22.5853C228.081 22.6633 227.86 22.711 227.582 22.7283C227.305 22.7456 226.963 22.7543 226.555 22.7543C226.538 22.633 226.495 22.4813 226.425 22.2993C226.365 22.126 226.3 21.9743 226.23 21.8443C226.534 21.853 226.807 21.8573 227.049 21.8573C227.301 21.8573 227.47 21.8573 227.556 21.8573C227.643 21.8486 227.699 21.8313 227.725 21.8053C227.751 21.7793 227.764 21.723 227.764 21.6363V14.9933ZM225.736 18.5943L226.594 18.8023C226.386 19.3916 226.109 19.968 225.762 20.5313C225.424 21.086 225.069 21.554 224.696 21.9353C224.644 21.8833 224.575 21.8226 224.488 21.7533C224.41 21.684 224.324 21.6146 224.228 21.5453C224.142 21.4673 224.064 21.4066 223.994 21.3633C224.358 21.0166 224.692 20.6006 224.995 20.1153C225.299 19.6213 225.546 19.1143 225.736 18.5943ZM229.649 18.9323L230.39 18.5683C230.633 18.863 230.871 19.188 231.105 19.5433C231.339 19.89 231.556 20.228 231.755 20.5573C231.955 20.8866 232.111 21.1856 232.223 21.4543L231.417 21.8703C231.313 21.6103 231.162 21.3113 230.962 20.9733C230.772 20.6266 230.564 20.2756 230.338 19.9203C230.113 19.565 229.883 19.2356 229.649 18.9323ZM220.874 11.3533H223.929V12.2373H221.745V22.7543H220.874V11.3533ZM223.643 11.3533H223.812L223.955 11.3143L224.592 11.6913C224.462 12.0466 224.324 12.428 224.176 12.8353C224.038 13.234 223.89 13.6326 223.734 14.0313C223.587 14.4213 223.44 14.7896 223.292 15.1363C223.769 15.6736 224.081 16.1763 224.228 16.6443C224.384 17.1036 224.462 17.537 224.462 17.9443C224.462 18.291 224.419 18.5943 224.332 18.8543C224.254 19.1143 224.124 19.3093 223.942 19.4393C223.856 19.5 223.752 19.552 223.63 19.5953C223.518 19.63 223.396 19.656 223.266 19.6733C222.998 19.6993 222.707 19.708 222.395 19.6993C222.387 19.578 222.361 19.435 222.317 19.2703C222.283 19.1056 222.226 18.9626 222.148 18.8413C222.296 18.85 222.434 18.8543 222.564 18.8543C222.694 18.8543 222.807 18.8543 222.902 18.8543C223.076 18.8456 223.214 18.8066 223.318 18.7373C223.422 18.6593 223.492 18.5423 223.526 18.3863C223.57 18.2216 223.591 18.044 223.591 17.8533C223.591 17.4893 223.509 17.095 223.344 16.6703C223.188 16.237 222.876 15.7646 222.408 15.2533C222.53 14.9586 222.647 14.6466 222.759 14.3173C222.881 13.9793 222.993 13.65 223.097 13.3293C223.21 13 223.31 12.688 223.396 12.3933C223.492 12.0986 223.574 11.843 223.643 11.6263V11.3533Z" fill="white"/>
</g>
</g>
<path d="M430.695 11.5312C430.695 10.0815 431.871 8.90625 433.32 8.90625H501.398C502.848 8.90625 504.023 10.0815 504.023 11.5312V23.0234C504.023 24.4732 502.848 25.6484 501.398 25.6484H433.32C431.871 25.6484 430.695 24.4732 430.695 23.0234V11.5312Z" fill="#F39C12"/>
<path d="M437.727 20V18.7505H439.176V14.897H437.927V13.9415C438.291 13.8715 438.599 13.7875 438.851 13.6895C439.103 13.5915 439.348 13.4725 439.586 13.3325H440.72V18.7505H441.969V20H437.727ZM443.275 20V18.7505H444.724V14.897H443.474V13.9415C443.838 13.8715 444.146 13.7875 444.398 13.6895C444.65 13.5915 444.895 13.4725 445.133 13.3325H446.267V18.7505H447.517V20H443.275ZM450.974 16.9235C450.799 16.9235 450.621 16.976 450.439 17.081C450.264 17.179 450.106 17.347 449.966 17.585C450.036 18.11 450.169 18.474 450.365 18.677C450.561 18.873 450.775 18.971 451.006 18.971C451.237 18.971 451.433 18.887 451.594 18.719C451.762 18.544 451.846 18.2675 451.846 17.8895C451.846 17.5395 451.762 17.291 451.594 17.144C451.433 16.997 451.226 16.9235 450.974 16.9235ZM451.037 20.126C450.61 20.126 450.204 20.014 449.819 19.79C449.434 19.559 449.119 19.202 448.874 18.719C448.636 18.229 448.517 17.5955 448.517 16.8185C448.517 15.9855 448.643 15.303 448.895 14.771C449.154 14.239 449.487 13.847 449.893 13.595C450.306 13.336 450.747 13.2065 451.216 13.2065C451.657 13.2065 452.038 13.287 452.36 13.448C452.682 13.602 452.948 13.7875 453.158 14.0045L452.35 14.9285C452.238 14.8025 452.084 14.694 451.888 14.603C451.699 14.505 451.506 14.456 451.31 14.456C451.065 14.456 450.841 14.5225 450.638 14.6555C450.435 14.7815 450.271 14.9985 450.145 15.3065C450.026 15.6075 449.956 16.017 449.935 16.535C450.11 16.311 450.323 16.1395 450.575 16.0205C450.834 15.8945 451.065 15.8315 451.268 15.8315C451.842 15.8315 452.315 15.9995 452.686 16.3355C453.064 16.6645 453.253 17.1825 453.253 17.8895C453.253 18.3515 453.151 18.7505 452.948 19.0865C452.745 19.4155 452.476 19.671 452.14 19.853C451.811 20.035 451.443 20.126 451.037 20.126ZM456.186 20.126C455.647 20.126 455.185 20.0385 454.8 19.8635C454.422 19.6885 454.11 19.461 453.865 19.181L454.579 18.2045C454.782 18.4005 455.006 18.5615 455.251 18.6875C455.496 18.8135 455.759 18.8765 456.039 18.8765C456.368 18.8765 456.63 18.81 456.826 18.677C457.022 18.537 457.12 18.341 457.12 18.089C457.12 17.893 457.071 17.725 456.973 17.585C456.875 17.438 456.697 17.326 456.438 17.249C456.179 17.172 455.808 17.1335 455.325 17.1335V16.0415C455.927 16.0415 456.34 15.961 456.564 15.8C456.788 15.632 456.9 15.415 456.9 15.149C456.9 14.918 456.83 14.7395 456.69 14.6135C456.55 14.4805 456.347 14.414 456.081 14.414C455.843 14.414 455.626 14.4665 455.43 14.5715C455.241 14.6765 455.041 14.82 454.831 15.002L454.054 14.057C454.362 13.791 454.688 13.5845 455.031 13.4375C455.374 13.2835 455.748 13.2065 456.154 13.2065C456.84 13.2065 457.393 13.3675 457.813 13.6895C458.24 14.0045 458.454 14.4525 458.454 15.0335C458.454 15.3765 458.356 15.6705 458.16 15.9155C457.971 16.1605 457.698 16.36 457.341 16.514V16.556C457.726 16.668 458.041 16.8605 458.286 17.1335C458.538 17.3995 458.664 17.7495 458.664 18.1835C458.664 18.5965 458.548 18.95 458.317 19.244C458.093 19.531 457.792 19.7515 457.414 19.9055C457.043 20.0525 456.634 20.126 456.186 20.126ZM460.862 17.228H462.269V16.1465C462.269 15.9295 462.276 15.681 462.29 15.401C462.311 15.114 462.325 14.8655 462.332 14.6555H462.29C462.206 14.8375 462.118 15.023 462.027 15.212C461.936 15.401 461.842 15.59 461.744 15.779L460.862 17.228ZM462.269 20V18.404H459.381V17.3435L461.817 13.3325H463.707V17.228H464.474V18.404H463.707V20H462.269ZM467.617 16.9235C467.442 16.9235 467.263 16.976 467.081 17.081C466.906 17.179 466.749 17.347 466.609 17.585C466.679 18.11 466.812 18.474 467.008 18.677C467.204 18.873 467.417 18.971 467.648 18.971C467.879 18.971 468.075 18.887 468.236 18.719C468.404 18.544 468.488 18.2675 468.488 17.8895C468.488 17.5395 468.404 17.291 468.236 17.144C468.075 16.997 467.869 16.9235 467.617 16.9235ZM467.68 20.126C467.253 20.126 466.847 20.014 466.462 19.79C466.077 19.559 465.762 19.202 465.517 18.719C465.279 18.229 465.16 17.5955 465.16 16.8185C465.16 15.9855 465.286 15.303 465.538 14.771C465.797 14.239 466.129 13.847 466.535 13.595C466.948 13.336 467.389 13.2065 467.858 13.2065C468.299 13.2065 468.681 13.287 469.003 13.448C469.325 13.602 469.591 13.7875 469.801 14.0045L468.992 14.9285C468.88 14.8025 468.726 14.694 468.53 14.603C468.341 14.505 468.149 14.456 467.953 14.456C467.708 14.456 467.484 14.5225 467.281 14.6555C467.078 14.7815 466.913 14.9985 466.787 15.3065C466.668 15.6075 466.598 16.017 466.577 16.535C466.752 16.311 466.966 16.1395 467.218 16.0205C467.477 15.8945 467.708 15.8315 467.911 15.8315C468.485 15.8315 468.957 15.9995 469.328 16.3355C469.706 16.6645 469.895 17.1825 469.895 17.8895C469.895 18.3515 469.794 18.7505 469.591 19.0865C469.388 19.4155 469.118 19.671 468.782 19.853C468.453 20.035 468.086 20.126 467.68 20.126ZM471.946 20C471.988 19.258 472.068 18.593 472.187 18.005C472.306 17.417 472.488 16.8535 472.733 16.3145C472.978 15.7755 473.311 15.2155 473.731 14.6345H470.738V13.3325H475.379V14.2775C474.994 14.7465 474.683 15.1875 474.445 15.6005C474.214 16.0135 474.032 16.437 473.899 16.871C473.773 17.298 473.682 17.7635 473.626 18.2675C473.57 18.7715 473.528 19.349 473.5 20H471.946ZM478.596 20.126C477.882 20.126 477.304 19.8285 476.863 19.2335C476.429 18.6385 476.212 17.774 476.212 16.64C476.212 15.506 476.429 14.652 476.863 14.078C477.304 13.497 477.882 13.2065 478.596 13.2065C479.31 13.2065 479.884 13.497 480.318 14.078C480.759 14.652 480.979 15.506 480.979 16.64C480.979 17.774 480.759 18.6385 480.318 19.2335C479.884 19.8285 479.31 20.126 478.596 20.126ZM478.596 18.929C478.771 18.929 478.928 18.866 479.068 18.74C479.208 18.607 479.317 18.376 479.394 18.047C479.478 17.718 479.52 17.249 479.52 16.64C479.52 16.031 479.478 15.5655 479.394 15.2435C479.317 14.9215 479.208 14.701 479.068 14.582C478.928 14.463 478.771 14.4035 478.596 14.4035C478.428 14.4035 478.274 14.463 478.134 14.582C477.994 14.701 477.882 14.9215 477.798 15.2435C477.714 15.5655 477.672 16.031 477.672 16.64C477.672 17.249 477.714 17.718 477.798 18.047C477.882 18.376 477.994 18.607 478.134 18.74C478.274 18.866 478.428 18.929 478.596 18.929ZM482.946 20.126C482.68 20.126 482.456 20.035 482.274 19.853C482.099 19.664 482.012 19.433 482.012 19.16C482.012 18.88 482.099 18.649 482.274 18.467C482.456 18.278 482.68 18.1835 482.946 18.1835C483.212 18.1835 483.433 18.278 483.608 18.467C483.79 18.649 483.881 18.88 483.881 19.16C483.881 19.433 483.79 19.664 483.608 19.853C483.433 20.035 483.212 20.126 482.946 20.126ZM487.407 16.9235C487.232 16.9235 487.053 16.976 486.871 17.081C486.696 17.179 486.539 17.347 486.399 17.585C486.469 18.11 486.602 18.474 486.798 18.677C486.994 18.873 487.207 18.971 487.438 18.971C487.669 18.971 487.865 18.887 488.026 18.719C488.194 18.544 488.278 18.2675 488.278 17.8895C488.278 17.5395 488.194 17.291 488.026 17.144C487.865 16.997 487.659 16.9235 487.407 16.9235ZM487.47 20.126C487.043 20.126 486.637 20.014 486.252 19.79C485.867 19.559 485.552 19.202 485.307 18.719C485.069 18.229 484.95 17.5955 484.95 16.8185C484.95 15.9855 485.076 15.303 485.328 14.771C485.587 14.239 485.919 13.847 486.325 13.595C486.738 13.336 487.179 13.2065 487.648 13.2065C488.089 13.2065 488.471 13.287 488.793 13.448C489.115 13.602 489.381 13.7875 489.591 14.0045L488.782 14.9285C488.67 14.8025 488.516 14.694 488.32 14.603C488.131 14.505 487.939 14.456 487.743 14.456C487.498 14.456 487.274 14.5225 487.071 14.6555C486.868 14.7815 486.703 14.9985 486.577 15.3065C486.458 15.6075 486.388 16.017 486.367 16.535C486.542 16.311 486.756 16.1395 487.008 16.0205C487.267 15.8945 487.498 15.8315 487.701 15.8315C488.275 15.8315 488.747 15.9995 489.118 16.3355C489.496 16.6645 489.685 17.1825 489.685 17.8895C489.685 18.3515 489.584 18.7505 489.381 19.0865C489.178 19.4155 488.908 19.671 488.572 19.853C488.243 20.035 487.876 20.126 487.47 20.126ZM492.828 20.126C492.387 20.126 491.991 20.049 491.641 19.895C491.291 19.741 491.015 19.5275 490.812 19.2545C490.609 18.9745 490.507 18.656 490.507 18.299C490.507 17.893 490.616 17.5605 490.833 17.3015C491.057 17.0425 491.326 16.829 491.641 16.661V16.619C491.382 16.423 491.169 16.199 491.001 15.947C490.833 15.695 490.749 15.394 490.749 15.044C490.749 14.666 490.84 14.3405 491.022 14.0675C491.204 13.7875 491.456 13.574 491.778 13.427C492.1 13.28 492.467 13.2065 492.88 13.2065C493.489 13.2065 493.979 13.3745 494.35 13.7105C494.721 14.0395 494.907 14.4805 494.907 15.0335C494.907 15.3555 494.819 15.6425 494.644 15.8945C494.469 16.1395 494.266 16.339 494.035 16.493V16.535C494.357 16.71 494.63 16.934 494.854 17.207C495.078 17.48 495.19 17.837 495.19 18.278C495.19 18.628 495.092 18.943 494.896 19.223C494.7 19.503 494.424 19.7235 494.067 19.8845C493.717 20.0455 493.304 20.126 492.828 20.126ZM493.248 16.115C493.521 15.8 493.657 15.4745 493.657 15.1385C493.657 14.8795 493.584 14.673 493.437 14.519C493.297 14.358 493.101 14.2775 492.849 14.2775C492.646 14.2775 492.471 14.3405 492.324 14.4665C492.177 14.5925 492.103 14.785 492.103 15.044C492.103 15.317 492.208 15.5305 492.418 15.6845C492.628 15.8385 492.905 15.982 493.248 16.115ZM492.859 19.055C493.118 19.055 493.332 18.9885 493.5 18.8555C493.668 18.7155 493.752 18.5055 493.752 18.2255C493.752 18.0295 493.692 17.8685 493.573 17.7425C493.454 17.6095 493.29 17.494 493.08 17.396C492.87 17.291 492.625 17.179 492.345 17.06C492.198 17.193 492.075 17.354 491.977 17.543C491.879 17.725 491.83 17.9175 491.83 18.1205C491.83 18.4145 491.932 18.6455 492.135 18.8135C492.338 18.9745 492.579 19.055 492.859 19.055Z" fill="white"/>
<path d="M591.914 11.5312C591.914 10.0815 593.089 8.90625 594.539 8.90625H645.68C647.129 8.90625 648.305 10.0815 648.305 11.5312V23.0234C648.305 24.4732 647.129 25.6484 645.68 25.6484H594.539C593.089 25.6484 591.914 24.4732 591.914 23.0234V11.5312Z" fill="#1688F1"/>
<path d="M599.88 20C599.922 19.258 600.003 18.593 600.122 18.005C600.241 17.417 600.423 16.8535 600.668 16.3145C600.913 15.7755 601.245 15.2155 601.665 14.6345H598.673V13.3325H603.314V14.2775C602.929 14.7465 602.617 15.1875 602.379 15.6005C602.148 16.0135 601.966 16.437 601.833 16.871C601.707 17.298 601.616 17.7635 601.56 18.2675C601.504 18.7715 601.462 19.349 601.434 20H599.88ZM606.352 20.126C605.806 20.126 605.344 20.035 604.966 19.853C604.588 19.671 604.266 19.4505 604 19.1915L604.693 18.215C604.896 18.397 605.116 18.5545 605.354 18.6875C605.592 18.8135 605.851 18.8765 606.131 18.8765C606.474 18.8765 606.747 18.789 606.95 18.614C607.153 18.439 607.255 18.18 607.255 17.837C607.255 17.501 607.157 17.2455 606.961 17.0705C606.765 16.8955 606.513 16.808 606.205 16.808C606.009 16.808 605.844 16.8325 605.711 16.8815C605.585 16.9305 605.421 17.018 605.218 17.144L604.525 16.703L604.714 13.3325H608.494V14.6345H606.047L605.932 15.884C606.163 15.779 606.411 15.7265 606.677 15.7265C607.062 15.7265 607.412 15.8 607.727 15.947C608.049 16.094 608.308 16.3215 608.504 16.6295C608.7 16.9305 608.798 17.319 608.798 17.795C608.798 18.285 608.683 18.705 608.452 19.055C608.228 19.405 607.93 19.671 607.559 19.853C607.188 20.035 606.786 20.126 606.352 20.126ZM611.857 20.126C611.318 20.126 610.856 20.0385 610.471 19.8635C610.093 19.6885 609.782 19.461 609.537 19.181L610.251 18.2045C610.454 18.4005 610.678 18.5615 610.923 18.6875C611.168 18.8135 611.43 18.8765 611.71 18.8765C612.039 18.8765 612.302 18.81 612.498 18.677C612.694 18.537 612.792 18.341 612.792 18.089C612.792 17.893 612.743 17.725 612.645 17.585C612.547 17.438 612.368 17.326 612.109 17.249C611.85 17.172 611.479 17.1335 610.996 17.1335V16.0415C611.598 16.0415 612.011 15.961 612.235 15.8C612.459 15.632 612.571 15.415 612.571 15.149C612.571 14.918 612.501 14.7395 612.361 14.6135C612.221 14.4805 612.018 14.414 611.752 14.414C611.514 14.414 611.297 14.4665 611.101 14.5715C610.912 14.6765 610.713 14.82 610.503 15.002L609.726 14.057C610.034 13.791 610.359 13.5845 610.702 13.4375C611.045 13.2835 611.42 13.2065 611.826 13.2065C612.512 13.2065 613.065 13.3675 613.485 13.6895C613.912 14.0045 614.125 14.4525 614.125 15.0335C614.125 15.3765 614.027 15.6705 613.831 15.9155C613.642 16.1605 613.369 16.36 613.012 16.514V16.556C613.397 16.668 613.712 16.8605 613.957 17.1335C614.209 17.3995 614.335 17.7495 614.335 18.1835C614.335 18.5965 614.22 18.95 613.989 19.244C613.765 19.531 613.464 19.7515 613.086 19.9055C612.715 20.0525 612.305 20.126 611.857 20.126ZM617.625 20.126C616.911 20.126 616.334 19.8285 615.893 19.2335C615.459 18.6385 615.242 17.774 615.242 16.64C615.242 15.506 615.459 14.652 615.893 14.078C616.334 13.497 616.911 13.2065 617.625 13.2065C618.339 13.2065 618.913 13.497 619.347 14.078C619.788 14.652 620.009 15.506 620.009 16.64C620.009 17.774 619.788 18.6385 619.347 19.2335C618.913 19.8285 618.339 20.126 617.625 20.126ZM617.625 18.929C617.8 18.929 617.958 18.866 618.098 18.74C618.238 18.607 618.346 18.376 618.423 18.047C618.507 17.718 618.549 17.249 618.549 16.64C618.549 16.031 618.507 15.5655 618.423 15.2435C618.346 14.9215 618.238 14.701 618.098 14.582C617.958 14.463 617.8 14.4035 617.625 14.4035C617.457 14.4035 617.303 14.463 617.163 14.582C617.023 14.701 616.911 14.9215 616.827 15.2435C616.743 15.5655 616.701 16.031 616.701 16.64C616.701 17.249 616.743 17.718 616.827 18.047C616.911 18.376 617.023 18.607 617.163 18.74C617.303 18.866 617.457 18.929 617.625 18.929ZM623.288 16.9235C623.113 16.9235 622.934 16.976 622.752 17.081C622.577 17.179 622.42 17.347 622.28 17.585C622.35 18.11 622.483 18.474 622.679 18.677C622.875 18.873 623.088 18.971 623.319 18.971C623.55 18.971 623.746 18.887 623.907 18.719C624.075 18.544 624.159 18.2675 624.159 17.8895C624.159 17.5395 624.075 17.291 623.907 17.144C623.746 16.997 623.54 16.9235 623.288 16.9235ZM623.351 20.126C622.924 20.126 622.518 20.014 622.133 19.79C621.748 19.559 621.433 19.202 621.188 18.719C620.95 18.229 620.831 17.5955 620.831 16.8185C620.831 15.9855 620.957 15.303 621.209 14.771C621.468 14.239 621.8 13.847 622.206 13.595C622.619 13.336 623.06 13.2065 623.529 13.2065C623.97 13.2065 624.352 13.287 624.674 13.448C624.996 13.602 625.262 13.7875 625.472 14.0045L624.663 14.9285C624.551 14.8025 624.397 14.694 624.201 14.603C624.012 14.505 623.82 14.456 623.624 14.456C623.379 14.456 623.155 14.5225 622.952 14.6555C622.749 14.7815 622.584 14.9985 622.458 15.3065C622.339 15.6075 622.269 16.017 622.248 16.535C622.423 16.311 622.637 16.1395 622.889 16.0205C623.148 15.8945 623.379 15.8315 623.582 15.8315C624.156 15.8315 624.628 15.9995 624.999 16.3355C625.377 16.6645 625.566 17.1825 625.566 17.8895C625.566 18.3515 625.465 18.7505 625.262 19.0865C625.059 19.4155 624.789 19.671 624.453 19.853C624.124 20.035 623.757 20.126 623.351 20.126ZM627.628 17.228H629.035V16.1465C629.035 15.9295 629.042 15.681 629.056 15.401C629.077 15.114 629.091 14.8655 629.098 14.6555H629.056C628.972 14.8375 628.884 15.023 628.793 15.212C628.702 15.401 628.608 15.59 628.51 15.779L627.628 17.228ZM629.035 20V18.404H626.147V17.3435L628.583 13.3325H630.473V17.228H631.24V18.404H630.473V20H629.035ZM633.07 20.126C632.804 20.126 632.58 20.035 632.398 19.853C632.223 19.664 632.136 19.433 632.136 19.16C632.136 18.88 632.223 18.649 632.398 18.467C632.58 18.278 632.804 18.1835 633.07 18.1835C633.336 18.1835 633.557 18.278 633.732 18.467C633.914 18.649 634.005 18.88 634.005 19.16C634.005 19.433 633.914 19.664 633.732 19.853C633.557 20.035 633.336 20.126 633.07 20.126ZM637.531 16.9235C637.356 16.9235 637.177 16.976 636.995 17.081C636.82 17.179 636.663 17.347 636.523 17.585C636.593 18.11 636.726 18.474 636.922 18.677C637.118 18.873 637.331 18.971 637.562 18.971C637.793 18.971 637.989 18.887 638.15 18.719C638.318 18.544 638.402 18.2675 638.402 17.8895C638.402 17.5395 638.318 17.291 638.15 17.144C637.989 16.997 637.783 16.9235 637.531 16.9235ZM637.594 20.126C637.167 20.126 636.761 20.014 636.376 19.79C635.991 19.559 635.676 19.202 635.431 18.719C635.193 18.229 635.074 17.5955 635.074 16.8185C635.074 15.9855 635.2 15.303 635.452 14.771C635.711 14.239 636.043 13.847 636.449 13.595C636.862 13.336 637.303 13.2065 637.772 13.2065C638.213 13.2065 638.595 13.287 638.917 13.448C639.239 13.602 639.505 13.7875 639.715 14.0045L638.906 14.9285C638.794 14.8025 638.64 14.694 638.444 14.603C638.255 14.505 638.063 14.456 637.867 14.456C637.622 14.456 637.398 14.5225 637.195 14.6555C636.992 14.7815 636.827 14.9985 636.701 15.3065C636.582 15.6075 636.512 16.017 636.491 16.535C636.666 16.311 636.88 16.1395 637.132 16.0205C637.391 15.8945 637.622 15.8315 637.825 15.8315C638.399 15.8315 638.871 15.9995 639.242 16.3355C639.62 16.6645 639.809 17.1825 639.809 17.8895C639.809 18.3515 639.708 18.7505 639.505 19.0865C639.302 19.4155 639.032 19.671 638.696 19.853C638.367 20.035 638 20.126 637.594 20.126Z" fill="white"/>
<path d="M743.469 11.5312C743.469 10.0815 744.644 8.90625 746.094 8.90625H776.797C778.247 8.90625 779.422 10.0815 779.422 11.5312V23.0234C779.422 24.4732 778.247 25.6484 776.797 25.6484H746.094C744.644 25.6484 743.469 24.4732 743.469 23.0234V11.5312Z" fill="#F75444"/>
<path d="M752.538 20.126C751.824 20.126 751.246 19.8285 750.805 19.2335C750.371 18.6385 750.154 17.774 750.154 16.64C750.154 15.506 750.371 14.652 750.805 14.078C751.246 13.497 751.824 13.2065 752.538 13.2065C753.252 13.2065 753.826 13.497 754.26 14.078C754.701 14.652 754.921 15.506 754.921 16.64C754.921 17.774 754.701 18.6385 754.26 19.2335C753.826 19.8285 753.252 20.126 752.538 20.126ZM752.538 18.929C752.713 18.929 752.87 18.866 753.01 18.74C753.15 18.607 753.259 18.376 753.336 18.047C753.42 17.718 753.462 17.249 753.462 16.64C753.462 16.031 753.42 15.5655 753.336 15.2435C753.259 14.9215 753.15 14.701 753.01 14.582C752.87 14.463 752.713 14.4035 752.538 14.4035C752.37 14.4035 752.216 14.463 752.076 14.582C751.936 14.701 751.824 14.9215 751.74 15.2435C751.656 15.5655 751.614 16.031 751.614 16.64C751.614 17.249 751.656 17.718 751.74 18.047C751.824 18.376 751.936 18.607 752.076 18.74C752.216 18.866 752.37 18.929 752.538 18.929Z" fill="white"/>
<path d="M902.586 11.5312C902.586 10.0815 903.761 8.90625 905.211 8.90625H918.398C919.848 8.90625 921.023 10.0815 921.023 11.5312V23.0234C921.023 24.4732 919.848 25.6484 918.398 25.6484H905.211C903.761 25.6484 902.586 24.4732 902.586 23.0234V11.5312Z" fill="#F75444"/>
<path d="M911.655 20.126C910.941 20.126 910.363 19.8285 909.922 19.2335C909.488 18.6385 909.271 17.774 909.271 16.64C909.271 15.506 909.488 14.652 909.922 14.078C910.363 13.497 910.941 13.2065 911.655 13.2065C912.369 13.2065 912.943 13.497 913.377 14.078C913.818 14.652 914.038 15.506 914.038 16.64C914.038 17.774 913.818 18.6385 913.377 19.2335C912.943 19.8285 912.369 20.126 911.655 20.126ZM911.655 18.929C911.83 18.929 911.987 18.866 912.127 18.74C912.267 18.607 912.376 18.376 912.453 18.047C912.537 17.718 912.579 17.249 912.579 16.64C912.579 16.031 912.537 15.5655 912.453 15.2435C912.376 14.9215 912.267 14.701 912.127 14.582C911.987 14.463 911.83 14.4035 911.655 14.4035C911.487 14.4035 911.333 14.463 911.193 14.582C911.053 14.701 910.941 14.9215 910.857 15.2435C910.773 15.5655 910.731 16.031 910.731 16.64C910.731 17.249 910.773 17.718 910.857 18.047C910.941 18.376 911.053 18.607 911.193 18.74C911.333 18.866 911.487 18.929 911.655 18.929Z" fill="white"/>
<defs>
<clipPath id="clip0_16_11">
<rect width="11.1429" height="11.1429" fill="white" transform="translate(83 11.4286)"/>
</clipPath>
<clipPath id="clip1_16_11">
<rect width="10.2143" height="10.2143" fill="white" transform="translate(125 11.8929)"/>
</clipPath>
<clipPath id="clip2_16_11">
<rect width="7.28931" height="14" fill="white" transform="translate(335.156 9.5)"/>
</clipPath>
<clipPath id="clip3_16_11">
<rect width="11.1429" height="11.1429" fill="white" transform="translate(264.148 11.1395)"/>
</clipPath>
<clipPath id="clip4_16_11">
<rect width="10.2143" height="11.1429" fill="white" transform="translate(194 11.4286)"/>
</clipPath>
</defs>
</svg>
