<?xml version="1.0" encoding="utf-8"?>
<svg version="1.1" xmlns:xlink="http://www.w3.org/1999/xlink" width="26px" height="26px" xmlns="http://www.w3.org/2000/svg">
  <g transform="matrix(1 0 0 1 -1698 -424 )">
    <path d="M 21.48046875 16.5768981181051  C 21.9657118055556 15.4352152282068  22.2083333333333 14.2401038286827  22.2083333333333 12.9915639195328  C 22.2083333333333 11.1806186459009  21.7174479166667 9.52152282067921  20.7356770833333 8.01427644386762  L 7.97265625 20.7190136275146  C 9.51866319444444 21.7200951762925  11.1944444444444 22.2206359506814  13 22.2206359506814  C 14.2526041666667 22.2206359506814  15.4459635416667 21.9759896171317  16.580078125 21.4866969500324  C 17.7141927083333 20.9974042829332  18.6931423611111 20.3422020333117  19.5169270833333 19.5210902011681  C 20.3407118055556 18.6999783690244  20.9952256944444 17.7185810080035  21.48046875 16.5768981181051  Z M 3.79166666666667 12.9915639195328  C 3.79166666666667 14.8137573004542  4.29383680555556 16.4953493402552  5.29817708333333 18.0363400389358  L 18.078125 5.31473069435432  C 16.5546875 4.29115293099719  14.8619791666667 3.77936404931862  13 3.77936404931862  C 11.3298611111111 3.77936404931862  9.78949652777778 4.18991996539044  8.37890625 5.01103179753407  C 6.96831597222222 5.83214362967769  5.85112847222222 6.95133030499675  5.02734375 8.36859182349124  C 4.20355902777778 9.78585334198572  3.79166666666667 11.3268440406662  3.79166666666667 12.9915639195328  Z M 24.9674479166667 7.93835171966256  C 25.6558159722222 9.54120700843608  26 11.2256110750595  26 12.9915639195328  C 26 14.7575167640061  25.6558159722222 16.4447328574519  24.9674479166667 18.0532121998702  C 24.2790798611111 19.6616915422886  23.3565538194444 21.0452087389141  22.1998697916667 22.2037637897469  C 21.0431857638889 23.3623188405797  19.6608072916667 24.2846636383301  18.052734375 24.9707981829981  C 16.4446614583333 25.656932727666  14.7604166666667 26  13 26  C 11.2395833333333 26  9.55533854166667 25.656932727666  7.947265625 24.9707981829981  C 6.33919270833333 24.2846636383301  4.95681423611111 23.3623188405797  3.80013020833333 22.2037637897469  C 2.64344618055556 21.0452087389141  1.72092013888889 19.6616915422886  1.03255208333333 18.0532121998702  C 0.344184027777778 16.4447328574519  0 14.7575167640061  0 12.9915639195328  C 0 11.2256110750595  0.344184027777778 9.54120700843608  1.03255208333333 7.93835171966256  C 1.72092013888889 6.33549643088903  2.64344618055556 4.95479126108587  3.80013020833333 3.79623621025308  C 4.95681423611111 2.63768115942029  6.33919270833333 1.71533636166991  7.947265625 1.02920181700195  C 9.55533854166667 0.34306727233398  11.2395833333333 0  13 0  C 14.7604166666667 0  16.4446614583333 0.34306727233398  18.052734375 1.02920181700195  C 19.6608072916667 1.71533636166991  21.0431857638889 2.63768115942029  22.1998697916667 3.79623621025308  C 23.3565538194444 4.95479126108587  24.2790798611111 6.33549643088903  24.9674479166667 7.93835171966256  Z " fill-rule="nonzero" fill="#d9001b" stroke="none" transform="matrix(1 0 0 1 1698 424 )" />
  </g>
</svg>