<?xml version="1.0" encoding="utf-8"?>
<svg version="1.1" xmlns:xlink="http://www.w3.org/1999/xlink" width="12px" height="12px" xmlns="http://www.w3.org/2000/svg">
  <g transform="matrix(1 0 0 1 -261 -302 )">
    <path d="M 5.4375 9.375  L 6.5625 9.375  L 6.439875 4.5  L 5.560125 4.5  L 5.4375 9.375  Z M 6 3.75  C 6.15375 3.75  6.2865 3.69525  6.39675 3.586125  C 6.507375 3.477  6.5625 3.343875  6.5625 3.1875  C 6.5625 3.028125  6.507375 2.894625  6.39675 2.786625  C 6.29189377699705 2.68117052616036  6.14869697744513 2.6228361021463  6 2.625  C 5.84625 2.625  5.7135 2.679  5.60325 2.786625  C 5.49412482248667 2.89102285585707  5.43396571911661 3.03652077780865  5.4375 3.1875  C 5.4375 3.343875  5.492625 3.477  5.60325 3.586125  C 5.7135 3.69525  5.845875 3.75  6 3.75  Z M 11.625 6  C 11.625 2.8935  9.1065 0.375  6 0.375  C 2.8935 0.375  0.375 2.8935  0.375 6  C 0.375 9.1065  2.8935 11.625  6 11.625  C 9.1065 11.625  11.625 9.1065  11.625 6  Z M 1.125 6  C 1.125 3.3075  3.3075 1.125  6 1.125  C 8.6925 1.125  10.875 3.3075  10.875 6  C 10.875 8.6925  8.6925 10.875  6 10.875  C 3.3075 10.875  1.125 8.6925  1.125 6  Z " fill-rule="nonzero" fill="#000000" stroke="none" fill-opacity="0.4" transform="matrix(1 0 0 1 261 302 )" />
  </g>
</svg>