<?xml version="1.0" encoding="utf-8"?>
<svg version="1.1" xmlns:xlink="http://www.w3.org/1999/xlink" width="44px" height="28px" xmlns="http://www.w3.org/2000/svg">
  <g transform="matrix(1 0 0 1 -296 -68 )">
    <path d="M 296 82.3333333333333  C 296 82.3333333333333  296 70  296 70  C 296 68.8954305003384  296.895430500338 68  298 68  C 298 68  338 68  338 68  C 339.104569499662 68  340 68.8954305003384  340 70  C 340 70  340 82.3333333333333  340 82.3333333333333  C 340 82.8637663130124  339.789286319269 83.3724741388103  339.414213562373 83.7475468957064  C 339.414213562373 83.7475468957064  338.239436619718 95.8438967136151  338.239436619718 95.8438967136151  C 338.239436619718 95.8438967136151  327.516285211268 84.3333333333333  327.516285211268 84.3333333333333  C 327.516285211268 84.3333333333333  298 84.3333333333333  298 84.3333333333333  C 296.895430500338 84.3333333333333  296 83.4379028329949  296 82.3333333333333  Z " fill-rule="nonzero" fill="#f52349" stroke="none" />
  </g>
</svg>