<svg width="668" height="34" viewBox="0 0 668 34" fill="none" xmlns="http://www.w3.org/2000/svg">
<path d="M204 3C204 1.34315 205.343 0 207 0H238.156C239.813 0 241.156 1.34315 241.156 3V29.5625C241.156 31.2194 239.813 32.5625 238.156 32.5625H207C205.343 32.5625 204 31.2194 204 29.5625V3Z" fill="#444C69"/>
<g clip-path="url(#clip0_42_2105)">
<path d="M227.96 16.6628C227.96 16.6828 227.957 16.6995 227.95 16.7128C227.643 18.0062 226.997 19.0562 226.01 19.8628C225.023 20.6695 223.867 21.0728 222.54 21.0728C221.833 21.0728 221.15 20.9395 220.49 20.6728C219.83 20.4062 219.243 20.0262 218.73 19.5328L217.79 20.4728C217.697 20.5595 217.587 20.6028 217.46 20.6028C217.34 20.6028 217.233 20.5595 217.14 20.4728C217.047 20.3795 217 20.2695 217 20.1428V16.8928C217 16.7662 217.047 16.6562 217.14 16.5628C217.233 16.4762 217.34 16.4328 217.46 16.4328H220.71C220.837 16.4328 220.947 16.4762 221.04 16.5628C221.133 16.6562 221.18 16.7662 221.18 16.8928C221.18 17.0195 221.133 17.1295 221.04 17.2228L220.05 18.2128C220.39 18.5328 220.777 18.7795 221.21 18.9528C221.65 19.1262 222.103 19.2128 222.57 19.2128C223.217 19.2128 223.823 19.0562 224.39 18.7428C224.95 18.4295 225.397 17.9962 225.73 17.4428C225.783 17.3628 225.913 17.0795 226.12 16.5928C226.16 16.4862 226.233 16.4328 226.34 16.4328H227.73C227.79 16.4328 227.843 16.4528 227.89 16.4928C227.937 16.5395 227.96 16.5962 227.96 16.6628ZM228.14 10.8528V14.1028C228.14 14.2295 228.097 14.3395 228.01 14.4328C227.917 14.5262 227.807 14.5728 227.68 14.5728H224.43C224.303 14.5728 224.193 14.5262 224.1 14.4328C224.007 14.3395 223.96 14.2295 223.96 14.1028C223.96 13.9828 224.007 13.8762 224.1 13.7828L225.1 12.7828C224.387 12.1162 223.543 11.7828 222.57 11.7828C221.923 11.7828 221.32 11.9395 220.76 12.2528C220.2 12.5728 219.75 13.0062 219.41 13.5528C219.357 13.6395 219.227 13.9228 219.02 14.4028C218.987 14.5162 218.917 14.5728 218.81 14.5728H217.36C217.3 14.5728 217.247 14.5495 217.2 14.5028C217.153 14.4562 217.13 14.4028 217.13 14.3428V14.2928C217.443 12.9928 218.097 11.9395 219.09 11.1328C220.083 10.3328 221.243 9.93283 222.57 9.93283C223.277 9.93283 223.963 10.0662 224.63 10.3328C225.297 10.5995 225.89 10.9762 226.41 11.4628L227.35 10.5328C227.443 10.4395 227.553 10.3928 227.68 10.3928C227.807 10.3928 227.917 10.4395 228.01 10.5328C228.097 10.6262 228.14 10.7328 228.14 10.8528Z" fill="white"/>
</g>
<path d="M254.188 0.5H664.266C665.646 0.5 666.766 1.61929 666.766 3V30.9844C666.766 32.3651 665.646 33.4844 664.266 33.4844H254.188C252.807 33.4844 251.688 32.3651 251.688 30.9844V3L251.7 2.74414C251.828 1.48361 252.893 0.5 254.188 0.5Z" fill="#F4F4F4"/>
<path d="M254.188 0.5H664.266C665.646 0.5 666.766 1.61929 666.766 3V30.9844C666.766 32.3651 665.646 33.4844 664.266 33.4844H254.188C252.807 33.4844 251.688 32.3651 251.688 30.9844V3L251.7 2.74414C251.828 1.48361 252.893 0.5 254.188 0.5Z" stroke="#DDDDDD"/>
<g clip-path="url(#clip1_42_2105)">
<path d="M271.829 18.26C271.829 19.0533 271.569 19.74 271.049 20.32C270.535 20.8933 269.862 21.2467 269.029 21.38V22.75C269.029 22.8233 269.005 22.8833 268.959 22.93C268.912 22.9767 268.852 23 268.779 23H267.729C267.662 23 267.602 22.9767 267.549 22.93C267.502 22.8767 267.479 22.8167 267.479 22.75V21.38C267.132 21.3333 266.799 21.2533 266.479 21.14C266.159 21.0267 265.895 20.91 265.689 20.79C265.482 20.6767 265.289 20.5533 265.109 20.42C264.935 20.2867 264.815 20.1867 264.749 20.12C264.682 20.06 264.635 20.0133 264.609 19.98C264.522 19.8733 264.519 19.7667 264.599 19.66L265.399 18.61C265.439 18.5567 265.499 18.5267 265.579 18.52C265.659 18.5067 265.722 18.53 265.769 18.59C265.769 18.59 265.772 18.5933 265.779 18.6C266.372 19.1133 267.005 19.44 267.679 19.58C267.872 19.62 268.065 19.64 268.259 19.64C268.679 19.64 269.049 19.5267 269.369 19.3C269.689 19.08 269.849 18.7633 269.849 18.35C269.849 18.2033 269.812 18.0667 269.739 17.94C269.659 17.8067 269.572 17.6967 269.479 17.61C269.379 17.5233 269.225 17.4267 269.019 17.32C268.812 17.2133 268.639 17.13 268.499 17.07C268.365 17.01 268.159 16.9233 267.879 16.81C267.672 16.73 267.512 16.6667 267.399 16.62C267.279 16.5733 267.119 16.5033 266.919 16.41C266.712 16.3167 266.549 16.2367 266.429 16.17C266.302 16.0967 266.155 16.0033 265.989 15.89C265.815 15.7767 265.675 15.6667 265.569 15.56C265.462 15.4533 265.349 15.3267 265.229 15.18C265.109 15.0267 265.015 14.8733 264.949 14.72C264.882 14.5667 264.829 14.3933 264.789 14.2C264.742 14.0067 264.719 13.8033 264.719 13.59C264.719 12.8767 264.975 12.2467 265.489 11.7C265.995 11.16 266.659 10.8133 267.479 10.66V9.25C267.479 9.18333 267.502 9.12333 267.549 9.07C267.602 9.02333 267.662 9 267.729 9H268.779C268.852 9 268.912 9.02333 268.959 9.07C269.005 9.11667 269.029 9.17667 269.029 9.25V10.62C269.329 10.6533 269.619 10.7133 269.899 10.8C270.179 10.8933 270.405 10.9833 270.579 11.07C270.752 11.1567 270.915 11.2533 271.069 11.36C271.229 11.4667 271.332 11.5433 271.379 11.59C271.425 11.63 271.462 11.6667 271.489 11.7C271.582 11.7933 271.595 11.89 271.529 11.99L270.899 13.13C270.859 13.21 270.799 13.2533 270.719 13.26C270.645 13.2733 270.575 13.2533 270.509 13.2C270.495 13.1867 270.459 13.1567 270.399 13.11C270.339 13.0633 270.235 12.9933 270.089 12.9C269.949 12.8133 269.799 12.73 269.639 12.65C269.472 12.5767 269.275 12.51 269.049 12.45C268.822 12.39 268.602 12.36 268.389 12.36C267.889 12.36 267.482 12.4733 267.169 12.7C266.862 12.92 266.709 13.2067 266.709 13.56C266.709 13.7 266.729 13.8267 266.769 13.94C266.815 14.0533 266.892 14.16 266.999 14.26C267.112 14.36 267.215 14.4467 267.309 14.52C267.409 14.5867 267.555 14.6667 267.749 14.76C267.942 14.8533 268.099 14.9233 268.219 14.97C268.339 15.0233 268.522 15.0967 268.769 15.19C269.042 15.29 269.252 15.37 269.399 15.43C269.545 15.49 269.742 15.5833 269.989 15.71C270.242 15.83 270.439 15.94 270.579 16.04C270.725 16.14 270.889 16.27 271.069 16.43C271.249 16.59 271.385 16.7567 271.479 16.93C271.579 17.0967 271.662 17.2933 271.729 17.52C271.795 17.7533 271.829 18 271.829 18.26Z" fill="#1E90FF"/>
</g>
<path d="M282.77 12.362V13.468H287.446V12.362H282.77ZM282.77 10.5V11.606H287.446V10.5H282.77ZM281.804 9.702H288.454V14.28H281.804V9.702ZM281.174 15.288H289.224V16.17H281.174V15.288ZM284.604 15.722H285.598V21.448L284.604 21.042V15.722ZM282.728 18.298C282.98 19.0727 283.307 19.6513 283.708 20.034C284.119 20.4167 284.595 20.6687 285.136 20.79C285.687 20.9113 286.289 20.972 286.942 20.972C287.026 20.972 287.189 20.972 287.432 20.972C287.675 20.972 287.945 20.972 288.244 20.972C288.543 20.972 288.823 20.972 289.084 20.972C289.345 20.972 289.541 20.9673 289.672 20.958C289.625 21.0327 289.579 21.126 289.532 21.238C289.485 21.35 289.448 21.4667 289.42 21.588C289.392 21.7093 289.369 21.8167 289.35 21.91H288.776H286.9C286.312 21.91 285.771 21.8633 285.276 21.77C284.781 21.686 284.333 21.5273 283.932 21.294C283.531 21.0607 283.176 20.7247 282.868 20.286C282.56 19.838 282.299 19.2593 282.084 18.55L282.728 18.298ZM285.29 17.822H288.538V18.69H285.29V17.822ZM282.084 16.842L283.05 16.954C282.91 18.102 282.653 19.11 282.28 19.978C281.907 20.8367 281.403 21.5507 280.768 22.12C280.721 22.0547 280.647 21.98 280.544 21.896C280.441 21.8213 280.339 21.742 280.236 21.658C280.143 21.5833 280.059 21.5273 279.984 21.49C280.609 20.9953 281.085 20.356 281.412 19.572C281.748 18.7787 281.972 17.8687 282.084 16.842ZM276.484 16.674C277.025 16.534 277.679 16.3473 278.444 16.114C279.209 15.8713 279.984 15.6287 280.768 15.386L280.908 16.338C280.189 16.5807 279.466 16.8233 278.738 17.066C278.01 17.2993 277.347 17.514 276.75 17.71L276.484 16.674ZM276.638 12.068H280.908V13.048H276.638V12.068ZM278.374 9.254H279.354V20.804C279.354 21.0933 279.317 21.3127 279.242 21.462C279.177 21.6207 279.055 21.742 278.878 21.826C278.71 21.91 278.486 21.966 278.206 21.994C277.926 22.022 277.562 22.0313 277.114 22.022C277.105 21.9007 277.067 21.742 277.002 21.546C276.946 21.3593 276.885 21.196 276.82 21.056C277.119 21.0653 277.389 21.07 277.632 21.07C277.884 21.07 278.052 21.0653 278.136 21.056C278.22 21.056 278.281 21.0373 278.318 21C278.355 20.972 278.374 20.9067 278.374 20.804V9.254ZM290.848 10.178H295.482V11.172H290.848V10.178ZM291.058 14.238H295.202V15.218H291.058V14.238ZM290.68 19.6C291.1 19.4973 291.571 19.376 292.094 19.236C292.626 19.0867 293.186 18.9233 293.774 18.746C294.371 18.5687 294.969 18.3913 295.566 18.214L295.692 19.194C294.861 19.446 294.021 19.698 293.172 19.95C292.332 20.1927 291.581 20.4167 290.918 20.622L290.68 19.6ZM292.724 10.626H293.732V19.236L292.724 19.432V10.626ZM296.126 9.926H302.412V17.374H301.376V10.85H297.134V17.374H296.126V9.926ZM299.318 17.136H300.298V20.454C300.298 20.65 300.331 20.7853 300.396 20.86C300.471 20.9253 300.606 20.958 300.802 20.958H301.95C302.118 20.958 302.239 20.8973 302.314 20.776C302.398 20.6547 302.459 20.426 302.496 20.09C302.543 19.7447 302.575 19.236 302.594 18.564C302.715 18.676 302.855 18.7647 303.014 18.83C303.173 18.8953 303.317 18.9467 303.448 18.984C303.401 19.7213 303.341 20.2907 303.266 20.692C303.191 21.0933 303.051 21.3687 302.846 21.518C302.65 21.6767 302.351 21.756 301.95 21.756H300.662C300.177 21.756 299.831 21.672 299.626 21.504C299.421 21.3453 299.318 21.028 299.318 20.552V17.136ZM298.716 12.04H299.696V14.77C299.696 15.3673 299.64 15.9973 299.528 16.66C299.425 17.3227 299.225 17.9853 298.926 18.648C298.627 19.3107 298.193 19.9453 297.624 20.552C297.055 21.1493 296.308 21.686 295.384 22.162C295.356 22.0873 295.3 22.0033 295.216 21.91C295.141 21.8167 295.057 21.7187 294.964 21.616C294.88 21.5227 294.801 21.4527 294.726 21.406C295.613 20.9487 296.322 20.4493 296.854 19.908C297.386 19.3573 297.783 18.7927 298.044 18.214C298.315 17.626 298.492 17.038 298.576 16.45C298.669 15.862 298.716 15.2927 298.716 14.742V12.04ZM314.704 18.004L315.502 17.542C315.782 17.85 316.053 18.186 316.314 18.55C316.585 18.914 316.823 19.2733 317.028 19.628C317.243 19.9827 317.397 20.3093 317.49 20.608L316.636 21.14C316.533 20.8507 316.379 20.524 316.174 20.16C315.978 19.796 315.749 19.4273 315.488 19.054C315.236 18.6807 314.975 18.3307 314.704 18.004ZM309.846 17.234L310.588 16.646C310.905 16.842 311.223 17.0753 311.54 17.346C311.867 17.6073 312.17 17.8733 312.45 18.144C312.739 18.4053 312.968 18.648 313.136 18.872L312.352 19.544C312.184 19.3107 311.96 19.0587 311.68 18.788C311.409 18.508 311.111 18.2327 310.784 17.962C310.467 17.682 310.154 17.4393 309.846 17.234ZM308.012 17.626H309.118V20.51C309.118 20.7153 309.179 20.8507 309.3 20.916C309.431 20.9813 309.72 21.014 310.168 21.014C310.252 21.014 310.387 21.014 310.574 21.014C310.77 21.014 310.994 21.014 311.246 21.014C311.498 21.014 311.75 21.014 312.002 21.014C312.254 21.014 312.487 21.014 312.702 21.014C312.917 21.014 313.075 21.014 313.178 21.014C313.411 21.014 313.584 20.9813 313.696 20.916C313.817 20.8507 313.901 20.7153 313.948 20.51C313.995 20.3047 314.032 19.9967 314.06 19.586C314.135 19.642 314.233 19.6933 314.354 19.74C314.475 19.7867 314.597 19.8333 314.718 19.88C314.839 19.9173 314.951 19.9453 315.054 19.964C314.998 20.496 314.914 20.9067 314.802 21.196C314.69 21.4947 314.513 21.6953 314.27 21.798C314.027 21.91 313.691 21.966 313.262 21.966C313.187 21.966 313.043 21.966 312.828 21.966C312.623 21.966 312.38 21.966 312.1 21.966C311.82 21.966 311.54 21.966 311.26 21.966C310.98 21.966 310.733 21.966 310.518 21.966C310.313 21.966 310.177 21.966 310.112 21.966C309.561 21.966 309.132 21.924 308.824 21.84C308.525 21.756 308.315 21.6067 308.194 21.392C308.073 21.1867 308.012 20.8973 308.012 20.524V17.626ZM305.996 17.85L306.99 18.032C306.869 18.6013 306.691 19.1893 306.458 19.796C306.234 20.4027 305.963 20.916 305.646 21.336L304.68 20.874C304.876 20.6407 305.058 20.356 305.226 20.02C305.394 19.684 305.543 19.3293 305.674 18.956C305.805 18.5733 305.912 18.2047 305.996 17.85ZM307.676 9.716L308.572 9.296C308.889 9.66 309.188 10.0613 309.468 10.5C309.748 10.9293 309.953 11.312 310.084 11.648L309.118 12.138C309.043 11.914 308.931 11.662 308.782 11.382C308.633 11.102 308.46 10.8173 308.264 10.528C308.077 10.2293 307.881 9.95867 307.676 9.716ZM313.654 9.254L314.732 9.688C314.424 10.22 314.102 10.7613 313.766 11.312C313.43 11.8627 313.108 12.3387 312.8 12.74L311.946 12.32C312.142 12.0493 312.343 11.7367 312.548 11.382C312.763 11.018 312.968 10.6493 313.164 10.276C313.36 9.90267 313.523 9.562 313.654 9.254ZM307.788 13.062V15.526H314.396V13.062H307.788ZM306.682 12.068H315.558V16.534H306.682V12.068ZM325.022 10.248C324.639 10.7987 324.145 11.3727 323.538 11.97C322.941 12.558 322.273 13.1227 321.536 13.664C320.808 14.2053 320.047 14.686 319.254 15.106C319.207 15.022 319.147 14.9287 319.072 14.826C318.997 14.7233 318.918 14.6253 318.834 14.532C318.759 14.4293 318.68 14.3407 318.596 14.266C319.408 13.8647 320.187 13.384 320.934 12.824C321.69 12.2547 322.371 11.6573 322.978 11.032C323.585 10.4067 324.07 9.80467 324.434 9.226H325.498C325.871 9.72067 326.296 10.2107 326.772 10.696C327.248 11.1813 327.752 11.6387 328.284 12.068C328.825 12.488 329.376 12.8707 329.936 13.216C330.505 13.5613 331.065 13.8553 331.616 14.098C331.485 14.2287 331.359 14.378 331.238 14.546C331.117 14.714 331.009 14.8773 330.916 15.036C330.384 14.756 329.838 14.434 329.278 14.07C328.718 13.6967 328.172 13.3 327.64 12.88C327.117 12.4507 326.632 12.0167 326.184 11.578C325.736 11.13 325.349 10.6867 325.022 10.248ZM321.564 13.51H328.578V14.448H321.564V13.51ZM319.744 16.324H330.398V17.248H319.744V16.324ZM319.1 20.748H331.07V21.672H319.1V20.748ZM324.462 13.874H325.568V21.224H324.462V13.874ZM320.906 17.962L321.76 17.626C321.956 17.878 322.143 18.158 322.32 18.466C322.507 18.7647 322.67 19.0633 322.81 19.362C322.95 19.6513 323.048 19.9127 323.104 20.146L322.194 20.538C322.138 20.3047 322.045 20.0387 321.914 19.74C321.783 19.4413 321.629 19.138 321.452 18.83C321.275 18.522 321.093 18.2327 320.906 17.962ZM328.242 17.598L329.236 17.99C328.965 18.4287 328.676 18.886 328.368 19.362C328.069 19.8287 327.785 20.2207 327.514 20.538L326.73 20.202C326.898 19.9687 327.075 19.7027 327.262 19.404C327.449 19.096 327.626 18.7833 327.794 18.466C327.971 18.1487 328.121 17.8593 328.242 17.598ZM339.288 10.08H345.42V11.004H339.288V10.08ZM341.976 10.612L342.886 10.836C342.755 11.2 342.62 11.5687 342.48 11.942C342.34 12.3153 342.205 12.6373 342.074 12.908L341.262 12.684C341.346 12.4973 341.43 12.2827 341.514 12.04C341.607 11.788 341.696 11.536 341.78 11.284C341.864 11.032 341.929 10.808 341.976 10.612ZM339.512 12.46H344.902V19.04H343.978V13.314H340.408V19.068H339.512V12.46ZM341.78 14.098H342.704C342.685 15.2553 342.634 16.2727 342.55 17.15C342.475 18.0273 342.317 18.788 342.074 19.432C341.831 20.0667 341.467 20.608 340.982 21.056C340.506 21.504 339.853 21.8773 339.022 22.176C338.975 22.064 338.896 21.9333 338.784 21.784C338.681 21.6347 338.583 21.518 338.49 21.434C339.246 21.1633 339.843 20.832 340.282 20.44C340.721 20.048 341.043 19.5673 341.248 18.998C341.463 18.4193 341.603 17.7287 341.668 16.926C341.733 16.1233 341.771 15.1807 341.78 14.098ZM342.41 19.824L342.97 19.18C343.278 19.3947 343.605 19.6327 343.95 19.894C344.295 20.1553 344.622 20.412 344.93 20.664C345.238 20.916 345.49 21.14 345.686 21.336L345.098 22.078C344.902 21.8727 344.65 21.6347 344.342 21.364C344.043 21.1027 343.721 20.8367 343.376 20.566C343.04 20.2953 342.718 20.048 342.41 19.824ZM332.932 10.584H339.036V12.698H338.084V11.452H333.856V12.698H332.932V10.584ZM333.842 17.738H338.224V21.994H337.244V18.592H334.794V22.022H333.842V17.738ZM334.206 20.706H337.678V21.56H334.206V20.706ZM335.06 11.914L336.012 12.082C335.732 12.67 335.373 13.258 334.934 13.846C334.495 14.434 333.935 14.966 333.254 15.442C333.217 15.3767 333.161 15.302 333.086 15.218C333.011 15.1247 332.937 15.0407 332.862 14.966C332.787 14.882 332.713 14.8213 332.638 14.784C333.245 14.3827 333.749 13.9207 334.15 13.398C334.561 12.8753 334.864 12.3807 335.06 11.914ZM335.186 12.894H337.72V13.72H334.78L335.186 12.894ZM337.524 12.894H337.734L337.93 12.852L338.504 13.23C338.159 13.9953 337.697 14.6813 337.118 15.288C336.549 15.8947 335.914 16.422 335.214 16.87C334.514 17.318 333.795 17.682 333.058 17.962C333.03 17.8687 332.988 17.7613 332.932 17.64C332.885 17.5187 332.834 17.402 332.778 17.29C332.731 17.178 332.68 17.0893 332.624 17.024C333.315 16.7907 333.982 16.4873 334.626 16.114C335.27 15.7313 335.844 15.2833 336.348 14.77C336.861 14.2567 337.253 13.692 337.524 13.076V12.894ZM335.074 9.506L336.026 9.282C336.175 9.534 336.329 9.80933 336.488 10.108C336.656 10.4067 336.787 10.6633 336.88 10.878L335.872 11.158C335.797 10.9433 335.681 10.682 335.522 10.374C335.373 10.0567 335.223 9.76733 335.074 9.506ZM334.164 15.176L334.836 14.546C335.181 14.714 335.55 14.9007 335.942 15.106C336.334 15.3113 336.721 15.5213 337.104 15.736C337.496 15.9413 337.865 16.1467 338.21 16.352C338.555 16.548 338.849 16.73 339.092 16.898L338.378 17.626C338.145 17.4673 337.86 17.2853 337.524 17.08C337.197 16.8653 336.838 16.6507 336.446 16.436C336.063 16.212 335.671 15.9927 335.27 15.778C334.878 15.554 334.509 15.3533 334.164 15.176ZM353.078 13.384C352.798 13.384 352.551 13.2907 352.336 13.104C352.121 12.908 352.014 12.6513 352.014 12.334C352.014 12.0167 352.121 11.7647 352.336 11.578C352.551 11.382 352.798 11.284 353.078 11.284C353.358 11.284 353.605 11.382 353.82 11.578C354.035 11.7647 354.142 12.0167 354.142 12.334C354.142 12.6513 354.035 12.908 353.82 13.104C353.605 13.2907 353.358 13.384 353.078 13.384ZM353.078 20.244C352.798 20.244 352.551 20.1507 352.336 19.964C352.121 19.768 352.014 19.5113 352.014 19.194C352.014 18.8673 352.121 18.6107 352.336 18.424C352.551 18.228 352.798 18.13 353.078 18.13C353.358 18.13 353.605 18.228 353.82 18.424C354.035 18.6107 354.142 18.8673 354.142 19.194C354.142 19.5113 354.035 19.768 353.82 19.964C353.605 20.1507 353.358 20.244 353.078 20.244Z" fill="#1E90FF"/>
<path d="M414.851 24.5V10.5H415.663V24.5H414.851ZM418.227 24.5V10.5H419.039V24.5H418.227ZM430.049 10.248C429.769 10.6773 429.419 11.13 428.999 11.606C428.588 12.082 428.131 12.558 427.627 13.034C427.123 13.51 426.586 13.9673 426.017 14.406C425.448 14.8447 424.864 15.2413 424.267 15.596C424.22 15.512 424.16 15.4233 424.085 15.33C424.01 15.2273 423.931 15.1247 423.847 15.022C423.763 14.9193 423.684 14.8353 423.609 14.77C424.216 14.4247 424.808 14.028 425.387 13.58C425.966 13.132 426.512 12.6607 427.025 12.166C427.548 11.662 428.019 11.158 428.439 10.654C428.859 10.15 429.204 9.66467 429.475 9.198H430.525C430.889 9.72067 431.309 10.2433 431.785 10.766C432.261 11.2793 432.77 11.774 433.311 12.25C433.862 12.726 434.422 13.1693 434.991 13.58C435.57 13.9813 436.13 14.3267 436.671 14.616C436.54 14.7373 436.414 14.882 436.293 15.05C436.172 15.2087 436.064 15.3673 435.971 15.526C435.43 15.1993 434.874 14.826 434.305 14.406C433.745 13.986 433.199 13.5427 432.667 13.076C432.135 12.6 431.645 12.124 431.197 11.648C430.749 11.1627 430.366 10.696 430.049 10.248ZM427.053 13.664H433.185V14.644H427.053V13.664ZM425.247 16.408H433.745V17.416H425.247V16.408ZM433.535 16.408H433.689L433.885 16.352L434.711 16.604C434.487 17.1173 434.226 17.7007 433.927 18.354C433.638 18.998 433.33 19.6513 433.003 20.314C432.686 20.9673 432.378 21.588 432.079 22.176L430.987 21.868C431.211 21.4387 431.444 20.9813 431.687 20.496C431.93 20.0013 432.168 19.5113 432.401 19.026C432.634 18.5407 432.849 18.0833 433.045 17.654C433.241 17.2247 433.404 16.856 433.535 16.548V16.408ZM439.583 10.192H448.767V21.896H447.647V11.242H440.661V21.966H439.583V10.192ZM440.311 15.036H448.123V16.072H440.311V15.036ZM440.283 20.006H448.137V21.056H440.283V20.006ZM457.811 12.362V13.468H462.487V12.362H457.811ZM457.811 10.5V11.606H462.487V10.5H457.811ZM456.845 9.702H463.495V14.28H456.845V9.702ZM456.215 15.288H464.265V16.17H456.215V15.288ZM459.645 15.722H460.639V21.448L459.645 21.042V15.722ZM457.769 18.298C458.021 19.0727 458.348 19.6513 458.749 20.034C459.16 20.4167 459.636 20.6687 460.177 20.79C460.728 20.9113 461.33 20.972 461.983 20.972C462.067 20.972 462.23 20.972 462.473 20.972C462.716 20.972 462.986 20.972 463.285 20.972C463.584 20.972 463.864 20.972 464.125 20.972C464.386 20.972 464.582 20.9673 464.713 20.958C464.666 21.0327 464.62 21.126 464.573 21.238C464.526 21.35 464.489 21.4667 464.461 21.588C464.433 21.7093 464.41 21.8167 464.391 21.91H463.817H461.941C461.353 21.91 460.812 21.8633 460.317 21.77C459.822 21.686 459.374 21.5273 458.973 21.294C458.572 21.0607 458.217 20.7247 457.909 20.286C457.601 19.838 457.34 19.2593 457.125 18.55L457.769 18.298ZM460.331 17.822H463.579V18.69H460.331V17.822ZM457.125 16.842L458.091 16.954C457.951 18.102 457.694 19.11 457.321 19.978C456.948 20.8367 456.444 21.5507 455.809 22.12C455.762 22.0547 455.688 21.98 455.585 21.896C455.482 21.8213 455.38 21.742 455.277 21.658C455.184 21.5833 455.1 21.5273 455.025 21.49C455.65 20.9953 456.126 20.356 456.453 19.572C456.789 18.7787 457.013 17.8687 457.125 16.842ZM451.525 16.674C452.066 16.534 452.72 16.3473 453.485 16.114C454.25 15.8713 455.025 15.6287 455.809 15.386L455.949 16.338C455.23 16.5807 454.507 16.8233 453.779 17.066C453.051 17.2993 452.388 17.514 451.791 17.71L451.525 16.674ZM451.679 12.068H455.949V13.048H451.679V12.068ZM453.415 9.254H454.395V20.804C454.395 21.0933 454.358 21.3127 454.283 21.462C454.218 21.6207 454.096 21.742 453.919 21.826C453.751 21.91 453.527 21.966 453.247 21.994C452.967 22.022 452.603 22.0313 452.155 22.022C452.146 21.9007 452.108 21.742 452.043 21.546C451.987 21.3593 451.926 21.196 451.861 21.056C452.16 21.0653 452.43 21.07 452.673 21.07C452.925 21.07 453.093 21.0653 453.177 21.056C453.261 21.056 453.322 21.0373 453.359 21C453.396 20.972 453.415 20.9067 453.415 20.804V9.254ZM465.889 10.178H470.523V11.172H465.889V10.178ZM466.099 14.238H470.243V15.218H466.099V14.238ZM465.721 19.6C466.141 19.4973 466.612 19.376 467.135 19.236C467.667 19.0867 468.227 18.9233 468.815 18.746C469.412 18.5687 470.01 18.3913 470.607 18.214L470.733 19.194C469.902 19.446 469.062 19.698 468.213 19.95C467.373 20.1927 466.622 20.4167 465.959 20.622L465.721 19.6ZM467.765 10.626H468.773V19.236L467.765 19.432V10.626ZM471.167 9.926H477.453V17.374H476.417V10.85H472.175V17.374H471.167V9.926ZM474.359 17.136H475.339V20.454C475.339 20.65 475.372 20.7853 475.437 20.86C475.512 20.9253 475.647 20.958 475.843 20.958H476.991C477.159 20.958 477.28 20.8973 477.355 20.776C477.439 20.6547 477.5 20.426 477.537 20.09C477.584 19.7447 477.616 19.236 477.635 18.564C477.756 18.676 477.896 18.7647 478.055 18.83C478.214 18.8953 478.358 18.9467 478.489 18.984C478.442 19.7213 478.382 20.2907 478.307 20.692C478.232 21.0933 478.092 21.3687 477.887 21.518C477.691 21.6767 477.392 21.756 476.991 21.756H475.703C475.218 21.756 474.872 21.672 474.667 21.504C474.462 21.3453 474.359 21.028 474.359 20.552V17.136ZM473.757 12.04H474.737V14.77C474.737 15.3673 474.681 15.9973 474.569 16.66C474.466 17.3227 474.266 17.9853 473.967 18.648C473.668 19.3107 473.234 19.9453 472.665 20.552C472.096 21.1493 471.349 21.686 470.425 22.162C470.397 22.0873 470.341 22.0033 470.257 21.91C470.182 21.8167 470.098 21.7187 470.005 21.616C469.921 21.5227 469.842 21.4527 469.767 21.406C470.654 20.9487 471.363 20.4493 471.895 19.908C472.427 19.3573 472.824 18.7927 473.085 18.214C473.356 17.626 473.533 17.038 473.617 16.45C473.71 15.862 473.757 15.2927 473.757 14.742V12.04ZM486.119 13.384C485.839 13.384 485.592 13.2907 485.377 13.104C485.162 12.908 485.055 12.6513 485.055 12.334C485.055 12.0167 485.162 11.7647 485.377 11.578C485.592 11.382 485.839 11.284 486.119 11.284C486.399 11.284 486.646 11.382 486.861 11.578C487.076 11.7647 487.183 12.0167 487.183 12.334C487.183 12.6513 487.076 12.908 486.861 13.104C486.646 13.2907 486.399 13.384 486.119 13.384ZM486.119 20.244C485.839 20.244 485.592 20.1507 485.377 19.964C485.162 19.768 485.055 19.5113 485.055 19.194C485.055 18.8673 485.162 18.6107 485.377 18.424C485.592 18.228 485.839 18.13 486.119 18.13C486.399 18.13 486.646 18.228 486.861 18.424C487.076 18.6107 487.183 18.8673 487.183 19.194C487.183 19.5113 487.076 19.768 486.861 19.964C486.646 20.1507 486.399 20.244 486.119 20.244Z" fill="#1E90FF"/>
<path d="M543.663 24.5V10.5H544.475V24.5H543.663ZM547.04 24.5V10.5H547.852V24.5H547.04Z" fill="#1E90FF"/>
<path d="M567.522 9.254L568.292 10.108C567.666 10.2947 566.948 10.4627 566.136 10.612C565.333 10.752 564.479 10.8733 563.574 10.976C562.678 11.0787 561.772 11.1627 560.858 11.228C559.952 11.2933 559.075 11.34 558.226 11.368C558.207 11.2373 558.17 11.0833 558.114 10.906C558.067 10.7193 558.02 10.57 557.974 10.458C558.804 10.4113 559.668 10.3553 560.564 10.29C561.46 10.2247 562.337 10.1453 563.196 10.052C564.054 9.94933 564.852 9.83267 565.59 9.702C566.336 9.57133 566.98 9.422 567.522 9.254ZM557.988 13.216H568.894V14.224H557.988V13.216ZM557.05 16.492H569.692V17.528H557.05V16.492ZM562.832 10.752H563.91V20.65C563.91 21.0233 563.849 21.2987 563.728 21.476C563.616 21.6627 563.429 21.798 563.168 21.882C562.897 21.966 562.524 22.0173 562.048 22.036C561.581 22.064 560.979 22.0733 560.242 22.064C560.214 21.9613 560.176 21.8447 560.13 21.714C560.083 21.5927 560.027 21.4667 559.962 21.336C559.906 21.2147 559.85 21.112 559.794 21.028C560.186 21.0373 560.559 21.042 560.914 21.042C561.268 21.042 561.576 21.042 561.838 21.042C562.099 21.042 562.286 21.042 562.398 21.042C562.556 21.0327 562.668 21 562.734 20.944C562.799 20.888 562.832 20.79 562.832 20.65V10.752ZM576.482 10.542H582.74V11.438H576.482V10.542ZM579.016 9.24H580.052V13.118H579.016V9.24ZM576.986 14.672L577.476 14.154C577.784 14.3127 578.106 14.5087 578.442 14.742C578.778 14.9753 579.034 15.19 579.212 15.386L578.708 15.974C578.521 15.778 578.264 15.5587 577.938 15.316C577.611 15.0733 577.294 14.8587 576.986 14.672ZM575.964 15.946L576.468 15.4C576.785 15.568 577.116 15.778 577.462 16.03C577.807 16.2727 578.078 16.4967 578.274 16.702L577.756 17.304C577.578 17.0987 577.317 16.87 576.972 16.618C576.626 16.3567 576.29 16.1327 575.964 15.946ZM575.964 12.698H582.698V13.608H575.964V12.698ZM582.474 12.698H582.628L582.796 12.656L583.468 12.824C583.318 13.2907 583.16 13.7667 582.992 14.252C582.824 14.7373 582.656 15.148 582.488 15.484L581.648 15.26C581.788 14.952 581.932 14.574 582.082 14.126C582.24 13.678 582.371 13.2533 582.474 12.852V12.698ZM575.67 17.486H583.496V18.41H575.67V17.486ZM579.422 14.154H580.402V15.848C580.402 16.3613 580.355 16.898 580.262 17.458C580.168 18.018 579.977 18.578 579.688 19.138C579.398 19.6887 578.96 20.2207 578.372 20.734C577.793 21.2473 577.009 21.7187 576.02 22.148C575.982 22.064 575.926 21.9753 575.852 21.882C575.786 21.7887 575.712 21.6953 575.628 21.602C575.544 21.5087 575.469 21.4293 575.404 21.364C576.318 20.9813 577.042 20.5613 577.574 20.104C578.115 19.6467 578.516 19.1707 578.778 18.676C579.048 18.1813 579.221 17.6913 579.296 17.206C579.38 16.7207 579.422 16.2587 579.422 15.82V14.154ZM579.996 19.53L580.64 18.956C581.004 19.1987 581.382 19.4693 581.774 19.768C582.175 20.0667 582.548 20.37 582.894 20.678C583.248 20.9767 583.533 21.2473 583.748 21.49L583.062 22.148C582.856 21.9053 582.581 21.6253 582.236 21.308C581.89 21 581.522 20.692 581.13 20.384C580.747 20.0667 580.369 19.782 579.996 19.53ZM571.302 18.452C571.283 18.3867 571.255 18.298 571.218 18.186C571.18 18.074 571.138 17.962 571.092 17.85C571.054 17.7287 571.022 17.6307 570.994 17.556C571.134 17.5187 571.283 17.416 571.442 17.248C571.61 17.08 571.796 16.8653 572.002 16.604C572.114 16.4733 572.272 16.2633 572.478 15.974C572.692 15.6847 572.93 15.3393 573.192 14.938C573.462 14.5273 573.733 14.0887 574.004 13.622C574.274 13.1553 574.517 12.684 574.732 12.208L575.558 12.684C575.054 13.6453 574.489 14.588 573.864 15.512C573.238 16.4267 572.608 17.2293 571.974 17.92V17.948C571.974 17.948 571.941 17.9667 571.876 18.004C571.81 18.032 571.731 18.074 571.638 18.13C571.544 18.1767 571.465 18.228 571.4 18.284C571.334 18.34 571.302 18.396 571.302 18.452ZM571.302 18.452L571.218 17.57L571.694 17.206L575.25 16.324C575.25 16.464 575.254 16.6227 575.264 16.8C575.273 16.968 575.287 17.1033 575.306 17.206C574.484 17.43 573.822 17.612 573.318 17.752C572.823 17.892 572.44 18.004 572.17 18.088C571.899 18.172 571.703 18.242 571.582 18.298C571.46 18.354 571.367 18.4053 571.302 18.452ZM571.204 15.078C571.185 15.0127 571.157 14.924 571.12 14.812C571.082 14.6907 571.04 14.5693 570.994 14.448C570.956 14.3267 570.919 14.224 570.882 14.14C571.003 14.112 571.129 14.0233 571.26 13.874C571.39 13.7153 571.53 13.5147 571.68 13.272C571.754 13.1507 571.866 12.9547 572.016 12.684C572.174 12.4133 572.347 12.096 572.534 11.732C572.72 11.3587 572.907 10.962 573.094 10.542C573.28 10.1127 573.444 9.688 573.584 9.268L574.494 9.688C574.26 10.2667 573.999 10.85 573.71 11.438C573.42 12.0167 573.112 12.572 572.786 13.104C572.459 13.6267 572.132 14.1027 571.806 14.532V14.56C571.806 14.56 571.773 14.5787 571.708 14.616C571.652 14.644 571.582 14.686 571.498 14.742C571.423 14.798 571.353 14.8587 571.288 14.924C571.232 14.98 571.204 15.0313 571.204 15.078ZM571.204 15.078L571.176 14.322L571.666 14L574.088 13.762C574.069 13.8833 574.05 14.028 574.032 14.196C574.022 14.364 574.018 14.4993 574.018 14.602C573.467 14.6673 573.019 14.728 572.674 14.784C572.338 14.8307 572.072 14.8727 571.876 14.91C571.68 14.938 571.53 14.966 571.428 14.994C571.334 15.022 571.26 15.05 571.204 15.078ZM570.952 20.188C571.493 20.0107 572.142 19.7867 572.898 19.516C573.663 19.2453 574.442 18.97 575.236 18.69L575.404 19.558C574.666 19.838 573.929 20.118 573.192 20.398C572.454 20.678 571.787 20.9347 571.19 21.168L570.952 20.188ZM586.814 11.9H595.606V10.906H585.862V10.136H596.572V12.656H586.814V11.9ZM586.59 13.706H596.74V14.462H586.366L586.59 13.706ZM596.432 13.706H597.412C597.412 13.706 597.407 13.748 597.398 13.832C597.398 13.916 597.393 13.9907 597.384 14.056C597.337 14.5133 597.286 14.868 597.23 15.12C597.174 15.3627 597.09 15.54 596.978 15.652C596.884 15.736 596.782 15.7967 596.67 15.834C596.558 15.8713 596.432 15.8947 596.292 15.904C596.17 15.9133 595.998 15.918 595.774 15.918C595.55 15.9087 595.312 15.8993 595.06 15.89C595.05 15.7873 595.027 15.666 594.99 15.526C594.962 15.386 594.92 15.2647 594.864 15.162C595.088 15.19 595.288 15.2087 595.466 15.218C595.643 15.218 595.769 15.218 595.844 15.218C595.918 15.218 595.979 15.2133 596.026 15.204C596.082 15.1947 596.128 15.1713 596.166 15.134C596.222 15.0687 596.268 14.938 596.306 14.742C596.352 14.546 596.394 14.2427 596.432 13.832V13.706ZM589.334 9.24H590.286V12.11C590.286 12.614 590.234 13.0993 590.132 13.566C590.029 14.0233 589.819 14.4573 589.502 14.868C589.194 15.2693 588.732 15.638 588.116 15.974C587.509 16.3007 586.702 16.59 585.694 16.842C585.666 16.758 585.619 16.6647 585.554 16.562C585.498 16.4593 585.432 16.3613 585.358 16.268C585.292 16.1653 585.232 16.0813 585.176 16.016C586.1 15.8013 586.837 15.554 587.388 15.274C587.948 14.994 588.363 14.686 588.634 14.35C588.914 14.0047 589.1 13.6453 589.194 13.272C589.287 12.8987 589.334 12.5067 589.334 12.096V9.24ZM592.526 9.24H593.52V15.932H592.526V9.24ZM586.954 16.282H595.844V20.076H594.78V17.164H587.976V20.174H586.954V16.282ZM590.972 17.738H592.036C591.905 18.3913 591.7 18.9607 591.42 19.446C591.149 19.9313 590.766 20.3467 590.272 20.692C589.777 21.0373 589.133 21.3267 588.34 21.56C587.556 21.7933 586.576 21.98 585.4 22.12C585.381 22.036 585.348 21.938 585.302 21.826C585.255 21.7233 585.199 21.616 585.134 21.504C585.078 21.392 585.017 21.3033 584.952 21.238C586.053 21.126 586.968 20.9813 587.696 20.804C588.424 20.6173 589.007 20.384 589.446 20.104C589.884 19.824 590.22 19.4927 590.454 19.11C590.696 18.718 590.869 18.2607 590.972 17.738ZM591.644 20.188L592.19 19.474C592.628 19.586 593.095 19.7167 593.59 19.866C594.084 20.0153 594.574 20.174 595.06 20.342C595.554 20.5007 596.016 20.664 596.446 20.832C596.884 20.9907 597.262 21.1447 597.58 21.294L596.992 22.12C596.693 21.9707 596.329 21.8073 595.9 21.63C595.48 21.462 595.027 21.2893 594.542 21.112C594.056 20.944 593.562 20.7807 593.058 20.622C592.563 20.4633 592.092 20.3187 591.644 20.188ZM586.422 11.914H587.374C587.308 12.3433 587.238 12.7913 587.164 13.258C587.098 13.7247 587.028 14.126 586.954 14.462H585.988C586.062 14.1073 586.142 13.6967 586.226 13.23C586.31 12.7633 586.375 12.3247 586.422 11.914ZM605.35 13.384C605.07 13.384 604.822 13.2907 604.608 13.104C604.393 12.908 604.286 12.6513 604.286 12.334C604.286 12.0167 604.393 11.7647 604.608 11.578C604.822 11.382 605.07 11.284 605.35 11.284C605.63 11.284 605.877 11.382 606.092 11.578C606.306 11.7647 606.414 12.0167 606.414 12.334C606.414 12.6513 606.306 12.908 606.092 13.104C605.877 13.2907 605.63 13.384 605.35 13.384ZM605.35 20.244C605.07 20.244 604.822 20.1507 604.608 19.964C604.393 19.768 604.286 19.5113 604.286 19.194C604.286 18.8673 604.393 18.6107 604.608 18.424C604.822 18.228 605.07 18.13 605.35 18.13C605.63 18.13 605.877 18.228 606.092 18.424C606.306 18.6107 606.414 18.8673 606.414 19.194C606.414 19.5113 606.306 19.768 606.092 19.964C605.877 20.1507 605.63 20.244 605.35 20.244Z" fill="#1E90FF"/>
<path d="M360.078 10.5312C360.078 9.0815 361.253 7.90625 362.703 7.90625H410.938C412.387 7.90625 413.562 9.0815 413.562 10.5312V22.5156C413.562 23.9654 412.387 25.1406 410.938 25.1406H362.703C361.253 25.1406 360.078 23.9654 360.078 22.5156V10.5312Z" fill="#F39C12"/>
<path d="M368.139 14.443C368.139 14.793 368.223 15.0415 368.391 15.1885C368.559 15.3355 368.769 15.409 369.021 15.409C369.196 15.409 369.371 15.36 369.546 15.262C369.728 15.157 369.886 14.9855 370.019 14.7475C369.949 14.2225 369.816 13.862 369.62 13.666C369.431 13.463 369.217 13.3615 368.979 13.3615C368.755 13.3615 368.559 13.449 368.391 13.624C368.223 13.792 368.139 14.065 368.139 14.443ZM368.78 19.126C368.339 19.126 367.954 19.0455 367.625 18.8845C367.303 18.7235 367.037 18.538 366.827 18.328L367.646 17.404C367.758 17.53 367.908 17.642 368.097 17.74C368.286 17.831 368.479 17.8765 368.675 17.8765C368.927 17.8765 369.151 17.8135 369.347 17.6875C369.55 17.5545 369.714 17.3375 369.84 17.0365C369.966 16.7285 370.036 16.3155 370.05 15.7975C369.875 16.0145 369.658 16.186 369.399 16.312C369.147 16.438 368.92 16.501 368.717 16.501C368.339 16.501 367.999 16.4275 367.698 16.2805C367.404 16.1335 367.17 15.9095 366.995 15.6085C366.82 15.3005 366.732 14.912 366.732 14.443C366.732 13.981 366.834 13.582 367.037 13.246C367.24 12.91 367.509 12.6545 367.845 12.4795C368.181 12.2975 368.549 12.2065 368.948 12.2065C369.382 12.2065 369.791 12.322 370.176 12.553C370.561 12.777 370.873 13.1305 371.111 13.6135C371.356 14.0965 371.478 14.73 371.478 15.514C371.478 16.34 371.349 17.0225 371.09 17.5615C370.838 18.0935 370.505 18.489 370.092 18.748C369.686 19 369.249 19.126 368.78 19.126ZM374.474 19.126C373.935 19.126 373.473 19.0385 373.088 18.8635C372.71 18.6885 372.398 18.461 372.153 18.181L372.867 17.2045C373.07 17.4005 373.294 17.5615 373.539 17.6875C373.784 17.8135 374.047 17.8765 374.327 17.8765C374.656 17.8765 374.918 17.81 375.114 17.677C375.31 17.537 375.408 17.341 375.408 17.089C375.408 16.893 375.359 16.725 375.261 16.585C375.163 16.438 374.985 16.326 374.726 16.249C374.467 16.172 374.096 16.1335 373.613 16.1335V15.0415C374.215 15.0415 374.628 14.961 374.852 14.8C375.076 14.632 375.188 14.415 375.188 14.149C375.188 13.918 375.118 13.7395 374.978 13.6135C374.838 13.4805 374.635 13.414 374.369 13.414C374.131 13.414 373.914 13.4665 373.718 13.5715C373.529 13.6765 373.329 13.82 373.119 14.002L372.342 13.057C372.65 12.791 372.976 12.5845 373.319 12.4375C373.662 12.2835 374.036 12.2065 374.442 12.2065C375.128 12.2065 375.681 12.3675 376.101 12.6895C376.528 13.0045 376.742 13.4525 376.742 14.0335C376.742 14.3765 376.644 14.6705 376.448 14.9155C376.259 15.1605 375.986 15.36 375.629 15.514V15.556C376.014 15.668 376.329 15.8605 376.574 16.1335C376.826 16.3995 376.952 16.7495 376.952 17.1835C376.952 17.5965 376.836 17.95 376.605 18.244C376.381 18.531 376.08 18.7515 375.702 18.9055C375.331 19.0525 374.922 19.126 374.474 19.126ZM380.231 19.126C379.79 19.126 379.395 19.049 379.045 18.895C378.695 18.741 378.418 18.5275 378.215 18.2545C378.012 17.9745 377.911 17.656 377.911 17.299C377.911 16.893 378.019 16.5605 378.236 16.3015C378.46 16.0425 378.73 15.829 379.045 15.661V15.619C378.786 15.423 378.572 15.199 378.404 14.947C378.236 14.695 378.152 14.394 378.152 14.044C378.152 13.666 378.243 13.3405 378.425 13.0675C378.607 12.7875 378.859 12.574 379.181 12.427C379.503 12.28 379.871 12.2065 380.284 12.2065C380.893 12.2065 381.383 12.3745 381.754 12.7105C382.125 13.0395 382.31 13.4805 382.31 14.0335C382.31 14.3555 382.223 14.6425 382.048 14.8945C381.873 15.1395 381.67 15.339 381.439 15.493V15.535C381.761 15.71 382.034 15.934 382.258 16.207C382.482 16.48 382.594 16.837 382.594 17.278C382.594 17.628 382.496 17.943 382.3 18.223C382.104 18.503 381.827 18.7235 381.47 18.8845C381.12 19.0455 380.707 19.126 380.231 19.126ZM380.651 15.115C380.924 14.8 381.061 14.4745 381.061 14.1385C381.061 13.8795 380.987 13.673 380.84 13.519C380.7 13.358 380.504 13.2775 380.252 13.2775C380.049 13.2775 379.874 13.3405 379.727 13.4665C379.58 13.5925 379.507 13.785 379.507 14.044C379.507 14.317 379.612 14.5305 379.822 14.6845C380.032 14.8385 380.308 14.982 380.651 15.115ZM380.263 18.055C380.522 18.055 380.735 17.9885 380.903 17.8555C381.071 17.7155 381.155 17.5055 381.155 17.2255C381.155 17.0295 381.096 16.8685 380.977 16.7425C380.858 16.6095 380.693 16.494 380.483 16.396C380.273 16.291 380.028 16.179 379.748 16.06C379.601 16.193 379.479 16.354 379.381 16.543C379.283 16.725 379.234 16.9175 379.234 17.1205C379.234 17.4145 379.335 17.6455 379.538 17.8135C379.741 17.9745 379.983 18.055 380.263 18.055ZM385.789 19.126C385.075 19.126 384.498 18.8285 384.057 18.2335C383.623 17.6385 383.406 16.774 383.406 15.64C383.406 14.506 383.623 13.652 384.057 13.078C384.498 12.497 385.075 12.2065 385.789 12.2065C386.503 12.2065 387.077 12.497 387.511 13.078C387.952 13.652 388.173 14.506 388.173 15.64C388.173 16.774 387.952 17.6385 387.511 18.2335C387.077 18.8285 386.503 19.126 385.789 19.126ZM385.789 17.929C385.964 17.929 386.122 17.866 386.262 17.74C386.402 17.607 386.51 17.376 386.587 17.047C386.671 16.718 386.713 16.249 386.713 15.64C386.713 15.031 386.671 14.5655 386.587 14.2435C386.51 13.9215 386.402 13.701 386.262 13.582C386.122 13.463 385.964 13.4035 385.789 13.4035C385.621 13.4035 385.467 13.463 385.327 13.582C385.187 13.701 385.075 13.9215 384.991 14.2435C384.907 14.5655 384.865 15.031 384.865 15.64C384.865 16.249 384.907 16.718 384.991 17.047C385.075 17.376 385.187 17.607 385.327 17.74C385.467 17.866 385.621 17.929 385.789 17.929ZM390.244 16.228H391.651V15.1465C391.651 14.9295 391.658 14.681 391.672 14.401C391.693 14.114 391.707 13.8655 391.714 13.6555H391.672C391.588 13.8375 391.501 14.023 391.41 14.212C391.319 14.401 391.224 14.59 391.126 14.779L390.244 16.228ZM391.651 19V17.404H388.764V16.3435L391.2 12.3325H393.09V16.228H393.856V17.404H393.09V19H391.651ZM394.5 19V18.118C395.067 17.579 395.568 17.0925 396.002 16.6585C396.443 16.2175 396.786 15.815 397.031 15.451C397.276 15.08 397.398 14.737 397.398 14.422C397.398 14.093 397.311 13.8445 397.136 13.6765C396.968 13.5015 396.74 13.414 396.453 13.414C396.215 13.414 395.998 13.484 395.802 13.624C395.613 13.757 395.435 13.9145 395.267 14.0965L394.427 13.267C394.756 12.917 395.092 12.6545 395.435 12.4795C395.778 12.2975 396.187 12.2065 396.663 12.2065C397.104 12.2065 397.489 12.294 397.818 12.469C398.147 12.644 398.403 12.8925 398.585 13.2145C398.774 13.5295 398.868 13.9005 398.868 14.3275C398.868 14.6985 398.763 15.08 398.553 15.472C398.35 15.857 398.088 16.2455 397.766 16.6375C397.444 17.0225 397.101 17.404 396.737 17.782C396.905 17.761 397.094 17.7435 397.304 17.7295C397.514 17.7085 397.696 17.698 397.85 17.698H399.194V19H394.5ZM401.339 16.228H402.746V15.1465C402.746 14.9295 402.753 14.681 402.767 14.401C402.788 14.114 402.802 13.8655 402.809 13.6555H402.767C402.683 13.8375 402.596 14.023 402.505 14.212C402.414 14.401 402.319 14.59 402.221 14.779L401.339 16.228ZM402.746 19V17.404H399.859V16.3435L402.295 12.3325H404.185V16.228H404.951V17.404H404.185V19H402.746Z" fill="white"/>
<path d="M494.734 10.5312C494.734 9.0815 495.91 7.90625 497.359 7.90625H539.75C541.2 7.90625 542.375 9.0815 542.375 10.5312V22.5156C542.375 23.9654 541.2 25.1406 539.75 25.1406H497.359C495.91 25.1406 494.734 23.9654 494.734 22.5156V10.5312Z" fill="#F75444"/>
<path d="M502.795 14.443C502.795 14.793 502.879 15.0415 503.047 15.1885C503.215 15.3355 503.425 15.409 503.677 15.409C503.852 15.409 504.027 15.36 504.202 15.262C504.384 15.157 504.542 14.9855 504.675 14.7475C504.605 14.2225 504.472 13.862 504.276 13.666C504.087 13.463 503.873 13.3615 503.635 13.3615C503.411 13.3615 503.215 13.449 503.047 13.624C502.879 13.792 502.795 14.065 502.795 14.443ZM503.436 19.126C502.995 19.126 502.61 19.0455 502.281 18.8845C501.959 18.7235 501.693 18.538 501.483 18.328L502.302 17.404C502.414 17.53 502.564 17.642 502.753 17.74C502.942 17.831 503.135 17.8765 503.331 17.8765C503.583 17.8765 503.807 17.8135 504.003 17.6875C504.206 17.5545 504.37 17.3375 504.496 17.0365C504.622 16.7285 504.692 16.3155 504.706 15.7975C504.531 16.0145 504.314 16.186 504.055 16.312C503.803 16.438 503.576 16.501 503.373 16.501C502.995 16.501 502.655 16.4275 502.354 16.2805C502.06 16.1335 501.826 15.9095 501.651 15.6085C501.476 15.3005 501.388 14.912 501.388 14.443C501.388 13.981 501.49 13.582 501.693 13.246C501.896 12.91 502.165 12.6545 502.501 12.4795C502.837 12.2975 503.205 12.2065 503.604 12.2065C504.038 12.2065 504.447 12.322 504.832 12.553C505.217 12.777 505.529 13.1305 505.767 13.6135C506.012 14.0965 506.134 14.73 506.134 15.514C506.134 16.34 506.005 17.0225 505.746 17.5615C505.494 18.0935 505.161 18.489 504.748 18.748C504.342 19 503.905 19.126 503.436 19.126ZM506.967 19V18.118C507.534 17.579 508.035 17.0925 508.469 16.6585C508.91 16.2175 509.253 15.815 509.498 15.451C509.743 15.08 509.865 14.737 509.865 14.422C509.865 14.093 509.778 13.8445 509.603 13.6765C509.435 13.5015 509.207 13.414 508.92 13.414C508.682 13.414 508.465 13.484 508.269 13.624C508.08 13.757 507.902 13.9145 507.734 14.0965L506.894 13.267C507.223 12.917 507.559 12.6545 507.902 12.4795C508.245 12.2975 508.654 12.2065 509.13 12.2065C509.571 12.2065 509.956 12.294 510.285 12.469C510.614 12.644 510.87 12.8925 511.052 13.2145C511.241 13.5295 511.335 13.9005 511.335 14.3275C511.335 14.6985 511.23 15.08 511.02 15.472C510.817 15.857 510.555 16.2455 510.233 16.6375C509.911 17.0225 509.568 17.404 509.204 17.782C509.372 17.761 509.561 17.7435 509.771 17.7295C509.981 17.7085 510.163 17.698 510.317 17.698H511.661V19H506.967ZM514.719 19.126C514.173 19.126 513.711 19.035 513.333 18.853C512.955 18.671 512.633 18.4505 512.367 18.1915L513.06 17.215C513.263 17.397 513.484 17.5545 513.722 17.6875C513.96 17.8135 514.219 17.8765 514.499 17.8765C514.842 17.8765 515.115 17.789 515.318 17.614C515.521 17.439 515.622 17.18 515.622 16.837C515.622 16.501 515.524 16.2455 515.328 16.0705C515.132 15.8955 514.88 15.808 514.572 15.808C514.376 15.808 514.212 15.8325 514.079 15.8815C513.953 15.9305 513.788 16.018 513.585 16.144L512.892 15.703L513.081 12.3325H516.861V13.6345H514.415L514.299 14.884C514.53 14.779 514.779 14.7265 515.045 14.7265C515.43 14.7265 515.78 14.8 516.095 14.947C516.417 15.094 516.676 15.3215 516.872 15.6295C517.068 15.9305 517.166 16.319 517.166 16.795C517.166 17.285 517.05 17.705 516.819 18.055C516.595 18.405 516.298 18.671 515.927 18.853C515.556 19.035 515.153 19.126 514.719 19.126ZM520.435 19.126C519.994 19.126 519.598 19.049 519.248 18.895C518.898 18.741 518.622 18.5275 518.419 18.2545C518.216 17.9745 518.114 17.656 518.114 17.299C518.114 16.893 518.223 16.5605 518.44 16.3015C518.664 16.0425 518.933 15.829 519.248 15.661V15.619C518.989 15.423 518.776 15.199 518.608 14.947C518.44 14.695 518.356 14.394 518.356 14.044C518.356 13.666 518.447 13.3405 518.629 13.0675C518.811 12.7875 519.063 12.574 519.385 12.427C519.707 12.28 520.074 12.2065 520.487 12.2065C521.096 12.2065 521.586 12.3745 521.957 12.7105C522.328 13.0395 522.514 13.4805 522.514 14.0335C522.514 14.3555 522.426 14.6425 522.251 14.8945C522.076 15.1395 521.873 15.339 521.642 15.493V15.535C521.964 15.71 522.237 15.934 522.461 16.207C522.685 16.48 522.797 16.837 522.797 17.278C522.797 17.628 522.699 17.943 522.503 18.223C522.307 18.503 522.031 18.7235 521.674 18.8845C521.324 19.0455 520.911 19.126 520.435 19.126ZM520.855 15.115C521.128 14.8 521.264 14.4745 521.264 14.1385C521.264 13.8795 521.191 13.673 521.044 13.519C520.904 13.358 520.708 13.2775 520.456 13.2775C520.253 13.2775 520.078 13.3405 519.931 13.4665C519.784 13.5925 519.71 13.785 519.71 14.044C519.71 14.317 519.815 14.5305 520.025 14.6845C520.235 14.8385 520.512 14.982 520.855 15.115ZM520.466 18.055C520.725 18.055 520.939 17.9885 521.107 17.8555C521.275 17.7155 521.359 17.5055 521.359 17.2255C521.359 17.0295 521.299 16.8685 521.18 16.7425C521.061 16.6095 520.897 16.494 520.687 16.396C520.477 16.291 520.232 16.179 519.952 16.06C519.805 16.193 519.682 16.354 519.584 16.543C519.486 16.725 519.437 16.9175 519.437 17.1205C519.437 17.4145 519.539 17.6455 519.742 17.8135C519.945 17.9745 520.186 18.055 520.466 18.055ZM526.108 15.9235C525.933 15.9235 525.755 15.976 525.573 16.081C525.398 16.179 525.24 16.347 525.1 16.585C525.17 17.11 525.303 17.474 525.499 17.677C525.695 17.873 525.909 17.971 526.14 17.971C526.371 17.971 526.567 17.887 526.728 17.719C526.896 17.544 526.98 17.2675 526.98 16.8895C526.98 16.5395 526.896 16.291 526.728 16.144C526.567 15.997 526.36 15.9235 526.108 15.9235ZM526.171 19.126C525.744 19.126 525.338 19.014 524.953 18.79C524.568 18.559 524.253 18.202 524.008 17.719C523.77 17.229 523.651 16.5955 523.651 15.8185C523.651 14.9855 523.777 14.303 524.029 13.771C524.288 13.239 524.621 12.847 525.027 12.595C525.44 12.336 525.881 12.2065 526.35 12.2065C526.791 12.2065 527.172 12.287 527.494 12.448C527.816 12.602 528.082 12.7875 528.292 13.0045L527.484 13.9285C527.372 13.8025 527.218 13.694 527.022 13.603C526.833 13.505 526.64 13.456 526.444 13.456C526.199 13.456 525.975 13.5225 525.772 13.6555C525.569 13.7815 525.405 13.9985 525.279 14.3065C525.16 14.6075 525.09 15.017 525.069 15.535C525.244 15.311 525.457 15.1395 525.709 15.0205C525.968 14.8945 526.199 14.8315 526.402 14.8315C526.976 14.8315 527.449 14.9995 527.82 15.3355C528.198 15.6645 528.387 16.1825 528.387 16.8895C528.387 17.3515 528.285 17.7505 528.082 18.0865C527.879 18.4155 527.61 18.671 527.274 18.853C526.945 19.035 526.577 19.126 526.171 19.126ZM530.448 16.228H531.855V15.1465C531.855 14.9295 531.862 14.681 531.876 14.401C531.897 14.114 531.911 13.8655 531.918 13.6555H531.876C531.792 13.8375 531.705 14.023 531.614 14.212C531.523 14.401 531.428 14.59 531.33 14.779L530.448 16.228ZM531.855 19V17.404H528.968V16.3435L531.404 12.3325H533.294V16.228H534.06V17.404H533.294V19H531.855Z" fill="white"/>
<path d="M609.547 10.5312C609.547 9.0815 610.722 7.90625 612.172 7.90625H651.641C653.09 7.90625 654.266 9.0815 654.266 10.5312V22.5156C654.266 23.9654 653.09 25.1406 651.641 25.1406H612.172C610.722 25.1406 609.547 23.9654 609.547 22.5156V10.5312Z" fill="#F75444"/>
<path d="M617.608 14.443C617.608 14.793 617.692 15.0415 617.86 15.1885C618.028 15.3355 618.238 15.409 618.49 15.409C618.665 15.409 618.84 15.36 619.015 15.262C619.197 15.157 619.354 14.9855 619.487 14.7475C619.417 14.2225 619.284 13.862 619.088 13.666C618.899 13.463 618.686 13.3615 618.448 13.3615C618.224 13.3615 618.028 13.449 617.86 13.624C617.692 13.792 617.608 14.065 617.608 14.443ZM618.248 19.126C617.807 19.126 617.422 19.0455 617.093 18.8845C616.771 18.7235 616.505 18.538 616.295 18.328L617.114 17.404C617.226 17.53 617.377 17.642 617.566 17.74C617.755 17.831 617.947 17.8765 618.143 17.8765C618.395 17.8765 618.619 17.8135 618.815 17.6875C619.018 17.5545 619.183 17.3375 619.309 17.0365C619.435 16.7285 619.505 16.3155 619.519 15.7975C619.344 16.0145 619.127 16.186 618.868 16.312C618.616 16.438 618.388 16.501 618.185 16.501C617.807 16.501 617.468 16.4275 617.167 16.2805C616.873 16.1335 616.638 15.9095 616.463 15.6085C616.288 15.3005 616.201 14.912 616.201 14.443C616.201 13.981 616.302 13.582 616.505 13.246C616.708 12.91 616.978 12.6545 617.314 12.4795C617.65 12.2975 618.017 12.2065 618.416 12.2065C618.85 12.2065 619.26 12.322 619.645 12.553C620.03 12.777 620.341 13.1305 620.579 13.6135C620.824 14.0965 620.947 14.73 620.947 15.514C620.947 16.34 620.817 17.0225 620.558 17.5615C620.306 18.0935 619.974 18.489 619.561 18.748C619.155 19 618.717 19.126 618.248 19.126ZM623.943 19.126C623.404 19.126 622.942 19.0385 622.557 18.8635C622.179 18.6885 621.867 18.461 621.622 18.181L622.336 17.2045C622.539 17.4005 622.763 17.5615 623.008 17.6875C623.253 17.8135 623.516 17.8765 623.796 17.8765C624.125 17.8765 624.387 17.81 624.583 17.677C624.779 17.537 624.877 17.341 624.877 17.089C624.877 16.893 624.828 16.725 624.73 16.585C624.632 16.438 624.454 16.326 624.195 16.249C623.936 16.172 623.565 16.1335 623.082 16.1335V15.0415C623.684 15.0415 624.097 14.961 624.321 14.8C624.545 14.632 624.657 14.415 624.657 14.149C624.657 13.918 624.587 13.7395 624.447 13.6135C624.307 13.4805 624.104 13.414 623.838 13.414C623.6 13.414 623.383 13.4665 623.187 13.5715C622.998 13.6765 622.798 13.82 622.588 14.002L621.811 13.057C622.119 12.791 622.445 12.5845 622.788 12.4375C623.131 12.2835 623.505 12.2065 623.911 12.2065C624.597 12.2065 625.15 12.3675 625.57 12.6895C625.997 13.0045 626.211 13.4525 626.211 14.0335C626.211 14.3765 626.113 14.6705 625.917 14.9155C625.728 15.1605 625.455 15.36 625.098 15.514V15.556C625.483 15.668 625.798 15.8605 626.043 16.1335C626.295 16.3995 626.421 16.7495 626.421 17.1835C626.421 17.5965 626.305 17.95 626.074 18.244C625.85 18.531 625.549 18.7515 625.171 18.9055C624.8 19.0525 624.391 19.126 623.943 19.126ZM629.7 19.126C629.259 19.126 628.863 19.049 628.513 18.895C628.163 18.741 627.887 18.5275 627.684 18.2545C627.481 17.9745 627.379 17.656 627.379 17.299C627.379 16.893 627.488 16.5605 627.705 16.3015C627.929 16.0425 628.198 15.829 628.513 15.661V15.619C628.254 15.423 628.041 15.199 627.873 14.947C627.705 14.695 627.621 14.394 627.621 14.044C627.621 13.666 627.712 13.3405 627.894 13.0675C628.076 12.7875 628.328 12.574 628.65 12.427C628.972 12.28 629.339 12.2065 629.752 12.2065C630.361 12.2065 630.851 12.3745 631.222 12.7105C631.593 13.0395 631.779 13.4805 631.779 14.0335C631.779 14.3555 631.691 14.6425 631.516 14.8945C631.341 15.1395 631.138 15.339 630.907 15.493V15.535C631.229 15.71 631.502 15.934 631.726 16.207C631.95 16.48 632.062 16.837 632.062 17.278C632.062 17.628 631.964 17.943 631.768 18.223C631.572 18.503 631.296 18.7235 630.939 18.8845C630.589 19.0455 630.176 19.126 629.7 19.126ZM630.12 15.115C630.393 14.8 630.529 14.4745 630.529 14.1385C630.529 13.8795 630.456 13.673 630.309 13.519C630.169 13.358 629.973 13.2775 629.721 13.2775C629.518 13.2775 629.343 13.3405 629.196 13.4665C629.049 13.5925 628.975 13.785 628.975 14.044C628.975 14.317 629.08 14.5305 629.29 14.6845C629.5 14.8385 629.777 14.982 630.12 15.115ZM629.731 18.055C629.99 18.055 630.204 17.9885 630.372 17.8555C630.54 17.7155 630.624 17.5055 630.624 17.2255C630.624 17.0295 630.564 16.8685 630.445 16.7425C630.326 16.6095 630.162 16.494 629.952 16.396C629.742 16.291 629.497 16.179 629.217 16.06C629.07 16.193 628.947 16.354 628.849 16.543C628.751 16.725 628.702 16.9175 628.702 17.1205C628.702 17.4145 628.804 17.6455 629.007 17.8135C629.21 17.9745 629.451 18.055 629.731 18.055ZM634.061 19.126C633.795 19.126 633.571 19.035 633.389 18.853C633.214 18.664 633.126 18.433 633.126 18.16C633.126 17.88 633.214 17.649 633.389 17.467C633.571 17.278 633.795 17.1835 634.061 17.1835C634.327 17.1835 634.547 17.278 634.722 17.467C634.904 17.649 634.995 17.88 634.995 18.16C634.995 18.433 634.904 18.664 634.722 18.853C634.547 19.035 634.327 19.126 634.061 19.126ZM638.406 19.126C637.692 19.126 637.114 18.8285 636.673 18.2335C636.239 17.6385 636.022 16.774 636.022 15.64C636.022 14.506 636.239 13.652 636.673 13.078C637.114 12.497 637.692 12.2065 638.406 12.2065C639.12 12.2065 639.694 12.497 640.128 13.078C640.569 13.652 640.789 14.506 640.789 15.64C640.789 16.774 640.569 17.6385 640.128 18.2335C639.694 18.8285 639.12 19.126 638.406 19.126ZM638.406 17.929C638.581 17.929 638.738 17.866 638.878 17.74C639.018 17.607 639.127 17.376 639.204 17.047C639.288 16.718 639.33 16.249 639.33 15.64C639.33 15.031 639.288 14.5655 639.204 14.2435C639.127 13.9215 639.018 13.701 638.878 13.582C638.738 13.463 638.581 13.4035 638.406 13.4035C638.238 13.4035 638.084 13.463 637.944 13.582C637.804 13.701 637.692 13.9215 637.608 14.2435C637.524 14.5655 637.482 15.031 637.482 15.64C637.482 16.249 637.524 16.718 637.608 17.047C637.692 17.376 637.804 17.607 637.944 17.74C638.084 17.866 638.238 17.929 638.406 17.929ZM643.775 19.126C643.229 19.126 642.767 19.035 642.389 18.853C642.011 18.671 641.689 18.4505 641.423 18.1915L642.116 17.215C642.319 17.397 642.539 17.5545 642.777 17.6875C643.015 17.8135 643.274 17.8765 643.554 17.8765C643.897 17.8765 644.17 17.789 644.373 17.614C644.576 17.439 644.678 17.18 644.678 16.837C644.678 16.501 644.58 16.2455 644.384 16.0705C644.188 15.8955 643.936 15.808 643.628 15.808C643.432 15.808 643.267 15.8325 643.134 15.8815C643.008 15.9305 642.844 16.018 642.641 16.144L641.948 15.703L642.137 12.3325H645.917V13.6345H643.47L643.355 14.884C643.586 14.779 643.834 14.7265 644.1 14.7265C644.485 14.7265 644.835 14.8 645.15 14.947C645.472 15.094 645.731 15.3215 645.927 15.6295C646.123 15.9305 646.221 16.319 646.221 16.795C646.221 17.285 646.106 17.705 645.875 18.055C645.651 18.405 645.353 18.671 644.982 18.853C644.611 19.035 644.209 19.126 643.775 19.126Z" fill="white"/>
<defs>
<clipPath id="clip0_42_2105">
<rect width="11.1429" height="11.1429" fill="white" transform="translate(217 9.92856)"/>
</clipPath>
<clipPath id="clip1_42_2105">
<rect width="7.28931" height="14" fill="white" transform="translate(264.539 9)"/>
</clipPath>
</defs>
</svg>
