<svg width="126" height="123" viewBox="0 0 126 123" fill="none" xmlns="http://www.w3.org/2000/svg">
<path d="M8.82812 1H117.656C119.037 1 120.156 2.11929 120.156 3.5V87.5C120.156 88.8807 119.037 90 117.656 90H8.82812C7.44741 90 6.32812 88.8807 6.32812 87.5V3.5C6.32813 2.11929 7.44741 1 8.82812 1Z" fill="white"/>
<path d="M8.82812 1H117.656C119.037 1 120.156 2.11929 120.156 3.5V87.5C120.156 88.8807 119.037 90 117.656 90H8.82812C7.44741 90 6.32812 88.8807 6.32812 87.5V3.5C6.32813 2.11929 7.44741 1 8.82812 1Z" stroke="#DDDDDD"/>
<path d="M5.82812 102.5C5.82812 101.395 6.72356 100.5 7.82812 100.5H118.656C119.761 100.5 120.656 101.395 120.656 102.5V120.5C120.656 121.605 119.761 122.5 118.656 122.5H7.82812C6.72355 122.5 5.82812 121.605 5.82812 120.5V102.5Z" fill="#F75444"/>
<g clip-path="url(#clip0_25_529)">
<path d="M62.4769 113.716V108.996C62.4769 108.936 62.4569 108.886 62.4169 108.846C62.3769 108.806 62.3235 108.786 62.2569 108.786H61.8369C61.7702 108.786 61.7169 108.806 61.6769 108.846C61.6369 108.886 61.6169 108.936 61.6169 108.996V113.716C61.6169 113.776 61.6369 113.826 61.6769 113.866C61.7169 113.906 61.7702 113.926 61.8369 113.926H62.2569C62.3235 113.926 62.3769 113.906 62.4169 113.866C62.4569 113.826 62.4769 113.776 62.4769 113.716ZM64.1869 113.716V108.996C64.1869 108.936 64.1669 108.886 64.1269 108.846C64.0869 108.806 64.0369 108.786 63.9769 108.786H63.5469C63.4869 108.786 63.4369 108.806 63.3969 108.846C63.3569 108.886 63.3369 108.936 63.3369 108.996V113.716C63.3369 113.776 63.3569 113.826 63.3969 113.866C63.4369 113.906 63.4869 113.926 63.5469 113.926H63.9769C64.0369 113.926 64.0869 113.906 64.1269 113.866C64.1669 113.826 64.1869 113.776 64.1869 113.716ZM65.9069 113.716V108.996C65.9069 108.936 65.8869 108.886 65.8469 108.846C65.8069 108.806 65.7535 108.786 65.6869 108.786H65.2569C65.1969 108.786 65.1469 108.806 65.1069 108.846C65.0669 108.886 65.0469 108.936 65.0469 108.996V113.716C65.0469 113.776 65.0669 113.826 65.1069 113.866C65.1469 113.906 65.1969 113.926 65.2569 113.926H65.6869C65.7535 113.926 65.8069 113.906 65.8469 113.866C65.8869 113.826 65.9069 113.776 65.9069 113.716ZM62.5869 106.286L62.2569 107.076H65.2569L64.9369 106.286C64.9102 106.246 64.8735 106.222 64.8269 106.216H62.7069C62.6602 106.222 62.6202 106.246 62.5869 106.286ZM68.4769 107.286V107.716C68.4769 107.776 68.4569 107.826 68.4169 107.866C68.3769 107.906 68.3235 107.926 68.2569 107.926H67.6169V114.276C67.6169 114.649 67.5135 114.969 67.3069 115.236C67.0935 115.509 66.8402 115.646 66.5469 115.646H60.9769C60.6835 115.646 60.4302 115.516 60.2169 115.256C60.0102 114.989 59.9069 114.672 59.9069 114.306V107.926H59.2569C59.1969 107.926 59.1469 107.906 59.1069 107.866C59.0669 107.826 59.0469 107.776 59.0469 107.716V107.286C59.0469 107.226 59.0669 107.176 59.1069 107.136C59.1469 107.096 59.1969 107.076 59.2569 107.076H61.3269L61.7969 105.956C61.8635 105.789 61.9835 105.649 62.1569 105.536C62.3369 105.416 62.5135 105.356 62.6869 105.356H64.8369C65.0102 105.356 65.1835 105.416 65.3569 105.536C65.5369 105.649 65.6602 105.789 65.7269 105.956L66.1969 107.076H68.2569C68.3235 107.076 68.3769 107.096 68.4169 107.136C68.4569 107.176 68.4769 107.226 68.4769 107.286Z" fill="white"/>
</g>
<defs>
<clipPath id="clip0_25_529">
<rect width="9.42857" height="10.2857" fill="white" transform="translate(59.0469 105.357)"/>
</clipPath>
</defs>
</svg>
