<svg width="134" height="34" viewBox="0 0 134 34" fill="none" xmlns="http://www.w3.org/2000/svg">
<rect width="133.031" height="33" transform="translate(0.125 0.5)" fill="white"/>
<path d="M0.125 3.71875C0.125 2.0619 1.46815 0.71875 3.125 0.71875H61.8281C63.485 0.71875 64.8281 2.0619 64.8281 3.71875V30.2812C64.8281 31.9381 63.485 33.2812 61.8281 33.2812H3.125C1.46815 33.2812 0.125 31.9381 0.125 30.2812V3.71875Z" fill="#F75444"/>
<g clip-path="url(#clip0_25_516)">
<path d="M22.275 19.9538C22.3683 19.8604 22.415 19.7538 22.415 19.6338C22.415 19.5071 22.3683 19.3971 22.275 19.3038C22.1817 19.2104 22.0717 19.1638 21.945 19.1638C21.8183 19.1638 21.7083 19.2104 21.615 19.3038C21.5283 19.3971 21.485 19.5071 21.485 19.6338C21.485 19.7538 21.5283 19.8604 21.615 19.9538C21.7083 20.0471 21.8183 20.0938 21.945 20.0938C22.0717 20.0938 22.1817 20.0471 22.275 19.9538ZM24.135 19.9538C24.2217 19.8604 24.265 19.7538 24.265 19.6338C24.265 19.5071 24.2217 19.3971 24.135 19.3038C24.0417 19.2104 23.9317 19.1638 23.805 19.1638C23.6783 19.1638 23.5683 19.2104 23.475 19.3038C23.3817 19.3971 23.335 19.5071 23.335 19.6338C23.335 19.7538 23.3817 19.8604 23.475 19.9538C23.5683 20.0471 23.6783 20.0938 23.805 20.0938C23.9317 20.0938 24.0417 20.0471 24.135 19.9538ZM25.195 18.0038V20.3238C25.195 20.5171 25.1283 20.6838 24.995 20.8238C24.8617 20.9571 24.695 21.0238 24.495 21.0238H13.825C13.6317 21.0238 13.465 20.9571 13.325 20.8238C13.1917 20.6838 13.125 20.5171 13.125 20.3238V18.0038C13.125 17.8104 13.1917 17.6471 13.325 17.5138C13.465 17.3738 13.6317 17.3038 13.825 17.3038H16.915C17.0217 17.5771 17.195 17.8004 17.435 17.9738C17.6683 18.1471 17.935 18.2338 18.235 18.2338H20.085C20.385 18.2338 20.655 18.1471 20.895 17.9738C21.135 17.8004 21.305 17.5771 21.405 17.3038H24.495C24.695 17.3038 24.8617 17.3738 24.995 17.5138C25.1283 17.6471 25.195 17.8104 25.195 18.0038ZM22.835 13.3038C22.755 13.4971 22.615 13.5938 22.415 13.5938H20.555V16.8438C20.555 16.9704 20.5083 17.0804 20.415 17.1738C20.3217 17.2604 20.2117 17.3038 20.085 17.3038H18.235C18.1083 17.3038 17.9983 17.2604 17.905 17.1738C17.8117 17.0804 17.765 16.9704 17.765 16.8438V13.5938H15.915C15.7083 13.5938 15.565 13.4971 15.485 13.3038C15.3983 13.1171 15.4317 12.9504 15.585 12.8038L18.835 9.55376C18.9217 9.46042 19.0317 9.41376 19.165 9.41376C19.2917 9.41376 19.3983 9.46042 19.485 9.55376L22.735 12.8038C22.8883 12.9504 22.9217 13.1171 22.835 13.3038Z" fill="white"/>
</g>
<path d="M30.9157 14.225H36.2587V15.2H30.9157V14.225ZM25.4687 20.374H37.1557V21.349H25.4687V20.374ZM30.3567 10.208H31.3837V20.894H30.3567V10.208ZM41.2637 10.065L42.1867 10.338C41.9007 11.0747 41.567 11.8027 41.1857 12.522C40.8043 13.2327 40.3927 13.9044 39.9507 14.537C39.5087 15.1697 39.0537 15.7287 38.5857 16.214C38.551 16.136 38.5033 16.0364 38.4427 15.915C38.382 15.7937 38.3127 15.6724 38.2347 15.551C38.1653 15.421 38.1003 15.3214 38.0397 15.252C38.4643 14.8274 38.876 14.3377 39.2747 13.783C39.6733 13.2284 40.0417 12.6347 40.3797 12.002C40.7263 11.3607 41.021 10.715 41.2637 10.065ZM39.8857 13.406L40.8087 12.47L40.8217 12.483V21.947H39.8857V13.406ZM43.9677 16.448H48.7907V17.358H43.9677V16.448ZM48.4657 16.448H48.6477L48.8037 16.383L49.4927 16.812C49.1893 17.1674 48.847 17.5617 48.4657 17.995C48.0843 18.4284 47.69 18.866 47.2827 19.308C46.884 19.7414 46.4983 20.1617 46.1257 20.569L45.3197 20.075C45.6923 19.685 46.078 19.2734 46.4767 18.84C46.8753 18.4067 47.248 17.9907 47.5947 17.592C47.95 17.1847 48.2403 16.8424 48.4657 16.565V16.448ZM45.2547 10.078L46.2167 10.208C46.0693 10.7887 45.909 11.404 45.7357 12.054C45.5623 12.6954 45.3847 13.341 45.2027 13.991C45.0207 14.641 44.843 15.2564 44.6697 15.837C44.4963 16.4177 44.336 16.9247 44.1887 17.358H43.1487C43.3133 16.8987 43.491 16.37 43.6817 15.772C43.8723 15.174 44.0587 14.5457 44.2407 13.887C44.4313 13.2284 44.6133 12.574 44.7867 11.924C44.96 11.2654 45.116 10.65 45.2547 10.078ZM42.3297 11.521H49.6097V12.431H42.3297V11.521ZM41.5887 13.978H50.2077V14.901H41.5887V13.978ZM43.8897 19.308L44.6047 18.71C45.0207 18.9614 45.4453 19.2387 45.8787 19.542C46.3207 19.8454 46.728 20.1444 47.1007 20.439C47.482 20.7337 47.794 21.0024 48.0367 21.245L47.3087 21.973C47.0747 21.7217 46.767 21.4357 46.3857 21.115C46.0043 20.803 45.597 20.4867 45.1637 20.166C44.7303 19.8454 44.3057 19.5594 43.8897 19.308Z" fill="white"/>
<path d="M68.4531 3.71875C68.4531 2.0619 69.7963 0.71875 71.4531 0.71875H130.156C131.813 0.71875 133.156 2.0619 133.156 3.71875V30.2812C133.156 31.9381 131.813 33.2812 130.156 33.2812H71.4531C69.7963 33.2812 68.4531 31.9381 68.4531 30.2812V3.71875Z" fill="#444C69"/>
<g clip-path="url(#clip1_25_516)">
<path d="M83.3131 18.7059V20.0959C83.3131 20.1559 83.2898 20.2092 83.2431 20.2559C83.1965 20.3025 83.1398 20.3259 83.0731 20.3259H81.6831C81.6231 20.3259 81.5698 20.3025 81.5231 20.2559C81.4765 20.2092 81.4531 20.1559 81.4531 20.0959V18.7059C81.4531 18.6392 81.4765 18.5825 81.5231 18.5359C81.5698 18.4892 81.6231 18.4659 81.6831 18.4659H83.0731C83.1398 18.4659 83.1965 18.4892 83.2431 18.5359C83.2898 18.5825 83.3131 18.6392 83.3131 18.7059ZM83.3131 15.9159V17.3059C83.3131 17.3725 83.2898 17.4292 83.2431 17.4759C83.1965 17.5159 83.1398 17.5359 83.0731 17.5359H81.6831C81.6231 17.5359 81.5698 17.5159 81.5231 17.4759C81.4765 17.4292 81.4531 17.3725 81.4531 17.3059V15.9159C81.4531 15.8492 81.4765 15.7959 81.5231 15.7559C81.5698 15.7092 81.6231 15.6859 81.6831 15.6859H83.0731C83.1398 15.6859 83.1965 15.7092 83.2431 15.7559C83.2898 15.7959 83.3131 15.8492 83.3131 15.9159ZM83.3131 13.1259V14.5259C83.3131 14.5859 83.2898 14.6392 83.2431 14.6859C83.1965 14.7325 83.1398 14.7559 83.0731 14.7559H81.6831C81.6231 14.7559 81.5698 14.7325 81.5231 14.6859C81.4765 14.6392 81.4531 14.5859 81.4531 14.5259V13.1259C81.4531 13.0659 81.4765 13.0125 81.5231 12.9659C81.5698 12.9192 81.6231 12.8959 81.6831 12.8959H83.0731C83.1398 12.8959 83.1965 12.9192 83.2431 12.9659C83.2898 13.0125 83.3131 13.0659 83.3131 13.1259ZM94.4531 18.7059V20.0959C94.4531 20.1559 94.4298 20.2092 94.3831 20.2559C94.3365 20.3025 94.2831 20.3259 94.2231 20.3259H84.4731C84.4065 20.3259 84.3498 20.3025 84.3031 20.2559C84.2631 20.2092 84.2431 20.1559 84.2431 20.0959V18.7059C84.2431 18.6392 84.2631 18.5825 84.3031 18.5359C84.3498 18.4892 84.4065 18.4659 84.4731 18.4659H94.2231C94.2831 18.4659 94.3365 18.4892 94.3831 18.5359C94.4298 18.5825 94.4531 18.6392 94.4531 18.7059ZM83.3131 10.3459V11.7359C83.3131 11.8025 83.2898 11.8559 83.2431 11.8959C83.1965 11.9425 83.1398 11.9659 83.0731 11.9659H81.6831C81.6231 11.9659 81.5698 11.9425 81.5231 11.8959C81.4765 11.8559 81.4531 11.8025 81.4531 11.7359V10.3459C81.4531 10.2792 81.4765 10.2225 81.5231 10.1759C81.5698 10.1359 81.6231 10.1159 81.6831 10.1159H83.0731C83.1398 10.1159 83.1965 10.1359 83.2431 10.1759C83.2898 10.2225 83.3131 10.2792 83.3131 10.3459ZM94.4531 15.9159V17.3059C94.4531 17.3725 94.4298 17.4292 94.3831 17.4759C94.3365 17.5159 94.2831 17.5359 94.2231 17.5359H84.4731C84.4065 17.5359 84.3498 17.5159 84.3031 17.4759C84.2631 17.4292 84.2431 17.3725 84.2431 17.3059V15.9159C84.2431 15.8492 84.2631 15.7959 84.3031 15.7559C84.3498 15.7092 84.4065 15.6859 84.4731 15.6859H94.2231C94.2831 15.6859 94.3365 15.7092 94.3831 15.7559C94.4298 15.7959 94.4531 15.8492 94.4531 15.9159ZM94.4531 13.1259V14.5259C94.4531 14.5859 94.4298 14.6392 94.3831 14.6859C94.3365 14.7325 94.2831 14.7559 94.2231 14.7559H84.4731C84.4065 14.7559 84.3498 14.7325 84.3031 14.6859C84.2631 14.6392 84.2431 14.5859 84.2431 14.5259V13.1259C84.2431 13.0659 84.2631 13.0125 84.3031 12.9659C84.3498 12.9192 84.4065 12.8959 84.4731 12.8959H94.2231C94.2831 12.8959 94.3365 12.9192 94.3831 12.9659C94.4298 13.0125 94.4531 13.0659 94.4531 13.1259ZM94.4531 10.3459V11.7359C94.4531 11.8025 94.4298 11.8559 94.3831 11.8959C94.3365 11.9425 94.2831 11.9659 94.2231 11.9659H84.4731C84.4065 11.9659 84.3498 11.9425 84.3031 11.8959C84.2631 11.8559 84.2431 11.8025 84.2431 11.7359V10.3459C84.2431 10.2792 84.2631 10.2225 84.3031 10.1759C84.3498 10.1359 84.4065 10.1159 84.4731 10.1159H94.2231C94.2831 10.1159 94.3365 10.1359 94.3831 10.1759C94.4298 10.2225 94.4531 10.2792 94.4531 10.3459Z" fill="white"/>
</g>
<path d="M97.2938 14.563H105.497V15.434H97.2938V14.563ZM98.8018 11.82H104.951V12.665H98.8018V11.82ZM100.973 10.065H101.948V14.953H100.973V10.065ZM98.9318 10.403L99.8678 10.598C99.6858 11.248 99.4431 11.872 99.1398 12.47C98.8451 13.068 98.5331 13.575 98.2038 13.991C98.1431 13.939 98.0608 13.8827 97.9568 13.822C97.8528 13.7527 97.7488 13.6877 97.6448 13.627C97.5408 13.5577 97.4498 13.5057 97.3718 13.471C97.7271 13.0897 98.0391 12.626 98.3078 12.08C98.5765 11.534 98.7845 10.975 98.9318 10.403ZM101.961 15.005H102.923V18.45C102.923 18.606 102.944 18.7057 102.988 18.749C103.031 18.7924 103.135 18.814 103.3 18.814C103.326 18.814 103.386 18.814 103.482 18.814C103.577 18.814 103.681 18.814 103.794 18.814C103.906 18.814 104.01 18.814 104.106 18.814C104.21 18.814 104.283 18.814 104.327 18.814C104.431 18.814 104.509 18.7794 104.561 18.71C104.621 18.6407 104.665 18.4977 104.691 18.281C104.717 18.0644 104.734 17.7264 104.743 17.267C104.803 17.319 104.881 17.3754 104.977 17.436C105.081 17.488 105.189 17.5314 105.302 17.566C105.414 17.6007 105.514 17.631 105.601 17.657C105.566 18.2117 105.51 18.6364 105.432 18.931C105.362 19.2257 105.245 19.4337 105.081 19.555C104.925 19.6677 104.708 19.724 104.431 19.724C104.387 19.724 104.305 19.724 104.184 19.724C104.062 19.724 103.932 19.724 103.794 19.724C103.655 19.724 103.525 19.724 103.404 19.724C103.291 19.724 103.209 19.724 103.157 19.724C102.836 19.724 102.589 19.6894 102.416 19.62C102.242 19.542 102.121 19.412 102.052 19.23C101.991 19.0394 101.961 18.7794 101.961 18.45V15.005ZM99.6858 15.031H100.661C100.609 15.603 100.522 16.1317 100.401 16.617C100.288 17.1024 100.119 17.5487 99.8938 17.956C99.6685 18.3547 99.3651 18.7144 98.9838 19.035C98.6111 19.347 98.1301 19.62 97.5408 19.854C97.5061 19.7674 97.4541 19.6764 97.3848 19.581C97.3155 19.477 97.2418 19.3817 97.1638 19.295C97.0858 19.1997 97.0121 19.1217 96.9428 19.061C97.4715 18.8704 97.9048 18.645 98.2428 18.385C98.5808 18.125 98.8451 17.826 99.0358 17.488C99.2351 17.15 99.3781 16.7774 99.4648 16.37C99.5601 15.954 99.6338 15.5077 99.6858 15.031ZM93.9268 10.988L94.6678 10.455C94.9278 10.6544 95.1878 10.8797 95.4478 11.131C95.7165 11.3737 95.9635 11.6207 96.1888 11.872C96.4228 12.1234 96.6091 12.353 96.7478 12.561L95.9418 13.172C95.8205 12.9554 95.6471 12.717 95.4218 12.457C95.2051 12.197 94.9625 11.9414 94.6938 11.69C94.4338 11.43 94.1781 11.196 93.9268 10.988ZM96.3968 15.005V20.01H95.4608V15.915H93.8618V15.005H96.3968ZM96.3188 19.62C96.5181 19.62 96.7088 19.6894 96.8908 19.828C97.0815 19.9667 97.3415 20.1357 97.6708 20.335C98.0781 20.5777 98.5548 20.7337 99.1008 20.803C99.6468 20.8637 100.262 20.894 100.947 20.894C101.441 20.894 101.974 20.8854 102.546 20.868C103.118 20.842 103.677 20.816 104.223 20.79C104.777 20.7554 105.267 20.7164 105.692 20.673C105.657 20.751 105.618 20.8507 105.575 20.972C105.54 21.102 105.505 21.2277 105.471 21.349C105.445 21.479 105.427 21.5917 105.419 21.687C105.159 21.7044 104.842 21.7174 104.47 21.726C104.097 21.7434 103.698 21.7564 103.274 21.765C102.849 21.7824 102.433 21.7954 102.026 21.804C101.618 21.8127 101.254 21.817 100.934 21.817C100.18 21.817 99.5211 21.7737 98.9578 21.687C98.4031 21.6004 97.9135 21.4314 97.4888 21.18C97.2375 21.024 97.0121 20.8724 96.8128 20.725C96.6135 20.569 96.4401 20.491 96.2928 20.491C96.1368 20.491 95.9548 20.5604 95.7468 20.699C95.5388 20.829 95.3178 21.0067 95.0838 21.232C94.8585 21.4574 94.6201 21.7044 94.3688 21.973L93.7188 21.128C94.0221 20.8507 94.3255 20.5994 94.6288 20.374C94.9321 20.14 95.2268 19.958 95.5128 19.828C95.8075 19.6894 96.0761 19.62 96.3188 19.62ZM106.602 16.838C107.122 16.6907 107.75 16.5044 108.487 16.279C109.232 16.0537 109.99 15.8197 110.762 15.577L110.892 16.474C110.19 16.708 109.483 16.942 108.773 17.176C108.062 17.4014 107.421 17.605 106.849 17.787L106.602 16.838ZM106.732 12.626H110.931V13.536H106.732V12.626ZM108.435 10.026H109.384V20.777C109.384 21.0457 109.349 21.2537 109.28 21.401C109.219 21.5484 109.106 21.661 108.942 21.739C108.786 21.817 108.573 21.8647 108.305 21.882C108.036 21.908 107.694 21.921 107.278 21.921C107.26 21.7997 107.226 21.648 107.174 21.466C107.122 21.284 107.061 21.128 106.992 20.998C107.269 21.0067 107.52 21.011 107.746 21.011C107.98 21.011 108.136 21.011 108.214 21.011C108.361 21.0024 108.435 20.9244 108.435 20.777V10.026ZM111.282 10.702H117.223V11.586H111.282V10.702ZM117.028 10.702H117.197L117.366 10.663L117.951 10.988C117.639 11.6294 117.24 12.2144 116.755 12.743C116.278 13.263 115.736 13.731 115.13 14.147C114.532 14.563 113.899 14.927 113.232 15.239C112.573 15.5424 111.91 15.7937 111.243 15.993C111.191 15.8717 111.113 15.733 111.009 15.577C110.913 15.421 110.818 15.2954 110.723 15.2C111.364 15.044 112.001 14.8317 112.634 14.563C113.266 14.2857 113.864 13.965 114.428 13.601C115 13.2284 115.507 12.8124 115.949 12.353C116.399 11.8937 116.759 11.3954 117.028 10.858V10.702ZM112.764 11.105C113.128 11.781 113.609 12.392 114.207 12.938C114.805 13.4754 115.494 13.9347 116.274 14.316C117.054 14.6974 117.894 14.9877 118.796 15.187C118.735 15.2477 118.666 15.33 118.588 15.434C118.51 15.5294 118.436 15.629 118.367 15.733C118.297 15.8284 118.241 15.9194 118.198 16.006C117.288 15.7634 116.434 15.4297 115.637 15.005C114.848 14.5717 114.146 14.0517 113.531 13.445C112.915 12.8384 112.408 12.1537 112.01 11.391L112.764 11.105ZM111.555 16.721H117.639V17.605H111.555V16.721ZM110.892 18.944H118.575V19.828H110.892V18.944ZM114.194 15.577H115.169V21.999H114.194V15.577Z" fill="white"/>
<defs>
<clipPath id="clip0_25_516">
<rect width="12.0714" height="11.6071" fill="white" transform="translate(13.125 9.41519)"/>
</clipPath>
<clipPath id="clip1_25_516">
<rect width="13" height="10.2143" fill="white" transform="translate(81.4531 10.1116)"/>
</clipPath>
</defs>
</svg>
