<svg width="109" height="22" viewBox="0 0 109 22" fill="none" xmlns="http://www.w3.org/2000/svg">
<path d="M0.453125 1.99219C0.453125 0.887617 1.34856 -0.0078125 2.45312 -0.0078125H106.586C107.691 -0.0078125 108.586 0.887618 108.586 1.99219V19.9922C108.586 21.0968 107.691 21.9922 106.586 21.9922H2.45313C1.34856 21.9922 0.453125 21.0968 0.453125 19.9922V1.99219Z" fill="#444C69"/>
<g clip-path="url(#clip0_16_1560)">
<path d="M8.16313 13.7065V14.9965C8.16313 15.0498 8.14312 15.0998 8.10312 15.1465C8.06313 15.1865 8.01312 15.2065 7.95312 15.2065H6.66312C6.60979 15.2065 6.55979 15.1865 6.51312 15.1465C6.47312 15.0998 6.45312 15.0498 6.45312 14.9965V13.7065C6.45312 13.6465 6.47312 13.5965 6.51312 13.5565C6.55979 13.5165 6.60979 13.4965 6.66312 13.4965H7.95312C8.01312 13.4965 8.06313 13.5165 8.10312 13.5565C8.14312 13.5965 8.16313 13.6465 8.16313 13.7065ZM8.16313 11.1365V12.4165C8.16313 12.4765 8.14312 12.5265 8.10312 12.5665C8.06313 12.6131 8.01312 12.6365 7.95312 12.6365H6.66312C6.60979 12.6365 6.55979 12.6131 6.51312 12.5665C6.47312 12.5265 6.45312 12.4765 6.45312 12.4165V11.1365C6.45312 11.0765 6.47312 11.0265 6.51312 10.9865C6.55979 10.9398 6.60979 10.9165 6.66312 10.9165H7.95312C8.01312 10.9165 8.06313 10.9398 8.10312 10.9865C8.14312 11.0265 8.16313 11.0765 8.16313 11.1365ZM8.16313 8.56646V9.84646C8.16313 9.90646 8.14312 9.95646 8.10312 9.99646C8.06313 10.0431 8.01312 10.0665 7.95312 10.0665H6.66312C6.60979 10.0665 6.55979 10.0431 6.51312 9.99646C6.47312 9.95646 6.45312 9.90646 6.45312 9.84646V8.56646C6.45312 8.50646 6.47312 8.45646 6.51312 8.41646C6.55979 8.36979 6.60979 8.34646 6.66312 8.34646H7.95312C8.01312 8.34646 8.06313 8.36979 8.10312 8.41646C8.14312 8.45646 8.16313 8.50646 8.16313 8.56646ZM18.4531 13.7065V14.9965C18.4531 15.0498 18.4331 15.0998 18.3931 15.1465C18.3465 15.1865 18.2965 15.2065 18.2431 15.2065H9.24312C9.18313 15.2065 9.13313 15.1865 9.09313 15.1465C9.04646 15.0998 9.02312 15.0498 9.02312 14.9965V13.7065C9.02312 13.6465 9.04646 13.5965 9.09313 13.5565C9.13313 13.5165 9.18313 13.4965 9.24312 13.4965H18.2431C18.2965 13.4965 18.3465 13.5165 18.3931 13.5565C18.4331 13.5965 18.4531 13.6465 18.4531 13.7065ZM8.16313 5.99646V7.27646C8.16313 7.33646 8.14312 7.38646 8.10312 7.42646C8.06313 7.47313 8.01312 7.49646 7.95312 7.49646H6.66312C6.60979 7.49646 6.55979 7.47313 6.51312 7.42646C6.47312 7.38646 6.45312 7.33646 6.45312 7.27646V5.99646C6.45312 5.93646 6.47312 5.88646 6.51312 5.84646C6.55979 5.79979 6.60979 5.77646 6.66312 5.77646H7.95312C8.01312 5.77646 8.06313 5.79979 8.10312 5.84646C8.14312 5.88646 8.16313 5.93646 8.16313 5.99646ZM18.4531 11.1365V12.4165C18.4531 12.4765 18.4331 12.5265 18.3931 12.5665C18.3465 12.6131 18.2965 12.6365 18.2431 12.6365H9.24312C9.18313 12.6365 9.13313 12.6131 9.09313 12.5665C9.04646 12.5265 9.02312 12.4765 9.02312 12.4165V11.1365C9.02312 11.0765 9.04646 11.0265 9.09313 10.9865C9.13313 10.9398 9.18313 10.9165 9.24312 10.9165H18.2431C18.2965 10.9165 18.3465 10.9398 18.3931 10.9865C18.4331 11.0265 18.4531 11.0765 18.4531 11.1365ZM18.4531 8.56646V9.84646C18.4531 9.90646 18.4331 9.95646 18.3931 9.99646C18.3465 10.0431 18.2965 10.0665 18.2431 10.0665H9.24312C9.18313 10.0665 9.13313 10.0431 9.09313 9.99646C9.04646 9.95646 9.02312 9.90646 9.02312 9.84646V8.56646C9.02312 8.50646 9.04646 8.45646 9.09313 8.41646C9.13313 8.36979 9.18313 8.34646 9.24312 8.34646H18.2431C18.2965 8.34646 18.3465 8.36979 18.3931 8.41646C18.4331 8.45646 18.4531 8.50646 18.4531 8.56646ZM18.4531 5.99646V7.27646C18.4531 7.33646 18.4331 7.38646 18.3931 7.42646C18.3465 7.47313 18.2965 7.49646 18.2431 7.49646H9.24312C9.18313 7.49646 9.13313 7.47313 9.09313 7.42646C9.04646 7.38646 9.02312 7.33646 9.02312 7.27646V5.99646C9.02312 5.93646 9.04646 5.88646 9.09313 5.84646C9.13313 5.79979 9.18313 5.77646 9.24312 5.77646H18.2431C18.2965 5.77646 18.3465 5.79979 18.3931 5.84646C18.4331 5.88646 18.4531 5.93646 18.4531 5.99646Z" fill="white"/>
</g>
<path d="M27.2691 12.5582C27.2531 12.5022 27.2291 12.4262 27.1971 12.3302C27.1651 12.2262 27.1291 12.1222 27.0891 12.0182C27.0571 11.9142 27.0251 11.8262 26.9931 11.7542C27.1211 11.7302 27.2491 11.6462 27.3771 11.5022C27.5131 11.3582 27.6691 11.1742 27.8451 10.9502C27.9331 10.8382 28.0611 10.6582 28.2291 10.4102C28.4051 10.1542 28.6011 9.85419 28.8171 9.51019C29.0411 9.15819 29.2611 8.78219 29.4771 8.38219C29.7011 7.97419 29.9051 7.56619 30.0891 7.15819L30.8211 7.57819C30.5411 8.12219 30.2371 8.66619 29.9091 9.21019C29.5891 9.75419 29.2531 10.2702 28.9011 10.7582C28.5571 11.2462 28.2091 11.6902 27.8571 12.0902V12.1142C27.8571 12.1142 27.8251 12.1302 27.7611 12.1622C27.7051 12.1862 27.6371 12.2222 27.5571 12.2702C27.4771 12.3102 27.4091 12.3582 27.3531 12.4142C27.2971 12.4622 27.2691 12.5102 27.2691 12.5582ZM27.2691 12.5582L27.2091 11.8382L27.6171 11.5382L30.4611 10.9382C30.4531 11.0582 30.4571 11.1902 30.4731 11.3342C30.4891 11.4702 30.5051 11.5862 30.5211 11.6822C29.8571 11.8342 29.3211 11.9622 28.9131 12.0662C28.5131 12.1622 28.2051 12.2422 27.9891 12.3062C27.7731 12.3622 27.6131 12.4102 27.5091 12.4502C27.4051 12.4902 27.3251 12.5262 27.2691 12.5582ZM27.1851 9.66619C27.1691 9.61019 27.1451 9.53019 27.1131 9.42619C27.0811 9.32219 27.0451 9.21819 27.0051 9.11419C26.9731 9.01019 26.9411 8.92219 26.9091 8.85019C27.0131 8.81819 27.1131 8.73819 27.2091 8.61019C27.3131 8.47419 27.4251 8.30219 27.5451 8.09419C27.6091 7.99019 27.7011 7.82619 27.8211 7.60219C27.9411 7.37019 28.0731 7.09419 28.2171 6.77419C28.3691 6.45419 28.5131 6.11419 28.6491 5.75419C28.7931 5.38619 28.9211 5.02219 29.0331 4.66219L29.8971 4.96219C29.7051 5.47419 29.4891 5.98619 29.2491 6.49819C29.0171 7.00219 28.7691 7.48619 28.5051 7.95019C28.2411 8.40619 27.9771 8.81819 27.7131 9.18619V9.21019C27.7131 9.21019 27.6851 9.22619 27.6291 9.25819C27.5811 9.28219 27.5211 9.32219 27.4491 9.37819C27.3771 9.42619 27.3131 9.47419 27.2571 9.52219C27.2091 9.57019 27.1851 9.61819 27.1851 9.66619ZM27.1851 9.66619L27.1611 8.99419L27.5931 8.73019L29.6691 8.51419C29.6451 8.62619 29.6251 8.75419 29.6091 8.89819C29.6011 9.04219 29.5971 9.16219 29.5971 9.25819C29.1251 9.31419 28.7411 9.36619 28.4451 9.41419C28.1571 9.45419 27.9291 9.49019 27.7611 9.52219C27.5931 9.54619 27.4651 9.57019 27.3771 9.59419C27.2971 9.61819 27.2331 9.64219 27.1851 9.66619ZM26.9331 14.0942C27.3811 13.9422 27.9131 13.7502 28.5291 13.5182C29.1451 13.2782 29.7811 13.0342 30.4371 12.7862L30.6051 13.5062C30.0051 13.7622 29.4011 14.0142 28.7931 14.2622C28.1931 14.5022 27.6451 14.7222 27.1491 14.9222L26.9331 14.0942ZM33.9411 10.2182H34.5531V15.3062H33.9411V10.2182ZM35.4051 10.2062H36.0171V15.2942H35.4051V10.2062ZM36.9051 9.78619H37.6131V14.8262C37.6131 14.9942 37.5971 15.1302 37.5651 15.2342C37.5331 15.3382 37.4611 15.4222 37.3491 15.4862C37.2451 15.5422 37.1171 15.5782 36.9651 15.5942C36.8211 15.6102 36.6411 15.6182 36.4251 15.6182C36.4171 15.5142 36.3931 15.3982 36.3531 15.2702C36.3131 15.1422 36.2691 15.0302 36.2211 14.9342C36.3571 14.9422 36.4731 14.9462 36.5691 14.9462C36.6731 14.9462 36.7451 14.9462 36.7851 14.9462C36.8651 14.9382 36.9051 14.8982 36.9051 14.8262V9.78619ZM31.4211 5.95819H32.2491V8.56219C32.2491 9.05019 32.2331 9.59019 32.2011 10.1822C32.1691 10.7742 32.1051 11.3822 32.0091 12.0062C31.9211 12.6302 31.7891 13.2422 31.6131 13.8422C31.4371 14.4422 31.2051 14.9942 30.9171 15.4982C30.8691 15.4502 30.8011 15.3902 30.7131 15.3182C30.6251 15.2542 30.5371 15.1902 30.4491 15.1262C30.3611 15.0622 30.2851 15.0182 30.2211 14.9942C30.4931 14.5142 30.7091 13.9982 30.8691 13.4462C31.0371 12.8862 31.1571 12.3222 31.2291 11.7542C31.3091 11.1782 31.3611 10.6182 31.3851 10.0742C31.4091 9.52219 31.4211 9.01819 31.4211 8.56219V5.95819ZM31.8531 5.95819H37.4931V8.76619H31.8531V8.01019H36.6531V6.72619H31.8531V5.95819ZM32.2251 9.79819H37.2891V10.5422H32.9451V15.6062H32.2251V9.79819ZM32.5971 12.3182H37.2291V13.0262H32.5971V12.3182ZM33.7131 4.83019L34.5531 4.59019C34.6971 4.81419 34.8291 5.06619 34.9491 5.34619C35.0771 5.61819 35.1731 5.85819 35.2371 6.06619L34.3491 6.36619C34.3011 6.15819 34.2131 5.91019 34.0851 5.62219C33.9651 5.33419 33.8411 5.07019 33.7131 4.83019ZM39.0171 6.07819H43.3971V6.94219H39.0171V6.07819ZM41.3811 7.92619H42.2091V15.6542H41.3811V7.92619ZM38.9331 12.7382C39.3171 12.6822 39.7571 12.6102 40.2531 12.5222C40.7571 12.4342 41.2851 12.3422 41.8371 12.2462C42.3971 12.1422 42.9611 12.0382 43.5291 11.9342L43.5771 12.7142C42.7931 12.8822 42.0091 13.0462 41.2251 13.2062C40.4411 13.3582 39.7411 13.4942 39.1251 13.6142L38.9331 12.7382ZM39.4251 10.7582C39.4091 10.7022 39.3851 10.6262 39.3531 10.5302C39.3211 10.4262 39.2851 10.3262 39.2451 10.2302C39.2131 10.1262 39.1811 10.0382 39.1491 9.96619C39.2531 9.94219 39.3491 9.84219 39.4371 9.66619C39.5251 9.48219 39.6171 9.25819 39.7131 8.99419C39.7611 8.86619 39.8331 8.65419 39.9291 8.35819C40.0251 8.06219 40.1251 7.71419 40.2291 7.31419C40.3411 6.90619 40.4491 6.47419 40.5531 6.01819C40.6571 5.56219 40.7411 5.11019 40.8051 4.66219L41.6811 4.84219C41.5611 5.48219 41.4131 6.12619 41.2371 6.77419C41.0611 7.42219 40.8691 8.04619 40.6611 8.64619C40.4531 9.23819 40.2411 9.77419 40.0251 10.2542V10.2782C40.0251 10.2782 39.9931 10.2942 39.9291 10.3262C39.8731 10.3582 39.8051 10.4022 39.7251 10.4582C39.6451 10.5062 39.5731 10.5582 39.5091 10.6142C39.4531 10.6702 39.4251 10.7182 39.4251 10.7582ZM39.4251 10.7582V10.0142L39.9051 9.77419H43.3131V10.5902H40.2891C40.0891 10.5902 39.9051 10.6062 39.7371 10.6382C39.5771 10.6702 39.4731 10.7102 39.4251 10.7582ZM48.2331 8.53819H49.0731V15.7022H48.2331V8.53819ZM45.0651 5.73019V6.94219H48.2811V5.73019H45.0651ZM44.2371 5.04619H49.1571V7.61419H44.2371V5.04619ZM43.5291 8.32219H49.8891V9.07819H43.5291V8.32219ZM44.7291 10.1102H48.4731V10.7942H44.7291V10.1102ZM44.7291 11.8382H48.5091V12.5222H44.7291V11.8382ZM44.3451 8.51419H45.1731V14.0102L44.3451 14.1062V8.51419ZM43.2531 13.8302C43.7971 13.7982 44.4331 13.7582 45.1611 13.7102C45.8891 13.6622 46.6651 13.6102 47.4891 13.5542C48.3211 13.4902 49.1491 13.4262 49.9731 13.3622L49.9611 14.1182C49.1771 14.1822 48.3851 14.2462 47.5851 14.3102C46.7931 14.3742 46.0371 14.4342 45.3171 14.4902C44.5971 14.5462 43.9571 14.5982 43.3971 14.6462L43.2531 13.8302ZM53.4291 8.58619H59.4891V9.39019H53.4291V8.58619ZM53.2131 14.4062H59.6451V15.2102H53.2131V14.4062ZM52.8051 10.9022H60.1491V15.7142H59.2371V11.7182H53.6931V15.7142H52.8051V10.9022ZM56.4291 5.57419C56.1011 6.06219 55.6731 6.56619 55.1451 7.08619C54.6251 7.60619 54.0451 8.10619 53.4051 8.58619C52.7731 9.06619 52.1131 9.49019 51.4251 9.85819C51.3851 9.79419 51.3331 9.71819 51.2691 9.63019C51.2051 9.54219 51.1371 9.45419 51.0651 9.36619C50.9931 9.27819 50.9251 9.20619 50.8611 9.15019C51.5651 8.79019 52.2411 8.36219 52.8891 7.86619C53.5451 7.37019 54.1331 6.84619 54.6531 6.29419C55.1811 5.74219 55.6011 5.20619 55.9131 4.68619H56.8371C57.1571 5.13419 57.5211 5.57019 57.9291 5.99419C58.3451 6.41819 58.7851 6.81819 59.2491 7.19419C59.7211 7.57019 60.2011 7.91419 60.6891 8.22619C61.1851 8.53019 61.6691 8.78619 62.1411 8.99419C62.0371 9.10619 61.9331 9.23419 61.8291 9.37819C61.7251 9.52219 61.6291 9.66219 61.5411 9.79819C61.0691 9.54219 60.5931 9.25419 60.1131 8.93419C59.6331 8.61419 59.1651 8.27019 58.7091 7.90219C58.2531 7.52619 57.8291 7.14219 57.4371 6.75019C57.0451 6.35019 56.7091 5.95819 56.4291 5.57419ZM65.4291 7.39819H71.5251V8.17819H65.4291V7.39819ZM66.0411 9.43819H66.8691V14.1302H66.0411V9.43819ZM66.4851 9.43819H70.8771V13.2662H66.4851V12.4862H70.0371V10.2062H66.4851V9.43819ZM63.5091 5.28619H73.0851V6.13819H64.3851V15.7262H63.5091V5.28619ZM72.5331 5.28619H73.4211V14.5622C73.4211 14.8342 73.3811 15.0462 73.3011 15.1982C73.2291 15.3582 73.1011 15.4742 72.9171 15.5462C72.7411 15.6182 72.4891 15.6622 72.1611 15.6782C71.8411 15.7022 71.4251 15.7142 70.9131 15.7142C70.9051 15.6342 70.8811 15.5382 70.8411 15.4262C70.8091 15.3222 70.7691 15.2142 70.7211 15.1022C70.6811 14.9982 70.6371 14.9102 70.5891 14.8382C70.9651 14.8462 71.3091 14.8502 71.6211 14.8502C71.9331 14.8502 72.1411 14.8502 72.2451 14.8502C72.3571 14.8422 72.4331 14.8142 72.4731 14.7662C72.5131 14.7262 72.5331 14.6542 72.5331 14.5502V5.28619ZM83.1531 7.14619L84.1011 7.43419C83.5971 8.89819 82.9491 10.1622 82.1571 11.2262C81.3731 12.2902 80.4291 13.1862 79.3251 13.9142C78.2291 14.6422 76.9531 15.2422 75.4971 15.7142C75.4651 15.6342 75.4131 15.5422 75.3411 15.4382C75.2771 15.3342 75.2051 15.2262 75.1251 15.1142C75.0531 15.0022 74.9851 14.9142 74.9211 14.8502C76.3451 14.4342 77.5891 13.8902 78.6531 13.2182C79.7171 12.5382 80.6211 11.7022 81.3651 10.7102C82.1091 9.71019 82.7051 8.52219 83.1531 7.14619ZM77.6931 7.21819C78.1331 8.49819 78.7251 9.65019 79.4691 10.6742C80.2211 11.6902 81.1411 12.5502 82.2291 13.2542C83.3171 13.9582 84.5851 14.4822 86.0331 14.8262C85.9611 14.8902 85.8811 14.9742 85.7931 15.0782C85.7131 15.1902 85.6331 15.3022 85.5531 15.4142C85.4811 15.5262 85.4211 15.6222 85.3731 15.7022C83.8931 15.3182 82.6011 14.7502 81.4971 13.9982C80.4011 13.2382 79.4691 12.3142 78.7011 11.2262C77.9331 10.1302 77.3011 8.88219 76.8051 7.48219L77.6931 7.21819ZM75.0531 6.70219H85.9011V7.57819H75.0531V6.70219ZM79.9731 4.66219H80.8971V7.23019H79.9731V4.66219ZM87.2331 7.19419H97.6971V8.10619H87.2331V7.19419ZM89.6211 12.5462H95.2131V13.4582H89.6211V12.5462ZM91.9731 4.67419H92.9211V15.7022H91.9731V4.67419ZM91.6851 7.49419L92.5011 7.75819C92.1411 8.60619 91.7011 9.41819 91.1811 10.1942C90.6611 10.9622 90.0851 11.6582 89.4531 12.2822C88.8211 12.8982 88.1611 13.4062 87.4731 13.8062C87.4251 13.7342 87.3611 13.6542 87.2811 13.5662C87.2011 13.4702 87.1211 13.3782 87.0411 13.2902C86.9691 13.2022 86.8971 13.1262 86.8251 13.0622C87.3291 12.7982 87.8171 12.4702 88.2891 12.0782C88.7691 11.6862 89.2211 11.2462 89.6451 10.7582C90.0771 10.2622 90.4651 9.73819 90.8091 9.18619C91.1531 8.63419 91.4451 8.07019 91.6851 7.49419ZM93.2091 7.53019C93.5291 8.29019 93.9411 9.02619 94.4451 9.73819C94.9491 10.4422 95.5131 11.0782 96.1371 11.6462C96.7691 12.2062 97.4291 12.6542 98.1171 12.9902C98.0451 13.0542 97.9651 13.1302 97.8771 13.2182C97.7971 13.3062 97.7171 13.4022 97.6371 13.5062C97.5571 13.6022 97.4891 13.6942 97.4331 13.7822C96.7371 13.3902 96.0691 12.8902 95.4291 12.2822C94.7971 11.6662 94.2251 10.9742 93.7131 10.2062C93.2011 9.43819 92.7691 8.63819 92.4171 7.80619L93.2091 7.53019Z" fill="white"/>
<defs>
<clipPath id="clip0_16_1560">
<rect width="12" height="9.42857" fill="white" transform="translate(6.45312 5.77789)"/>
</clipPath>
</defs>
</svg>
