<svg width="475" height="33" viewBox="0 0 475 33" fill="none" xmlns="http://www.w3.org/2000/svg">
<path d="M0 3C0 1.34315 1.34315 0 3 0H34.1484C35.8053 0 37.1484 1.34315 37.1484 3V29.5703C37.1484 31.2272 35.8053 32.5703 34.1484 32.5703H3C1.34315 32.5703 0 31.2272 0 29.5703V3Z" fill="#444C69"/>
<g clip-path="url(#clip0_3_10)">
<path d="M23.96 17.1629C23.96 17.1829 23.9567 17.1995 23.95 17.2129C23.6433 18.5062 22.9967 19.5562 22.01 20.3629C21.0233 21.1695 19.8667 21.5729 18.54 21.5729C17.8333 21.5729 17.15 21.4395 16.49 21.1729C15.83 20.9062 15.2433 20.5262 14.73 20.0329L13.79 20.9729C13.6967 21.0595 13.5867 21.1029 13.46 21.1029C13.34 21.1029 13.2333 21.0595 13.14 20.9729C13.0467 20.8795 13 20.7695 13 20.6429V17.3929C13 17.2662 13.0467 17.1562 13.14 17.0629C13.2333 16.9762 13.34 16.9329 13.46 16.9329H16.71C16.8367 16.9329 16.9467 16.9762 17.04 17.0629C17.1333 17.1562 17.18 17.2662 17.18 17.3929C17.18 17.5195 17.1333 17.6295 17.04 17.7229L16.05 18.7129C16.39 19.0329 16.7767 19.2795 17.21 19.4529C17.65 19.6262 18.1033 19.7129 18.57 19.7129C19.2167 19.7129 19.8233 19.5562 20.39 19.2429C20.95 18.9295 21.3967 18.4962 21.73 17.9429C21.7833 17.8629 21.9133 17.5795 22.12 17.0929C22.16 16.9862 22.2333 16.9329 22.34 16.9329H23.73C23.79 16.9329 23.8433 16.9529 23.89 16.9929C23.9367 17.0395 23.96 17.0962 23.96 17.1629ZM24.14 11.3529V14.6029C24.14 14.7295 24.0967 14.8395 24.01 14.9329C23.9167 15.0262 23.8067 15.0729 23.68 15.0729H20.43C20.3033 15.0729 20.1933 15.0262 20.1 14.9329C20.0067 14.8395 19.96 14.7295 19.96 14.6029C19.96 14.4829 20.0067 14.3762 20.1 14.2829L21.1 13.2829C20.3867 12.6162 19.5433 12.2829 18.57 12.2829C17.9233 12.2829 17.32 12.4395 16.76 12.7529C16.2 13.0729 15.75 13.5062 15.41 14.0529C15.3567 14.1395 15.2267 14.4229 15.02 14.9029C14.9867 15.0162 14.9167 15.0729 14.81 15.0729H13.36C13.3 15.0729 13.2467 15.0495 13.2 15.0029C13.1533 14.9562 13.13 14.9029 13.13 14.8429V14.7929C13.4433 13.4929 14.0967 12.4395 15.09 11.6329C16.0833 10.8329 17.2433 10.4329 18.57 10.4329C19.2767 10.4329 19.9633 10.5662 20.63 10.8329C21.2967 11.0995 21.89 11.4762 22.41 11.9629L23.35 11.0329C23.4433 10.9395 23.5533 10.8929 23.68 10.8929C23.8067 10.8929 23.9167 10.9395 24.01 11.0329C24.0967 11.1262 24.14 11.2329 24.14 11.3529Z" fill="white"/>
</g>
<path d="M41.0391 3C41.0391 1.34315 42.3822 0 44.0391 0H103.875C105.532 0 106.875 1.34315 106.875 3V29.5703C106.875 31.2272 105.532 32.5703 103.875 32.5703H44.0391C42.3822 32.5703 41.0391 31.2272 41.0391 29.5703V3Z" fill="#18BC9C"/>
<g clip-path="url(#clip1_3_10)">
<path d="M64.2491 15.3071V16.6971C64.2491 16.8905 64.1824 17.0538 64.0491 17.1871C63.9157 17.3271 63.7524 17.3971 63.5591 17.3971H60.5391V20.4071C60.5391 20.6005 60.4724 20.7671 60.3391 20.9071C60.1991 21.0405 60.0324 21.1071 59.8391 21.1071H58.4491C58.2557 21.1071 58.0924 21.0405 57.9591 20.9071C57.8191 20.7671 57.7491 20.6005 57.7491 20.4071V17.3971H54.7391C54.5457 17.3971 54.3791 17.3271 54.2391 17.1871C54.1057 17.0538 54.0391 16.8905 54.0391 16.6971V15.3071C54.0391 15.1138 54.1057 14.9471 54.2391 14.8071C54.3791 14.6738 54.5457 14.6071 54.7391 14.6071H57.7491V11.5871C57.7491 11.3938 57.8191 11.2305 57.9591 11.0971C58.0924 10.9638 58.2557 10.8971 58.4491 10.8971H59.8391C60.0324 10.8971 60.1991 10.9638 60.3391 11.0971C60.4724 11.2305 60.5391 11.3938 60.5391 11.5871V14.6071H63.5591C63.7524 14.6071 63.9157 14.6738 64.0491 14.8071C64.1824 14.9471 64.2491 15.1138 64.2491 15.3071Z" fill="white"/>
</g>
<path d="M72.0604 16.9833L72.8404 17.2563C72.745 17.6203 72.6194 17.9973 72.4634 18.3873C72.316 18.7686 72.134 19.1326 71.9174 19.4793C71.7007 19.826 71.4407 20.1293 71.1374 20.3893L70.4224 19.8303C70.6997 19.5963 70.9424 19.3233 71.1504 19.0113C71.3584 18.6993 71.536 18.37 71.6834 18.0233C71.8394 17.668 71.965 17.3213 72.0604 16.9833ZM75.1674 17.4773L75.9084 17.2173C76.125 17.6506 76.3157 18.1273 76.4804 18.6473C76.6537 19.1586 76.7707 19.605 76.8314 19.9863L76.0384 20.2723C76.0124 20.021 75.9517 19.735 75.8564 19.4143C75.7697 19.085 75.6657 18.7513 75.5444 18.4133C75.4317 18.0753 75.306 17.7633 75.1674 17.4773ZM76.7664 17.1783L77.5334 16.8013C77.802 17.122 78.062 17.4773 78.3134 17.8673C78.5734 18.2486 78.803 18.6256 79.0024 18.9983C79.2104 19.3623 79.3664 19.696 79.4704 19.9993L78.6384 20.4283C78.543 20.125 78.3957 19.7826 78.1964 19.4013C77.997 19.02 77.7717 18.6386 77.5204 18.2573C77.2777 17.8673 77.0264 17.5076 76.7664 17.1783ZM76.3244 13.4343C76.541 13.8416 76.814 14.236 77.1434 14.6173C77.4727 14.9986 77.841 15.341 78.2484 15.6443C78.6557 15.939 79.0717 16.1816 79.4964 16.3723C79.427 16.4243 79.349 16.498 79.2624 16.5933C79.1757 16.6886 79.0934 16.7883 79.0154 16.8923C78.946 16.9876 78.8854 17.0743 78.8334 17.1523C78.3827 16.927 77.945 16.6366 77.5204 16.2813C77.1044 15.926 76.7187 15.5316 76.3634 15.0983C76.0167 14.6563 75.722 14.197 75.4794 13.7203L76.3244 13.4343ZM74.1144 11.1593L75.1024 11.3153C74.7557 12.7626 74.2184 13.976 73.4904 14.9553C72.771 15.9346 71.848 16.7233 70.7214 17.3213C70.678 17.252 70.6174 17.1696 70.5394 17.0743C70.4614 16.979 70.379 16.8836 70.2924 16.7883C70.2057 16.693 70.1277 16.615 70.0584 16.5543C71.1504 16.043 72.0257 15.341 72.6844 14.4483C73.3517 13.5556 73.8284 12.4593 74.1144 11.1593ZM77.7674 9.91129L78.5344 10.6653C78.0664 10.8126 77.5377 10.9426 76.9484 11.0553C76.359 11.168 75.735 11.2676 75.0764 11.3543C74.4264 11.441 73.7677 11.5103 73.1004 11.5623C72.433 11.6143 71.7874 11.6576 71.1634 11.6923C71.1547 11.571 71.12 11.4323 71.0594 11.2763C71.0074 11.1116 70.9554 10.973 70.9034 10.8603C71.51 10.8256 72.134 10.7823 72.7754 10.7303C73.4254 10.6696 74.058 10.6003 74.6734 10.5223C75.2887 10.4443 75.8607 10.3533 76.3894 10.2493C76.9267 10.1453 77.386 10.0326 77.7674 9.91129ZM70.4484 13.0183H79.1714V13.9283H70.4484V13.0183ZM73.6854 15.6183H74.5954V20.6753C74.5954 20.9266 74.565 21.1216 74.5044 21.2603C74.4437 21.4076 74.3224 21.516 74.1404 21.5853C73.967 21.6633 73.733 21.7066 73.4384 21.7153C73.1524 21.7326 72.7884 21.7413 72.3464 21.7413C72.329 21.62 72.2944 21.477 72.2424 21.3123C72.1904 21.1476 72.1297 21.0003 72.0604 20.8703C72.3897 20.879 72.6844 20.8833 72.9444 20.8833C73.2044 20.8833 73.3777 20.8833 73.4644 20.8833C73.6117 20.8746 73.6854 20.8053 73.6854 20.6753V15.6183ZM67.9654 10.6133L68.5374 9.91129C68.78 10.024 69.0357 10.1583 69.3044 10.3143C69.573 10.4703 69.8244 10.6306 70.0584 10.7953C70.301 10.9513 70.496 11.103 70.6434 11.2503L70.0584 12.0433C69.9197 11.8873 69.7334 11.727 69.4994 11.5623C69.2654 11.389 69.014 11.22 68.7454 11.0553C68.4767 10.882 68.2167 10.7346 67.9654 10.6133ZM67.3544 14.1363L67.8874 13.4213C68.156 13.5166 68.429 13.638 68.7064 13.7853C68.9837 13.924 69.2437 14.0713 69.4864 14.2273C69.729 14.3746 69.9284 14.5176 70.0844 14.6563L69.5254 15.4493C69.3694 15.3106 69.17 15.1633 68.9274 15.0073C68.6934 14.8426 68.4377 14.6866 68.1604 14.5393C67.883 14.3833 67.6144 14.249 67.3544 14.1363ZM67.6404 21.0393C67.8137 20.71 68.0044 20.3286 68.2124 19.8953C68.429 19.4533 68.6414 18.9896 68.8494 18.5043C69.066 18.0103 69.2654 17.5293 69.4474 17.0613L70.2274 17.6073C70.0627 18.0406 69.8807 18.4913 69.6814 18.9593C69.4907 19.4273 69.2957 19.8866 69.0964 20.3373C68.9057 20.7793 68.7107 21.1953 68.5114 21.5853L67.6404 21.0393ZM87.7254 19.6613H91.2614V20.5973H87.7254V19.6613ZM80.5494 12.2513H85.5544V13.2133H80.5494V12.2513ZM87.2964 11.4063H91.7294V21.4553H90.7544V12.3553H88.2324V21.5593H87.2964V11.4063ZM85.2944 12.2513H86.2304C86.2304 12.2513 86.2304 12.286 86.2304 12.3553C86.2304 12.416 86.2304 12.4896 86.2304 12.5763C86.2304 12.6543 86.2304 12.715 86.2304 12.7583C86.2044 14.2056 86.1784 15.4233 86.1524 16.4113C86.1264 17.3993 86.0917 18.2096 86.0484 18.8423C86.005 19.4663 85.9487 19.9473 85.8794 20.2853C85.8187 20.6233 85.7364 20.8616 85.6324 21.0003C85.511 21.165 85.3854 21.282 85.2554 21.3513C85.1254 21.4293 84.965 21.4813 84.7744 21.5073C84.5924 21.5333 84.3584 21.542 84.0724 21.5333C83.795 21.5333 83.5134 21.5246 83.2274 21.5073C83.2187 21.36 83.1884 21.1953 83.1364 21.0133C83.093 20.8313 83.028 20.671 82.9414 20.5323C83.2447 20.5583 83.5264 20.5756 83.7864 20.5843C84.0464 20.5843 84.2327 20.5843 84.3454 20.5843C84.4407 20.593 84.523 20.5843 84.5924 20.5583C84.6617 20.5236 84.7267 20.463 84.7874 20.3763C84.8567 20.281 84.9174 20.0773 84.9694 19.7653C85.0214 19.4446 85.069 18.981 85.1124 18.3743C85.1557 17.7676 85.1904 16.9833 85.2164 16.0213C85.2424 15.0506 85.2684 13.872 85.2944 12.4853V12.2513ZM82.3954 9.96329H83.3574C83.3487 11.168 83.327 12.3423 83.2924 13.4863C83.2577 14.6303 83.1667 15.7136 83.0194 16.7363C82.8807 17.759 82.6467 18.6993 82.3174 19.5573C81.9967 20.4066 81.5504 21.1433 80.9784 21.7673C80.9264 21.6893 80.857 21.607 80.7704 21.5203C80.6837 21.4423 80.5927 21.3643 80.4974 21.2863C80.402 21.2083 80.311 21.1433 80.2244 21.0913C80.6577 20.6406 81.0087 20.112 81.2774 19.5053C81.5547 18.8986 81.7714 18.2356 81.9274 17.5163C82.0834 16.7883 82.1917 16.017 82.2524 15.2023C82.3217 14.379 82.3607 13.5296 82.3694 12.6543C82.3867 11.7703 82.3954 10.8733 82.3954 9.96329Z" fill="white"/>
<path d="M251.148 3C251.148 1.34315 252.492 0 254.148 0H315.844C317.501 0 318.844 1.34315 318.844 3V29.5703C318.844 31.2272 317.501 32.5703 315.844 32.5703H254.148C252.492 32.5703 251.148 31.2272 251.148 29.5703V3Z" fill="#F75444"/>
<g clip-path="url(#clip2_3_10)">
<path d="M273.298 20.735C273.392 20.6417 273.438 20.535 273.438 20.415C273.438 20.2883 273.392 20.1783 273.298 20.085C273.205 19.9917 273.095 19.945 272.968 19.945C272.842 19.945 272.732 19.9917 272.638 20.085C272.552 20.1783 272.508 20.2883 272.508 20.415C272.508 20.535 272.552 20.6417 272.638 20.735C272.732 20.8283 272.842 20.875 272.968 20.875C273.095 20.875 273.205 20.8283 273.298 20.735ZM275.158 20.735C275.245 20.6417 275.288 20.535 275.288 20.415C275.288 20.2883 275.245 20.1783 275.158 20.085C275.065 19.9917 274.955 19.945 274.828 19.945C274.702 19.945 274.592 19.9917 274.498 20.085C274.405 20.1783 274.358 20.2883 274.358 20.415C274.358 20.535 274.405 20.6417 274.498 20.735C274.592 20.8283 274.702 20.875 274.828 20.875C274.955 20.875 275.065 20.8283 275.158 20.735ZM276.218 18.785V21.105C276.218 21.2983 276.152 21.465 276.018 21.605C275.885 21.7383 275.718 21.805 275.518 21.805H264.848C264.655 21.805 264.488 21.7383 264.348 21.605C264.215 21.465 264.148 21.2983 264.148 21.105V18.785C264.148 18.5917 264.215 18.4283 264.348 18.295C264.488 18.155 264.655 18.085 264.848 18.085H267.938C268.045 18.3583 268.218 18.5817 268.458 18.755C268.692 18.9283 268.958 19.015 269.258 19.015H271.108C271.408 19.015 271.678 18.9283 271.918 18.755C272.158 18.5817 272.328 18.3583 272.428 18.085H275.518C275.718 18.085 275.885 18.155 276.018 18.295C276.152 18.4283 276.218 18.5917 276.218 18.785ZM273.858 14.085C273.778 14.2783 273.638 14.375 273.438 14.375H271.578V17.625C271.578 17.7517 271.532 17.8617 271.438 17.955C271.345 18.0417 271.235 18.085 271.108 18.085H269.258C269.132 18.085 269.022 18.0417 268.928 17.955C268.835 17.8617 268.788 17.7517 268.788 17.625V14.375H266.938C266.732 14.375 266.588 14.2783 266.508 14.085C266.422 13.8983 266.455 13.7317 266.608 13.585L269.858 10.335C269.945 10.2417 270.055 10.195 270.188 10.195C270.315 10.195 270.422 10.2417 270.508 10.335L273.758 13.585C273.912 13.7317 273.945 13.8983 273.858 14.085Z" fill="white"/>
</g>
<path d="M279.635 16.9313H291.101V17.8413H279.635V16.9313ZM287.253 15.9173H288.254V20.5973C288.254 20.8746 288.206 21.087 288.111 21.2343C288.024 21.3903 287.864 21.4986 287.63 21.5593C287.396 21.6286 287.075 21.6676 286.668 21.6763C286.261 21.6936 285.745 21.7023 285.121 21.7023C285.095 21.581 285.047 21.4336 284.978 21.2603C284.909 21.0956 284.839 20.9526 284.77 20.8313C285.091 20.84 285.398 20.8443 285.693 20.8443C285.988 20.8443 286.243 20.8443 286.46 20.8443C286.685 20.8443 286.837 20.8443 286.915 20.8443C287.045 20.8356 287.132 20.8096 287.175 20.7663C287.227 20.7316 287.253 20.6666 287.253 20.5713V15.9173ZM281.572 18.3483L282.248 17.7633C282.525 17.98 282.803 18.227 283.08 18.5043C283.366 18.773 283.626 19.0416 283.86 19.3103C284.094 19.579 284.28 19.826 284.419 20.0513L283.691 20.7013C283.57 20.4673 283.392 20.2116 283.158 19.9343C282.924 19.657 282.668 19.3796 282.391 19.1023C282.122 18.825 281.849 18.5736 281.572 18.3483ZM280.584 10.7043H281.598V14.0973C281.598 14.2793 281.641 14.4223 281.728 14.5263C281.815 14.6216 281.979 14.691 282.222 14.7343C282.465 14.769 282.824 14.7863 283.301 14.7863C283.414 14.7863 283.6 14.7863 283.86 14.7863C284.12 14.7863 284.419 14.7863 284.757 14.7863C285.095 14.7863 285.446 14.7863 285.81 14.7863C286.183 14.7863 286.547 14.7863 286.902 14.7863C287.257 14.7863 287.574 14.7863 287.851 14.7863C288.128 14.7863 288.345 14.7863 288.501 14.7863C288.856 14.7863 289.125 14.7603 289.307 14.7083C289.489 14.6476 289.615 14.535 289.684 14.3703C289.762 14.197 289.818 13.9543 289.853 13.6423C289.983 13.7116 290.135 13.7723 290.308 13.8243C290.49 13.8763 290.655 13.9153 290.802 13.9413C290.75 14.3833 290.65 14.7256 290.503 14.9683C290.364 15.2023 290.143 15.367 289.84 15.4623C289.537 15.549 289.112 15.5923 288.566 15.5923C288.479 15.5923 288.302 15.5923 288.033 15.5923C287.773 15.5923 287.461 15.5923 287.097 15.5923C286.733 15.5923 286.352 15.5923 285.953 15.5923C285.554 15.5923 285.173 15.5923 284.809 15.5923C284.454 15.5923 284.146 15.5923 283.886 15.5923C283.626 15.5923 283.457 15.5923 283.379 15.5923C282.66 15.5923 282.096 15.5533 281.689 15.4753C281.29 15.3973 281.004 15.2543 280.831 15.0463C280.666 14.8296 280.584 14.5176 280.584 14.1103V10.7043ZM280.935 12.5373H288.605V11.1723H280.584V10.3143H289.567V13.4083H280.935V12.5373ZM294.793 10.5873H298.472V11.5753H294.793V10.5873ZM297.978 10.5873H298.966C298.966 10.9686 298.983 11.4193 299.018 11.9393C299.053 12.4593 299.126 13.0183 299.239 13.6163C299.352 14.2056 299.525 14.821 299.759 15.4623C299.993 16.1036 300.309 16.745 300.708 17.3863C301.107 18.019 301.605 18.6343 302.203 19.2323C302.81 19.8303 303.542 20.3806 304.4 20.8833C304.331 20.944 304.24 21.022 304.127 21.1173C304.023 21.2213 303.923 21.3253 303.828 21.4293C303.741 21.542 303.668 21.6373 303.607 21.7153C302.74 21.1866 301.995 20.606 301.371 19.9733C300.756 19.332 300.24 18.6646 299.824 17.9713C299.417 17.278 299.087 16.5846 298.836 15.8913C298.593 15.1893 298.407 14.5133 298.277 13.8633C298.156 13.2046 298.073 12.5936 298.03 12.0303C297.995 11.467 297.978 10.986 297.978 10.5873ZM297.601 13.1353L298.706 13.3303C298.394 14.6476 297.987 15.835 297.484 16.8923C296.99 17.9496 296.388 18.8813 295.677 19.6873C294.975 20.4846 294.143 21.165 293.181 21.7283C293.129 21.659 293.047 21.5766 292.934 21.4813C292.83 21.386 292.717 21.2863 292.596 21.1823C292.483 21.087 292.384 21.009 292.297 20.9483C293.744 20.1856 294.893 19.1543 295.742 17.8543C296.591 16.5456 297.211 14.9726 297.601 13.1353Z" fill="white"/>
<path d="M393.391 3C393.391 1.34315 394.734 0 396.391 0H472.008C473.665 0 475.008 1.34315 475.008 3V29.5703C475.008 31.2272 473.665 32.5703 472.008 32.5703H396.391C394.734 32.5703 393.391 31.2272 393.391 29.5703V3Z" fill="#18BC9C"/>
<g clip-path="url(#clip3_3_10)">
<path d="M412.451 18.2944L412.351 20.9644L412.331 21.1244L409.281 20.9144C409.107 20.8944 408.947 20.8177 408.801 20.6844C408.647 20.5444 408.534 20.3844 408.461 20.2044C408.407 20.0777 408.371 19.9444 408.351 19.8044C408.337 19.6711 408.347 19.5144 408.381 19.3344C408.421 19.1544 408.451 19.0211 408.471 18.9344C408.491 18.8477 408.541 18.6944 408.621 18.4744C408.707 18.2544 408.754 18.1244 408.761 18.0844C409.141 18.1444 410.371 18.2144 412.451 18.2944ZM406.511 13.9144L409.651 14.0444L410.951 16.7944L409.891 16.1244C409.584 16.4711 409.314 16.8211 409.081 17.1744C408.847 17.5211 408.671 17.8211 408.551 18.0744C408.437 18.3277 408.344 18.5577 408.271 18.7644C408.191 18.9644 408.144 19.1177 408.131 19.2244L408.101 19.3744L406.721 16.7844C406.641 16.6577 406.597 16.5211 406.591 16.3744C406.591 16.2277 406.607 16.1144 406.641 16.0344L406.691 15.9044C406.864 15.5977 407.141 15.1444 407.521 14.5444L406.511 13.9144ZM418.171 17.9544L418.581 17.7944L417.211 20.3944C417.157 20.5344 417.071 20.6477 416.951 20.7344C416.831 20.8211 416.724 20.8711 416.631 20.8844L416.501 20.9144C416.161 20.9477 415.631 20.9744 414.911 20.9944L414.971 22.1844L413.301 19.5244L414.831 16.8944L414.881 18.1544C415.707 18.2344 416.394 18.2477 416.941 18.1944C417.487 18.1411 417.897 18.0611 418.171 17.9544ZM412.881 11.0844C412.654 11.3911 412.014 12.4444 410.961 14.2444L408.661 12.8844L408.521 12.8044L410.161 10.2144C410.254 10.0677 410.397 9.96107 410.591 9.8944C410.784 9.82773 410.977 9.80107 411.171 9.8144C411.284 9.82773 411.401 9.85773 411.521 9.9044C411.641 9.95107 411.744 10.0011 411.831 10.0544C411.911 10.1077 412.011 10.1877 412.131 10.2944C412.244 10.4011 412.331 10.4844 412.391 10.5444C412.451 10.6044 412.537 10.7011 412.651 10.8344C412.764 10.9677 412.841 11.0511 412.881 11.0844ZM417.501 13.3944L417.631 13.3144L419.171 15.9444C419.257 16.1244 419.287 16.3111 419.261 16.5044C419.234 16.6911 419.167 16.8677 419.061 17.0344C419.001 17.1344 418.921 17.2244 418.821 17.3044C418.727 17.3844 418.637 17.4511 418.551 17.5044C418.464 17.5577 418.347 17.6111 418.201 17.6644C418.054 17.7177 417.941 17.7577 417.861 17.7844C417.781 17.8111 417.654 17.8444 417.481 17.8844C417.314 17.9311 417.204 17.9611 417.151 17.9744C416.984 17.6277 416.344 16.5744 415.231 14.8144L417.501 13.3944ZM416.601 11.6744L417.631 11.0744L416.031 13.7844L412.991 13.6344L414.091 13.0144C413.924 12.5811 413.741 12.1777 413.541 11.8044C413.347 11.4311 413.167 11.1344 413.001 10.9144C412.827 10.6877 412.671 10.4944 412.531 10.3344C412.384 10.1677 412.271 10.0544 412.191 9.9944L412.061 9.8944L415.001 9.9044C415.154 9.89107 415.294 9.91773 415.421 9.9844C415.554 10.0511 415.647 10.1177 415.701 10.1844L415.781 10.2944C415.974 10.5944 416.247 11.0544 416.601 11.6744Z" fill="white"/>
</g>
<path d="M426.855 14.2143V17.1913H430.027V14.2143H426.855ZM425.932 13.3303H430.989V18.0623H425.932V13.3303ZM423.059 10.3273H433.94V21.7413H432.9V11.3023H424.06V21.7413H423.059V10.3273ZM423.631 20.1163H433.498V21.0393H423.631V20.1163ZM435.448 18.2313C435.951 18.11 436.553 17.9583 437.255 17.7763C437.957 17.5856 438.681 17.3906 439.426 17.1913L439.53 18.0493C438.871 18.266 438.213 18.474 437.554 18.6733C436.895 18.8726 436.297 19.0546 435.76 19.2193L435.448 18.2313ZM438.984 9.85929H439.946V21.7543H438.984V9.85929ZM436.332 11.2893H437.268V18.3483H436.332V11.2893ZM442.039 12.2123H447.525V13.1353H442.039V12.2123ZM442.39 9.79429L443.378 9.98929C443.196 10.778 442.971 11.5493 442.702 12.3033C442.433 13.0486 442.13 13.742 441.792 14.3833C441.463 15.0246 441.099 15.5923 440.7 16.0863C440.648 16.017 440.574 15.939 440.479 15.8523C440.384 15.7656 440.284 15.679 440.18 15.5923C440.076 15.5056 439.985 15.4363 439.907 15.3843C440.297 14.9423 440.648 14.4266 440.96 13.8373C441.272 13.2393 441.545 12.598 441.779 11.9133C442.022 11.22 442.225 10.5136 442.39 9.79429ZM445.835 12.6543L446.81 12.8103C446.507 14.2923 446.095 15.601 445.575 16.7363C445.055 17.8716 444.392 18.8553 443.586 19.6873C442.78 20.5193 441.796 21.2213 440.635 21.7933C440.6 21.7153 440.548 21.62 440.479 21.5073C440.418 21.4033 440.349 21.295 440.271 21.1823C440.193 21.0696 440.119 20.9786 440.05 20.9093C441.168 20.4066 442.104 19.7783 442.858 19.0243C443.621 18.2616 444.24 17.3516 444.717 16.2943C445.194 15.237 445.566 14.0236 445.835 12.6543ZM442.377 12.9533C442.637 14.184 442.992 15.3323 443.443 16.3983C443.902 17.4556 444.479 18.3786 445.172 19.1673C445.874 19.9473 446.706 20.541 447.668 20.9483C447.599 21.0176 447.521 21.1 447.434 21.1953C447.347 21.2906 447.265 21.3903 447.187 21.4943C447.118 21.5983 447.057 21.6936 447.005 21.7803C445.991 21.295 445.124 20.6363 444.405 19.8043C443.694 18.9636 443.105 17.98 442.637 16.8533C442.169 15.718 441.792 14.4786 441.506 13.1353L442.377 12.9533ZM448.734 12.3683H453.752V13.2913H448.734V12.3683ZM450.801 9.96329H451.724V12.8363H450.801V9.96329ZM456.742 12.4853H460.473V13.4213H456.742V12.4853ZM454.506 20.2073H459.42V21.1173H454.506V20.2073ZM456.248 9.78129H457.249V16.4113H456.248V9.78129ZM454.064 16.0083H459.927V21.6893H458.939V16.9313H455.013V21.7413H454.064V16.0083ZM448.487 19.3103C448.938 19.2236 449.453 19.1196 450.034 18.9983C450.615 18.8683 451.234 18.7296 451.893 18.5823C452.552 18.435 453.206 18.2876 453.856 18.1403L453.947 19.0503C453.332 19.189 452.712 19.3363 452.088 19.4923C451.464 19.6396 450.862 19.7826 450.281 19.9213C449.709 20.0513 449.185 20.1726 448.708 20.2853L448.487 19.3103ZM449.241 13.9673L450.034 13.8243C450.147 14.301 450.242 14.8123 450.32 15.3583C450.407 15.9043 450.476 16.4416 450.528 16.9703C450.58 17.4903 450.606 17.9583 450.606 18.3743L449.761 18.5303C449.761 18.1143 449.735 17.6463 449.683 17.1263C449.64 16.5976 449.579 16.0603 449.501 15.5143C449.423 14.9683 449.336 14.4526 449.241 13.9673ZM452.27 13.6813L453.219 13.8633C453.15 14.4093 453.063 14.99 452.959 15.6053C452.864 16.212 452.76 16.8013 452.647 17.3733C452.543 17.9453 452.439 18.4436 452.335 18.8683L451.516 18.6863C451.594 18.357 451.668 17.9843 451.737 17.5683C451.815 17.1523 451.884 16.719 451.945 16.2683C452.014 15.809 452.075 15.3583 452.127 14.9163C452.188 14.4743 452.235 14.0626 452.27 13.6813Z" fill="white"/>
<g opacity="0.65">
<path d="M110.766 3C110.766 1.34315 112.109 0 113.766 0H174.531C176.188 0 177.531 1.34315 177.531 3V29.5703C177.531 31.2272 176.188 32.5703 174.531 32.5703H113.766C112.109 32.5703 110.766 31.2272 110.766 29.5703V3Z" fill="#18BC9C"/>
<g clip-path="url(#clip4_3_10)">
<path d="M125.626 20.5667H126.396L127.056 19.9067L125.356 18.2067L124.696 18.8667V19.6367H125.626V20.5667ZM130.196 13.8367C130.196 13.73 130.142 13.6767 130.036 13.6767C129.989 13.6767 129.946 13.6934 129.906 13.7267L125.976 17.6567C125.942 17.69 125.926 17.73 125.926 17.7767C125.926 17.8834 125.979 17.9367 126.086 17.9367C126.132 17.9367 126.172 17.92 126.206 17.8867L130.146 13.9567C130.179 13.9234 130.196 13.8834 130.196 13.8367ZM123.766 18.4767L129.806 12.4367L132.816 15.4567L126.786 21.4967H123.766V18.4767ZM134.756 13.1367C134.756 13.3967 134.666 13.6134 134.486 13.7867L133.286 14.9967L130.266 11.9767L131.466 10.7767C131.646 10.5967 131.866 10.5067 132.126 10.5067C132.379 10.5067 132.599 10.5967 132.786 10.7767L134.486 12.4767C134.666 12.6634 134.756 12.8834 134.756 13.1367Z" fill="white"/>
</g>
<path d="M138.401 18.3483C138.383 18.2876 138.357 18.2053 138.323 18.1013C138.288 17.9886 138.249 17.876 138.206 17.7633C138.171 17.6506 138.136 17.5553 138.102 17.4773C138.24 17.4513 138.379 17.3603 138.518 17.2043C138.665 17.0483 138.834 16.849 139.025 16.6063C139.12 16.485 139.259 16.29 139.441 16.0213C139.631 15.744 139.844 15.419 140.078 15.0463C140.32 14.665 140.559 14.2576 140.793 13.8243C141.035 13.3823 141.256 12.9403 141.456 12.4983L142.249 12.9533C141.945 13.5426 141.616 14.132 141.261 14.7213C140.914 15.3106 140.55 15.8696 140.169 16.3983C139.796 16.927 139.419 17.408 139.038 17.8413V17.8673C139.038 17.8673 139.003 17.8846 138.934 17.9193C138.873 17.9453 138.799 17.9843 138.713 18.0363C138.626 18.0796 138.552 18.1316 138.492 18.1923C138.431 18.2443 138.401 18.2963 138.401 18.3483ZM138.401 18.3483L138.336 17.5683L138.778 17.2433L141.859 16.5933C141.85 16.7233 141.854 16.8663 141.872 17.0223C141.889 17.1696 141.906 17.2953 141.924 17.3993C141.204 17.564 140.624 17.7026 140.182 17.8153C139.748 17.9193 139.415 18.006 139.181 18.0753C138.947 18.136 138.773 18.188 138.661 18.2313C138.548 18.2746 138.461 18.3136 138.401 18.3483ZM138.31 15.2153C138.292 15.1546 138.266 15.068 138.232 14.9553C138.197 14.8426 138.158 14.73 138.115 14.6173C138.08 14.5046 138.045 14.4093 138.011 14.3313C138.123 14.2966 138.232 14.21 138.336 14.0713C138.448 13.924 138.57 13.7376 138.7 13.5123C138.769 13.3996 138.869 13.222 138.999 12.9793C139.129 12.728 139.272 12.429 139.428 12.0823C139.592 11.7356 139.748 11.3673 139.896 10.9773C140.052 10.5786 140.19 10.1843 140.312 9.79429L141.248 10.1193C141.04 10.674 140.806 11.2286 140.546 11.7833C140.294 12.3293 140.026 12.8536 139.74 13.3563C139.454 13.8503 139.168 14.2966 138.882 14.6953V14.7213C138.882 14.7213 138.851 14.7386 138.791 14.7733C138.739 14.7993 138.674 14.8426 138.596 14.9033C138.518 14.9553 138.448 15.0073 138.388 15.0593C138.336 15.1113 138.31 15.1633 138.31 15.2153ZM138.31 15.2153L138.284 14.4873L138.752 14.2013L141.001 13.9673C140.975 14.0886 140.953 14.2273 140.936 14.3833C140.927 14.5393 140.923 14.6693 140.923 14.7733C140.411 14.834 139.995 14.8903 139.675 14.9423C139.363 14.9856 139.116 15.0246 138.934 15.0593C138.752 15.0853 138.613 15.1113 138.518 15.1373C138.431 15.1633 138.362 15.1893 138.31 15.2153ZM138.037 20.0123C138.522 19.8476 139.098 19.6396 139.766 19.3883C140.433 19.1283 141.122 18.864 141.833 18.5953L142.015 19.3753C141.365 19.6526 140.71 19.9256 140.052 20.1943C139.402 20.4543 138.808 20.6926 138.271 20.9093L138.037 20.0123ZM145.629 15.8133H146.292V21.3253H145.629V15.8133ZM147.215 15.8003H147.878V21.3123H147.215V15.8003ZM148.84 15.3453H149.607V20.8053C149.607 20.9873 149.589 21.1346 149.555 21.2473C149.52 21.36 149.442 21.451 149.321 21.5203C149.208 21.581 149.069 21.62 148.905 21.6373C148.749 21.6546 148.554 21.6633 148.32 21.6633C148.311 21.5506 148.285 21.425 148.242 21.2863C148.198 21.1476 148.151 21.0263 148.099 20.9223C148.246 20.931 148.372 20.9353 148.476 20.9353C148.588 20.9353 148.666 20.9353 148.71 20.9353C148.796 20.9266 148.84 20.8833 148.84 20.8053V15.3453ZM142.899 11.1983H143.796V14.0193C143.796 14.548 143.778 15.133 143.744 15.7743C143.709 16.4156 143.64 17.0743 143.536 17.7503C143.44 18.4263 143.297 19.0893 143.107 19.7393C142.916 20.3893 142.665 20.9873 142.353 21.5333C142.301 21.4813 142.227 21.4163 142.132 21.3383C142.036 21.269 141.941 21.1996 141.846 21.1303C141.75 21.061 141.668 21.0133 141.599 20.9873C141.893 20.4673 142.127 19.9083 142.301 19.3103C142.483 18.7036 142.613 18.0926 142.691 17.4773C142.777 16.8533 142.834 16.2466 142.86 15.6573C142.886 15.0593 142.899 14.5133 142.899 14.0193V11.1983ZM143.367 11.1983H149.477V14.2403H143.367V13.4213H148.567V12.0303H143.367V11.1983ZM143.77 15.3583H149.256V16.1643H144.55V21.6503H143.77V15.3583ZM144.173 18.0883H149.191V18.8553H144.173V18.0883ZM145.382 9.97629L146.292 9.71629C146.448 9.95896 146.591 10.232 146.721 10.5353C146.859 10.83 146.963 11.09 147.033 11.3153L146.071 11.6403C146.019 11.415 145.923 11.1463 145.785 10.8343C145.655 10.5223 145.52 10.2363 145.382 9.97629ZM151.128 11.3283H155.873V12.2643H151.128V11.3283ZM153.689 13.3303H154.586V21.7023H153.689V13.3303ZM151.037 18.5433C151.453 18.4826 151.929 18.4046 152.467 18.3093C153.013 18.214 153.585 18.1143 154.183 18.0103C154.789 17.8976 155.4 17.785 156.016 17.6723L156.068 18.5173C155.218 18.6993 154.369 18.877 153.52 19.0503C152.67 19.215 151.912 19.3623 151.245 19.4923L151.037 18.5433ZM151.57 16.3983C151.552 16.3376 151.526 16.2553 151.492 16.1513C151.457 16.0386 151.418 15.9303 151.375 15.8263C151.34 15.7136 151.305 15.6183 151.271 15.5403C151.383 15.5143 151.487 15.406 151.583 15.2153C151.678 15.016 151.778 14.7733 151.882 14.4873C151.934 14.3486 152.012 14.119 152.116 13.7983C152.22 13.4776 152.328 13.1006 152.441 12.6673C152.562 12.2253 152.679 11.7573 152.792 11.2633C152.904 10.7693 152.995 10.2796 153.065 9.79429L154.014 9.98929C153.884 10.6826 153.723 11.3803 153.533 12.0823C153.342 12.7843 153.134 13.4603 152.909 14.1103C152.683 14.7516 152.454 15.3323 152.22 15.8523V15.8783C152.22 15.8783 152.185 15.8956 152.116 15.9303C152.055 15.965 151.981 16.0126 151.895 16.0733C151.808 16.1253 151.73 16.1816 151.661 16.2423C151.6 16.303 151.57 16.355 151.57 16.3983ZM151.57 16.3983V15.5923L152.09 15.3323H155.782V16.2163H152.506C152.289 16.2163 152.09 16.2336 151.908 16.2683C151.734 16.303 151.622 16.3463 151.57 16.3983ZM161.112 13.9933H162.022V21.7543H161.112V13.9933ZM157.68 10.9513V12.2643H161.164V10.9513H157.68ZM156.783 10.2103H162.113V12.9923H156.783V10.2103ZM156.016 13.7593H162.906V14.5783H156.016V13.7593ZM157.316 15.6963H161.372V16.4373H157.316V15.6963ZM157.316 17.5683H161.411V18.3093H157.316V17.5683ZM156.9 13.9673H157.797V19.9213L156.9 20.0253V13.9673ZM155.717 19.7263C156.306 19.6916 156.995 19.6483 157.784 19.5963C158.572 19.5443 159.413 19.488 160.306 19.4273C161.207 19.358 162.104 19.2886 162.997 19.2193L162.984 20.0383C162.134 20.1076 161.276 20.177 160.41 20.2463C159.552 20.3156 158.733 20.3806 157.953 20.4413C157.173 20.502 156.479 20.5583 155.873 20.6103L155.717 19.7263Z" fill="white"/>
</g>
<g opacity="0.65">
<path d="M181.422 3C181.422 1.34315 182.765 0 184.422 0H244.258C245.915 0 247.258 1.34315 247.258 3V29.5703C247.258 31.2272 245.915 32.5703 244.258 32.5703H184.422C182.765 32.5703 181.422 31.2272 181.422 29.5703V3Z" fill="#F75444"/>
<g clip-path="url(#clip5_3_10)">
<path d="M198.132 19.4829V14.3729C198.132 14.3062 198.112 14.2529 198.072 14.2129C198.025 14.1662 197.969 14.1429 197.902 14.1429H197.442C197.375 14.1429 197.319 14.1662 197.272 14.2129C197.232 14.2529 197.212 14.3062 197.212 14.3729V19.4829C197.212 19.5495 197.232 19.6062 197.272 19.6529C197.319 19.6929 197.375 19.7129 197.442 19.7129H197.902C197.969 19.7129 198.025 19.6929 198.072 19.6529C198.112 19.6062 198.132 19.5495 198.132 19.4829ZM199.992 19.4829V14.3729C199.992 14.3062 199.972 14.2529 199.932 14.2129C199.885 14.1662 199.829 14.1429 199.762 14.1429H199.302C199.229 14.1429 199.172 14.1662 199.132 14.2129C199.085 14.2529 199.062 14.3062 199.062 14.3729V19.4829C199.062 19.5495 199.085 19.6062 199.132 19.6529C199.172 19.6929 199.229 19.7129 199.302 19.7129H199.762C199.829 19.7129 199.885 19.6929 199.932 19.6529C199.972 19.6062 199.992 19.5495 199.992 19.4829ZM201.852 19.4829V14.3729C201.852 14.3062 201.829 14.2529 201.782 14.2129C201.742 14.1662 201.689 14.1429 201.622 14.1429H201.152C201.085 14.1429 201.032 14.1662 200.992 14.2129C200.945 14.2529 200.922 14.3062 200.922 14.3729V19.4829C200.922 19.5495 200.945 19.6062 200.992 19.6529C201.032 19.6929 201.085 19.7129 201.152 19.7129H201.622C201.689 19.7129 201.742 19.6929 201.782 19.6529C201.829 19.6062 201.852 19.5495 201.852 19.4829ZM198.262 11.4329L197.902 12.2829H201.152L200.802 11.4329C200.769 11.3929 200.729 11.3662 200.682 11.3529H198.382C198.335 11.3662 198.295 11.3929 198.262 11.4329ZM204.632 12.5129V12.9829C204.632 13.0495 204.612 13.1062 204.572 13.1529C204.525 13.1929 204.469 13.2129 204.402 13.2129H203.712V20.0929C203.712 20.4929 203.595 20.8395 203.362 21.1329C203.135 21.4262 202.865 21.5729 202.552 21.5729H196.512C196.192 21.5729 195.919 21.4295 195.692 21.1429C195.465 20.8629 195.352 20.5229 195.352 20.1229V13.2129H194.652C194.585 13.2129 194.532 13.1929 194.492 13.1529C194.445 13.1062 194.422 13.0495 194.422 12.9829V12.5129C194.422 12.4462 194.445 12.3929 194.492 12.3529C194.532 12.3062 194.585 12.2829 194.652 12.2829H196.892L197.402 11.0729C197.475 10.8929 197.605 10.7395 197.792 10.6129C197.985 10.4929 198.179 10.4329 198.372 10.4329H200.692C200.885 10.4329 201.075 10.4929 201.262 10.6129C201.449 10.7395 201.579 10.8929 201.652 11.0729L202.162 12.2829H204.402C204.469 12.2829 204.525 12.3062 204.572 12.3529C204.612 12.3929 204.632 12.4462 204.632 12.5129Z" fill="white"/>
</g>
<path d="M216.46 11.2373H217.253V18.5823H216.46V11.2373ZM218.345 10.0153H219.203V20.6493C219.203 20.918 219.168 21.1216 219.099 21.2603C219.03 21.4076 218.913 21.516 218.748 21.5853C218.583 21.6546 218.362 21.698 218.085 21.7153C217.816 21.7413 217.474 21.7543 217.058 21.7543C217.041 21.6416 217.002 21.4986 216.941 21.3253C216.889 21.1606 216.833 21.0133 216.772 20.8833C217.084 20.892 217.361 20.8963 217.604 20.8963C217.855 20.8963 218.024 20.8963 218.111 20.8963C218.198 20.8963 218.258 20.879 218.293 20.8443C218.328 20.8096 218.345 20.7446 218.345 20.6493V10.0153ZM208.959 10.2103H211.247V11.0813H208.959V10.2103ZM208.647 10.2103H209.466V16.4113C209.466 16.9833 209.444 17.5943 209.401 18.2443C209.358 18.8943 209.262 19.527 209.115 20.1423C208.976 20.7576 208.76 21.2993 208.465 21.7673C208.422 21.7153 208.357 21.6546 208.27 21.5853C208.183 21.5246 208.092 21.464 207.997 21.4033C207.902 21.3426 207.819 21.2993 207.75 21.2733C208.027 20.8313 208.227 20.3373 208.348 19.7913C208.478 19.2453 208.56 18.682 208.595 18.1013C208.63 17.512 208.647 16.9486 208.647 16.4113V10.2103ZM210.675 10.2103H211.494V20.5713C211.494 20.7966 211.468 20.9786 211.416 21.1173C211.364 21.256 211.264 21.36 211.117 21.4293C210.978 21.5073 210.796 21.555 210.571 21.5723C210.346 21.5983 210.06 21.6113 209.713 21.6113C209.704 21.49 209.674 21.3426 209.622 21.1693C209.57 21.0046 209.518 20.866 209.466 20.7533C209.7 20.762 209.912 20.762 210.103 20.7533C210.294 20.7533 210.424 20.7533 210.493 20.7533C210.562 20.7533 210.61 20.7403 210.636 20.7143C210.662 20.6796 210.675 20.6276 210.675 20.5583V10.2103ZM212.716 10.2103H214.991V11.0813H212.716V10.2103ZM212.404 10.2103H213.223V15.8393C213.223 16.29 213.21 16.7796 213.184 17.3083C213.167 17.8283 213.128 18.3526 213.067 18.8813C213.015 19.41 212.928 19.9213 212.807 20.4153C212.686 20.9006 212.53 21.3426 212.339 21.7413C212.287 21.698 212.218 21.646 212.131 21.5853C212.044 21.5333 211.953 21.4813 211.858 21.4293C211.771 21.3773 211.693 21.3383 211.624 21.3123C211.806 20.931 211.949 20.515 212.053 20.0643C212.166 19.6136 212.244 19.1456 212.287 18.6603C212.339 18.1663 212.369 17.681 212.378 17.2043C212.395 16.7276 212.404 16.277 212.404 15.8523V10.2103ZM214.432 10.2103H215.251V20.5713C215.251 20.7966 215.225 20.9786 215.173 21.1173C215.121 21.256 215.021 21.3643 214.874 21.4423C214.744 21.5116 214.566 21.555 214.341 21.5723C214.116 21.5983 213.825 21.6113 213.47 21.6113C213.461 21.49 213.431 21.3426 213.379 21.1693C213.336 21.0046 213.284 20.866 213.223 20.7533C213.457 20.762 213.669 20.7663 213.86 20.7663C214.051 20.7663 214.181 20.7663 214.25 20.7663C214.319 20.7576 214.367 20.7403 214.393 20.7143C214.419 20.6883 214.432 20.6363 214.432 20.5583V10.2103ZM207.815 14.8643H215.927V15.7613H207.815V14.8643ZM226.171 13.5903H231.215V14.4223H226.171V13.5903ZM225.3 16.0473H232.229V16.8923H225.3V16.0473ZM228.628 10.7173C228.385 11.1246 228.073 11.5493 227.692 11.9913C227.311 12.4246 226.89 12.845 226.431 13.2523C225.98 13.651 225.504 14.0063 225.001 14.3183C224.949 14.197 224.875 14.0626 224.78 13.9153C224.685 13.768 224.594 13.6466 224.507 13.5513C225.001 13.2566 225.482 12.9056 225.95 12.4983C226.418 12.0823 226.843 11.6446 227.224 11.1853C227.605 10.7173 227.913 10.2623 228.147 9.82029H229.031C229.352 10.297 229.72 10.765 230.136 11.2243C230.561 11.6836 231.007 12.104 231.475 12.4853C231.952 12.8666 232.42 13.183 232.879 13.4343C232.792 13.547 232.697 13.6813 232.593 13.8373C232.489 13.9846 232.402 14.1233 232.333 14.2533C231.891 13.9673 231.436 13.6293 230.968 13.2393C230.5 12.8493 230.062 12.4376 229.655 12.0043C229.256 11.5623 228.914 11.1333 228.628 10.7173ZM228.186 13.9933H229.122V20.6493C229.122 20.9006 229.087 21.1 229.018 21.2473C228.957 21.3946 228.84 21.5073 228.667 21.5853C228.502 21.6633 228.281 21.711 228.004 21.7283C227.727 21.7456 227.384 21.7543 226.977 21.7543C226.96 21.633 226.916 21.4813 226.847 21.2993C226.786 21.126 226.721 20.9743 226.652 20.8443C226.955 20.853 227.228 20.8573 227.471 20.8573C227.722 20.8573 227.891 20.8573 227.978 20.8573C228.065 20.8486 228.121 20.8313 228.147 20.8053C228.173 20.7793 228.186 20.723 228.186 20.6363V13.9933ZM226.158 17.5943L227.016 17.8023C226.808 18.3916 226.531 18.968 226.184 19.5313C225.846 20.086 225.491 20.554 225.118 20.9353C225.066 20.8833 224.997 20.8226 224.91 20.7533C224.832 20.684 224.745 20.6146 224.65 20.5453C224.563 20.4673 224.485 20.4066 224.416 20.3633C224.78 20.0166 225.114 19.6006 225.417 19.1153C225.72 18.6213 225.967 18.1143 226.158 17.5943ZM230.071 17.9323L230.812 17.5683C231.055 17.863 231.293 18.188 231.527 18.5433C231.761 18.89 231.978 19.228 232.177 19.5573C232.376 19.8866 232.532 20.1856 232.645 20.4543L231.839 20.8703C231.735 20.6103 231.583 20.3113 231.384 19.9733C231.193 19.6266 230.985 19.2756 230.76 18.9203C230.535 18.565 230.305 18.2356 230.071 17.9323ZM221.296 10.3533H224.351V11.2373H222.167V21.7543H221.296V10.3533ZM224.065 10.3533H224.234L224.377 10.3143L225.014 10.6913C224.884 11.0466 224.745 11.428 224.598 11.8353C224.459 12.234 224.312 12.6326 224.156 13.0313C224.009 13.4213 223.861 13.7896 223.714 14.1363C224.191 14.6736 224.503 15.1763 224.65 15.6443C224.806 16.1036 224.884 16.537 224.884 16.9443C224.884 17.291 224.841 17.5943 224.754 17.8543C224.676 18.1143 224.546 18.3093 224.364 18.4393C224.277 18.5 224.173 18.552 224.052 18.5953C223.939 18.63 223.818 18.656 223.688 18.6733C223.419 18.6993 223.129 18.708 222.817 18.6993C222.808 18.578 222.782 18.435 222.739 18.2703C222.704 18.1056 222.648 17.9626 222.57 17.8413C222.717 17.85 222.856 17.8543 222.986 17.8543C223.116 17.8543 223.229 17.8543 223.324 17.8543C223.497 17.8456 223.636 17.8066 223.74 17.7373C223.844 17.6593 223.913 17.5423 223.948 17.3863C223.991 17.2216 224.013 17.044 224.013 16.8533C224.013 16.4893 223.931 16.095 223.766 15.6703C223.61 15.237 223.298 14.7646 222.83 14.2533C222.951 13.9586 223.068 13.6466 223.181 13.3173C223.302 12.9793 223.415 12.65 223.519 12.3293C223.632 12 223.731 11.688 223.818 11.3933C223.913 11.0986 223.996 10.843 224.065 10.6263V10.3533Z" fill="white"/>
</g>
<g opacity="0.65">
<path d="M322.734 3C322.734 1.34315 324.078 0 325.734 0H386.5C388.157 0 389.5 1.34315 389.5 3V29.5703C389.5 31.2272 388.157 32.5703 386.5 32.5703H325.734C324.078 32.5703 322.734 31.2272 322.734 29.5703V3Z" fill="#444C69"/>
<g clip-path="url(#clip6_3_10)">
<path d="M342.614 17.3129C342.981 16.9529 343.164 16.5162 343.164 16.0029C343.164 15.4895 342.981 15.0495 342.614 14.6829C342.254 14.3229 341.818 14.1429 341.304 14.1429C340.791 14.1429 340.354 14.3229 339.994 14.6829C339.628 15.0495 339.444 15.4895 339.444 16.0029C339.444 16.5162 339.628 16.9529 339.994 17.3129C340.354 17.6729 340.791 17.8529 341.304 17.8529C341.818 17.8529 342.254 17.6729 342.614 17.3129ZM346.874 15.2129V16.8229C346.874 16.8762 346.854 16.9295 346.814 16.9829C346.781 17.0362 346.734 17.0695 346.674 17.0829L345.334 17.2829C345.241 17.5429 345.144 17.7629 345.044 17.9429C345.218 18.1829 345.478 18.5162 345.824 18.9429C345.871 19.0029 345.894 19.0629 345.894 19.1229C345.894 19.1895 345.874 19.2462 345.834 19.2929C345.701 19.4729 345.461 19.7329 345.114 20.0729C344.768 20.4195 344.541 20.5929 344.434 20.5929C344.374 20.5929 344.311 20.5695 344.244 20.5229L343.244 19.7429C343.031 19.8562 342.811 19.9495 342.584 20.0229C342.504 20.6762 342.434 21.1262 342.374 21.3729C342.341 21.5062 342.254 21.5729 342.114 21.5729H340.504C340.431 21.5729 340.371 21.5529 340.324 21.5129C340.271 21.4729 340.244 21.4195 340.244 21.3529L340.034 20.0229C339.801 19.9429 339.584 19.8529 339.384 19.7529L338.364 20.5229C338.311 20.5695 338.248 20.5929 338.174 20.5929C338.108 20.5929 338.048 20.5662 337.994 20.5129C337.388 19.9595 336.991 19.5529 336.804 19.2929C336.771 19.2462 336.754 19.1895 336.754 19.1229C336.754 19.0695 336.771 19.0162 336.804 18.9629C336.878 18.8562 337.001 18.6929 337.174 18.4729C337.348 18.2529 337.481 18.0829 337.574 17.9629C337.441 17.7229 337.341 17.4829 337.274 17.2429L335.944 17.0529C335.884 17.0395 335.834 17.0095 335.794 16.9629C335.754 16.9095 335.734 16.8529 335.734 16.7929V15.1829C335.734 15.1229 335.754 15.0662 335.794 15.0129C335.834 14.9595 335.881 14.9295 335.934 14.9229L337.284 14.7129C337.351 14.4929 337.444 14.2729 337.564 14.0529C337.371 13.7729 337.111 13.4362 336.784 13.0429C336.738 12.9895 336.714 12.9329 336.714 12.8729C336.714 12.8262 336.734 12.7695 336.774 12.7029C336.901 12.5295 337.141 12.2695 337.494 11.9229C337.848 11.5829 338.074 11.4129 338.174 11.4129C338.241 11.4129 338.304 11.4362 338.364 11.4829L339.364 12.2529C339.578 12.1462 339.798 12.0562 340.024 11.9829C340.104 11.3229 340.178 10.8729 340.244 10.6329C340.278 10.4995 340.364 10.4329 340.504 10.4329H342.114C342.181 10.4329 342.238 10.4529 342.284 10.4929C342.338 10.5329 342.368 10.5829 342.374 10.6429L342.574 11.9829C342.814 12.0562 343.031 12.1462 343.224 12.2529L344.254 11.4729C344.301 11.4329 344.361 11.4129 344.434 11.4129C344.494 11.4129 344.554 11.4362 344.614 11.4829C345.241 12.0562 345.641 12.4662 345.814 12.7129C345.848 12.7529 345.864 12.8062 345.864 12.8729C345.864 12.9329 345.844 12.9895 345.804 13.0429C345.731 13.1429 345.608 13.3029 345.434 13.5229C345.261 13.7429 345.131 13.9129 345.044 14.0329C345.171 14.2729 345.268 14.5095 345.334 14.7429L346.664 14.9529C346.731 14.9595 346.781 14.9895 346.814 15.0429C346.854 15.0895 346.874 15.1462 346.874 15.2129Z" fill="white"/>
</g>
<path d="M350.33 10.4833H361.64V11.3673H350.33V10.4833ZM355.556 10.8603H356.57V15.9043C356.57 16.407 356.531 16.8966 356.453 17.3733C356.375 17.8413 356.224 18.292 355.998 18.7253C355.773 19.1586 355.444 19.566 355.01 19.9473C354.577 20.3286 354.005 20.671 353.294 20.9743C352.592 21.2776 351.721 21.542 350.681 21.7673C350.647 21.6893 350.595 21.5983 350.525 21.4943C350.456 21.3903 350.382 21.282 350.304 21.1693C350.235 21.0653 350.166 20.9786 350.096 20.9093C351.11 20.7186 351.951 20.4933 352.618 20.2333C353.286 19.9733 353.814 19.683 354.204 19.3623C354.603 19.033 354.898 18.6863 355.088 18.3223C355.279 17.9496 355.405 17.5596 355.465 17.1523C355.526 16.745 355.556 16.3246 355.556 15.8913V10.8603ZM352.449 15.3713V16.6973H359.859V15.3713H352.449ZM352.449 13.2913V14.5913H359.859V13.2913H352.449ZM351.513 12.4723H360.834V17.5033H351.513V12.4723ZM352.761 17.6203C353.177 18.2616 353.676 18.7816 354.256 19.1803C354.837 19.579 355.509 19.8866 356.271 20.1033C357.043 20.32 357.909 20.476 358.871 20.5713C359.833 20.658 360.904 20.7186 362.082 20.7533C361.996 20.866 361.909 21.0133 361.822 21.1953C361.744 21.3773 361.692 21.5506 361.666 21.7153C360.462 21.6633 359.361 21.5723 358.364 21.4423C357.368 21.321 356.466 21.126 355.66 20.8573C354.854 20.5973 354.139 20.2333 353.515 19.7653C352.891 19.2973 352.363 18.695 351.929 17.9583L352.761 17.6203ZM365.748 12.6673L366.411 12.0953C366.732 12.2426 367.066 12.416 367.412 12.6153C367.768 12.8146 368.097 13.0183 368.4 13.2263C368.712 13.4343 368.968 13.6293 369.167 13.8113L368.478 14.4483C368.288 14.2663 368.041 14.0713 367.737 13.8633C367.434 13.6466 367.109 13.4343 366.762 13.2263C366.416 13.0096 366.078 12.8233 365.748 12.6673ZM371.767 10.8863H371.962L372.131 10.8473L372.755 11.2243C372.331 11.9783 371.789 12.663 371.13 13.2783C370.472 13.885 369.735 14.4223 368.92 14.8903C368.114 15.3496 367.269 15.744 366.385 16.0733C365.51 16.394 364.643 16.6496 363.785 16.8403C363.742 16.7103 363.677 16.563 363.59 16.3983C363.504 16.225 363.417 16.082 363.33 15.9693C364.154 15.822 364.986 15.6053 365.826 15.3193C366.667 15.0246 367.473 14.6693 368.244 14.2533C369.016 13.8286 369.705 13.3476 370.311 12.8103C370.927 12.273 371.412 11.6836 371.767 11.0423V10.8863ZM367.412 10.8863H372.001V11.7183H367.412V10.8863ZM368.374 9.76829L369.479 10.0023C368.873 10.6956 368.123 11.3543 367.23 11.9783C366.346 12.6023 365.302 13.157 364.097 13.6423C364.054 13.5643 363.993 13.4776 363.915 13.3823C363.837 13.287 363.755 13.2003 363.668 13.1223C363.582 13.0356 363.499 12.9663 363.421 12.9143C364.21 12.637 364.921 12.325 365.553 11.9783C366.186 11.6316 366.741 11.2676 367.217 10.8863C367.694 10.505 368.08 10.1323 368.374 9.76829ZM367.412 17.4253L368.14 16.8663C368.478 17.0396 368.829 17.2433 369.193 17.4773C369.566 17.7026 369.913 17.9366 370.233 18.1793C370.554 18.4133 370.818 18.6386 371.026 18.8553L370.259 19.4793C370.069 19.2626 369.813 19.0373 369.492 18.8033C369.18 18.5606 368.842 18.318 368.478 18.0753C368.114 17.8326 367.759 17.616 367.412 17.4253ZM373.652 15.4363H373.86L374.042 15.3973L374.679 15.7483C374.263 16.693 373.713 17.512 373.028 18.2053C372.344 18.8986 371.559 19.4836 370.675 19.9603C369.791 20.4283 368.842 20.8096 367.828 21.1043C366.823 21.399 365.792 21.6243 364.734 21.7803C364.7 21.6503 364.639 21.4943 364.552 21.3123C364.474 21.139 364.392 21.0003 364.305 20.8963C365.311 20.775 366.294 20.5843 367.256 20.3243C368.227 20.0556 369.128 19.709 369.96 19.2843C370.801 18.8596 371.538 18.344 372.17 17.7373C372.812 17.122 373.306 16.407 373.652 15.5923V15.4363ZM369.44 15.4363H373.912V16.2813H369.44V15.4363ZM370.48 14.2273L371.572 14.4743C370.914 15.237 370.069 15.9606 369.037 16.6453C368.006 17.33 366.775 17.9236 365.345 18.4263C365.311 18.3483 365.254 18.2616 365.176 18.1663C365.107 18.071 365.033 17.98 364.955 17.8933C364.886 17.798 364.817 17.7243 364.747 17.6723C365.657 17.3776 366.485 17.044 367.23 16.6713C367.976 16.2986 368.621 15.9 369.167 15.4753C369.713 15.0506 370.151 14.6346 370.48 14.2273Z" fill="white"/>
</g>
<defs>
<clipPath id="clip0_3_10">
<rect width="11.1429" height="11.1429" fill="white" transform="translate(13 10.4286)"/>
</clipPath>
<clipPath id="clip1_3_10">
<rect width="10.2143" height="10.2143" fill="white" transform="translate(54.0391 10.8929)"/>
</clipPath>
<clipPath id="clip2_3_10">
<rect width="12.0714" height="11.6071" fill="white" transform="translate(264.148 10.1964)"/>
</clipPath>
<clipPath id="clip3_3_10">
<rect width="12.7663" height="12.3753" fill="white" transform="translate(406.507 9.81235)"/>
</clipPath>
<clipPath id="clip4_3_10">
<rect width="10.9905" height="10.9905" fill="white" transform="translate(123.766 10.5047)"/>
</clipPath>
<clipPath id="clip5_3_10">
<rect width="10.2143" height="11.1429" fill="white" transform="translate(194.422 10.4286)"/>
</clipPath>
<clipPath id="clip6_3_10">
<rect width="11.1429" height="11.1429" fill="white" transform="translate(335.734 10.4286)"/>
</clipPath>
</defs>
</svg>
