<?xml version="1.0" encoding="utf-8"?>
<svg version="1.1" xmlns:xlink="http://www.w3.org/1999/xlink" width="12px" height="12px" viewBox="1346 1175  12 12" xmlns="http://www.w3.org/2000/svg">
  <path d="M 1352 1175  C 1355.36 1175  1358 1177.64  1358 1181  C 1358 1184.36  1355.36 1187  1352 1187  C 1348.64 1187  1346 1184.36  1346 1181  C 1346 1177.64  1348.64 1175  1352 1175  Z " fill-rule="nonzero" fill="#ffffff" stroke="none" />
  <path d="M 1352 1175.5  C 1355.08 1175.5  1357.5 1177.92  1357.5 1181  C 1357.5 1184.08  1355.08 1186.5  1352 1186.5  C 1348.92 1186.5  1346.5 1184.08  1346.5 1181  C 1346.5 1177.92  1348.92 1175.5  1352 1175.5  Z " stroke-width="1" stroke="#797979" fill="none" />
  <path d="M 1352 1184  C 1350.32 1184  1349 1182.68  1349 1181  C 1349 1179.32  1350.32 1178  1352 1178  C 1353.68 1178  1355 1179.32  1355 1181  C 1355 1182.68  1353.68 1184  1352 1184  " fill-rule="nonzero" fill="#797979" stroke="none" />
</svg>