<svg width="23" height="22" viewBox="0 0 23 22" fill="none" xmlns="http://www.w3.org/2000/svg">
<path d="M0.296875 2C0.296875 0.89543 1.19231 0 2.29688 0H20.5859C21.6905 0 22.5859 0.895431 22.5859 2V20C22.5859 21.1046 21.6905 22 20.5859 22H2.29687C1.1923 22 0.296875 21.1046 0.296875 20V2Z" fill="#18BC9C"/>
<g clip-path="url(#clip0_3_125)">
<path d="M8.00688 14.7154H8.72688L9.33687 14.1054L7.76688 12.5354L7.15688 13.1454V13.8554H8.00688V14.7154ZM12.2269 8.50541C12.2269 8.40542 12.1802 8.35541 12.0869 8.35541C12.0402 8.35541 12.0002 8.37208 11.9669 8.40542L8.33687 12.0254C8.31021 12.0587 8.29688 12.0987 8.29688 12.1454C8.29688 12.2454 8.34354 12.2954 8.43688 12.2954C8.48354 12.2954 8.52354 12.2787 8.55687 12.2454L12.1869 8.61542C12.2135 8.58208 12.2269 8.54541 12.2269 8.50541ZM6.29688 12.7854L11.8669 7.21542L14.6569 10.0054L9.08687 15.5754H6.29688V12.7854ZM16.4469 7.85541C16.4469 8.09541 16.3635 8.29875 16.1969 8.46542L15.0869 9.57542L12.2969 6.78542L13.4069 5.68542C13.5669 5.51208 13.7669 5.42542 14.0069 5.42542C14.2469 5.42542 14.4502 5.51208 14.6169 5.68542L16.1969 7.24542C16.3635 7.41875 16.4469 7.62208 16.4469 7.85541Z" fill="white"/>
</g>
<defs>
<clipPath id="clip0_3_125">
<rect width="10.1451" height="10.1451" fill="white" transform="translate(6.29688 5.42746)"/>
</clipPath>
</defs>
</svg>
