<svg width="43" height="19" viewBox="0 0 43 19" fill="none" xmlns="http://www.w3.org/2000/svg">
<path d="M0 3.51562C0 2.06588 1.17525 0.890625 2.625 0.890625H40.3125C41.7622 0.890625 42.9375 2.06588 42.9375 3.51562V15.5C42.9375 16.9497 41.7622 18.125 40.3125 18.125H2.625C1.17525 18.125 0 16.9497 0 15.5V3.51562Z" fill="#F75444"/>
<path d="M14.7914 3.26937H16.0409V11.4489C16.0409 11.8059 15.9954 12.0754 15.9044 12.2574C15.8204 12.4394 15.6699 12.5794 15.4529 12.6774C15.2289 12.7754 14.9419 12.8384 14.5919 12.8664C14.2489 12.8944 13.8324 12.9084 13.3424 12.9084C13.3144 12.7334 13.2584 12.5269 13.1744 12.2889C13.0904 12.0579 13.0029 11.8584 12.9119 11.6904C13.1359 11.6974 13.3529 11.7044 13.5629 11.7114C13.7799 11.7184 13.9724 11.7219 14.1404 11.7219C14.3084 11.7219 14.4274 11.7219 14.4974 11.7219C14.6024 11.7149 14.6759 11.6939 14.7179 11.6589C14.7669 11.6169 14.7914 11.5469 14.7914 11.4489V3.26937ZM12.7754 4.26687H13.9829V10.2309H12.7754V4.26687ZM8.24988 6.88137H11.0954V7.96287H8.24988V6.88137ZM7.70388 6.88137H8.92188V11.1864C8.92188 11.4034 8.95338 11.5399 9.01638 11.5959C9.08638 11.6519 9.24038 11.6799 9.47838 11.6799C9.53438 11.6799 9.62538 11.6799 9.75138 11.6799C9.87738 11.6799 10.0174 11.6799 10.1714 11.6799C10.3254 11.6799 10.4689 11.6799 10.6019 11.6799C10.7349 11.6799 10.8364 11.6799 10.9064 11.6799C11.0534 11.6799 11.1619 11.6484 11.2319 11.5854C11.3089 11.5154 11.3614 11.3859 11.3894 11.1969C11.4244 11.0079 11.4524 10.7279 11.4734 10.3569C11.6064 10.4479 11.7779 10.5389 11.9879 10.6299C12.2049 10.7139 12.3939 10.7769 12.5549 10.8189C12.5129 11.3089 12.4394 11.6974 12.3344 11.9844C12.2294 12.2644 12.0719 12.4604 11.8619 12.5724C11.6589 12.6914 11.3754 12.7509 11.0114 12.7509C10.9484 12.7509 10.8609 12.7509 10.7489 12.7509C10.6369 12.7509 10.5074 12.7509 10.3604 12.7509C10.2204 12.7509 10.0804 12.7509 9.94038 12.7509C9.80038 12.7509 9.67438 12.7509 9.56238 12.7509C9.45738 12.7509 9.37688 12.7509 9.32088 12.7509C8.90788 12.7509 8.58238 12.7054 8.34438 12.6144C8.11338 12.5234 7.94888 12.3624 7.85088 12.1314C7.75288 11.9074 7.70388 11.5924 7.70388 11.1864V6.88137ZM10.6334 6.88137H11.8409C11.8409 6.88137 11.8374 6.93737 11.8304 7.04937C11.8304 7.15437 11.8269 7.24187 11.8199 7.31187C11.7919 7.89287 11.7604 8.37237 11.7254 8.75037C11.6974 9.12837 11.6554 9.42587 11.5994 9.64287C11.5434 9.85987 11.4734 10.0174 11.3894 10.1154C11.2844 10.2344 11.1759 10.3184 11.0639 10.3674C10.9519 10.4164 10.8259 10.4514 10.6859 10.4724C10.5599 10.4934 10.3954 10.5074 10.1924 10.5144C9.99638 10.5144 9.78288 10.5109 9.55188 10.5039C9.54488 10.3359 9.51338 10.1539 9.45738 9.95787C9.40138 9.76187 9.33138 9.59037 9.24738 9.44337C9.42238 9.46437 9.57988 9.47837 9.71988 9.48537C9.86688 9.48537 9.97888 9.48537 10.0559 9.48537C10.1259 9.48537 10.1819 9.47837 10.2239 9.46437C10.2729 9.45037 10.3184 9.42237 10.3604 9.38037C10.4024 9.32437 10.4409 9.21587 10.4759 9.05487C10.5109 8.88687 10.5389 8.64187 10.5599 8.31987C10.5879 7.99087 10.6124 7.56387 10.6334 7.03887V6.88137ZM9.29988 4.35087L10.1399 3.61587C10.4199 3.90287 10.7209 4.22487 11.0429 4.58187C11.3649 4.93187 11.6659 5.27487 11.9459 5.61087C12.2329 5.94687 12.4604 6.24787 12.6284 6.51387L11.7044 7.38537C11.5504 7.11237 11.3369 6.80087 11.0639 6.45087C10.7979 6.09387 10.5074 5.73337 10.1924 5.36937C9.88438 4.99837 9.58688 4.65887 9.29988 4.35087ZM9.41538 3.03837L10.5704 3.40587C10.2134 4.23887 9.76188 5.01587 9.21588 5.73687C8.66988 6.45787 8.05738 7.07737 7.37838 7.59537C7.30838 7.50437 7.21738 7.39937 7.10538 7.28037C7.00038 7.16137 6.89188 7.04587 6.77988 6.93387C6.66788 6.82187 6.56638 6.73087 6.47538 6.66087C6.90238 6.37387 7.30488 6.03437 7.68287 5.64237C8.06088 5.24337 8.39688 4.82337 8.69088 4.38237C8.99188 3.93437 9.23338 3.48637 9.41538 3.03837ZM17.3324 11.1759H26.7824V12.4359H17.3324V11.1759ZM20.0624 3.19587H21.3539V11.6484H20.0624V3.19587ZM22.7504 3.19587H24.0419V11.7219H22.7504V3.19587ZM25.5434 5.29587L26.6984 5.84187C26.5374 6.28287 26.3589 6.73787 26.1629 7.20687C25.9739 7.66887 25.7779 8.11337 25.5749 8.54037C25.3789 8.96737 25.1899 9.35237 25.0079 9.69537L23.9684 9.14937C24.1504 8.82037 24.3394 8.43887 24.5354 8.00487C24.7314 7.57087 24.9169 7.11937 25.0919 6.65037C25.2739 6.17437 25.4244 5.72287 25.5434 5.29587ZM17.4689 5.62137L18.6239 5.27487C18.7919 5.68787 18.9634 6.13237 19.1384 6.60837C19.3134 7.08437 19.4779 7.54637 19.6319 7.99437C19.7859 8.44237 19.9049 8.83437 19.9889 9.17037L18.7289 9.63237C18.6589 9.28937 18.5539 8.89037 18.4139 8.43537C18.2739 7.97337 18.1199 7.49737 17.9519 7.00737C17.7909 6.51037 17.6299 6.04837 17.4689 5.62137ZM27.7484 9.87387V8.78187H30.3314V9.87387H27.7484ZM33.3347 12.1104C32.7957 12.1104 32.3337 12.0229 31.9487 11.8479C31.5707 11.6729 31.2592 11.4454 31.0142 11.1654L31.7282 10.1889C31.9312 10.3849 32.1552 10.5459 32.4002 10.6719C32.6452 10.7979 32.9077 10.8609 33.1877 10.8609C33.5167 10.8609 33.7792 10.7944 33.9752 10.6614C34.1712 10.5214 34.2692 10.3254 34.2692 10.0734C34.2692 9.87737 34.2202 9.70937 34.1222 9.56937C34.0242 9.42237 33.8457 9.31037 33.5867 9.23337C33.3277 9.15637 32.9567 9.11787 32.4737 9.11787V8.02587C33.0757 8.02587 33.4887 7.94537 33.7127 7.78437C33.9367 7.61637 34.0487 7.39937 34.0487 7.13337C34.0487 6.90237 33.9787 6.72387 33.8387 6.59787C33.6987 6.46487 33.4957 6.39837 33.2297 6.39837C32.9917 6.39837 32.7747 6.45087 32.5787 6.55587C32.3897 6.66087 32.1902 6.80437 31.9802 6.98637L31.2032 6.04137C31.5112 5.77537 31.8367 5.56887 32.1797 5.42188C32.5227 5.26787 32.8972 5.19087 33.3032 5.19087C33.9892 5.19087 34.5422 5.35187 34.9622 5.67387C35.3892 5.98887 35.6027 6.43687 35.6027 7.01787C35.6027 7.36087 35.5047 7.65487 35.3087 7.89987C35.1197 8.14487 34.8467 8.34437 34.4897 8.49837V8.54037C34.8747 8.65237 35.1897 8.84487 35.4347 9.11787C35.6867 9.38387 35.8127 9.73387 35.8127 10.1679C35.8127 10.5809 35.6972 10.9344 35.4662 11.2284C35.2422 11.5154 34.9412 11.7359 34.5632 11.8899C34.1922 12.0369 33.7827 12.1104 33.3347 12.1104Z" fill="white"/>
</svg>
