<svg width="43" height="19" viewBox="0 0 43 19" fill="none" xmlns="http://www.w3.org/2000/svg">
<path d="M0 3.51562C0 2.06588 1.17525 0.890625 2.625 0.890625H40.3125C41.7622 0.890625 42.9375 2.06588 42.9375 3.51562V15.5C42.9375 16.9497 41.7622 18.125 40.3125 18.125H2.625C1.17525 18.125 0 16.9497 0 15.5V3.51562Z" fill="#18BC9C"/>
<path d="M9.97188 3.75237H16.2509V4.95987H9.97188V3.75237ZM11.0009 8.37237H15.4739V9.52737H11.0009V8.37237ZM10.9169 5.85237H16.0409V10.1364H14.7809V7.01787H10.9169V5.85237ZM10.4549 5.85237H11.7044V7.92087C11.7044 8.29887 11.6834 8.71187 11.6414 9.15987C11.6064 9.60787 11.5364 10.0629 11.4314 10.5249C11.3334 10.9869 11.1899 11.4314 11.0009 11.8584C10.8119 12.2854 10.5599 12.6669 10.2449 13.0029C10.1819 12.9259 10.0874 12.8349 9.96138 12.7299C9.83538 12.6249 9.70588 12.5199 9.57288 12.4149C9.43988 12.3169 9.32788 12.2469 9.23688 12.2049C9.51688 11.8899 9.73738 11.5539 9.89838 11.1969C10.0594 10.8329 10.1784 10.4619 10.2554 10.0839C10.3394 9.69887 10.3919 9.32087 10.4129 8.94987C10.4409 8.57887 10.4549 8.23587 10.4549 7.92087V5.85237ZM7.22088 4.03587L7.91388 3.11187C8.13788 3.19587 8.37238 3.30087 8.61738 3.42687C8.86938 3.54587 9.10738 3.67537 9.33138 3.81537C9.56238 3.94837 9.74788 4.07787 9.88788 4.20387L9.15288 5.22237C9.01988 5.09637 8.84488 4.95987 8.62788 4.81287C8.41088 4.66587 8.17638 4.52587 7.92438 4.39287C7.67938 4.25287 7.44488 4.13387 7.22088 4.03587ZM6.59088 6.88137L7.26288 5.93637C7.48688 6.01337 7.72488 6.11487 7.97688 6.24087C8.22888 6.35987 8.47038 6.48587 8.70138 6.61887C8.93238 6.74487 9.11788 6.86737 9.25788 6.98637L8.55438 8.02587C8.41438 7.89987 8.23588 7.76687 8.01888 7.62687C7.80188 7.48687 7.56738 7.35387 7.31538 7.22787C7.06338 7.09487 6.82188 6.97937 6.59088 6.88137ZM6.95838 11.9634C7.14038 11.6974 7.33988 11.3859 7.55688 11.0289C7.77388 10.6649 7.99438 10.2799 8.21838 9.87387C8.44938 9.46087 8.66288 9.05487 8.85888 8.65587L9.80388 9.47487C9.62888 9.83887 9.44338 10.2134 9.24738 10.5984C9.05138 10.9764 8.85188 11.3509 8.64888 11.7219C8.44588 12.0929 8.24288 12.4499 8.03988 12.7929L6.95838 11.9634ZM21.3434 3.01737H22.6979V5.14887H21.3434V3.01737ZM21.3539 5.54787H22.6769V12.9399H21.3539V5.54787ZM17.2484 4.39287H26.8874V5.62137H17.2484V4.39287ZM18.2459 6.72387H25.1654V7.95237H19.5164V11.6589H18.2459V6.72387ZM24.6929 6.72387H26.0054V10.2939C26.0054 10.5949 25.9634 10.8399 25.8794 11.0289C25.8024 11.2109 25.6554 11.3509 25.4384 11.4489C25.2144 11.5469 24.9484 11.6064 24.6404 11.6274C24.3394 11.6484 23.9824 11.6589 23.5694 11.6589C23.5414 11.4769 23.4854 11.2669 23.4014 11.0289C23.3174 10.7909 23.2334 10.5879 23.1494 10.4199C23.3244 10.4269 23.4994 10.4339 23.6744 10.4409C23.8564 10.4479 24.0174 10.4514 24.1574 10.4514C24.3044 10.4514 24.4024 10.4514 24.4514 10.4514C24.5424 10.4444 24.6054 10.4304 24.6404 10.4094C24.6754 10.3814 24.6929 10.3324 24.6929 10.2624V6.72387ZM27.7484 9.87387V8.78187H30.3314V9.87387H27.7484ZM31.5182 11.9844V10.7349H32.9672V6.88137H31.7177V5.92587C32.0817 5.85587 32.3897 5.77187 32.6417 5.67387C32.8937 5.57587 33.1387 5.45687 33.3767 5.31687H34.5107V10.7349H35.7602V11.9844H31.5182Z" fill="white"/>
</svg>
