<svg width="43" height="19" viewBox="0 0 43 19" fill="none" xmlns="http://www.w3.org/2000/svg">
<path d="M0 3.51562C0 2.06588 1.17525 0.890625 2.625 0.890625H40.3125C41.7622 0.890625 42.9375 2.06588 42.9375 3.51562V15.5C42.9375 16.9497 41.7622 18.125 40.3125 18.125H2.625C1.17525 18.125 0 16.9497 0 15.5V3.51562Z" fill="#F75444"/>
<path d="M6.88488 5.55837H10.0034V6.80787H6.88488V5.55837ZM12.0194 3.23787H13.3319V10.8084C13.3319 11.1024 13.3564 11.2914 13.4054 11.3754C13.4544 11.4524 13.5769 11.4909 13.7729 11.4909C13.8149 11.4909 13.8849 11.4909 13.9829 11.4909C14.0809 11.4909 14.1894 11.4909 14.3084 11.4909C14.4274 11.4909 14.5359 11.4909 14.6339 11.4909C14.7319 11.4909 14.8054 11.4909 14.8544 11.4909C14.9944 11.4909 15.0994 11.4314 15.1694 11.3124C15.2394 11.1934 15.2884 10.9799 15.3164 10.6719C15.3514 10.3569 15.3794 9.91937 15.4004 9.35938C15.5054 9.43637 15.6279 9.51337 15.7679 9.59037C15.9149 9.66737 16.0619 9.73737 16.2089 9.80037C16.3559 9.85637 16.4889 9.89837 16.6079 9.92637C16.5659 10.5984 16.4924 11.1409 16.3874 11.5539C16.2894 11.9669 16.1284 12.2644 15.9044 12.4464C15.6874 12.6354 15.3794 12.7299 14.9804 12.7299C14.9244 12.7299 14.8299 12.7299 14.6969 12.7299C14.5639 12.7299 14.4204 12.7299 14.2664 12.7299C14.1194 12.7299 13.9829 12.7299 13.8569 12.7299C13.7309 12.7299 13.6364 12.7299 13.5734 12.7299C13.1744 12.7299 12.8594 12.6704 12.6284 12.5514C12.4044 12.4394 12.2469 12.2434 12.1559 11.9634C12.0649 11.6764 12.0194 11.2879 12.0194 10.7979V3.23787ZM9.37338 3.23787H10.6859V12.8139H9.37338V3.23787ZM15.4844 4.80237L16.3979 5.93637C16.0339 6.18137 15.6489 6.42637 15.2429 6.67137C14.8369 6.90937 14.4239 7.14387 14.0039 7.37487C13.5909 7.59887 13.1849 7.80887 12.7859 8.00487C12.7439 7.86487 12.6704 7.70037 12.5654 7.51137C12.4604 7.31537 12.3659 7.15087 12.2819 7.01787C12.6599 6.81487 13.0414 6.58737 13.4264 6.33537C13.8114 6.08337 14.1789 5.82437 14.5289 5.55837C14.8859 5.29237 15.2044 5.04037 15.4844 4.80237ZM6.50688 10.3149C6.79388 10.2309 7.12638 10.1294 7.50438 10.0104C7.88238 9.88437 8.28138 9.74787 8.70138 9.60087C9.12138 9.44687 9.53788 9.29637 9.95088 9.14937L10.1924 10.2834C9.66738 10.5214 9.12838 10.7559 8.57538 10.9869C8.02938 11.2179 7.52888 11.4279 7.07388 11.6169L6.50688 10.3149ZM23.2964 7.40637L24.6404 7.78437C24.2414 8.74337 23.7164 9.55887 23.0654 10.2309C22.4214 10.9029 21.6654 11.4594 20.7974 11.9004C19.9364 12.3414 18.9739 12.6914 17.9099 12.9504C17.8679 12.8454 17.7979 12.7159 17.6999 12.5619C17.6089 12.4149 17.5109 12.2679 17.4059 12.1209C17.3009 11.9739 17.2029 11.8549 17.1119 11.7639C18.1479 11.5609 19.0719 11.2774 19.8839 10.9134C20.7029 10.5494 21.3994 10.0804 21.9734 9.50637C22.5474 8.92537 22.9884 8.22537 23.2964 7.40637ZM19.9049 5.58987L21.2069 6.08337C20.9619 6.41237 20.6749 6.73787 20.3459 7.05987C20.0169 7.38187 19.6739 7.68287 19.3169 7.96287C18.9599 8.24287 18.6169 8.48437 18.2879 8.68737C18.2109 8.59637 18.1094 8.48787 17.9834 8.36187C17.8574 8.23587 17.7279 8.11337 17.5949 7.99437C17.4619 7.87537 17.3429 7.77737 17.2379 7.70037C17.5739 7.53937 17.9064 7.34687 18.2354 7.12287C18.5644 6.89887 18.8724 6.65387 19.1594 6.38787C19.4534 6.12187 19.7019 5.85587 19.9049 5.58987ZM20.8499 7.45887C21.3189 8.61387 22.0574 9.55187 23.0654 10.2729C24.0804 10.9869 25.3929 11.4734 27.0029 11.7324C26.9119 11.8234 26.8139 11.9389 26.7089 12.0789C26.6039 12.2259 26.5024 12.3729 26.4044 12.5199C26.3134 12.6739 26.2399 12.8104 26.1839 12.9294C25.0429 12.7124 24.0559 12.3834 23.2229 11.9424C22.3969 11.4944 21.6899 10.9274 21.1019 10.2414C20.5209 9.55537 20.0344 8.74687 19.6424 7.81587L20.8499 7.45887ZM17.3954 4.27737H26.7089V5.50587H17.3954V4.27737ZM21.3749 3.04887H22.6769V5.08587H21.3749V3.04887ZM23.0549 6.24087L24.0839 5.48487C24.3919 5.68787 24.7209 5.92237 25.0709 6.18837C25.4279 6.44737 25.7639 6.70987 26.0789 6.97587C26.4009 7.24187 26.6634 7.49037 26.8664 7.72137L25.7324 8.58237C25.5574 8.35837 25.3194 8.10987 25.0184 7.83687C24.7174 7.55687 24.3919 7.28037 24.0419 7.00737C23.6989 6.72737 23.3699 6.47187 23.0549 6.24087ZM27.7484 9.87387V8.78187H30.3314V9.87387H27.7484ZM32.4632 9.21238H33.8702V8.13087C33.8702 7.91387 33.8772 7.66537 33.8912 7.38537C33.9122 7.09837 33.9262 6.84987 33.9332 6.63987H33.8912C33.8072 6.82187 33.7197 7.00737 33.6287 7.19637C33.5377 7.38537 33.4432 7.57437 33.3452 7.76337L32.4632 9.21238ZM33.8702 11.9844V10.3884H30.9827V9.32787L33.4187 5.31687H35.3087V9.21238H36.0752V10.3884H35.3087V11.9844H33.8702Z" fill="white"/>
</svg>
