<svg width="22" height="22" viewBox="0 0 22 22" fill="none" xmlns="http://www.w3.org/2000/svg">
<path d="M0.476562 2C0.476562 0.89543 1.37199 0 2.47656 0H19.9062C21.0108 0 21.9062 0.895431 21.9062 2V20C21.9062 21.1046 21.0108 22 19.9062 22H2.47656C1.37199 22 0.476562 21.1046 0.476562 20V2Z" fill="#F75444"/>
<g clip-path="url(#clip0_3_129)">
<path d="M9.90656 13.7157V8.99571C9.90656 8.93571 9.88656 8.88571 9.84656 8.84571C9.80656 8.80571 9.75323 8.78571 9.68656 8.78571H9.26656C9.1999 8.78571 9.14656 8.80571 9.10656 8.84571C9.06656 8.88571 9.04656 8.93571 9.04656 8.99571V13.7157C9.04656 13.7757 9.06656 13.8257 9.10656 13.8657C9.14656 13.9057 9.1999 13.9257 9.26656 13.9257H9.68656C9.75323 13.9257 9.80656 13.9057 9.84656 13.8657C9.88656 13.8257 9.90656 13.7757 9.90656 13.7157ZM11.6166 13.7157V8.99571C11.6166 8.93571 11.5966 8.88571 11.5566 8.84571C11.5166 8.80571 11.4666 8.78571 11.4066 8.78571H10.9766C10.9166 8.78571 10.8666 8.80571 10.8266 8.84571C10.7866 8.88571 10.7666 8.93571 10.7666 8.99571V13.7157C10.7666 13.7757 10.7866 13.8257 10.8266 13.8657C10.8666 13.9057 10.9166 13.9257 10.9766 13.9257H11.4066C11.4666 13.9257 11.5166 13.9057 11.5566 13.8657C11.5966 13.8257 11.6166 13.7757 11.6166 13.7157ZM13.3366 13.7157V8.99571C13.3366 8.93571 13.3166 8.88571 13.2766 8.84571C13.2366 8.80571 13.1832 8.78571 13.1166 8.78571H12.6866C12.6266 8.78571 12.5766 8.80571 12.5366 8.84571C12.4966 8.88571 12.4766 8.93571 12.4766 8.99571V13.7157C12.4766 13.7757 12.4966 13.8257 12.5366 13.8657C12.5766 13.9057 12.6266 13.9257 12.6866 13.9257H13.1166C13.1832 13.9257 13.2366 13.9057 13.2766 13.8657C13.3166 13.8257 13.3366 13.7757 13.3366 13.7157ZM10.0166 6.28571L9.68656 7.07571H12.6866L12.3666 6.28571C12.3399 6.24571 12.3032 6.22238 12.2566 6.21571H10.1366C10.0899 6.22238 10.0499 6.24571 10.0166 6.28571ZM15.9066 7.28571V7.71571C15.9066 7.77571 15.8866 7.82571 15.8466 7.86571C15.8066 7.90571 15.7532 7.92571 15.6866 7.92571H15.0466V14.2757C15.0466 14.649 14.9432 14.969 14.7366 15.2357C14.5232 15.509 14.2699 15.6457 13.9766 15.6457H8.40656C8.11323 15.6457 7.8599 15.5157 7.64656 15.2557C7.4399 14.989 7.33656 14.6724 7.33656 14.3057V7.92571H6.68656C6.62656 7.92571 6.57656 7.90571 6.53656 7.86571C6.49656 7.82571 6.47656 7.77571 6.47656 7.71571V7.28571C6.47656 7.22571 6.49656 7.17571 6.53656 7.13571C6.57656 7.09571 6.62656 7.07571 6.68656 7.07571H8.75656L9.22656 5.95571C9.29323 5.78905 9.41323 5.64905 9.58656 5.53571C9.76656 5.41571 9.94323 5.35571 10.1166 5.35571H12.2666C12.4399 5.35571 12.6132 5.41571 12.7866 5.53571C12.9666 5.64905 13.0899 5.78905 13.1566 5.95571L13.6266 7.07571H15.6866C15.7532 7.07571 15.8066 7.09571 15.8466 7.13571C15.8866 7.17571 15.9066 7.22571 15.9066 7.28571Z" fill="white"/>
</g>
<defs>
<clipPath id="clip0_3_129">
<rect width="9.42857" height="10.2857" fill="white" transform="translate(6.47656 5.35715)"/>
</clipPath>
</defs>
</svg>
