<svg width="32" height="19" viewBox="0 0 32 19" fill="none" xmlns="http://www.w3.org/2000/svg">
<path d="M0.59375 3.51562C0.59375 2.06588 1.769 0.890625 3.21875 0.890625H28.9531C30.4029 0.890625 31.5781 2.06588 31.5781 3.51562V15.5C31.5781 16.9497 30.4029 18.125 28.9531 18.125H3.21875C1.769 18.125 0.59375 16.9497 0.59375 15.5V3.51562Z" fill="#F75444"/>
<path d="M9.03263 11.9844V6.44038H7.15313V5.13837H12.4661V6.44038H10.5866V11.9844H9.03263ZM14.9301 10.9974V9.06537H13.0821V7.97337H14.9301V6.04137H16.0641V7.97337H17.9121V9.06537H16.0641V10.9974H14.9301ZM19.0075 11.9844V10.7349H20.4565V6.88137H19.207V5.92587C19.571 5.85587 19.879 5.77187 20.131 5.67387C20.383 5.57587 20.628 5.45687 20.866 5.31687H22V10.7349H23.2495V11.9844H19.0075Z" fill="white"/>
</svg>
