<svg width="41" height="19" viewBox="0 0 41 19" fill="none" xmlns="http://www.w3.org/2000/svg">
<path d="M0.96875 3.51562C0.96875 2.06588 2.144 0.890625 3.59375 0.890625H38.3594C39.8091 0.890625 40.9844 2.06588 40.9844 3.51562V15.5C40.9844 16.9497 39.8091 18.125 38.3594 18.125H3.59375C2.144 18.125 0.96875 16.9497 0.96875 15.5V3.51562Z" fill="#F75444"/>
<path d="M9.68063 8.51937L9.51263 9.14937H10.9721L10.8146 8.51937C10.7236 8.17637 10.6291 7.81237 10.5311 7.42737C10.4401 7.04237 10.3491 6.67137 10.2581 6.31437H10.2161C10.1321 6.67837 10.0446 7.05287 9.95363 7.43787C9.86963 7.81587 9.77863 8.17637 9.68063 8.51937ZM7.20262 11.9844L9.34463 5.13837H11.2031L13.3451 11.9844H11.7071L11.2871 10.3569H9.19763L8.77763 11.9844H7.20262ZM18.8602 3.38487H21.4642V4.55037H18.8602V3.38487ZM17.9152 7.51137H22.0942V8.65587H17.9152V7.51137ZM18.3772 3.38487H19.5847V4.60287C19.5847 4.92487 19.5497 5.26087 19.4797 5.61087C19.4167 5.95387 19.2942 6.28637 19.1122 6.60837C18.9302 6.92337 18.6607 7.20337 18.3037 7.44837C18.2407 7.37137 18.1497 7.28037 18.0307 7.17537C17.9117 7.07037 17.7892 6.96537 17.6632 6.86037C17.5442 6.75537 17.4392 6.67837 17.3482 6.62937C17.6632 6.43337 17.8907 6.21987 18.0307 5.98887C18.1777 5.75087 18.2722 5.51287 18.3142 5.27487C18.3562 5.02987 18.3772 4.79537 18.3772 4.57137V3.38487ZM20.8027 3.38487H21.9892V5.72637C21.9892 5.86637 21.9962 5.95737 22.0102 5.99937C22.0242 6.03437 22.0592 6.05188 22.1152 6.05188C22.1292 6.05188 22.1502 6.05188 22.1782 6.05188C22.2132 6.05188 22.2447 6.05188 22.2727 6.05188C22.3077 6.05188 22.3322 6.05188 22.3462 6.05188C22.3952 6.05188 22.4302 6.02737 22.4512 5.97837C22.4722 5.92237 22.4897 5.81387 22.5037 5.65287C22.5247 5.49187 22.5387 5.24687 22.5457 4.91787C22.6577 5.01587 22.8152 5.10687 23.0182 5.19087C23.2282 5.27487 23.4102 5.33437 23.5642 5.36937C23.5292 5.82437 23.4697 6.17787 23.3857 6.42987C23.3087 6.68187 23.1967 6.85687 23.0497 6.95487C22.9097 7.05287 22.7242 7.10187 22.4932 7.10187C22.4372 7.10187 22.3707 7.10187 22.2937 7.10187C22.2167 7.10187 22.1432 7.10187 22.0732 7.10187C22.0032 7.10187 21.9402 7.10187 21.8842 7.10187C21.6112 7.10187 21.3942 7.06337 21.2332 6.98637C21.0792 6.90237 20.9672 6.76237 20.8972 6.56637C20.8342 6.37037 20.8027 6.09737 20.8027 5.74737V3.38487ZM19.3537 8.61387C19.7247 9.36987 20.2777 10.0349 21.0127 10.6089C21.7477 11.1759 22.6052 11.5924 23.5852 11.8584C23.4942 11.9424 23.3927 12.0474 23.2807 12.1734C23.1687 12.3064 23.0637 12.4429 22.9657 12.5829C22.8747 12.7229 22.7977 12.8489 22.7347 12.9609C21.6987 12.6179 20.7992 12.1069 20.0362 11.4279C19.2802 10.7489 18.6677 9.94037 18.1987 9.00237L19.3537 8.61387ZM21.6847 7.51137H21.9262L22.1362 7.45887L22.9552 7.78437C22.7732 8.47037 22.5282 9.08637 22.2202 9.63237C21.9122 10.1784 21.5482 10.6614 21.1282 11.0814C20.7152 11.5014 20.2532 11.8619 19.7422 12.1629C19.2382 12.4709 18.6922 12.7264 18.1042 12.9294C18.0622 12.8244 17.9992 12.7019 17.9152 12.5619C17.8382 12.4289 17.7542 12.2959 17.6632 12.1629C17.5722 12.0369 17.4847 11.9319 17.4007 11.8479C17.9187 11.7009 18.4087 11.5014 18.8707 11.2494C19.3327 10.9904 19.7492 10.6859 20.1202 10.3359C20.4912 9.98587 20.8097 9.59037 21.0757 9.14937C21.3487 8.70837 21.5517 8.22887 21.6847 7.71087V7.51137ZM14.7337 3.42687H17.0437V4.59237H14.7337V3.42687ZM14.7337 5.78937H17.0857V6.95487H14.7337V5.78937ZM14.7232 8.17287H17.0437V9.36987H14.7232V8.17287ZM14.2402 3.42687H15.3742V7.25937C15.3742 7.67937 15.3637 8.13787 15.3427 8.63487C15.3217 9.13187 15.2832 9.63587 15.2272 10.1469C15.1712 10.6579 15.0872 11.1549 14.9752 11.6379C14.8702 12.1209 14.7267 12.5549 14.5447 12.9399C14.4747 12.8769 14.3767 12.8069 14.2507 12.7299C14.1317 12.6529 14.0057 12.5794 13.8727 12.5094C13.7397 12.4464 13.6242 12.3974 13.5262 12.3624C13.6942 12.0054 13.8237 11.6134 13.9147 11.1864C14.0127 10.7524 14.0827 10.3079 14.1247 9.85287C14.1737 9.39787 14.2052 8.94987 14.2192 8.50887C14.2332 8.06087 14.2402 7.64437 14.2402 7.25937V3.42687ZM16.3402 3.42687H17.5057V11.5539C17.5057 11.8409 17.4777 12.0754 17.4217 12.2574C17.3657 12.4394 17.2537 12.5829 17.0857 12.6879C16.9177 12.7929 16.7147 12.8594 16.4767 12.8874C16.2457 12.9154 15.9587 12.9294 15.6157 12.9294C15.6087 12.8174 15.5877 12.6844 15.5527 12.5304C15.5177 12.3834 15.4757 12.2364 15.4267 12.0894C15.3777 11.9424 15.3287 11.8164 15.2797 11.7114C15.4687 11.7184 15.6472 11.7219 15.8152 11.7219C15.9902 11.7219 16.1092 11.7219 16.1722 11.7219C16.2352 11.7219 16.2772 11.7079 16.2982 11.6799C16.3262 11.6519 16.3402 11.6029 16.3402 11.5329V3.42687ZM24.2362 9.87387V8.78187H26.8192V9.87387H24.2362ZM30.043 12.1104C29.329 12.1104 28.7515 11.8129 28.3105 11.2179C27.8765 10.6229 27.6595 9.75837 27.6595 8.62437C27.6595 7.49037 27.8765 6.63637 28.3105 6.06237C28.7515 5.48137 29.329 5.19087 30.043 5.19087C30.757 5.19087 31.331 5.48137 31.765 6.06237C32.206 6.63637 32.4265 7.49037 32.4265 8.62437C32.4265 9.75837 32.206 10.6229 31.765 11.2179C31.331 11.8129 30.757 12.1104 30.043 12.1104ZM30.043 10.9134C30.218 10.9134 30.3755 10.8504 30.5155 10.7244C30.6555 10.5914 30.764 10.3604 30.841 10.0314C30.925 9.70237 30.967 9.23337 30.967 8.62437C30.967 8.01537 30.925 7.54987 30.841 7.22787C30.764 6.90587 30.6555 6.68537 30.5155 6.56637C30.3755 6.44737 30.218 6.38787 30.043 6.38787C29.875 6.38787 29.721 6.44737 29.581 6.56637C29.441 6.68537 29.329 6.90587 29.245 7.22787C29.161 7.54987 29.119 8.01537 29.119 8.62437C29.119 9.23337 29.161 9.70237 29.245 10.0314C29.329 10.3604 29.441 10.5914 29.581 10.7244C29.721 10.8504 29.875 10.9134 30.043 10.9134Z" fill="white"/>
</svg>
