<?xml version="1.0" encoding="utf-8"?>
<svg version="1.1" xmlns:xlink="http://www.w3.org/1999/xlink" width="12px" height="12px" viewBox="1356 1435  12 12" xmlns="http://www.w3.org/2000/svg">
  <path d="M 1362 1435  C 1365.36 1435  1368 1437.64  1368 1441  C 1368 1444.36  1365.36 1447  1362 1447  C 1358.64 1447  1356 1444.36  1356 1441  C 1356 1437.64  1358.64 1435  1362 1435  Z " fill-rule="nonzero" fill="#f0f0f0" stroke="none" />
  <path d="M 1362 1435.5  C 1365.08 1435.5  1367.5 1437.92  1367.5 1441  C 1367.5 1444.08  1365.08 1446.5  1362 1446.5  C 1358.92 1446.5  1356.5 1444.08  1356.5 1441  C 1356.5 1437.92  1358.92 1435.5  1362 1435.5  Z " stroke-width="1" stroke="#797979" fill="none" />
  <path d="M 1362 1444  C 1360.32 1444  1359 1442.68  1359 1441  C 1359 1439.32  1360.32 1438  1362 1438  C 1363.68 1438  1365 1439.32  1365 1441  C 1365 1442.68  1363.68 1444  1362 1444  " fill-rule="nonzero" fill="#797979" stroke="none" />
</svg>