<svg width="51" height="23" viewBox="0 0 51 23" fill="none" xmlns="http://www.w3.org/2000/svg">
<path d="M0.421875 2.98437C0.421875 1.8798 1.31731 0.984375 2.42188 0.984375H48.9219C50.0264 0.984375 50.9219 1.87981 50.9219 2.98438V20.9844C50.9219 22.0889 50.0264 22.9844 48.9219 22.9844H2.42187C1.3173 22.9844 0.421875 22.0889 0.421875 20.9844V2.98437Z" fill="#F75444"/>
<g clip-path="url(#clip0_42_2313)">
<path d="M13.6735 9.67908L14.3935 10.3891L16.3535 8.42908L15.6335 7.71908L13.6735 9.67908ZM17.2635 8.12908C17.3435 8.20908 17.3835 8.30908 17.3835 8.42908C17.3835 8.54908 17.3435 8.64908 17.2635 8.72908L8.65352 17.3491C8.57352 17.4291 8.47352 17.4691 8.35352 17.4691C8.23352 17.4691 8.13352 17.4291 8.05352 17.3491L6.72352 16.0191C6.64352 15.9391 6.60352 15.8391 6.60352 15.7191C6.60352 15.5991 6.64352 15.4991 6.72352 15.4191L15.3335 6.80908C15.4135 6.72908 15.5135 6.68908 15.6335 6.68908C15.7602 6.68908 15.8635 6.72908 15.9435 6.80908L17.2635 8.12908ZM8.13352 6.49908L8.34352 7.15908L8.99352 7.35908L8.34352 7.55908L8.13352 8.21908L7.93352 7.55908L7.28352 7.35908L7.93352 7.15908L8.13352 6.49908ZM10.2835 6.92908L10.6835 8.24908L11.9935 8.64908L10.6835 9.04908L10.2835 10.3591L9.88352 9.04908L8.56352 8.64908L9.88352 8.24908L10.2835 6.92908ZM16.7135 10.7891L16.9135 11.4491L17.5635 11.6491L16.9135 11.8491L16.7135 12.4991L16.5035 11.8491L15.8535 11.6491L16.5035 11.4491L16.7135 10.7891ZM12.4235 6.49908L12.6235 7.15908L13.2835 7.35908L12.6235 7.55908L12.4235 8.21908L12.2235 7.55908L11.5635 7.35908L12.2235 7.15908L12.4235 6.49908Z" fill="white"/>
</g>
<path d="M21.2405 6.70837H30.6965V7.60837H21.2405V6.70837ZM20.6045 11.8084H31.3685V12.7084H20.6045V11.8084ZM22.0685 8.42437L22.8845 8.18437C23.0445 8.47237 23.2005 8.78037 23.3525 9.10837C23.5045 9.43637 23.6405 9.76037 23.7605 10.0804C23.8885 10.3924 23.9765 10.6644 24.0245 10.8964L23.1725 11.1964C23.1165 10.9564 23.0285 10.6804 22.9085 10.3684C22.7965 10.0484 22.6685 9.72037 22.5245 9.38437C22.3805 9.04037 22.2285 8.72037 22.0685 8.42437ZM29.0405 8.12437L29.9885 8.38837C29.8445 8.71637 29.6845 9.05237 29.5085 9.39637C29.3405 9.74037 29.1725 10.0724 29.0045 10.3924C28.8365 10.7124 28.6725 10.9924 28.5125 11.2324L27.7325 10.9804C27.8845 10.7244 28.0405 10.4324 28.2005 10.1044C28.3685 9.76837 28.5245 9.42837 28.6685 9.08437C28.8125 8.73237 28.9365 8.41237 29.0405 8.12437ZM25.4885 7.05637H26.4245V16.9324H25.4885V7.05637ZM35.2085 10.1644H40.4885V11.0284H35.2085V10.1644ZM34.7285 10.1644H35.6645V15.0604C35.6645 15.2524 35.6925 15.3964 35.7485 15.4924C35.8125 15.5884 35.9285 15.6564 36.0965 15.6964C36.2725 15.7284 36.5285 15.7444 36.8645 15.7444C36.9605 15.7444 37.1205 15.7444 37.3445 15.7444C37.5685 15.7444 37.8245 15.7444 38.1125 15.7444C38.4005 15.7444 38.6925 15.7444 38.9885 15.7444C39.2845 15.7444 39.5525 15.7444 39.7925 15.7444C40.0325 15.7444 40.2125 15.7444 40.3325 15.7444C40.6365 15.7444 40.8645 15.7004 41.0165 15.6124C41.1685 15.5164 41.2765 15.3364 41.3405 15.0724C41.4045 14.8084 41.4525 14.4244 41.4845 13.9204C41.5645 13.9684 41.6565 14.0204 41.7605 14.0764C41.8645 14.1244 41.9725 14.1684 42.0845 14.2084C42.1965 14.2404 42.3005 14.2684 42.3965 14.2924C42.3325 14.9004 42.2405 15.3764 42.1205 15.7204C42.0005 16.0644 41.8045 16.3004 41.5325 16.4284C41.2605 16.5644 40.8725 16.6324 40.3685 16.6324C40.3045 16.6324 40.1805 16.6324 39.9965 16.6324C39.8205 16.6324 39.6085 16.6324 39.3605 16.6324C39.1205 16.6324 38.8645 16.6324 38.5925 16.6324C38.3285 16.6324 38.0765 16.6324 37.8365 16.6324C37.5965 16.6324 37.3845 16.6324 37.2005 16.6324C37.0245 16.6324 36.9085 16.6324 36.8525 16.6324C36.3085 16.6324 35.8805 16.5884 35.5685 16.5004C35.2645 16.4204 35.0485 16.2644 34.9205 16.0324C34.7925 15.8084 34.7285 15.4844 34.7285 15.0604V10.1644ZM37.9325 5.89237L38.7725 6.25237C38.3405 6.96437 37.8205 7.63637 37.2125 8.26837C36.6045 8.89237 35.9405 9.46438 35.2205 9.98438C34.5085 10.4964 33.7685 10.9364 33.0005 11.3044C32.9365 11.1844 32.8405 11.0524 32.7125 10.9084C32.5925 10.7564 32.4725 10.6284 32.3525 10.5244C33.1045 10.1964 33.8325 9.79637 34.5365 9.32437C35.2405 8.85237 35.8845 8.32437 36.4685 7.74037C37.0525 7.15637 37.5405 6.54037 37.9325 5.89237ZM38.3405 6.46837C39.0525 7.37237 39.8525 8.13237 40.7405 8.74837C41.6365 9.35637 42.6005 9.89637 43.6325 10.3684C43.5125 10.4644 43.3925 10.5844 43.2725 10.7284C43.1605 10.8644 43.0725 11.0004 43.0085 11.1364C42.3125 10.7764 41.6485 10.3924 41.0165 9.98438C40.3925 9.56837 39.7965 9.10437 39.2285 8.59237C38.6605 8.08037 38.1125 7.49237 37.5845 6.82837L38.3405 6.46837ZM40.2365 10.1644H41.1485C41.1485 10.1644 41.1485 10.1924 41.1485 10.2484C41.1485 10.2964 41.1445 10.3524 41.1365 10.4164C41.1365 10.4804 41.1365 10.5324 41.1365 10.5724C41.1045 11.2684 41.0685 11.8364 41.0285 12.2764C40.9885 12.7084 40.9405 13.0444 40.8845 13.2844C40.8285 13.5164 40.7565 13.6884 40.6685 13.8004C40.5645 13.9124 40.4445 13.9924 40.3085 14.0404C40.1805 14.0804 40.0245 14.1044 39.8405 14.1124C39.6725 14.1364 39.4365 14.1444 39.1325 14.1364C38.8365 14.1284 38.5205 14.1164 38.1845 14.1004C38.1765 13.9804 38.1525 13.8484 38.1125 13.7044C38.0725 13.5524 38.0245 13.4164 37.9685 13.2964C38.2965 13.3284 38.6005 13.3484 38.8805 13.3564C39.1605 13.3644 39.3565 13.3684 39.4685 13.3684C39.6765 13.3684 39.8165 13.3324 39.8885 13.2604C39.9525 13.1884 40.0045 13.0484 40.0445 12.8404C40.0845 12.6244 40.1205 12.3164 40.1525 11.9164C40.1845 11.5084 40.2125 10.9764 40.2365 10.3204V10.1644Z" fill="white"/>
<defs>
<clipPath id="clip0_42_2313">
<rect width="10.9621" height="10.9621" fill="white" transform="translate(6.60352 6.50336)"/>
</clipPath>
</defs>
</svg>
