<svg width="51" height="23" viewBox="0 0 51 23" fill="none" xmlns="http://www.w3.org/2000/svg">
<path d="M0.8125 2.98437C0.8125 1.8798 1.70793 0.984375 2.8125 0.984375H48.9375C50.0421 0.984375 50.9375 1.87981 50.9375 2.98438V20.9844C50.9375 22.0889 50.0421 22.9844 48.9375 22.9844H2.8125C1.70793 22.9844 0.8125 22.0889 0.8125 20.9844V2.98437Z" fill="#444C69"/>
<g clip-path="url(#clip0_42_2385)">
<path d="M8.5225 15.1986V16.4886C8.5225 16.542 8.5025 16.592 8.4625 16.6386C8.4225 16.6786 8.3725 16.6986 8.3125 16.6986H7.0225C6.96917 16.6986 6.91917 16.6786 6.8725 16.6386C6.8325 16.592 6.8125 16.542 6.8125 16.4886V15.1986C6.8125 15.1386 6.8325 15.0886 6.8725 15.0486C6.91917 15.0086 6.96917 14.9886 7.0225 14.9886H8.3125C8.3725 14.9886 8.4225 15.0086 8.4625 15.0486C8.5025 15.0886 8.5225 15.1386 8.5225 15.1986ZM8.5225 12.6286V13.9086C8.5225 13.9686 8.5025 14.0186 8.4625 14.0586C8.4225 14.1053 8.3725 14.1286 8.3125 14.1286H7.0225C6.96917 14.1286 6.91917 14.1053 6.8725 14.0586C6.8325 14.0186 6.8125 13.9686 6.8125 13.9086V12.6286C6.8125 12.5686 6.8325 12.5186 6.8725 12.4786C6.91917 12.432 6.96917 12.4086 7.0225 12.4086H8.3125C8.3725 12.4086 8.4225 12.432 8.4625 12.4786C8.5025 12.5186 8.5225 12.5686 8.5225 12.6286ZM8.5225 10.0586V11.3386C8.5225 11.3986 8.5025 11.4486 8.4625 11.4886C8.4225 11.5353 8.3725 11.5586 8.3125 11.5586H7.0225C6.96917 11.5586 6.91917 11.5353 6.8725 11.4886C6.8325 11.4486 6.8125 11.3986 6.8125 11.3386V10.0586C6.8125 9.99865 6.8325 9.94865 6.8725 9.90865C6.91917 9.86198 6.96917 9.83865 7.0225 9.83865H8.3125C8.3725 9.83865 8.4225 9.86198 8.4625 9.90865C8.5025 9.94865 8.5225 9.99865 8.5225 10.0586ZM18.8125 15.1986V16.4886C18.8125 16.542 18.7925 16.592 18.7525 16.6386C18.7058 16.6786 18.6558 16.6986 18.6025 16.6986H9.6025C9.5425 16.6986 9.4925 16.6786 9.4525 16.6386C9.40583 16.592 9.3825 16.542 9.3825 16.4886V15.1986C9.3825 15.1386 9.40583 15.0886 9.4525 15.0486C9.4925 15.0086 9.5425 14.9886 9.6025 14.9886H18.6025C18.6558 14.9886 18.7058 15.0086 18.7525 15.0486C18.7925 15.0886 18.8125 15.1386 18.8125 15.1986ZM8.5225 7.48865V8.76865C8.5225 8.82865 8.5025 8.87865 8.4625 8.91865C8.4225 8.96531 8.3725 8.98865 8.3125 8.98865H7.0225C6.96917 8.98865 6.91917 8.96531 6.8725 8.91865C6.8325 8.87865 6.8125 8.82865 6.8125 8.76865V7.48865C6.8125 7.42865 6.8325 7.37865 6.8725 7.33865C6.91917 7.29198 6.96917 7.26865 7.0225 7.26865H8.3125C8.3725 7.26865 8.4225 7.29198 8.4625 7.33865C8.5025 7.37865 8.5225 7.42865 8.5225 7.48865ZM18.8125 12.6286V13.9086C18.8125 13.9686 18.7925 14.0186 18.7525 14.0586C18.7058 14.1053 18.6558 14.1286 18.6025 14.1286H9.6025C9.5425 14.1286 9.4925 14.1053 9.4525 14.0586C9.40583 14.0186 9.3825 13.9686 9.3825 13.9086V12.6286C9.3825 12.5686 9.40583 12.5186 9.4525 12.4786C9.4925 12.432 9.5425 12.4086 9.6025 12.4086H18.6025C18.6558 12.4086 18.7058 12.432 18.7525 12.4786C18.7925 12.5186 18.8125 12.5686 18.8125 12.6286ZM18.8125 10.0586V11.3386C18.8125 11.3986 18.7925 11.4486 18.7525 11.4886C18.7058 11.5353 18.6558 11.5586 18.6025 11.5586H9.6025C9.5425 11.5586 9.4925 11.5353 9.4525 11.4886C9.40583 11.4486 9.3825 11.3986 9.3825 11.3386V10.0586C9.3825 9.99865 9.40583 9.94865 9.4525 9.90865C9.4925 9.86198 9.5425 9.83865 9.6025 9.83865H18.6025C18.6558 9.83865 18.7058 9.86198 18.7525 9.90865C18.7925 9.94865 18.8125 9.99865 18.8125 10.0586ZM18.8125 7.48865V8.76865C18.8125 8.82865 18.7925 8.87865 18.7525 8.91865C18.7058 8.96531 18.6558 8.98865 18.6025 8.98865H9.6025C9.5425 8.98865 9.4925 8.96531 9.4525 8.91865C9.40583 8.87865 9.3825 8.82865 9.3825 8.76865V7.48865C9.3825 7.42865 9.40583 7.37865 9.4525 7.33865C9.4925 7.29198 9.5425 7.26865 9.6025 7.26865H18.6025C18.6558 7.26865 18.7058 7.29198 18.7525 7.33865C18.7925 7.37865 18.8125 7.42865 18.8125 7.48865Z" fill="white"/>
</g>
<path d="M23.9268 15.9844V8.95237H21.5508V8.11237H27.3108V8.95237H24.9348V15.9844H23.9268ZM30.2404 14.7364V12.3964H28.0564V11.6524H30.2404V9.31237H31.0204V11.6524H33.2044V12.3964H31.0204V14.7364H30.2404ZM34.6933 15.9844V8.11237H35.7253L38.5693 13.0564L39.4213 14.6884H39.4693C39.4453 14.2884 39.4173 13.8764 39.3853 13.4524C39.3613 13.0204 39.3493 12.5964 39.3493 12.1804V8.11237H40.2973V15.9844H39.2653L36.4093 11.0284L35.5573 9.40837H35.5093C35.5413 9.80037 35.5693 10.2044 35.5933 10.6204C35.6253 11.0364 35.6413 11.4524 35.6413 11.8684V15.9844H34.6933Z" fill="white"/>
<defs>
<clipPath id="clip0_42_2385">
<rect width="12" height="9.42857" fill="white" transform="translate(6.8125 7.27008)"/>
</clipPath>
</defs>
</svg>
