<svg width="22" height="22" viewBox="0 0 22 22" fill="none" xmlns="http://www.w3.org/2000/svg">
<path d="M0.304688 2C0.304688 0.89543 1.20012 0 2.30469 0H19.7344C20.8389 0 21.7344 0.895431 21.7344 2V20C21.7344 21.1046 20.8389 22 19.7344 22H2.30469C1.20012 22 0.304688 21.1046 0.304688 20V2Z" fill="#F75444"/>
<g clip-path="url(#clip0_19_146)">
<path d="M9.73469 13.7157V8.99571C9.73469 8.93571 9.71469 8.88571 9.67469 8.84571C9.63469 8.80571 9.58135 8.78571 9.51469 8.78571H9.09469C9.02802 8.78571 8.97469 8.80571 8.93469 8.84571C8.89469 8.88571 8.87469 8.93571 8.87469 8.99571V13.7157C8.87469 13.7757 8.89469 13.8257 8.93469 13.8657C8.97469 13.9057 9.02802 13.9257 9.09469 13.9257H9.51469C9.58135 13.9257 9.63469 13.9057 9.67469 13.8657C9.71469 13.8257 9.73469 13.7757 9.73469 13.7157ZM11.4447 13.7157V8.99571C11.4447 8.93571 11.4247 8.88571 11.3847 8.84571C11.3447 8.80571 11.2947 8.78571 11.2347 8.78571H10.8047C10.7447 8.78571 10.6947 8.80571 10.6547 8.84571C10.6147 8.88571 10.5947 8.93571 10.5947 8.99571V13.7157C10.5947 13.7757 10.6147 13.8257 10.6547 13.8657C10.6947 13.9057 10.7447 13.9257 10.8047 13.9257H11.2347C11.2947 13.9257 11.3447 13.9057 11.3847 13.8657C11.4247 13.8257 11.4447 13.7757 11.4447 13.7157ZM13.1647 13.7157V8.99571C13.1647 8.93571 13.1447 8.88571 13.1047 8.84571C13.0647 8.80571 13.0114 8.78571 12.9447 8.78571H12.5147C12.4547 8.78571 12.4047 8.80571 12.3647 8.84571C12.3247 8.88571 12.3047 8.93571 12.3047 8.99571V13.7157C12.3047 13.7757 12.3247 13.8257 12.3647 13.8657C12.4047 13.9057 12.4547 13.9257 12.5147 13.9257H12.9447C13.0114 13.9257 13.0647 13.9057 13.1047 13.8657C13.1447 13.8257 13.1647 13.7757 13.1647 13.7157ZM9.84469 6.28571L9.51469 7.07571H12.5147L12.1947 6.28571C12.168 6.24571 12.1314 6.22238 12.0847 6.21571H9.96469C9.91802 6.22238 9.87802 6.24571 9.84469 6.28571ZM15.7347 7.28571V7.71571C15.7347 7.77571 15.7147 7.82571 15.6747 7.86571C15.6347 7.90571 15.5814 7.92571 15.5147 7.92571H14.8747V14.2757C14.8747 14.649 14.7714 14.969 14.5647 15.2357C14.3514 15.509 14.098 15.6457 13.8047 15.6457H8.23469C7.94135 15.6457 7.68802 15.5157 7.47469 15.2557C7.26802 14.989 7.16469 14.6724 7.16469 14.3057V7.92571H6.51469C6.45469 7.92571 6.40469 7.90571 6.36469 7.86571C6.32469 7.82571 6.30469 7.77571 6.30469 7.71571V7.28571C6.30469 7.22571 6.32469 7.17571 6.36469 7.13571C6.40469 7.09571 6.45469 7.07571 6.51469 7.07571H8.58469L9.05469 5.95571C9.12135 5.78905 9.24135 5.64905 9.41469 5.53571C9.59469 5.41571 9.77135 5.35571 9.94469 5.35571H12.0947C12.268 5.35571 12.4414 5.41571 12.6147 5.53571C12.7947 5.64905 12.918 5.78905 12.9847 5.95571L13.4547 7.07571H15.5147C15.5814 7.07571 15.6347 7.09571 15.6747 7.13571C15.7147 7.17571 15.7347 7.22571 15.7347 7.28571Z" fill="white"/>
</g>
<defs>
<clipPath id="clip0_19_146">
<rect width="9.42857" height="10.2857" fill="white" transform="translate(6.30469 5.35715)"/>
</clipPath>
</defs>
</svg>
