<svg width="51" height="22" viewBox="0 0 51 22" fill="none" xmlns="http://www.w3.org/2000/svg">
<path d="M0.789062 2C0.789062 0.89543 1.68449 0 2.78906 0H48.4141C49.5186 0 50.4141 0.895431 50.4141 2V20C50.4141 21.1046 49.5186 22 48.4141 22H2.78906C1.68449 22 0.789062 21.1046 0.789062 20V2Z" fill="#18BC9C"/>
<g clip-path="url(#clip0_19_141)">
<path d="M8.49906 14.7154H9.21906L9.82906 14.1054L8.25906 12.5354L7.64906 13.1454V13.8554H8.49906V14.7154ZM12.7191 8.50541C12.7191 8.40541 12.6724 8.35541 12.5791 8.35541C12.5324 8.35541 12.4924 8.37208 12.4591 8.40542L8.82906 12.0254C8.8024 12.0587 8.78906 12.0987 8.78906 12.1454C8.78906 12.2454 8.83573 12.2954 8.92906 12.2954C8.97573 12.2954 9.01573 12.2787 9.04906 12.2454L12.6791 8.61542C12.7057 8.58208 12.7191 8.54541 12.7191 8.50541ZM6.78906 12.7854L12.3591 7.21542L15.1491 10.0054L9.57906 15.5754H6.78906V12.7854ZM16.9391 7.85541C16.9391 8.09541 16.8557 8.29875 16.6891 8.46542L15.5791 9.57542L12.7891 6.78542L13.8991 5.68542C14.0591 5.51208 14.2591 5.42542 14.4991 5.42542C14.7391 5.42542 14.9424 5.51208 15.1091 5.68542L16.6891 7.24542C16.8557 7.41875 16.9391 7.62208 16.9391 7.85541Z" fill="white"/>
</g>
<path d="M20.4765 5.954H30.4845V7.922H29.5485V6.818H21.3765V7.922H20.4765V5.954ZM24.6285 4.838L25.5525 4.586C25.6645 4.786 25.7845 5.01 25.9125 5.258C26.0485 5.506 26.1445 5.718 26.2005 5.894L25.2525 6.194C25.1965 6.01 25.1085 5.79 24.9885 5.534C24.8685 5.278 24.7485 5.046 24.6285 4.838ZM21.2205 8.378H29.7405V14.042H28.8405V9.17H22.0845V14.102H21.2205V8.378ZM21.7725 10.49H29.2605V11.27H21.7725V10.49ZM21.7845 12.626H29.3205V13.43H21.7845V12.626ZM25.0005 7.214H25.9365V15.686H25.0005V7.214ZM36.1605 6.494H42.9645V7.322H36.1605V6.494ZM39.1725 4.694H40.0485V6.902H39.1725V4.694ZM39.9045 13.25L40.5885 12.77C40.8685 13.01 41.1685 13.278 41.4885 13.574C41.8085 13.862 42.1125 14.15 42.4005 14.438C42.6885 14.718 42.9205 14.97 43.0965 15.194L42.3645 15.746C42.1885 15.522 41.9645 15.262 41.6925 14.966C41.4205 14.678 41.1245 14.382 40.8045 14.078C40.4925 13.774 40.1925 13.498 39.9045 13.25ZM36.3405 9.266L36.8685 8.666C37.1565 8.858 37.4565 9.074 37.7685 9.314C38.0885 9.554 38.3885 9.794 38.6685 10.034C38.9485 10.274 39.1765 10.49 39.3525 10.682L38.7885 11.378C38.6205 11.178 38.3965 10.954 38.1165 10.706C37.8445 10.458 37.5525 10.206 37.2405 9.95C36.9285 9.694 36.6285 9.466 36.3405 9.266ZM38.9805 6.914L39.8565 7.346C39.6485 7.618 39.4285 7.906 39.1965 8.21C38.9725 8.506 38.7485 8.79 38.5245 9.062C38.3005 9.334 38.0885 9.574 37.8885 9.782L37.2405 9.422C37.4325 9.198 37.6365 8.942 37.8525 8.654C38.0685 8.366 38.2765 8.066 38.4765 7.754C38.6765 7.442 38.8445 7.162 38.9805 6.914ZM42.0765 10.406L42.8805 10.754C42.4325 11.506 41.8765 12.198 41.2125 12.83C40.5565 13.454 39.8125 14.006 38.9805 14.486C38.1565 14.966 37.2685 15.37 36.3165 15.698C36.2605 15.586 36.1805 15.462 36.0765 15.326C35.9805 15.19 35.8765 15.07 35.7645 14.966C36.6845 14.678 37.5445 14.314 38.3445 13.874C39.1525 13.426 39.8725 12.91 40.5045 12.326C41.1445 11.742 41.6685 11.102 42.0765 10.406ZM41.0685 8.21L41.8485 8.534C41.4725 9.166 41.0125 9.77 40.4685 10.346C39.9325 10.922 39.3405 11.446 38.6925 11.918C38.0525 12.39 37.3765 12.794 36.6645 13.13C36.6085 13.026 36.5245 12.914 36.4125 12.794C36.3005 12.666 36.1925 12.558 36.0885 12.47C36.7765 12.174 37.4325 11.806 38.0565 11.366C38.6885 10.926 39.2605 10.438 39.7725 9.902C40.2925 9.358 40.7245 8.794 41.0685 8.21ZM32.1045 7.238H36.1365V8.09H32.1045V7.238ZM33.8685 4.67H34.7085V15.698H33.8685V4.67ZM33.8445 7.778L34.4085 7.97C34.3125 8.45 34.1925 8.946 34.0485 9.458C33.9045 9.97 33.7405 10.474 33.5565 10.97C33.3725 11.466 33.1765 11.926 32.9685 12.35C32.7605 12.774 32.5485 13.138 32.3325 13.442C32.2845 13.322 32.2125 13.186 32.1165 13.034C32.0285 12.882 31.9445 12.754 31.8645 12.65C32.0725 12.378 32.2725 12.054 32.4645 11.678C32.6645 11.302 32.8525 10.894 33.0285 10.454C33.2045 10.014 33.3605 9.566 33.4965 9.11C33.6405 8.654 33.7565 8.21 33.8445 7.778ZM34.6485 8.93C34.7285 9.01 34.8445 9.158 34.9965 9.374C35.1485 9.582 35.3125 9.81 35.4885 10.058C35.6645 10.306 35.8245 10.538 35.9685 10.754C36.1205 10.97 36.2245 11.122 36.2805 11.21L35.7765 11.906C35.7045 11.754 35.5965 11.558 35.4525 11.318C35.3165 11.078 35.1685 10.83 35.0085 10.574C34.8565 10.31 34.7085 10.07 34.5645 9.854C34.4285 9.63 34.3165 9.454 34.2285 9.326L34.6485 8.93Z" fill="white"/>
<defs>
<clipPath id="clip0_19_141">
<rect width="10.1451" height="10.1451" fill="white" transform="translate(6.78906 5.42746)"/>
</clipPath>
</defs>
</svg>
