<svg width="141" height="33" viewBox="0 0 141 33" fill="none" xmlns="http://www.w3.org/2000/svg">
<rect width="139.93" height="33" transform="translate(0.976562)" fill="white"/>
<path d="M0.976562 3.21094C0.976562 1.55408 2.31971 0.210938 3.97656 0.210938H65.6719C67.3287 0.210938 68.6719 1.55408 68.6719 3.21094V29.7812C68.6719 31.4381 67.3287 32.7812 65.6719 32.7812H3.97656C2.31971 32.7812 0.976562 31.4381 0.976562 29.7812V3.21094Z" fill="#F75444"/>
<g clip-path="url(#clip0_22_24)">
<path d="M23.1266 20.9459C23.2199 20.8526 23.2666 20.7459 23.2666 20.6259C23.2666 20.4993 23.2199 20.3893 23.1266 20.2959C23.0332 20.2026 22.9232 20.1559 22.7966 20.1559C22.6699 20.1559 22.5599 20.2026 22.4666 20.2959C22.3799 20.3893 22.3366 20.4993 22.3366 20.6259C22.3366 20.7459 22.3799 20.8526 22.4666 20.9459C22.5599 21.0393 22.6699 21.0859 22.7966 21.0859C22.9232 21.0859 23.0332 21.0393 23.1266 20.9459ZM24.9866 20.9459C25.0732 20.8526 25.1166 20.7459 25.1166 20.6259C25.1166 20.4993 25.0732 20.3893 24.9866 20.2959C24.8932 20.2026 24.7832 20.1559 24.6566 20.1559C24.5299 20.1559 24.4199 20.2026 24.3266 20.2959C24.2332 20.3893 24.1866 20.4993 24.1866 20.6259C24.1866 20.7459 24.2332 20.8526 24.3266 20.9459C24.4199 21.0393 24.5299 21.0859 24.6566 21.0859C24.7832 21.0859 24.8932 21.0393 24.9866 20.9459ZM26.0466 18.9959V21.3159C26.0466 21.5093 25.9799 21.6759 25.8466 21.8159C25.7132 21.9493 25.5466 22.0159 25.3466 22.0159H14.6766C14.4832 22.0159 14.3166 21.9493 14.1766 21.8159C14.0432 21.6759 13.9766 21.5093 13.9766 21.3159V18.9959C13.9766 18.8026 14.0432 18.6393 14.1766 18.5059C14.3166 18.3659 14.4832 18.2959 14.6766 18.2959H17.7666C17.8732 18.5693 18.0466 18.7926 18.2866 18.9659C18.5199 19.1393 18.7866 19.2259 19.0866 19.2259H20.9366C21.2366 19.2259 21.5066 19.1393 21.7466 18.9659C21.9866 18.7926 22.1566 18.5693 22.2566 18.2959H25.3466C25.5466 18.2959 25.7132 18.3659 25.8466 18.5059C25.9799 18.6393 26.0466 18.8026 26.0466 18.9959ZM23.6866 14.2959C23.6066 14.4893 23.4666 14.5859 23.2666 14.5859H21.4066V17.8359C21.4066 17.9626 21.3599 18.0726 21.2666 18.1659C21.1732 18.2526 21.0632 18.2959 20.9366 18.2959H19.0866C18.9599 18.2959 18.8499 18.2526 18.7566 18.1659C18.6632 18.0726 18.6166 17.9626 18.6166 17.8359V14.5859H16.7666C16.5599 14.5859 16.4166 14.4893 16.3366 14.2959C16.2499 14.1093 16.2832 13.9426 16.4366 13.7959L19.6866 10.5459C19.7732 10.4526 19.8832 10.4059 20.0166 10.4059C20.1432 10.4059 20.2499 10.4526 20.3366 10.5459L23.5866 13.7959C23.7399 13.9426 23.7732 14.1093 23.6866 14.2959Z" fill="white"/>
</g>
<path d="M34.7672 14.2172H40.1102V15.1922H34.7672V14.2172ZM29.3202 20.3662H41.0072V21.3412H29.3202V20.3662ZM34.2082 10.2002H35.2352V20.8862H34.2082V10.2002ZM45.1152 10.0572L46.0382 10.3302C45.7522 11.0669 45.4186 11.7949 45.0372 12.5142C44.6559 13.2249 44.2442 13.8966 43.8022 14.5292C43.3602 15.1619 42.9052 15.7209 42.4372 16.2062C42.4026 16.1282 42.3549 16.0286 42.2942 15.9072C42.2336 15.7859 42.1642 15.6646 42.0862 15.5432C42.0169 15.4132 41.9519 15.3136 41.8912 15.2442C42.3159 14.8196 42.7276 14.3299 43.1262 13.7752C43.5249 13.2206 43.8932 12.6269 44.2312 11.9942C44.5779 11.3529 44.8726 10.7072 45.1152 10.0572ZM43.7372 13.3982L44.6602 12.4622L44.6732 12.4752V21.9392H43.7372V13.3982ZM47.8192 16.4402H52.6422V17.3502H47.8192V16.4402ZM52.3172 16.4402H52.4992L52.6552 16.3752L53.3442 16.8042C53.0409 17.1596 52.6986 17.5539 52.3172 17.9872C51.9359 18.4206 51.5416 18.8582 51.1342 19.3002C50.7356 19.7336 50.3499 20.1539 49.9772 20.5612L49.1712 20.0672C49.5439 19.6772 49.9296 19.2656 50.3282 18.8322C50.7269 18.3989 51.0996 17.9829 51.4462 17.5842C51.8016 17.1769 52.0919 16.8346 52.3172 16.5572V16.4402ZM49.1062 10.0702L50.0682 10.2002C49.9209 10.7809 49.7606 11.3962 49.5872 12.0462C49.4139 12.6876 49.2362 13.3332 49.0542 13.9832C48.8722 14.6332 48.6946 15.2486 48.5212 15.8292C48.3479 16.4099 48.1876 16.9169 48.0402 17.3502H47.0002C47.1649 16.8909 47.3426 16.3622 47.5332 15.7642C47.7239 15.1662 47.9102 14.5379 48.0922 13.8792C48.2829 13.2206 48.4649 12.5662 48.6382 11.9162C48.8116 11.2576 48.9676 10.6422 49.1062 10.0702ZM46.1812 11.5132H53.4612V12.4232H46.1812V11.5132ZM45.4402 13.9702H54.0592V14.8932H45.4402V13.9702ZM47.7412 19.3002L48.4562 18.7022C48.8722 18.9536 49.2969 19.2309 49.7302 19.5342C50.1722 19.8376 50.5796 20.1366 50.9522 20.4312C51.3336 20.7259 51.6456 20.9946 51.8882 21.2372L51.1602 21.9652C50.9262 21.7139 50.6186 21.4279 50.2372 21.1072C49.8559 20.7952 49.4486 20.4789 49.0152 20.1582C48.5819 19.8376 48.1572 19.5516 47.7412 19.3002Z" fill="white"/>
<path d="M72.2891 3.21094C72.2891 1.55408 73.6322 0.210938 75.2891 0.210938H137.906C139.563 0.210938 140.906 1.55408 140.906 3.21094V29.7812C140.906 31.4381 139.563 32.7812 137.906 32.7812H75.2891C73.6322 32.7812 72.2891 31.4381 72.2891 29.7812V3.21094Z" fill="#444C69"/>
<g clip-path="url(#clip1_22_24)">
<path d="M87.1491 19.6981V21.0881C87.1491 21.1481 87.1257 21.2014 87.0791 21.2481C87.0324 21.2947 86.9757 21.3181 86.9091 21.3181H85.5191C85.4591 21.3181 85.4057 21.2947 85.3591 21.2481C85.3124 21.2014 85.2891 21.1481 85.2891 21.0881V19.6981C85.2891 19.6314 85.3124 19.5747 85.3591 19.5281C85.4057 19.4814 85.4591 19.4581 85.5191 19.4581H86.9091C86.9757 19.4581 87.0324 19.4814 87.0791 19.5281C87.1257 19.5747 87.1491 19.6314 87.1491 19.6981ZM87.1491 16.9081V18.2981C87.1491 18.3647 87.1257 18.4214 87.0791 18.4681C87.0324 18.5081 86.9757 18.5281 86.9091 18.5281H85.5191C85.4591 18.5281 85.4057 18.5081 85.3591 18.4681C85.3124 18.4214 85.2891 18.3647 85.2891 18.2981V16.9081C85.2891 16.8414 85.3124 16.7881 85.3591 16.7481C85.4057 16.7014 85.4591 16.6781 85.5191 16.6781H86.9091C86.9757 16.6781 87.0324 16.7014 87.0791 16.7481C87.1257 16.7881 87.1491 16.8414 87.1491 16.9081ZM87.1491 14.1181V15.5181C87.1491 15.5781 87.1257 15.6314 87.0791 15.6781C87.0324 15.7247 86.9757 15.7481 86.9091 15.7481H85.5191C85.4591 15.7481 85.4057 15.7247 85.3591 15.6781C85.3124 15.6314 85.2891 15.5781 85.2891 15.5181V14.1181C85.2891 14.0581 85.3124 14.0047 85.3591 13.9581C85.4057 13.9114 85.4591 13.8881 85.5191 13.8881H86.9091C86.9757 13.8881 87.0324 13.9114 87.0791 13.9581C87.1257 14.0047 87.1491 14.0581 87.1491 14.1181ZM98.2891 19.6981V21.0881C98.2891 21.1481 98.2657 21.2014 98.2191 21.2481C98.1724 21.2947 98.1191 21.3181 98.0591 21.3181H88.3091C88.2424 21.3181 88.1857 21.2947 88.1391 21.2481C88.0991 21.2014 88.0791 21.1481 88.0791 21.0881V19.6981C88.0791 19.6314 88.0991 19.5747 88.1391 19.5281C88.1857 19.4814 88.2424 19.4581 88.3091 19.4581H98.0591C98.1191 19.4581 98.1724 19.4814 98.2191 19.5281C98.2657 19.5747 98.2891 19.6314 98.2891 19.6981ZM87.1491 11.3381V12.7281C87.1491 12.7947 87.1257 12.8481 87.0791 12.8881C87.0324 12.9347 86.9757 12.9581 86.9091 12.9581H85.5191C85.4591 12.9581 85.4057 12.9347 85.3591 12.8881C85.3124 12.8481 85.2891 12.7947 85.2891 12.7281V11.3381C85.2891 11.2714 85.3124 11.2147 85.3591 11.1681C85.4057 11.1281 85.4591 11.1081 85.5191 11.1081H86.9091C86.9757 11.1081 87.0324 11.1281 87.0791 11.1681C87.1257 11.2147 87.1491 11.2714 87.1491 11.3381ZM98.2891 16.9081V18.2981C98.2891 18.3647 98.2657 18.4214 98.2191 18.4681C98.1724 18.5081 98.1191 18.5281 98.0591 18.5281H88.3091C88.2424 18.5281 88.1857 18.5081 88.1391 18.4681C88.0991 18.4214 88.0791 18.3647 88.0791 18.2981V16.9081C88.0791 16.8414 88.0991 16.7881 88.1391 16.7481C88.1857 16.7014 88.2424 16.6781 88.3091 16.6781H98.0591C98.1191 16.6781 98.1724 16.7014 98.2191 16.7481C98.2657 16.7881 98.2891 16.8414 98.2891 16.9081ZM98.2891 14.1181V15.5181C98.2891 15.5781 98.2657 15.6314 98.2191 15.6781C98.1724 15.7247 98.1191 15.7481 98.0591 15.7481H88.3091C88.2424 15.7481 88.1857 15.7247 88.1391 15.6781C88.0991 15.6314 88.0791 15.5781 88.0791 15.5181V14.1181C88.0791 14.0581 88.0991 14.0047 88.1391 13.9581C88.1857 13.9114 88.2424 13.8881 88.3091 13.8881H98.0591C98.1191 13.8881 98.1724 13.9114 98.2191 13.9581C98.2657 14.0047 98.2891 14.0581 98.2891 14.1181ZM98.2891 11.3381V12.7281C98.2891 12.7947 98.2657 12.8481 98.2191 12.8881C98.1724 12.9347 98.1191 12.9581 98.0591 12.9581H88.3091C88.2424 12.9581 88.1857 12.9347 88.1391 12.8881C88.0991 12.8481 88.0791 12.7947 88.0791 12.7281V11.3381C88.0791 11.2714 88.0991 11.2147 88.1391 11.1681C88.1857 11.1281 88.2424 11.1081 88.3091 11.1081H98.0591C98.1191 11.1081 98.1724 11.1281 98.2191 11.1681C98.2657 11.2147 98.2891 11.2714 98.2891 11.3381Z" fill="white"/>
</g>
<path d="M105.052 14.5552H113.255V15.4262H105.052V14.5552ZM106.56 11.8122H112.709V12.6572H106.56V11.8122ZM108.731 10.0572H109.706V14.9452H108.731V10.0572ZM106.69 10.3952L107.626 10.5902C107.444 11.2402 107.201 11.8642 106.898 12.4622C106.603 13.0602 106.291 13.5672 105.962 13.9832C105.901 13.9312 105.819 13.8749 105.715 13.8142C105.611 13.7449 105.507 13.6799 105.403 13.6192C105.299 13.5499 105.208 13.4979 105.13 13.4632C105.485 13.0819 105.797 12.6182 106.066 12.0722C106.334 11.5262 106.542 10.9672 106.69 10.3952ZM109.719 14.9972H110.681V18.4422C110.681 18.5982 110.702 18.6979 110.746 18.7412C110.789 18.7846 110.893 18.8062 111.058 18.8062C111.084 18.8062 111.144 18.8062 111.24 18.8062C111.335 18.8062 111.439 18.8062 111.552 18.8062C111.664 18.8062 111.768 18.8062 111.864 18.8062C111.968 18.8062 112.041 18.8062 112.085 18.8062C112.189 18.8062 112.267 18.7716 112.319 18.7022C112.379 18.6329 112.423 18.4899 112.449 18.2732C112.475 18.0566 112.492 17.7186 112.501 17.2592C112.561 17.3112 112.639 17.3676 112.735 17.4282C112.839 17.4802 112.947 17.5236 113.06 17.5582C113.172 17.5929 113.272 17.6232 113.359 17.6492C113.324 18.2039 113.268 18.6286 113.19 18.9232C113.12 19.2179 113.003 19.4259 112.839 19.5472C112.683 19.6599 112.466 19.7162 112.189 19.7162C112.145 19.7162 112.063 19.7162 111.942 19.7162C111.82 19.7162 111.69 19.7162 111.552 19.7162C111.413 19.7162 111.283 19.7162 111.162 19.7162C111.049 19.7162 110.967 19.7162 110.915 19.7162C110.594 19.7162 110.347 19.6816 110.174 19.6122C110 19.5342 109.879 19.4042 109.81 19.2222C109.749 19.0316 109.719 18.7716 109.719 18.4422V14.9972ZM107.444 15.0232H108.419C108.367 15.5952 108.28 16.1239 108.159 16.6092C108.046 17.0946 107.877 17.5409 107.652 17.9482C107.426 18.3469 107.123 18.7066 106.742 19.0272C106.369 19.3392 105.888 19.6122 105.299 19.8462C105.264 19.7596 105.212 19.6686 105.143 19.5732C105.073 19.4692 105 19.3739 104.922 19.2872C104.844 19.1919 104.77 19.1139 104.701 19.0532C105.229 18.8626 105.663 18.6372 106.001 18.3772C106.339 18.1172 106.603 17.8182 106.794 17.4802C106.993 17.1422 107.136 16.7696 107.223 16.3622C107.318 15.9462 107.392 15.4999 107.444 15.0232ZM101.685 10.9802L102.426 10.4472C102.686 10.6466 102.946 10.8719 103.206 11.1232C103.474 11.3659 103.721 11.6129 103.947 11.8642C104.181 12.1156 104.367 12.3452 104.506 12.5532L103.7 13.1642C103.578 12.9476 103.405 12.7092 103.18 12.4492C102.963 12.1892 102.72 11.9336 102.452 11.6822C102.192 11.4222 101.936 11.1882 101.685 10.9802ZM104.155 14.9972V20.0022H103.219V15.9072H101.62V14.9972H104.155ZM104.077 19.6122C104.276 19.6122 104.467 19.6816 104.649 19.8202C104.839 19.9589 105.099 20.1279 105.429 20.3272C105.836 20.5699 106.313 20.7259 106.859 20.7952C107.405 20.8559 108.02 20.8862 108.705 20.8862C109.199 20.8862 109.732 20.8776 110.304 20.8602C110.876 20.8342 111.435 20.8082 111.981 20.7822C112.535 20.7476 113.025 20.7086 113.45 20.6652C113.415 20.7432 113.376 20.8429 113.333 20.9642C113.298 21.0942 113.263 21.2199 113.229 21.3412C113.203 21.4712 113.185 21.5839 113.177 21.6792C112.917 21.6966 112.6 21.7096 112.228 21.7182C111.855 21.7356 111.456 21.7486 111.032 21.7572C110.607 21.7746 110.191 21.7876 109.784 21.7962C109.376 21.8049 109.012 21.8092 108.692 21.8092C107.938 21.8092 107.279 21.7659 106.716 21.6792C106.161 21.5926 105.671 21.4236 105.247 21.1722C104.995 21.0162 104.77 20.8646 104.571 20.7172C104.371 20.5612 104.198 20.4832 104.051 20.4832C103.895 20.4832 103.713 20.5526 103.505 20.6912C103.297 20.8212 103.076 20.9989 102.842 21.2242C102.616 21.4496 102.378 21.6966 102.127 21.9652L101.477 21.1202C101.78 20.8429 102.083 20.5916 102.387 20.3662C102.69 20.1322 102.985 19.9502 103.271 19.8202C103.565 19.6816 103.834 19.6122 104.077 19.6122ZM114.36 16.8302C114.88 16.6829 115.508 16.4966 116.245 16.2712C116.99 16.0459 117.748 15.8119 118.52 15.5692L118.65 16.4662C117.948 16.7002 117.241 16.9342 116.531 17.1682C115.82 17.3936 115.179 17.5972 114.607 17.7792L114.36 16.8302ZM114.49 12.6182H118.689V13.5282H114.49V12.6182ZM116.193 10.0182H117.142V20.7692C117.142 21.0379 117.107 21.2459 117.038 21.3932C116.977 21.5406 116.864 21.6532 116.7 21.7312C116.544 21.8092 116.331 21.8569 116.063 21.8742C115.794 21.9002 115.452 21.9132 115.036 21.9132C115.018 21.7919 114.984 21.6402 114.932 21.4582C114.88 21.2762 114.819 21.1202 114.75 20.9902C115.027 20.9989 115.278 21.0032 115.504 21.0032C115.738 21.0032 115.894 21.0032 115.972 21.0032C116.119 20.9946 116.193 20.9166 116.193 20.7692V10.0182ZM119.04 10.6942H124.981V11.5782H119.04V10.6942ZM124.786 10.6942H124.955L125.124 10.6552L125.709 10.9802C125.397 11.6216 124.998 12.2066 124.513 12.7352C124.036 13.2552 123.494 13.7232 122.888 14.1392C122.29 14.5552 121.657 14.9192 120.99 15.2312C120.331 15.5346 119.668 15.7859 119.001 15.9852C118.949 15.8639 118.871 15.7252 118.767 15.5692C118.671 15.4132 118.576 15.2876 118.481 15.1922C119.122 15.0362 119.759 14.8239 120.392 14.5552C121.024 14.2779 121.622 13.9572 122.186 13.5932C122.758 13.2206 123.265 12.8046 123.707 12.3452C124.157 11.8859 124.517 11.3876 124.786 10.8502V10.6942ZM120.522 11.0972C120.886 11.7732 121.367 12.3842 121.965 12.9302C122.563 13.4676 123.252 13.9269 124.032 14.3082C124.812 14.6896 125.652 14.9799 126.554 15.1792C126.493 15.2399 126.424 15.3222 126.346 15.4262C126.268 15.5216 126.194 15.6212 126.125 15.7252C126.055 15.8206 125.999 15.9116 125.956 15.9982C125.046 15.7556 124.192 15.4219 123.395 14.9972C122.606 14.5639 121.904 14.0439 121.289 13.4372C120.673 12.8306 120.166 12.1459 119.768 11.3832L120.522 11.0972ZM119.313 16.7132H125.397V17.5972H119.313V16.7132ZM118.65 18.9362H126.333V19.8202H118.65V18.9362ZM121.952 15.5692H122.927V21.9912H121.952V15.5692Z" fill="white"/>
<defs>
<clipPath id="clip0_22_24">
<rect width="12.0714" height="11.6071" fill="white" transform="translate(13.9766 10.4074)"/>
</clipPath>
<clipPath id="clip1_22_24">
<rect width="13" height="10.2143" fill="white" transform="translate(85.2891 11.1038)"/>
</clipPath>
</defs>
</svg>
