<svg width="598" height="33" viewBox="0 0 598 33" fill="none" xmlns="http://www.w3.org/2000/svg">
<path d="M0.5 3C0.5 1.34315 1.84315 0 3.5 0H34.6484C36.3053 0 37.6484 1.34315 37.6484 3V29.5703C37.6484 31.2272 36.3053 32.5703 34.6484 32.5703H3.5C1.84315 32.5703 0.5 31.2272 0.5 29.5703V3Z" fill="#444C69"/>
<g clip-path="url(#clip0_19_11)">
<path d="M24.46 17.1629C24.46 17.1829 24.4567 17.1995 24.45 17.2129C24.1433 18.5062 23.4967 19.5562 22.51 20.3629C21.5233 21.1695 20.3667 21.5729 19.04 21.5729C18.3333 21.5729 17.65 21.4395 16.99 21.1729C16.33 20.9062 15.7433 20.5262 15.23 20.0329L14.29 20.9729C14.1967 21.0595 14.0867 21.1029 13.96 21.1029C13.84 21.1029 13.7333 21.0595 13.64 20.9729C13.5467 20.8795 13.5 20.7695 13.5 20.6429V17.3929C13.5 17.2662 13.5467 17.1562 13.64 17.0629C13.7333 16.9762 13.84 16.9329 13.96 16.9329H17.21C17.3367 16.9329 17.4467 16.9762 17.54 17.0629C17.6333 17.1562 17.68 17.2662 17.68 17.3929C17.68 17.5195 17.6333 17.6295 17.54 17.7229L16.55 18.7129C16.89 19.0329 17.2767 19.2795 17.71 19.4529C18.15 19.6262 18.6033 19.7129 19.07 19.7129C19.7167 19.7129 20.3233 19.5562 20.89 19.2429C21.45 18.9295 21.8967 18.4962 22.23 17.9429C22.2833 17.8629 22.4133 17.5795 22.62 17.0929C22.66 16.9862 22.7333 16.9329 22.84 16.9329H24.23C24.29 16.9329 24.3433 16.9529 24.39 16.9929C24.4367 17.0395 24.46 17.0962 24.46 17.1629ZM24.64 11.3529V14.6029C24.64 14.7295 24.5967 14.8395 24.51 14.9329C24.4167 15.0262 24.3067 15.0729 24.18 15.0729H20.93C20.8033 15.0729 20.6933 15.0262 20.6 14.9329C20.5067 14.8395 20.46 14.7295 20.46 14.6029C20.46 14.4829 20.5067 14.3762 20.6 14.2829L21.6 13.2829C20.8867 12.6162 20.0433 12.2829 19.07 12.2829C18.4233 12.2829 17.82 12.4395 17.26 12.7529C16.7 13.0729 16.25 13.5062 15.91 14.0529C15.8567 14.1395 15.7267 14.4229 15.52 14.9029C15.4867 15.0162 15.4167 15.0729 15.31 15.0729H13.86C13.8 15.0729 13.7467 15.0495 13.7 15.0029C13.6533 14.9562 13.63 14.9029 13.63 14.8429V14.7929C13.9433 13.4929 14.5967 12.4395 15.59 11.6329C16.5833 10.8329 17.7433 10.4329 19.07 10.4329C19.7767 10.4329 20.4633 10.5662 21.13 10.8329C21.7967 11.0995 22.39 11.4762 22.91 11.9629L23.85 11.0329C23.9433 10.9395 24.0533 10.8929 24.18 10.8929C24.3067 10.8929 24.4167 10.9395 24.51 11.0329C24.5967 11.1262 24.64 11.2329 24.64 11.3529Z" fill="white"/>
</g>
<path d="M41.5391 3C41.5391 1.34315 42.8822 0 44.5391 0H104.375C106.032 0 107.375 1.34315 107.375 3V29.5703C107.375 31.2272 106.032 32.5703 104.375 32.5703H44.5391C42.8822 32.5703 41.5391 31.2272 41.5391 29.5703V3Z" fill="#18BC9C"/>
<g clip-path="url(#clip1_19_11)">
<path d="M64.7491 15.3071V16.6971C64.7491 16.8905 64.6824 17.0538 64.5491 17.1871C64.4157 17.3271 64.2524 17.3971 64.0591 17.3971H61.0391V20.4071C61.0391 20.6005 60.9724 20.7671 60.8391 20.9071C60.6991 21.0405 60.5324 21.1071 60.3391 21.1071H58.9491C58.7557 21.1071 58.5924 21.0405 58.4591 20.9071C58.3191 20.7671 58.2491 20.6005 58.2491 20.4071V17.3971H55.2391C55.0457 17.3971 54.8791 17.3271 54.7391 17.1871C54.6057 17.0538 54.5391 16.8905 54.5391 16.6971V15.3071C54.5391 15.1138 54.6057 14.9471 54.7391 14.8071C54.8791 14.6738 55.0457 14.6071 55.2391 14.6071H58.2491V11.5871C58.2491 11.3938 58.3191 11.2305 58.4591 11.0971C58.5924 10.9638 58.7557 10.8971 58.9491 10.8971H60.3391C60.5324 10.8971 60.6991 10.9638 60.8391 11.0971C60.9724 11.2305 61.0391 11.3938 61.0391 11.5871V14.6071H64.0591C64.2524 14.6071 64.4157 14.6738 64.5491 14.8071C64.6824 14.9471 64.7491 15.1138 64.7491 15.3071Z" fill="white"/>
</g>
<path d="M72.5604 16.9833L73.3404 17.2563C73.245 17.6203 73.1194 17.9973 72.9634 18.3873C72.816 18.7686 72.634 19.1326 72.4174 19.4793C72.2007 19.826 71.9407 20.1293 71.6374 20.3893L70.9224 19.8303C71.1997 19.5963 71.4424 19.3233 71.6504 19.0113C71.8584 18.6993 72.036 18.37 72.1834 18.0233C72.3394 17.668 72.465 17.3213 72.5604 16.9833ZM75.6674 17.4773L76.4084 17.2173C76.625 17.6506 76.8157 18.1273 76.9804 18.6473C77.1537 19.1586 77.2707 19.605 77.3314 19.9863L76.5384 20.2723C76.5124 20.021 76.4517 19.735 76.3564 19.4143C76.2697 19.085 76.1657 18.7513 76.0444 18.4133C75.9317 18.0753 75.806 17.7633 75.6674 17.4773ZM77.2664 17.1783L78.0334 16.8013C78.302 17.122 78.562 17.4773 78.8134 17.8673C79.0734 18.2486 79.303 18.6256 79.5024 18.9983C79.7104 19.3623 79.8664 19.696 79.9704 19.9993L79.1384 20.4283C79.043 20.125 78.8957 19.7826 78.6964 19.4013C78.497 19.02 78.2717 18.6386 78.0204 18.2573C77.7777 17.8673 77.5264 17.5076 77.2664 17.1783ZM76.8244 13.4343C77.041 13.8416 77.314 14.236 77.6434 14.6173C77.9727 14.9986 78.341 15.341 78.7484 15.6443C79.1557 15.939 79.5717 16.1816 79.9964 16.3723C79.927 16.4243 79.849 16.498 79.7624 16.5933C79.6757 16.6886 79.5934 16.7883 79.5154 16.8923C79.446 16.9876 79.3854 17.0743 79.3334 17.1523C78.8827 16.927 78.445 16.6366 78.0204 16.2813C77.6044 15.926 77.2187 15.5316 76.8634 15.0983C76.5167 14.6563 76.222 14.197 75.9794 13.7203L76.8244 13.4343ZM74.6144 11.1593L75.6024 11.3153C75.2557 12.7626 74.7184 13.976 73.9904 14.9553C73.271 15.9346 72.348 16.7233 71.2214 17.3213C71.178 17.252 71.1174 17.1696 71.0394 17.0743C70.9614 16.979 70.879 16.8836 70.7924 16.7883C70.7057 16.693 70.6277 16.615 70.5584 16.5543C71.6504 16.043 72.5257 15.341 73.1844 14.4483C73.8517 13.5556 74.3284 12.4593 74.6144 11.1593ZM78.2674 9.91129L79.0344 10.6653C78.5664 10.8126 78.0377 10.9426 77.4484 11.0553C76.859 11.168 76.235 11.2676 75.5764 11.3543C74.9264 11.441 74.2677 11.5103 73.6004 11.5623C72.933 11.6143 72.2874 11.6576 71.6634 11.6923C71.6547 11.571 71.62 11.4323 71.5594 11.2763C71.5074 11.1116 71.4554 10.973 71.4034 10.8603C72.01 10.8256 72.634 10.7823 73.2754 10.7303C73.9254 10.6696 74.558 10.6003 75.1734 10.5223C75.7887 10.4443 76.3607 10.3533 76.8894 10.2493C77.4267 10.1453 77.886 10.0326 78.2674 9.91129ZM70.9484 13.0183H79.6714V13.9283H70.9484V13.0183ZM74.1854 15.6183H75.0954V20.6753C75.0954 20.9266 75.065 21.1216 75.0044 21.2603C74.9437 21.4076 74.8224 21.516 74.6404 21.5853C74.467 21.6633 74.233 21.7066 73.9384 21.7153C73.6524 21.7326 73.2884 21.7413 72.8464 21.7413C72.829 21.62 72.7944 21.477 72.7424 21.3123C72.6904 21.1476 72.6297 21.0003 72.5604 20.8703C72.8897 20.879 73.1844 20.8833 73.4444 20.8833C73.7044 20.8833 73.8777 20.8833 73.9644 20.8833C74.1117 20.8746 74.1854 20.8053 74.1854 20.6753V15.6183ZM68.4654 10.6133L69.0374 9.91129C69.28 10.024 69.5357 10.1583 69.8044 10.3143C70.073 10.4703 70.3244 10.6306 70.5584 10.7953C70.801 10.9513 70.996 11.103 71.1434 11.2503L70.5584 12.0433C70.4197 11.8873 70.2334 11.727 69.9994 11.5623C69.7654 11.389 69.514 11.22 69.2454 11.0553C68.9767 10.882 68.7167 10.7346 68.4654 10.6133ZM67.8544 14.1363L68.3874 13.4213C68.656 13.5166 68.929 13.638 69.2064 13.7853C69.4837 13.924 69.7437 14.0713 69.9864 14.2273C70.229 14.3746 70.4284 14.5176 70.5844 14.6563L70.0254 15.4493C69.8694 15.3106 69.67 15.1633 69.4274 15.0073C69.1934 14.8426 68.9377 14.6866 68.6604 14.5393C68.383 14.3833 68.1144 14.249 67.8544 14.1363ZM68.1404 21.0393C68.3137 20.71 68.5044 20.3286 68.7124 19.8953C68.929 19.4533 69.1414 18.9896 69.3494 18.5043C69.566 18.0103 69.7654 17.5293 69.9474 17.0613L70.7274 17.6073C70.5627 18.0406 70.3807 18.4913 70.1814 18.9593C69.9907 19.4273 69.7957 19.8866 69.5964 20.3373C69.4057 20.7793 69.2107 21.1953 69.0114 21.5853L68.1404 21.0393ZM88.2254 19.6613H91.7614V20.5973H88.2254V19.6613ZM81.0494 12.2513H86.0544V13.2133H81.0494V12.2513ZM87.7964 11.4063H92.2294V21.4553H91.2544V12.3553H88.7324V21.5593H87.7964V11.4063ZM85.7944 12.2513H86.7304C86.7304 12.2513 86.7304 12.286 86.7304 12.3553C86.7304 12.416 86.7304 12.4896 86.7304 12.5763C86.7304 12.6543 86.7304 12.715 86.7304 12.7583C86.7044 14.2056 86.6784 15.4233 86.6524 16.4113C86.6264 17.3993 86.5917 18.2096 86.5484 18.8423C86.505 19.4663 86.4487 19.9473 86.3794 20.2853C86.3187 20.6233 86.2364 20.8616 86.1324 21.0003C86.011 21.165 85.8854 21.282 85.7554 21.3513C85.6254 21.4293 85.465 21.4813 85.2744 21.5073C85.0924 21.5333 84.8584 21.542 84.5724 21.5333C84.295 21.5333 84.0134 21.5246 83.7274 21.5073C83.7187 21.36 83.6884 21.1953 83.6364 21.0133C83.593 20.8313 83.528 20.671 83.4414 20.5323C83.7447 20.5583 84.0264 20.5756 84.2864 20.5843C84.5464 20.5843 84.7327 20.5843 84.8454 20.5843C84.9407 20.593 85.023 20.5843 85.0924 20.5583C85.1617 20.5236 85.2267 20.463 85.2874 20.3763C85.3567 20.281 85.4174 20.0773 85.4694 19.7653C85.5214 19.4446 85.569 18.981 85.6124 18.3743C85.6557 17.7676 85.6904 16.9833 85.7164 16.0213C85.7424 15.0506 85.7684 13.872 85.7944 12.4853V12.2513ZM82.8954 9.96329H83.8574C83.8487 11.168 83.827 12.3423 83.7924 13.4863C83.7577 14.6303 83.6667 15.7136 83.5194 16.7363C83.3807 17.759 83.1467 18.6993 82.8174 19.5573C82.4967 20.4066 82.0504 21.1433 81.4784 21.7673C81.4264 21.6893 81.357 21.607 81.2704 21.5203C81.1837 21.4423 81.0927 21.3643 80.9974 21.2863C80.902 21.2083 80.811 21.1433 80.7244 21.0913C81.1577 20.6406 81.5087 20.112 81.7774 19.5053C82.0547 18.8986 82.2714 18.2356 82.4274 17.5163C82.5834 16.7883 82.6917 16.017 82.7524 15.2023C82.8217 14.379 82.8607 13.5296 82.8694 12.6543C82.8867 11.7703 82.8954 10.8733 82.8954 9.96329Z" fill="white"/>
<path d="M251.648 3C251.648 1.34315 252.992 0 254.648 0H316.344C318.001 0 319.344 1.34315 319.344 3V29.5703C319.344 31.2272 318.001 32.5703 316.344 32.5703H254.648C252.992 32.5703 251.648 31.2272 251.648 29.5703V3Z" fill="#F75444"/>
<g clip-path="url(#clip2_19_11)">
<path d="M273.798 20.735C273.892 20.6417 273.938 20.535 273.938 20.415C273.938 20.2883 273.892 20.1783 273.798 20.085C273.705 19.9917 273.595 19.945 273.468 19.945C273.342 19.945 273.232 19.9917 273.138 20.085C273.052 20.1783 273.008 20.2883 273.008 20.415C273.008 20.535 273.052 20.6417 273.138 20.735C273.232 20.8283 273.342 20.875 273.468 20.875C273.595 20.875 273.705 20.8283 273.798 20.735ZM275.658 20.735C275.745 20.6417 275.788 20.535 275.788 20.415C275.788 20.2883 275.745 20.1783 275.658 20.085C275.565 19.9917 275.455 19.945 275.328 19.945C275.202 19.945 275.092 19.9917 274.998 20.085C274.905 20.1783 274.858 20.2883 274.858 20.415C274.858 20.535 274.905 20.6417 274.998 20.735C275.092 20.8283 275.202 20.875 275.328 20.875C275.455 20.875 275.565 20.8283 275.658 20.735ZM276.718 18.785V21.105C276.718 21.2983 276.652 21.465 276.518 21.605C276.385 21.7383 276.218 21.805 276.018 21.805H265.348C265.155 21.805 264.988 21.7383 264.848 21.605C264.715 21.465 264.648 21.2983 264.648 21.105V18.785C264.648 18.5917 264.715 18.4283 264.848 18.295C264.988 18.155 265.155 18.085 265.348 18.085H268.438C268.545 18.3583 268.718 18.5817 268.958 18.755C269.192 18.9283 269.458 19.015 269.758 19.015H271.608C271.908 19.015 272.178 18.9283 272.418 18.755C272.658 18.5817 272.828 18.3583 272.928 18.085H276.018C276.218 18.085 276.385 18.155 276.518 18.295C276.652 18.4283 276.718 18.5917 276.718 18.785ZM274.358 14.085C274.278 14.2783 274.138 14.375 273.938 14.375H272.078V17.625C272.078 17.7517 272.032 17.8617 271.938 17.955C271.845 18.0417 271.735 18.085 271.608 18.085H269.758C269.632 18.085 269.522 18.0417 269.428 17.955C269.335 17.8617 269.288 17.7517 269.288 17.625V14.375H267.438C267.232 14.375 267.088 14.2783 267.008 14.085C266.922 13.8983 266.955 13.7317 267.108 13.585L270.358 10.335C270.445 10.2417 270.555 10.195 270.688 10.195C270.815 10.195 270.922 10.2417 271.008 10.335L274.258 13.585C274.412 13.7317 274.445 13.8983 274.358 14.085Z" fill="white"/>
</g>
<path d="M280.135 16.9313H291.601V17.8413H280.135V16.9313ZM287.753 15.9173H288.754V20.5973C288.754 20.8746 288.706 21.087 288.611 21.2343C288.524 21.3903 288.364 21.4986 288.13 21.5593C287.896 21.6286 287.575 21.6676 287.168 21.6763C286.761 21.6936 286.245 21.7023 285.621 21.7023C285.595 21.581 285.547 21.4336 285.478 21.2603C285.409 21.0956 285.339 20.9526 285.27 20.8313C285.591 20.84 285.898 20.8443 286.193 20.8443C286.488 20.8443 286.743 20.8443 286.96 20.8443C287.185 20.8443 287.337 20.8443 287.415 20.8443C287.545 20.8356 287.632 20.8096 287.675 20.7663C287.727 20.7316 287.753 20.6666 287.753 20.5713V15.9173ZM282.072 18.3483L282.748 17.7633C283.025 17.98 283.303 18.227 283.58 18.5043C283.866 18.773 284.126 19.0416 284.36 19.3103C284.594 19.579 284.78 19.826 284.919 20.0513L284.191 20.7013C284.07 20.4673 283.892 20.2116 283.658 19.9343C283.424 19.657 283.168 19.3796 282.891 19.1023C282.622 18.825 282.349 18.5736 282.072 18.3483ZM281.084 10.7043H282.098V14.0973C282.098 14.2793 282.141 14.4223 282.228 14.5263C282.315 14.6216 282.479 14.691 282.722 14.7343C282.965 14.769 283.324 14.7863 283.801 14.7863C283.914 14.7863 284.1 14.7863 284.36 14.7863C284.62 14.7863 284.919 14.7863 285.257 14.7863C285.595 14.7863 285.946 14.7863 286.31 14.7863C286.683 14.7863 287.047 14.7863 287.402 14.7863C287.757 14.7863 288.074 14.7863 288.351 14.7863C288.628 14.7863 288.845 14.7863 289.001 14.7863C289.356 14.7863 289.625 14.7603 289.807 14.7083C289.989 14.6476 290.115 14.535 290.184 14.3703C290.262 14.197 290.318 13.9543 290.353 13.6423C290.483 13.7116 290.635 13.7723 290.808 13.8243C290.99 13.8763 291.155 13.9153 291.302 13.9413C291.25 14.3833 291.15 14.7256 291.003 14.9683C290.864 15.2023 290.643 15.367 290.34 15.4623C290.037 15.549 289.612 15.5923 289.066 15.5923C288.979 15.5923 288.802 15.5923 288.533 15.5923C288.273 15.5923 287.961 15.5923 287.597 15.5923C287.233 15.5923 286.852 15.5923 286.453 15.5923C286.054 15.5923 285.673 15.5923 285.309 15.5923C284.954 15.5923 284.646 15.5923 284.386 15.5923C284.126 15.5923 283.957 15.5923 283.879 15.5923C283.16 15.5923 282.596 15.5533 282.189 15.4753C281.79 15.3973 281.504 15.2543 281.331 15.0463C281.166 14.8296 281.084 14.5176 281.084 14.1103V10.7043ZM281.435 12.5373H289.105V11.1723H281.084V10.3143H290.067V13.4083H281.435V12.5373ZM295.293 10.5873H298.972V11.5753H295.293V10.5873ZM298.478 10.5873H299.466C299.466 10.9686 299.483 11.4193 299.518 11.9393C299.553 12.4593 299.626 13.0183 299.739 13.6163C299.852 14.2056 300.025 14.821 300.259 15.4623C300.493 16.1036 300.809 16.745 301.208 17.3863C301.607 18.019 302.105 18.6343 302.703 19.2323C303.31 19.8303 304.042 20.3806 304.9 20.8833C304.831 20.944 304.74 21.022 304.627 21.1173C304.523 21.2213 304.423 21.3253 304.328 21.4293C304.241 21.542 304.168 21.6373 304.107 21.7153C303.24 21.1866 302.495 20.606 301.871 19.9733C301.256 19.332 300.74 18.6646 300.324 17.9713C299.917 17.278 299.587 16.5846 299.336 15.8913C299.093 15.1893 298.907 14.5133 298.777 13.8633C298.656 13.2046 298.573 12.5936 298.53 12.0303C298.495 11.467 298.478 10.986 298.478 10.5873ZM298.101 13.1353L299.206 13.3303C298.894 14.6476 298.487 15.835 297.984 16.8923C297.49 17.9496 296.888 18.8813 296.177 19.6873C295.475 20.4846 294.643 21.165 293.681 21.7283C293.629 21.659 293.547 21.5766 293.434 21.4813C293.33 21.386 293.217 21.2863 293.096 21.1823C292.983 21.087 292.884 21.009 292.797 20.9483C294.244 20.1856 295.393 19.1543 296.242 17.8543C297.091 16.5456 297.711 14.9726 298.101 13.1353Z" fill="white"/>
<path d="M515.617 3C515.617 1.34315 516.96 0 518.617 0H594.234C595.891 0 597.234 1.34315 597.234 3V29.5703C597.234 31.2272 595.891 32.5703 594.234 32.5703H518.617C516.96 32.5703 515.617 31.2272 515.617 29.5703V3Z" fill="#18BC9C"/>
<g clip-path="url(#clip3_19_11)">
<path d="M534.677 18.2944L534.577 20.9644L534.557 21.1244L531.507 20.9144C531.334 20.8944 531.174 20.8177 531.027 20.6844C530.874 20.5444 530.761 20.3844 530.687 20.2044C530.634 20.0777 530.597 19.9444 530.577 19.8044C530.564 19.6711 530.574 19.5144 530.607 19.3344C530.647 19.1544 530.677 19.0211 530.697 18.9344C530.717 18.8477 530.767 18.6944 530.847 18.4744C530.934 18.2544 530.981 18.1244 530.987 18.0844C531.367 18.1444 532.597 18.2144 534.677 18.2944ZM528.737 13.9144L531.877 14.0444L533.177 16.7944L532.117 16.1244C531.811 16.4711 531.541 16.8211 531.307 17.1744C531.074 17.5211 530.897 17.8211 530.777 18.0744C530.664 18.3277 530.571 18.5577 530.497 18.7644C530.417 18.9644 530.371 19.1177 530.357 19.2244L530.327 19.3744L528.947 16.7844C528.867 16.6577 528.824 16.5211 528.817 16.3744C528.817 16.2277 528.834 16.1144 528.867 16.0344L528.917 15.9044C529.091 15.5977 529.367 15.1444 529.747 14.5444L528.737 13.9144ZM540.397 17.9544L540.807 17.7944L539.437 20.3944C539.384 20.5344 539.297 20.6477 539.177 20.7344C539.057 20.8211 538.951 20.8711 538.857 20.8844L538.727 20.9144C538.387 20.9477 537.857 20.9744 537.137 20.9944L537.197 22.1844L535.527 19.5244L537.057 16.8944L537.107 18.1544C537.934 18.2344 538.621 18.2477 539.167 18.1944C539.714 18.1411 540.124 18.0611 540.397 17.9544ZM535.107 11.0844C534.881 11.3911 534.241 12.4444 533.187 14.2444L530.887 12.8844L530.747 12.8044L532.387 10.2144C532.481 10.0677 532.624 9.96107 532.817 9.8944C533.011 9.82773 533.204 9.80107 533.397 9.8144C533.511 9.82773 533.627 9.85773 533.747 9.9044C533.867 9.95107 533.971 10.0011 534.057 10.0544C534.137 10.1077 534.237 10.1877 534.357 10.2944C534.471 10.4011 534.557 10.4844 534.617 10.5444C534.677 10.6044 534.764 10.7011 534.877 10.8344C534.991 10.9677 535.067 11.0511 535.107 11.0844ZM539.727 13.3944L539.857 13.3144L541.397 15.9444C541.484 16.1244 541.514 16.3111 541.487 16.5044C541.461 16.6911 541.394 16.8677 541.287 17.0344C541.227 17.1344 541.147 17.2244 541.047 17.3044C540.954 17.3844 540.864 17.4511 540.777 17.5044C540.691 17.5577 540.574 17.6111 540.427 17.6644C540.281 17.7177 540.167 17.7577 540.087 17.7844C540.007 17.8111 539.881 17.8444 539.707 17.8844C539.541 17.9311 539.431 17.9611 539.377 17.9744C539.211 17.6277 538.571 16.5744 537.457 14.8144L539.727 13.3944ZM538.827 11.6744L539.857 11.0744L538.257 13.7844L535.217 13.6344L536.317 13.0144C536.151 12.5811 535.967 12.1777 535.767 11.8044C535.574 11.4311 535.394 11.1344 535.227 10.9144C535.054 10.6877 534.897 10.4944 534.757 10.3344C534.611 10.1677 534.497 10.0544 534.417 9.9944L534.287 9.8944L537.227 9.9044C537.381 9.89107 537.521 9.91773 537.647 9.9844C537.781 10.0511 537.874 10.1177 537.927 10.1844L538.007 10.2944C538.201 10.5944 538.474 11.0544 538.827 11.6744Z" fill="white"/>
</g>
<path d="M549.082 14.2143V17.1913H552.254V14.2143H549.082ZM548.159 13.3303H553.216V18.0623H548.159V13.3303ZM545.286 10.3273H556.167V21.7413H555.127V11.3023H546.287V21.7413H545.286V10.3273ZM545.858 20.1163H555.725V21.0393H545.858V20.1163ZM557.675 18.2313C558.177 18.11 558.78 17.9583 559.482 17.7763C560.184 17.5856 560.907 17.3906 561.653 17.1913L561.757 18.0493C561.098 18.266 560.439 18.474 559.781 18.6733C559.122 18.8726 558.524 19.0546 557.987 19.2193L557.675 18.2313ZM561.211 9.85929H562.173V21.7543H561.211V9.85929ZM558.559 11.2893H559.495V18.3483H558.559V11.2893ZM564.266 12.2123H569.752V13.1353H564.266V12.2123ZM564.617 9.79429L565.605 9.98929C565.423 10.778 565.197 11.5493 564.929 12.3033C564.66 13.0486 564.357 13.742 564.019 14.3833C563.689 15.0246 563.325 15.5923 562.927 16.0863C562.875 16.017 562.801 15.939 562.706 15.8523C562.61 15.7656 562.511 15.679 562.407 15.5923C562.303 15.5056 562.212 15.4363 562.134 15.3843C562.524 14.9423 562.875 14.4266 563.187 13.8373C563.499 13.2393 563.772 12.598 564.006 11.9133C564.248 11.22 564.452 10.5136 564.617 9.79429ZM568.062 12.6543L569.037 12.8103C568.733 14.2923 568.322 15.601 567.802 16.7363C567.282 17.8716 566.619 18.8553 565.813 19.6873C565.007 20.5193 564.023 21.2213 562.862 21.7933C562.827 21.7153 562.775 21.62 562.706 21.5073C562.645 21.4033 562.576 21.295 562.498 21.1823C562.42 21.0696 562.346 20.9786 562.277 20.9093C563.395 20.4066 564.331 19.7783 565.085 19.0243C565.847 18.2616 566.467 17.3516 566.944 16.2943C567.42 15.237 567.793 14.0236 568.062 12.6543ZM564.604 12.9533C564.864 14.184 565.219 15.3323 565.67 16.3983C566.129 17.4556 566.705 18.3786 567.399 19.1673C568.101 19.9473 568.933 20.541 569.895 20.9483C569.825 21.0176 569.747 21.1 569.661 21.1953C569.574 21.2906 569.492 21.3903 569.414 21.4943C569.344 21.5983 569.284 21.6936 569.232 21.7803C568.218 21.295 567.351 20.6363 566.632 19.8043C565.921 18.9636 565.332 17.98 564.864 16.8533C564.396 15.718 564.019 14.4786 563.733 13.1353L564.604 12.9533ZM570.961 12.3683H575.979V13.2913H570.961V12.3683ZM573.028 9.96329H573.951V12.8363H573.028V9.96329ZM578.969 12.4853H582.7V13.4213H578.969V12.4853ZM576.733 20.2073H581.647V21.1173H576.733V20.2073ZM578.475 9.78129H579.476V16.4113H578.475V9.78129ZM576.291 16.0083H582.154V21.6893H581.166V16.9313H577.24V21.7413H576.291V16.0083ZM570.714 19.3103C571.164 19.2236 571.68 19.1196 572.261 18.9983C572.841 18.8683 573.461 18.7296 574.12 18.5823C574.778 18.435 575.433 18.2876 576.083 18.1403L576.174 19.0503C575.558 19.189 574.939 19.3363 574.315 19.4923C573.691 19.6396 573.088 19.7826 572.508 19.9213C571.936 20.0513 571.411 20.1726 570.935 20.2853L570.714 19.3103ZM571.468 13.9673L572.261 13.8243C572.373 14.301 572.469 14.8123 572.547 15.3583C572.633 15.9043 572.703 16.4416 572.755 16.9703C572.807 17.4903 572.833 17.9583 572.833 18.3743L571.988 18.5303C571.988 18.1143 571.962 17.6463 571.91 17.1263C571.866 16.5976 571.806 16.0603 571.728 15.5143C571.65 14.9683 571.563 14.4526 571.468 13.9673ZM574.497 13.6813L575.446 13.8633C575.376 14.4093 575.29 14.99 575.186 15.6053C575.09 16.212 574.986 16.8013 574.874 17.3733C574.77 17.9453 574.666 18.4436 574.562 18.8683L573.743 18.6863C573.821 18.357 573.894 17.9843 573.964 17.5683C574.042 17.1523 574.111 16.719 574.172 16.2683C574.241 15.809 574.302 15.3583 574.354 14.9163C574.414 14.4743 574.462 14.0626 574.497 13.6813Z" fill="white"/>
<g opacity="0.65">
<path d="M111.266 3C111.266 1.34315 112.609 0 114.266 0H175.031C176.688 0 178.031 1.34315 178.031 3V29.5703C178.031 31.2272 176.688 32.5703 175.031 32.5703H114.266C112.609 32.5703 111.266 31.2272 111.266 29.5703V3Z" fill="#18BC9C"/>
<g clip-path="url(#clip4_19_11)">
<path d="M126.126 20.5667H126.896L127.556 19.9067L125.856 18.2067L125.196 18.8667V19.6367H126.126V20.5667ZM130.696 13.8367C130.696 13.73 130.642 13.6767 130.536 13.6767C130.489 13.6767 130.446 13.6934 130.406 13.7267L126.476 17.6567C126.442 17.69 126.426 17.73 126.426 17.7767C126.426 17.8834 126.479 17.9367 126.586 17.9367C126.632 17.9367 126.672 17.92 126.706 17.8867L130.646 13.9567C130.679 13.9234 130.696 13.8834 130.696 13.8367ZM124.266 18.4767L130.306 12.4367L133.316 15.4567L127.286 21.4967H124.266V18.4767ZM135.256 13.1367C135.256 13.3967 135.166 13.6134 134.986 13.7867L133.786 14.9967L130.766 11.9767L131.966 10.7767C132.146 10.5967 132.366 10.5067 132.626 10.5067C132.879 10.5067 133.099 10.5967 133.286 10.7767L134.986 12.4767C135.166 12.6634 135.256 12.8834 135.256 13.1367Z" fill="white"/>
</g>
<path d="M138.901 18.3483C138.883 18.2876 138.857 18.2053 138.823 18.1013C138.788 17.9886 138.749 17.876 138.706 17.7633C138.671 17.6506 138.636 17.5553 138.602 17.4773C138.74 17.4513 138.879 17.3603 139.018 17.2043C139.165 17.0483 139.334 16.849 139.525 16.6063C139.62 16.485 139.759 16.29 139.941 16.0213C140.131 15.744 140.344 15.419 140.578 15.0463C140.82 14.665 141.059 14.2576 141.293 13.8243C141.535 13.3823 141.756 12.9403 141.956 12.4983L142.749 12.9533C142.445 13.5426 142.116 14.132 141.761 14.7213C141.414 15.3106 141.05 15.8696 140.669 16.3983C140.296 16.927 139.919 17.408 139.538 17.8413V17.8673C139.538 17.8673 139.503 17.8846 139.434 17.9193C139.373 17.9453 139.299 17.9843 139.213 18.0363C139.126 18.0796 139.052 18.1316 138.992 18.1923C138.931 18.2443 138.901 18.2963 138.901 18.3483ZM138.901 18.3483L138.836 17.5683L139.278 17.2433L142.359 16.5933C142.35 16.7233 142.354 16.8663 142.372 17.0223C142.389 17.1696 142.406 17.2953 142.424 17.3993C141.704 17.564 141.124 17.7026 140.682 17.8153C140.248 17.9193 139.915 18.006 139.681 18.0753C139.447 18.136 139.273 18.188 139.161 18.2313C139.048 18.2746 138.961 18.3136 138.901 18.3483ZM138.81 15.2153C138.792 15.1546 138.766 15.068 138.732 14.9553C138.697 14.8426 138.658 14.73 138.615 14.6173C138.58 14.5046 138.545 14.4093 138.511 14.3313C138.623 14.2966 138.732 14.21 138.836 14.0713C138.948 13.924 139.07 13.7376 139.2 13.5123C139.269 13.3996 139.369 13.222 139.499 12.9793C139.629 12.728 139.772 12.429 139.928 12.0823C140.092 11.7356 140.248 11.3673 140.396 10.9773C140.552 10.5786 140.69 10.1843 140.812 9.79429L141.748 10.1193C141.54 10.674 141.306 11.2286 141.046 11.7833C140.794 12.3293 140.526 12.8536 140.24 13.3563C139.954 13.8503 139.668 14.2966 139.382 14.6953V14.7213C139.382 14.7213 139.351 14.7386 139.291 14.7733C139.239 14.7993 139.174 14.8426 139.096 14.9033C139.018 14.9553 138.948 15.0073 138.888 15.0593C138.836 15.1113 138.81 15.1633 138.81 15.2153ZM138.81 15.2153L138.784 14.4873L139.252 14.2013L141.501 13.9673C141.475 14.0886 141.453 14.2273 141.436 14.3833C141.427 14.5393 141.423 14.6693 141.423 14.7733C140.911 14.834 140.495 14.8903 140.175 14.9423C139.863 14.9856 139.616 15.0246 139.434 15.0593C139.252 15.0853 139.113 15.1113 139.018 15.1373C138.931 15.1633 138.862 15.1893 138.81 15.2153ZM138.537 20.0123C139.022 19.8476 139.598 19.6396 140.266 19.3883C140.933 19.1283 141.622 18.864 142.333 18.5953L142.515 19.3753C141.865 19.6526 141.21 19.9256 140.552 20.1943C139.902 20.4543 139.308 20.6926 138.771 20.9093L138.537 20.0123ZM146.129 15.8133H146.792V21.3253H146.129V15.8133ZM147.715 15.8003H148.378V21.3123H147.715V15.8003ZM149.34 15.3453H150.107V20.8053C150.107 20.9873 150.089 21.1346 150.055 21.2473C150.02 21.36 149.942 21.451 149.821 21.5203C149.708 21.581 149.569 21.62 149.405 21.6373C149.249 21.6546 149.054 21.6633 148.82 21.6633C148.811 21.5506 148.785 21.425 148.742 21.2863C148.698 21.1476 148.651 21.0263 148.599 20.9223C148.746 20.931 148.872 20.9353 148.976 20.9353C149.088 20.9353 149.166 20.9353 149.21 20.9353C149.296 20.9266 149.34 20.8833 149.34 20.8053V15.3453ZM143.399 11.1983H144.296V14.0193C144.296 14.548 144.278 15.133 144.244 15.7743C144.209 16.4156 144.14 17.0743 144.036 17.7503C143.94 18.4263 143.797 19.0893 143.607 19.7393C143.416 20.3893 143.165 20.9873 142.853 21.5333C142.801 21.4813 142.727 21.4163 142.632 21.3383C142.536 21.269 142.441 21.1996 142.346 21.1303C142.25 21.061 142.168 21.0133 142.099 20.9873C142.393 20.4673 142.627 19.9083 142.801 19.3103C142.983 18.7036 143.113 18.0926 143.191 17.4773C143.277 16.8533 143.334 16.2466 143.36 15.6573C143.386 15.0593 143.399 14.5133 143.399 14.0193V11.1983ZM143.867 11.1983H149.977V14.2403H143.867V13.4213H149.067V12.0303H143.867V11.1983ZM144.27 15.3583H149.756V16.1643H145.05V21.6503H144.27V15.3583ZM144.673 18.0883H149.691V18.8553H144.673V18.0883ZM145.882 9.97629L146.792 9.71629C146.948 9.95896 147.091 10.232 147.221 10.5353C147.359 10.83 147.463 11.09 147.533 11.3153L146.571 11.6403C146.519 11.415 146.423 11.1463 146.285 10.8343C146.155 10.5223 146.02 10.2363 145.882 9.97629ZM151.628 11.3283H156.373V12.2643H151.628V11.3283ZM154.189 13.3303H155.086V21.7023H154.189V13.3303ZM151.537 18.5433C151.953 18.4826 152.429 18.4046 152.967 18.3093C153.513 18.214 154.085 18.1143 154.683 18.0103C155.289 17.8976 155.9 17.785 156.516 17.6723L156.568 18.5173C155.718 18.6993 154.869 18.877 154.02 19.0503C153.17 19.215 152.412 19.3623 151.745 19.4923L151.537 18.5433ZM152.07 16.3983C152.052 16.3376 152.026 16.2553 151.992 16.1513C151.957 16.0386 151.918 15.9303 151.875 15.8263C151.84 15.7136 151.805 15.6183 151.771 15.5403C151.883 15.5143 151.987 15.406 152.083 15.2153C152.178 15.016 152.278 14.7733 152.382 14.4873C152.434 14.3486 152.512 14.119 152.616 13.7983C152.72 13.4776 152.828 13.1006 152.941 12.6673C153.062 12.2253 153.179 11.7573 153.292 11.2633C153.404 10.7693 153.495 10.2796 153.565 9.79429L154.514 9.98929C154.384 10.6826 154.223 11.3803 154.033 12.0823C153.842 12.7843 153.634 13.4603 153.409 14.1103C153.183 14.7516 152.954 15.3323 152.72 15.8523V15.8783C152.72 15.8783 152.685 15.8956 152.616 15.9303C152.555 15.965 152.481 16.0126 152.395 16.0733C152.308 16.1253 152.23 16.1816 152.161 16.2423C152.1 16.303 152.07 16.355 152.07 16.3983ZM152.07 16.3983V15.5923L152.59 15.3323H156.282V16.2163H153.006C152.789 16.2163 152.59 16.2336 152.408 16.2683C152.234 16.303 152.122 16.3463 152.07 16.3983ZM161.612 13.9933H162.522V21.7543H161.612V13.9933ZM158.18 10.9513V12.2643H161.664V10.9513H158.18ZM157.283 10.2103H162.613V12.9923H157.283V10.2103ZM156.516 13.7593H163.406V14.5783H156.516V13.7593ZM157.816 15.6963H161.872V16.4373H157.816V15.6963ZM157.816 17.5683H161.911V18.3093H157.816V17.5683ZM157.4 13.9673H158.297V19.9213L157.4 20.0253V13.9673ZM156.217 19.7263C156.806 19.6916 157.495 19.6483 158.284 19.5963C159.072 19.5443 159.913 19.488 160.806 19.4273C161.707 19.358 162.604 19.2886 163.497 19.2193L163.484 20.0383C162.634 20.1076 161.776 20.177 160.91 20.2463C160.052 20.3156 159.233 20.3806 158.453 20.4413C157.673 20.502 156.979 20.5583 156.373 20.6103L156.217 19.7263Z" fill="white"/>
</g>
<g opacity="0.65">
<path d="M181.922 3C181.922 1.34315 183.265 0 184.922 0H244.758C246.415 0 247.758 1.34315 247.758 3V29.5703C247.758 31.2272 246.415 32.5703 244.758 32.5703H184.922C183.265 32.5703 181.922 31.2272 181.922 29.5703V3Z" fill="#F75444"/>
<g clip-path="url(#clip5_19_11)">
<path d="M198.632 19.4829V14.3729C198.632 14.3062 198.612 14.2529 198.572 14.2129C198.525 14.1662 198.469 14.1429 198.402 14.1429H197.942C197.875 14.1429 197.819 14.1662 197.772 14.2129C197.732 14.2529 197.712 14.3062 197.712 14.3729V19.4829C197.712 19.5495 197.732 19.6062 197.772 19.6529C197.819 19.6929 197.875 19.7129 197.942 19.7129H198.402C198.469 19.7129 198.525 19.6929 198.572 19.6529C198.612 19.6062 198.632 19.5495 198.632 19.4829ZM200.492 19.4829V14.3729C200.492 14.3062 200.472 14.2529 200.432 14.2129C200.385 14.1662 200.329 14.1429 200.262 14.1429H199.802C199.729 14.1429 199.672 14.1662 199.632 14.2129C199.585 14.2529 199.562 14.3062 199.562 14.3729V19.4829C199.562 19.5495 199.585 19.6062 199.632 19.6529C199.672 19.6929 199.729 19.7129 199.802 19.7129H200.262C200.329 19.7129 200.385 19.6929 200.432 19.6529C200.472 19.6062 200.492 19.5495 200.492 19.4829ZM202.352 19.4829V14.3729C202.352 14.3062 202.329 14.2529 202.282 14.2129C202.242 14.1662 202.189 14.1429 202.122 14.1429H201.652C201.585 14.1429 201.532 14.1662 201.492 14.2129C201.445 14.2529 201.422 14.3062 201.422 14.3729V19.4829C201.422 19.5495 201.445 19.6062 201.492 19.6529C201.532 19.6929 201.585 19.7129 201.652 19.7129H202.122C202.189 19.7129 202.242 19.6929 202.282 19.6529C202.329 19.6062 202.352 19.5495 202.352 19.4829ZM198.762 11.4329L198.402 12.2829H201.652L201.302 11.4329C201.269 11.3929 201.229 11.3662 201.182 11.3529H198.882C198.835 11.3662 198.795 11.3929 198.762 11.4329ZM205.132 12.5129V12.9829C205.132 13.0495 205.112 13.1062 205.072 13.1529C205.025 13.1929 204.969 13.2129 204.902 13.2129H204.212V20.0929C204.212 20.4929 204.095 20.8395 203.862 21.1329C203.635 21.4262 203.365 21.5729 203.052 21.5729H197.012C196.692 21.5729 196.419 21.4295 196.192 21.1429C195.965 20.8629 195.852 20.5229 195.852 20.1229V13.2129H195.152C195.085 13.2129 195.032 13.1929 194.992 13.1529C194.945 13.1062 194.922 13.0495 194.922 12.9829V12.5129C194.922 12.4462 194.945 12.3929 194.992 12.3529C195.032 12.3062 195.085 12.2829 195.152 12.2829H197.392L197.902 11.0729C197.975 10.8929 198.105 10.7395 198.292 10.6129C198.485 10.4929 198.679 10.4329 198.872 10.4329H201.192C201.385 10.4329 201.575 10.4929 201.762 10.6129C201.949 10.7395 202.079 10.8929 202.152 11.0729L202.662 12.2829H204.902C204.969 12.2829 205.025 12.3062 205.072 12.3529C205.112 12.3929 205.132 12.4462 205.132 12.5129Z" fill="white"/>
</g>
<path d="M216.96 11.2373H217.753V18.5823H216.96V11.2373ZM218.845 10.0153H219.703V20.6493C219.703 20.918 219.668 21.1216 219.599 21.2603C219.53 21.4076 219.413 21.516 219.248 21.5853C219.083 21.6546 218.862 21.698 218.585 21.7153C218.316 21.7413 217.974 21.7543 217.558 21.7543C217.541 21.6416 217.502 21.4986 217.441 21.3253C217.389 21.1606 217.333 21.0133 217.272 20.8833C217.584 20.892 217.861 20.8963 218.104 20.8963C218.355 20.8963 218.524 20.8963 218.611 20.8963C218.698 20.8963 218.758 20.879 218.793 20.8443C218.828 20.8096 218.845 20.7446 218.845 20.6493V10.0153ZM209.459 10.2103H211.747V11.0813H209.459V10.2103ZM209.147 10.2103H209.966V16.4113C209.966 16.9833 209.944 17.5943 209.901 18.2443C209.858 18.8943 209.762 19.527 209.615 20.1423C209.476 20.7576 209.26 21.2993 208.965 21.7673C208.922 21.7153 208.857 21.6546 208.77 21.5853C208.683 21.5246 208.592 21.464 208.497 21.4033C208.402 21.3426 208.319 21.2993 208.25 21.2733C208.527 20.8313 208.727 20.3373 208.848 19.7913C208.978 19.2453 209.06 18.682 209.095 18.1013C209.13 17.512 209.147 16.9486 209.147 16.4113V10.2103ZM211.175 10.2103H211.994V20.5713C211.994 20.7966 211.968 20.9786 211.916 21.1173C211.864 21.256 211.764 21.36 211.617 21.4293C211.478 21.5073 211.296 21.555 211.071 21.5723C210.846 21.5983 210.56 21.6113 210.213 21.6113C210.204 21.49 210.174 21.3426 210.122 21.1693C210.07 21.0046 210.018 20.866 209.966 20.7533C210.2 20.762 210.412 20.762 210.603 20.7533C210.794 20.7533 210.924 20.7533 210.993 20.7533C211.062 20.7533 211.11 20.7403 211.136 20.7143C211.162 20.6796 211.175 20.6276 211.175 20.5583V10.2103ZM213.216 10.2103H215.491V11.0813H213.216V10.2103ZM212.904 10.2103H213.723V15.8393C213.723 16.29 213.71 16.7796 213.684 17.3083C213.667 17.8283 213.628 18.3526 213.567 18.8813C213.515 19.41 213.428 19.9213 213.307 20.4153C213.186 20.9006 213.03 21.3426 212.839 21.7413C212.787 21.698 212.718 21.646 212.631 21.5853C212.544 21.5333 212.453 21.4813 212.358 21.4293C212.271 21.3773 212.193 21.3383 212.124 21.3123C212.306 20.931 212.449 20.515 212.553 20.0643C212.666 19.6136 212.744 19.1456 212.787 18.6603C212.839 18.1663 212.869 17.681 212.878 17.2043C212.895 16.7276 212.904 16.277 212.904 15.8523V10.2103ZM214.932 10.2103H215.751V20.5713C215.751 20.7966 215.725 20.9786 215.673 21.1173C215.621 21.256 215.521 21.3643 215.374 21.4423C215.244 21.5116 215.066 21.555 214.841 21.5723C214.616 21.5983 214.325 21.6113 213.97 21.6113C213.961 21.49 213.931 21.3426 213.879 21.1693C213.836 21.0046 213.784 20.866 213.723 20.7533C213.957 20.762 214.169 20.7663 214.36 20.7663C214.551 20.7663 214.681 20.7663 214.75 20.7663C214.819 20.7576 214.867 20.7403 214.893 20.7143C214.919 20.6883 214.932 20.6363 214.932 20.5583V10.2103ZM208.315 14.8643H216.427V15.7613H208.315V14.8643ZM226.671 13.5903H231.715V14.4223H226.671V13.5903ZM225.8 16.0473H232.729V16.8923H225.8V16.0473ZM229.128 10.7173C228.885 11.1246 228.573 11.5493 228.192 11.9913C227.811 12.4246 227.39 12.845 226.931 13.2523C226.48 13.651 226.004 14.0063 225.501 14.3183C225.449 14.197 225.375 14.0626 225.28 13.9153C225.185 13.768 225.094 13.6466 225.007 13.5513C225.501 13.2566 225.982 12.9056 226.45 12.4983C226.918 12.0823 227.343 11.6446 227.724 11.1853C228.105 10.7173 228.413 10.2623 228.647 9.82029H229.531C229.852 10.297 230.22 10.765 230.636 11.2243C231.061 11.6836 231.507 12.104 231.975 12.4853C232.452 12.8666 232.92 13.183 233.379 13.4343C233.292 13.547 233.197 13.6813 233.093 13.8373C232.989 13.9846 232.902 14.1233 232.833 14.2533C232.391 13.9673 231.936 13.6293 231.468 13.2393C231 12.8493 230.562 12.4376 230.155 12.0043C229.756 11.5623 229.414 11.1333 229.128 10.7173ZM228.686 13.9933H229.622V20.6493C229.622 20.9006 229.587 21.1 229.518 21.2473C229.457 21.3946 229.34 21.5073 229.167 21.5853C229.002 21.6633 228.781 21.711 228.504 21.7283C228.227 21.7456 227.884 21.7543 227.477 21.7543C227.46 21.633 227.416 21.4813 227.347 21.2993C227.286 21.126 227.221 20.9743 227.152 20.8443C227.455 20.853 227.728 20.8573 227.971 20.8573C228.222 20.8573 228.391 20.8573 228.478 20.8573C228.565 20.8486 228.621 20.8313 228.647 20.8053C228.673 20.7793 228.686 20.723 228.686 20.6363V13.9933ZM226.658 17.5943L227.516 17.8023C227.308 18.3916 227.031 18.968 226.684 19.5313C226.346 20.086 225.991 20.554 225.618 20.9353C225.566 20.8833 225.497 20.8226 225.41 20.7533C225.332 20.684 225.245 20.6146 225.15 20.5453C225.063 20.4673 224.985 20.4066 224.916 20.3633C225.28 20.0166 225.614 19.6006 225.917 19.1153C226.22 18.6213 226.467 18.1143 226.658 17.5943ZM230.571 17.9323L231.312 17.5683C231.555 17.863 231.793 18.188 232.027 18.5433C232.261 18.89 232.478 19.228 232.677 19.5573C232.876 19.8866 233.032 20.1856 233.145 20.4543L232.339 20.8703C232.235 20.6103 232.083 20.3113 231.884 19.9733C231.693 19.6266 231.485 19.2756 231.26 18.9203C231.035 18.565 230.805 18.2356 230.571 17.9323ZM221.796 10.3533H224.851V11.2373H222.667V21.7543H221.796V10.3533ZM224.565 10.3533H224.734L224.877 10.3143L225.514 10.6913C225.384 11.0466 225.245 11.428 225.098 11.8353C224.959 12.234 224.812 12.6326 224.656 13.0313C224.509 13.4213 224.361 13.7896 224.214 14.1363C224.691 14.6736 225.003 15.1763 225.15 15.6443C225.306 16.1036 225.384 16.537 225.384 16.9443C225.384 17.291 225.341 17.5943 225.254 17.8543C225.176 18.1143 225.046 18.3093 224.864 18.4393C224.777 18.5 224.673 18.552 224.552 18.5953C224.439 18.63 224.318 18.656 224.188 18.6733C223.919 18.6993 223.629 18.708 223.317 18.6993C223.308 18.578 223.282 18.435 223.239 18.2703C223.204 18.1056 223.148 17.9626 223.07 17.8413C223.217 17.85 223.356 17.8543 223.486 17.8543C223.616 17.8543 223.729 17.8543 223.824 17.8543C223.997 17.8456 224.136 17.8066 224.24 17.7373C224.344 17.6593 224.413 17.5423 224.448 17.3863C224.491 17.2216 224.513 17.044 224.513 16.8533C224.513 16.4893 224.431 16.095 224.266 15.6703C224.11 15.237 223.798 14.7646 223.33 14.2533C223.451 13.9586 223.568 13.6466 223.681 13.3173C223.802 12.9793 223.915 12.65 224.019 12.3293C224.132 12 224.231 11.688 224.318 11.3933C224.413 11.0986 224.496 10.843 224.565 10.6263V10.3533Z" fill="white"/>
</g>
<g opacity="0.65">
<path d="M323.234 3C323.234 1.34315 324.578 0 326.234 0H438.07C439.727 0 441.07 1.34315 441.07 3V29.5703C441.07 31.2272 439.727 32.5703 438.07 32.5703H326.234C324.578 32.5703 323.234 31.2272 323.234 29.5703V3Z" fill="#F75444"/>
<g clip-path="url(#clip6_19_11)">
<path d="M346.444 15.3071V16.6971C346.444 16.8905 346.378 17.0538 346.244 17.1871C346.111 17.3271 345.948 17.3971 345.754 17.3971H342.734V20.4071C342.734 20.6005 342.668 20.7671 342.534 20.9071C342.394 21.0405 342.228 21.1071 342.034 21.1071H340.644C340.451 21.1071 340.288 21.0405 340.154 20.9071C340.014 20.7671 339.944 20.6005 339.944 20.4071V17.3971H336.934C336.741 17.3971 336.574 17.3271 336.434 17.1871C336.301 17.0538 336.234 16.8905 336.234 16.6971V15.3071C336.234 15.1138 336.301 14.9471 336.434 14.8071C336.574 14.6738 336.741 14.6071 336.934 14.6071H339.944V11.5871C339.944 11.3938 340.014 11.2305 340.154 11.0971C340.288 10.9638 340.451 10.8971 340.644 10.8971H342.034C342.228 10.8971 342.394 10.9638 342.534 11.0971C342.668 11.2305 342.734 11.3938 342.734 11.5871V14.6071H345.754C345.948 14.6071 346.111 14.6738 346.244 14.8071C346.378 14.9471 346.444 15.1138 346.444 15.3071Z" fill="white"/>
</g>
<path d="M354.672 13.9803H357.155V14.9163H354.672V13.9803ZM354.178 9.93729H355.127V20.6623L354.178 20.8313V9.93729ZM352.891 20.5713C353.437 20.4846 354.091 20.3676 354.854 20.2203C355.625 20.0643 356.405 19.9083 357.194 19.7523L357.272 20.6103C356.561 20.775 355.842 20.9353 355.114 21.0913C354.394 21.256 353.744 21.399 353.164 21.5203L352.891 20.5713ZM357.675 9.92429H358.637V20.0643C358.637 20.333 358.663 20.5106 358.715 20.5973C358.767 20.6753 358.879 20.7143 359.053 20.7143C359.096 20.7143 359.174 20.7143 359.287 20.7143C359.399 20.7143 359.521 20.7143 359.651 20.7143C359.789 20.7143 359.919 20.7143 360.041 20.7143C360.162 20.7143 360.249 20.7143 360.301 20.7143C360.413 20.7143 360.496 20.6623 360.548 20.5583C360.6 20.4456 360.634 20.2506 360.652 19.9733C360.678 19.696 360.699 19.306 360.717 18.8033C360.829 18.8986 360.968 18.9853 361.133 19.0633C361.306 19.1413 361.458 19.1976 361.588 19.2323C361.553 19.813 361.497 20.2766 361.419 20.6233C361.349 20.97 361.232 21.217 361.068 21.3643C360.903 21.5203 360.665 21.5983 360.353 21.5983C360.309 21.5983 360.218 21.5983 360.08 21.5983C359.95 21.5983 359.802 21.5983 359.638 21.5983C359.473 21.5983 359.321 21.5983 359.183 21.5983C359.053 21.5983 358.962 21.5983 358.91 21.5983C358.598 21.5983 358.351 21.5506 358.169 21.4553C357.987 21.3686 357.857 21.2126 357.779 20.9873C357.709 20.762 357.675 20.45 357.675 20.0513V9.92429ZM360.704 12.8753L361.393 13.5773C361.107 13.8026 360.795 14.041 360.457 14.2923C360.119 14.535 359.781 14.769 359.443 14.9943C359.113 15.2196 358.801 15.4146 358.507 15.5793L357.961 14.9683C358.247 14.795 358.559 14.5913 358.897 14.3573C359.235 14.1146 359.564 13.8633 359.885 13.6033C360.205 13.3346 360.478 13.092 360.704 12.8753ZM349.42 16.5413C349.922 16.394 350.529 16.212 351.24 15.9953C351.959 15.77 352.687 15.5403 353.424 15.3063L353.567 16.2033C352.891 16.4286 352.21 16.654 351.526 16.8793C350.841 17.1046 350.221 17.304 349.667 17.4773L349.42 16.5413ZM349.602 12.4203H353.541V13.3303H349.602V12.4203ZM351.227 9.80729H352.137V20.6233C352.137 20.8833 352.102 21.087 352.033 21.2343C351.972 21.3816 351.859 21.4943 351.695 21.5723C351.539 21.6503 351.331 21.7023 351.071 21.7283C350.811 21.7543 350.473 21.763 350.057 21.7543C350.048 21.6416 350.013 21.4943 349.953 21.3123C349.901 21.139 349.844 20.983 349.784 20.8443C350.061 20.853 350.312 20.8573 350.538 20.8573C350.772 20.866 350.928 20.866 351.006 20.8573C351.084 20.8573 351.14 20.84 351.175 20.8053C351.209 20.7793 351.227 20.7186 351.227 20.6233V9.80729ZM365.306 12.0693V12.7843H371.767V12.0693H365.306ZM365.306 10.7953V11.4973H371.767V10.7953H365.306ZM364.357 10.2103H372.742V13.3693H364.357V10.2103ZM365.046 17.1653V17.9193H372.157V17.1653H365.046ZM365.046 15.8653V16.5933H372.157V15.8653H365.046ZM364.123 15.2543H373.119V18.5173H364.123V15.2543ZM368.062 15.4753H369.011V21.0653H368.062V15.4753ZM362.732 13.9283H374.393V14.6693H362.732V13.9283ZM363.759 19.2323H373.405V19.9213H363.759V19.2323ZM362.667 20.6753H374.471V21.4293H362.667V20.6753ZM376.135 11.1853H386.977V13.3173H385.963V12.1213H377.11V13.3173H376.135V11.1853ZM380.633 9.97629L381.634 9.70329C381.755 9.91996 381.885 10.1626 382.024 10.4313C382.171 10.7 382.275 10.9296 382.336 11.1203L381.309 11.4453C381.248 11.246 381.153 11.0076 381.023 10.7303C380.893 10.453 380.763 10.2016 380.633 9.97629ZM376.941 13.8113H386.171V19.9473H385.196V14.6693H377.877V20.0123H376.941V13.8113ZM377.539 16.0993H385.651V16.9443H377.539V16.0993ZM377.552 18.4133H385.716V19.2843H377.552V18.4133ZM381.036 12.5503H382.05V21.7283H381.036V12.5503ZM393.126 11.7703H400.497V12.6673H393.126V11.7703ZM396.389 9.82029H397.338V12.2123H396.389V9.82029ZM397.182 19.0893L397.923 18.5693C398.226 18.8293 398.551 19.1196 398.898 19.4403C399.244 19.7523 399.574 20.0643 399.886 20.3763C400.198 20.6796 400.449 20.9526 400.64 21.1953L399.847 21.7933C399.656 21.5506 399.413 21.269 399.119 20.9483C398.824 20.6363 398.503 20.3156 398.157 19.9863C397.819 19.657 397.494 19.358 397.182 19.0893ZM393.321 14.7733L393.893 14.1233C394.205 14.3313 394.53 14.5653 394.868 14.8253C395.214 15.0853 395.539 15.3453 395.843 15.6053C396.146 15.8653 396.393 16.0993 396.584 16.3073L395.973 17.0613C395.791 16.8446 395.548 16.602 395.245 16.3333C394.95 16.0646 394.634 15.7916 394.296 15.5143C393.958 15.237 393.633 14.99 393.321 14.7733ZM396.181 12.2253L397.13 12.6933C396.904 12.988 396.666 13.3 396.415 13.6293C396.172 13.95 395.929 14.2576 395.687 14.5523C395.444 14.847 395.214 15.107 394.998 15.3323L394.296 14.9423C394.504 14.6996 394.725 14.4223 394.959 14.1103C395.193 13.7983 395.418 13.4733 395.635 13.1353C395.851 12.7973 396.033 12.494 396.181 12.2253ZM399.535 16.0083L400.406 16.3853C399.92 17.2 399.318 17.9496 398.599 18.6343C397.888 19.3103 397.082 19.9083 396.181 20.4283C395.288 20.9483 394.326 21.386 393.295 21.7413C393.234 21.62 393.147 21.4856 393.035 21.3383C392.931 21.191 392.818 21.061 392.697 20.9483C393.693 20.6363 394.625 20.242 395.492 19.7653C396.367 19.28 397.147 18.721 397.832 18.0883C398.525 17.4556 399.093 16.7623 399.535 16.0083ZM398.443 13.6293L399.288 13.9803C398.88 14.665 398.382 15.3193 397.793 15.9433C397.212 16.5673 396.571 17.135 395.869 17.6463C395.175 18.1576 394.443 18.5953 393.672 18.9593C393.611 18.8466 393.52 18.7253 393.399 18.5953C393.277 18.4566 393.16 18.3396 393.048 18.2443C393.793 17.9236 394.504 17.525 395.18 17.0483C395.864 16.5716 396.484 16.043 397.039 15.4623C397.602 14.873 398.07 14.262 398.443 13.6293ZM388.732 12.5763H393.1V13.4993H388.732V12.5763ZM390.643 9.79429H391.553V21.7413H390.643V9.79429ZM390.617 13.1613L391.228 13.3693C391.124 13.8893 390.994 14.4266 390.838 14.9813C390.682 15.536 390.504 16.082 390.305 16.6193C390.105 17.1566 389.893 17.655 389.668 18.1143C389.442 18.5736 389.213 18.968 388.979 19.2973C388.927 19.1673 388.849 19.02 388.745 18.8553C388.649 18.6906 388.558 18.552 388.472 18.4393C388.697 18.1446 388.914 17.7936 389.122 17.3863C389.338 16.979 389.542 16.537 389.733 16.0603C389.923 15.5836 390.092 15.0983 390.24 14.6043C390.396 14.1103 390.521 13.6293 390.617 13.1613ZM391.488 14.4093C391.574 14.496 391.7 14.6563 391.865 14.8903C392.029 15.1156 392.207 15.3626 392.398 15.6313C392.588 15.9 392.762 16.1513 392.918 16.3853C393.082 16.6193 393.195 16.784 393.256 16.8793L392.71 17.6333C392.632 17.4686 392.515 17.2563 392.359 16.9963C392.211 16.7363 392.051 16.4676 391.878 16.1903C391.713 15.9043 391.553 15.6443 391.397 15.4103C391.249 15.1676 391.128 14.977 391.033 14.8383L391.488 14.4093ZM404.423 14.9293V19.5313H403.487V15.8393H401.602V14.9293H404.423ZM404.423 19.1283C404.735 19.6136 405.168 19.9733 405.723 20.2073C406.277 20.4326 406.936 20.5626 407.699 20.5973C408.063 20.606 408.5 20.6146 409.012 20.6233C409.532 20.6233 410.078 20.6233 410.65 20.6233C411.222 20.6146 411.772 20.6016 412.301 20.5843C412.838 20.567 413.306 20.5453 413.705 20.5193C413.67 20.5886 413.631 20.6796 413.588 20.7923C413.544 20.905 413.501 21.022 413.458 21.1433C413.423 21.2646 413.397 21.3773 413.38 21.4813C413.016 21.49 412.587 21.4986 412.093 21.5073C411.607 21.5246 411.092 21.5333 410.546 21.5333C410.008 21.542 409.488 21.542 408.986 21.5333C408.492 21.5246 408.063 21.516 407.699 21.5073C406.858 21.4726 406.134 21.334 405.528 21.0913C404.921 20.8486 404.414 20.4673 404.007 19.9473C403.677 20.2333 403.339 20.515 402.993 20.7923C402.646 21.0783 402.286 21.3643 401.914 21.6503L401.433 20.6883C401.753 20.4803 402.104 20.242 402.486 19.9733C402.867 19.696 403.231 19.4143 403.578 19.1283H404.423ZM401.81 10.6913L402.499 10.0933C402.776 10.284 403.058 10.505 403.344 10.7563C403.638 10.999 403.907 11.246 404.15 11.4973C404.392 11.74 404.583 11.974 404.722 12.1993L403.981 12.8753C403.851 12.65 403.664 12.4116 403.422 12.1603C403.188 11.9003 402.932 11.6446 402.655 11.3933C402.377 11.1333 402.096 10.8993 401.81 10.6913ZM407.023 11.9783L407.634 11.4193C408.05 11.5666 408.487 11.74 408.947 11.9393C409.415 12.13 409.861 12.325 410.286 12.5243C410.719 12.7236 411.079 12.91 411.365 13.0833L410.715 13.7073C410.446 13.534 410.099 13.3433 409.675 13.1353C409.259 12.9273 408.817 12.7236 408.349 12.5243C407.881 12.3163 407.439 12.1343 407.023 11.9783ZM405.775 13.0573H412.496V13.8113H406.698V19.7913H405.775V13.0573ZM412.041 13.0573H412.977V18.8163C412.977 19.059 412.946 19.2453 412.886 19.3753C412.825 19.4966 412.708 19.5963 412.535 19.6743C412.361 19.7436 412.132 19.787 411.846 19.8043C411.568 19.813 411.209 19.8173 410.767 19.8173C410.749 19.696 410.715 19.5616 410.663 19.4143C410.611 19.2583 410.554 19.1283 410.494 19.0243C410.806 19.033 411.083 19.0373 411.326 19.0373C411.577 19.0373 411.742 19.0373 411.82 19.0373C411.906 19.0286 411.963 19.007 411.989 18.9723C412.023 18.9376 412.041 18.8856 412.041 18.8163V13.0573ZM405.788 10.3273H412.275V11.1073H405.788V10.3273ZM406.282 14.9553H412.405V15.6833H406.282V14.9553ZM406.282 16.8663H412.405V17.6333H406.282V16.8663ZM408.895 13.3693H409.779V19.7393H408.895V13.3693ZM411.95 10.3273H412.171L412.366 10.2753L412.977 10.7563C412.682 11.025 412.348 11.2936 411.976 11.5623C411.603 11.8223 411.213 12.065 410.806 12.2903C410.398 12.5156 409.995 12.7106 409.597 12.8753C409.536 12.7886 409.454 12.689 409.35 12.5763C409.246 12.4636 409.155 12.3726 409.077 12.3033C409.441 12.156 409.805 11.9826 410.169 11.7833C410.533 11.584 410.871 11.376 411.183 11.1593C411.495 10.934 411.75 10.7173 411.95 10.5093V10.3273ZM415.083 10.6523L415.837 10.1453C416.079 10.362 416.326 10.6003 416.578 10.8603C416.829 11.1203 417.063 11.376 417.28 11.6273C417.505 11.8786 417.687 12.1083 417.826 12.3163L417.007 12.8883C416.894 12.6803 416.729 12.4463 416.513 12.1863C416.296 11.9263 416.062 11.662 415.811 11.3933C415.568 11.1246 415.325 10.8776 415.083 10.6523ZM417.462 14.6693V19.4013H416.5V15.5793H414.706V14.6693H417.462ZM416.968 18.8813C417.115 18.8813 417.254 18.9203 417.384 18.9983C417.514 19.0763 417.661 19.1803 417.826 19.3103C417.99 19.4316 418.19 19.5703 418.424 19.7263C418.848 19.9863 419.342 20.1553 419.906 20.2333C420.469 20.3113 421.115 20.3503 421.843 20.3503C422.224 20.3503 422.623 20.346 423.039 20.3373C423.463 20.32 423.888 20.3026 424.313 20.2853C424.737 20.2593 425.145 20.2333 425.535 20.2073C425.925 20.1726 426.276 20.138 426.588 20.1033C426.544 20.19 426.501 20.2983 426.458 20.4283C426.414 20.5583 426.375 20.6883 426.341 20.8183C426.315 20.9483 426.297 21.061 426.289 21.1563C426.055 21.1736 425.751 21.1866 425.379 21.1953C425.015 21.2126 424.612 21.2256 424.17 21.2343C423.736 21.243 423.312 21.2516 422.896 21.2603C422.488 21.269 422.129 21.2733 421.817 21.2733C421.011 21.2733 420.322 21.2256 419.75 21.1303C419.178 21.0436 418.662 20.8573 418.203 20.5713C417.934 20.398 417.691 20.2246 417.475 20.0513C417.267 19.878 417.089 19.7913 416.942 19.7913C416.803 19.7913 416.638 19.8693 416.448 20.0253C416.266 20.1726 416.071 20.372 415.863 20.6233C415.655 20.8746 415.438 21.152 415.213 21.4553L414.537 20.5323C414.987 20.047 415.421 19.6526 415.837 19.3493C416.261 19.0373 416.638 18.8813 416.968 18.8813ZM418.372 12.1343H426.211V13.0573H418.372V12.1343ZM423.416 9.83329H424.404V18.2183C424.404 18.5476 424.356 18.7946 424.261 18.9593C424.165 19.124 424.001 19.2453 423.767 19.3233C423.541 19.4013 423.225 19.4533 422.818 19.4793C422.41 19.4966 421.903 19.5053 421.297 19.5053C421.279 19.358 421.232 19.189 421.154 18.9983C421.084 18.8076 421.015 18.643 420.946 18.5043C421.266 18.513 421.57 18.5216 421.856 18.5303C422.15 18.539 422.402 18.5433 422.61 18.5433C422.826 18.5346 422.978 18.5303 423.065 18.5303C423.195 18.5216 423.286 18.4956 423.338 18.4523C423.39 18.409 423.416 18.331 423.416 18.2183V9.83329ZM419.009 14.5133L419.789 14.0843C420.014 14.3443 420.244 14.6303 420.478 14.9423C420.72 15.2543 420.946 15.5576 421.154 15.8523C421.362 16.147 421.526 16.4113 421.648 16.6453L420.829 17.1393C420.707 16.914 420.547 16.6496 420.348 16.3463C420.148 16.0343 419.927 15.718 419.685 15.3973C419.451 15.0766 419.225 14.782 419.009 14.5133Z" fill="white"/>
</g>
<g opacity="0.65">
<path d="M444.961 3C444.961 1.34315 446.304 0 447.961 0H508.727C510.383 0 511.727 1.34315 511.727 3V29.5703C511.727 31.2272 510.383 32.5703 508.727 32.5703H447.961C446.304 32.5703 444.961 31.2272 444.961 29.5703V3Z" fill="#444C69"/>
<g clip-path="url(#clip7_19_11)">
<path d="M464.841 17.3129C465.208 16.9529 465.391 16.5162 465.391 16.0029C465.391 15.4895 465.208 15.0495 464.841 14.6829C464.481 14.3229 464.044 14.1429 463.531 14.1429C463.018 14.1429 462.581 14.3229 462.221 14.6829C461.854 15.0495 461.671 15.4895 461.671 16.0029C461.671 16.5162 461.854 16.9529 462.221 17.3129C462.581 17.6729 463.018 17.8529 463.531 17.8529C464.044 17.8529 464.481 17.6729 464.841 17.3129ZM469.101 15.2129V16.8229C469.101 16.8762 469.081 16.9295 469.041 16.9829C469.008 17.0362 468.961 17.0695 468.901 17.0829L467.561 17.2829C467.468 17.5429 467.371 17.7629 467.271 17.9429C467.444 18.1829 467.704 18.5162 468.051 18.9429C468.098 19.0029 468.121 19.0629 468.121 19.1229C468.121 19.1895 468.101 19.2462 468.061 19.2929C467.928 19.4729 467.688 19.7329 467.341 20.0729C466.994 20.4195 466.768 20.5929 466.661 20.5929C466.601 20.5929 466.538 20.5695 466.471 20.5229L465.471 19.7429C465.258 19.8562 465.038 19.9495 464.811 20.0229C464.731 20.6762 464.661 21.1262 464.601 21.3729C464.568 21.5062 464.481 21.5729 464.341 21.5729H462.731C462.658 21.5729 462.598 21.5529 462.551 21.5129C462.498 21.4729 462.471 21.4195 462.471 21.3529L462.261 20.0229C462.028 19.9429 461.811 19.8529 461.611 19.7529L460.591 20.5229C460.538 20.5695 460.474 20.5929 460.401 20.5929C460.334 20.5929 460.274 20.5662 460.221 20.5129C459.614 19.9595 459.218 19.5529 459.031 19.2929C458.998 19.2462 458.981 19.1895 458.981 19.1229C458.981 19.0695 458.998 19.0162 459.031 18.9629C459.104 18.8562 459.228 18.6929 459.401 18.4729C459.574 18.2529 459.708 18.0829 459.801 17.9629C459.668 17.7229 459.568 17.4829 459.501 17.2429L458.171 17.0529C458.111 17.0395 458.061 17.0095 458.021 16.9629C457.981 16.9095 457.961 16.8529 457.961 16.7929V15.1829C457.961 15.1229 457.981 15.0662 458.021 15.0129C458.061 14.9595 458.108 14.9295 458.161 14.9229L459.511 14.7129C459.578 14.4929 459.671 14.2729 459.791 14.0529C459.598 13.7729 459.338 13.4362 459.011 13.0429C458.964 12.9895 458.941 12.9329 458.941 12.8729C458.941 12.8262 458.961 12.7695 459.001 12.7029C459.128 12.5295 459.368 12.2695 459.721 11.9229C460.074 11.5829 460.301 11.4129 460.401 11.4129C460.468 11.4129 460.531 11.4362 460.591 11.4829L461.591 12.2529C461.804 12.1462 462.024 12.0562 462.251 11.9829C462.331 11.3229 462.404 10.8729 462.471 10.6329C462.504 10.4995 462.591 10.4329 462.731 10.4329H464.341C464.408 10.4329 464.464 10.4529 464.511 10.4929C464.564 10.5329 464.594 10.5829 464.601 10.6429L464.801 11.9829C465.041 12.0562 465.258 12.1462 465.451 12.2529L466.481 11.4729C466.528 11.4329 466.588 11.4129 466.661 11.4129C466.721 11.4129 466.781 11.4362 466.841 11.4829C467.468 12.0562 467.868 12.4662 468.041 12.7129C468.074 12.7529 468.091 12.8062 468.091 12.8729C468.091 12.9329 468.071 12.9895 468.031 13.0429C467.958 13.1429 467.834 13.3029 467.661 13.5229C467.488 13.7429 467.358 13.9129 467.271 14.0329C467.398 14.2729 467.494 14.5095 467.561 14.7429L468.891 14.9529C468.958 14.9595 469.008 14.9895 469.041 15.0429C469.081 15.0895 469.101 15.1462 469.101 15.2129Z" fill="white"/>
</g>
<path d="M472.557 10.4833H483.867V11.3673H472.557V10.4833ZM477.783 10.8603H478.797V15.9043C478.797 16.407 478.758 16.8966 478.68 17.3733C478.602 17.8413 478.45 18.292 478.225 18.7253C478 19.1586 477.67 19.566 477.237 19.9473C476.804 20.3286 476.232 20.671 475.521 20.9743C474.819 21.2776 473.948 21.542 472.908 21.7673C472.873 21.6893 472.821 21.5983 472.752 21.4943C472.683 21.3903 472.609 21.282 472.531 21.1693C472.462 21.0653 472.392 20.9786 472.323 20.9093C473.337 20.7186 474.178 20.4933 474.845 20.2333C475.512 19.9733 476.041 19.683 476.431 19.3623C476.83 19.033 477.124 18.6863 477.315 18.3223C477.506 17.9496 477.631 17.5596 477.692 17.1523C477.753 16.745 477.783 16.3246 477.783 15.8913V10.8603ZM474.676 15.3713V16.6973H482.086V15.3713H474.676ZM474.676 13.2913V14.5913H482.086V13.2913H474.676ZM473.74 12.4723H483.061V17.5033H473.74V12.4723ZM474.988 17.6203C475.404 18.2616 475.902 18.7816 476.483 19.1803C477.064 19.579 477.735 19.8866 478.498 20.1033C479.269 20.32 480.136 20.476 481.098 20.5713C482.06 20.658 483.13 20.7186 484.309 20.7533C484.222 20.866 484.136 21.0133 484.049 21.1953C483.971 21.3773 483.919 21.5506 483.893 21.7153C482.688 21.6633 481.588 21.5723 480.591 21.4423C479.594 21.321 478.693 21.126 477.887 20.8573C477.081 20.5973 476.366 20.2333 475.742 19.7653C475.118 19.2973 474.589 18.695 474.156 17.9583L474.988 17.6203ZM487.975 12.6673L488.638 12.0953C488.959 12.2426 489.292 12.416 489.639 12.6153C489.994 12.8146 490.324 13.0183 490.627 13.2263C490.939 13.4343 491.195 13.6293 491.394 13.8113L490.705 14.4483C490.514 14.2663 490.267 14.0713 489.964 13.8633C489.661 13.6466 489.336 13.4343 488.989 13.2263C488.642 13.0096 488.304 12.8233 487.975 12.6673ZM493.994 10.8863H494.189L494.358 10.8473L494.982 11.2243C494.557 11.9783 494.016 12.663 493.357 13.2783C492.698 13.885 491.962 14.4223 491.147 14.8903C490.341 15.3496 489.496 15.744 488.612 16.0733C487.737 16.394 486.87 16.6496 486.012 16.8403C485.969 16.7103 485.904 16.563 485.817 16.3983C485.73 16.225 485.644 16.082 485.557 15.9693C486.38 15.822 487.212 15.6053 488.053 15.3193C488.894 15.0246 489.7 14.6693 490.471 14.2533C491.242 13.8286 491.931 13.3476 492.538 12.8103C493.153 12.273 493.639 11.6836 493.994 11.0423V10.8863ZM489.639 10.8863H494.228V11.7183H489.639V10.8863ZM490.601 9.76829L491.706 10.0023C491.099 10.6956 490.35 11.3543 489.457 11.9783C488.573 12.6023 487.529 13.157 486.324 13.6423C486.281 13.5643 486.22 13.4776 486.142 13.3823C486.064 13.287 485.982 13.2003 485.895 13.1223C485.808 13.0356 485.726 12.9663 485.648 12.9143C486.437 12.637 487.147 12.325 487.78 11.9783C488.413 11.6316 488.967 11.2676 489.444 10.8863C489.921 10.505 490.306 10.1323 490.601 9.76829ZM489.639 17.4253L490.367 16.8663C490.705 17.0396 491.056 17.2433 491.42 17.4773C491.793 17.7026 492.139 17.9366 492.46 18.1793C492.781 18.4133 493.045 18.6386 493.253 18.8553L492.486 19.4793C492.295 19.2626 492.04 19.0373 491.719 18.8033C491.407 18.5606 491.069 18.318 490.705 18.0753C490.341 17.8326 489.986 17.616 489.639 17.4253ZM495.879 15.4363H496.087L496.269 15.3973L496.906 15.7483C496.49 16.693 495.94 17.512 495.255 18.2053C494.57 18.8986 493.786 19.4836 492.902 19.9603C492.018 20.4283 491.069 20.8096 490.055 21.1043C489.05 21.399 488.018 21.6243 486.961 21.7803C486.926 21.6503 486.866 21.4943 486.779 21.3123C486.701 21.139 486.619 21.0003 486.532 20.8963C487.537 20.775 488.521 20.5843 489.483 20.3243C490.454 20.0556 491.355 19.709 492.187 19.2843C493.028 18.8596 493.764 18.344 494.397 17.7373C495.038 17.122 495.532 16.407 495.879 15.5923V15.4363ZM491.667 15.4363H496.139V16.2813H491.667V15.4363ZM492.707 14.2273L493.799 14.4743C493.14 15.237 492.295 15.9606 491.264 16.6453C490.233 17.33 489.002 17.9236 487.572 18.4263C487.537 18.3483 487.481 18.2616 487.403 18.1663C487.334 18.071 487.26 17.98 487.182 17.8933C487.113 17.798 487.043 17.7243 486.974 17.6723C487.884 17.3776 488.712 17.044 489.457 16.6713C490.202 16.2986 490.848 15.9 491.394 15.4753C491.94 15.0506 492.378 14.6346 492.707 14.2273Z" fill="white"/>
</g>
<defs>
<clipPath id="clip0_19_11">
<rect width="11.1429" height="11.1429" fill="white" transform="translate(13.5 10.4286)"/>
</clipPath>
<clipPath id="clip1_19_11">
<rect width="10.2143" height="10.2143" fill="white" transform="translate(54.5391 10.8929)"/>
</clipPath>
<clipPath id="clip2_19_11">
<rect width="12.0714" height="11.6071" fill="white" transform="translate(264.648 10.1964)"/>
</clipPath>
<clipPath id="clip3_19_11">
<rect width="12.7663" height="12.3753" fill="white" transform="translate(528.733 9.81235)"/>
</clipPath>
<clipPath id="clip4_19_11">
<rect width="10.9905" height="10.9905" fill="white" transform="translate(124.266 10.5047)"/>
</clipPath>
<clipPath id="clip5_19_11">
<rect width="10.2143" height="11.1429" fill="white" transform="translate(194.922 10.4286)"/>
</clipPath>
<clipPath id="clip6_19_11">
<rect width="10.2143" height="10.2143" fill="white" transform="translate(336.234 10.8929)"/>
</clipPath>
<clipPath id="clip7_19_11">
<rect width="11.1429" height="11.1429" fill="white" transform="translate(457.961 10.4286)"/>
</clipPath>
</defs>
</svg>
