<?xml version="1.0" encoding="utf-8"?>
<svg version="1.1" xmlns:xlink="http://www.w3.org/1999/xlink" width="48px" height="36px" xmlns="http://www.w3.org/2000/svg">
  <g transform="matrix(1 0 0 1 -838 -481 )">
    <path d="M 838 481  L 886 481  L 886 517  L 838 517  L 838 481  " fill-rule="nonzero" fill="#cccccc" stroke="none" />
    <path d="M 841 484  L 883 484  L 883 514  L 841 514  L 841 484  " fill-rule="nonzero" fill="#ffffff" stroke="none" />
    <path d="M 865.66 491.8  C 864.148 491.8  862.96 490.612  862.96 489.1  C 862.96 487.588  864.148 486.4  865.66 486.4  C 867.172 486.4  868.36 487.588  868.36 489.1  C 868.36 490.612  867.172 491.8  865.66 491.8  " fill-rule="nonzero" fill="#cccccc" stroke="none" />
    <path d="M 842 513  L 842 497.6  L 852 490.6  L 866 500.4  L 874 494.8  L 882 500.4  L 882 513  L 842 513  " fill-rule="nonzero" fill="#169bd5" stroke="none" />
  </g>
</svg>