<?xml version="1.0" encoding="utf-8"?>
<svg version="1.1" xmlns:xlink="http://www.w3.org/1999/xlink" width="48px" height="36px" xmlns="http://www.w3.org/2000/svg">
  <g transform="matrix(1 0 0 1 -850 -702 )">
    <path d="M 850 702  L 898 702  L 898 738  L 850 738  L 850 702  " fill-rule="nonzero" fill="#cccccc" stroke="none" />
    <path d="M 853 705  L 895 705  L 895 735  L 853 735  L 853 705  " fill-rule="nonzero" fill="#ffffff" stroke="none" />
    <path d="M 877.66 712.8  C 876.148 712.8  874.96 711.612  874.96 710.1  C 874.96 708.588  876.148 707.4  877.66 707.4  C 879.172 707.4  880.36 708.588  880.36 710.1  C 880.36 711.612  879.172 712.8  877.66 712.8  " fill-rule="nonzero" fill="#cccccc" stroke="none" />
    <path d="M 854 734  L 854 718.6  L 864 711.6  L 878 721.4  L 886 715.8  L 894 721.4  L 894 734  L 854 734  " fill-rule="nonzero" fill="#169bd5" stroke="none" />
  </g>
</svg>