<svg width="527" height="34" viewBox="0 0 527 34" fill="none" xmlns="http://www.w3.org/2000/svg">
<path d="M15.5 3.5C15.5 1.84315 16.8431 0.5 18.5 0.5H64.5C66.1569 0.5 67.5 1.84315 67.5 3.5V30.0625C67.5 31.7194 66.1569 33.0625 64.5 33.0625H18.5C16.8431 33.0625 15.5 31.7194 15.5 30.0625V3.5Z" fill="#18BC9C"/>
<path d="M29.137 10.5093H33.999V11.4063H29.137V10.5093ZM30.554 14.3833H33.557V19.9473H30.554V19.0763H32.673V15.2543H30.554V14.3833ZM30.814 10.8863L31.763 11.0163C31.6243 11.935 31.451 12.8233 31.243 13.6813C31.0437 14.5306 30.7967 15.3236 30.502 16.0603C30.216 16.797 29.8693 17.447 29.462 18.0103C29.436 17.941 29.384 17.8543 29.306 17.7503C29.2367 17.6463 29.1587 17.538 29.072 17.4253C28.994 17.3126 28.9203 17.226 28.851 17.1653C29.215 16.6713 29.5227 16.095 29.774 15.4363C30.0253 14.769 30.2333 14.0496 30.398 13.2783C30.5713 12.507 30.71 11.7096 30.814 10.8863ZM30.125 14.3833H31.009V21.0523H30.125V14.3833ZM35.013 17.6723H40.07V18.5303H35.013V17.6723ZM35.065 15.3713H40.07V16.1513H35.065V15.3713ZM35.065 13.1093H40.07V13.9543H35.065V13.1093ZM37.067 13.5123H37.925V18.0493H37.067V13.5123ZM39.615 13.1093H40.551V20.6363C40.551 20.905 40.5163 21.113 40.447 21.2603C40.3777 21.4163 40.252 21.5333 40.07 21.6113C39.888 21.6806 39.641 21.724 39.329 21.7413C39.017 21.7673 38.6357 21.7803 38.185 21.7803C38.1763 21.6503 38.1417 21.4943 38.081 21.3123C38.0203 21.1303 37.9553 20.9786 37.886 20.8573C38.224 20.866 38.536 20.8703 38.822 20.8703C39.108 20.879 39.2943 20.879 39.381 20.8703C39.4763 20.8616 39.537 20.84 39.563 20.8053C39.5977 20.7706 39.615 20.71 39.615 20.6233V13.1093ZM34.545 13.1093H35.455V16.5543C35.455 16.9616 35.4333 17.395 35.39 17.8543C35.3553 18.3136 35.2817 18.7773 35.169 19.2453C35.0563 19.7133 34.8917 20.164 34.675 20.5973C34.4583 21.0306 34.1767 21.4293 33.83 21.7933C33.7953 21.724 33.7303 21.646 33.635 21.5593C33.5483 21.4813 33.4617 21.4033 33.375 21.3253C33.2883 21.256 33.2103 21.204 33.141 21.1693C33.5657 20.7273 33.8733 20.242 34.064 19.7133C34.2633 19.1846 34.3933 18.6473 34.454 18.1013C34.5147 17.5553 34.545 17.0396 34.545 16.5543V13.1093ZM35.975 9.78129L36.885 10.0153C36.6857 10.5786 36.4473 11.129 36.17 11.6663C35.9013 12.2036 35.6067 12.7063 35.286 13.1743C34.9653 13.6423 34.6317 14.0583 34.285 14.4223C34.2417 14.3616 34.1723 14.2923 34.077 14.2143C33.9903 14.1276 33.8993 14.0453 33.804 13.9673C33.7087 13.8893 33.6263 13.8243 33.557 13.7723C34.0597 13.2956 34.5233 12.702 34.948 11.9913C35.3727 11.2806 35.715 10.544 35.975 9.78129ZM35.988 10.8733H38.601V11.6923H35.585L35.988 10.8733ZM38.302 10.8733H38.51L38.653 10.8343L39.29 11.2633C39.1687 11.532 39.0213 11.8136 38.848 12.1083C38.6833 12.3943 38.51 12.6716 38.328 12.9403C38.146 13.2003 37.977 13.43 37.821 13.6293C37.7343 13.5686 37.6217 13.4993 37.483 13.4213C37.353 13.3346 37.2403 13.2653 37.145 13.2133C37.2837 13.0226 37.4267 12.8016 37.574 12.5503C37.73 12.2903 37.8687 12.0303 37.99 11.7703C38.12 11.5103 38.224 11.272 38.302 11.0553V10.8733ZM44.243 13.7723H51.835V14.7083H44.243V13.7723ZM47.987 16.8793H52.368V17.7893H47.987V16.8793ZM47.48 14.2403H48.494V20.8313L47.48 20.6883V14.2403ZM44.386 15.8133L45.4 15.9303C45.218 17.239 44.9147 18.3873 44.49 19.3753C44.0653 20.3633 43.489 21.178 42.761 21.8193C42.709 21.7586 42.631 21.685 42.527 21.5983C42.4317 21.5203 42.332 21.438 42.228 21.3513C42.124 21.2733 42.033 21.2083 41.955 21.1563C42.6743 20.593 43.2247 19.8563 43.606 18.9463C43.996 18.0363 44.256 16.992 44.386 15.8133ZM45.01 17.4903C45.2353 18.1576 45.53 18.695 45.894 19.1023C46.258 19.5096 46.6783 19.8216 47.155 20.0383C47.6317 20.255 48.156 20.4023 48.728 20.4803C49.3087 20.5583 49.9327 20.5973 50.6 20.5973C50.6953 20.5973 50.8513 20.5973 51.068 20.5973C51.2847 20.5973 51.5273 20.5973 51.796 20.5973C52.0733 20.5973 52.355 20.5973 52.641 20.5973C52.927 20.5973 53.187 20.5973 53.421 20.5973C53.655 20.5973 53.8327 20.593 53.954 20.5843C53.9107 20.6623 53.863 20.762 53.811 20.8833C53.759 21.0046 53.7113 21.126 53.668 21.2473C53.6333 21.3686 53.6073 21.477 53.59 21.5723H52.94H50.548C49.7767 21.5723 49.0617 21.5203 48.403 21.4163C47.753 21.321 47.1637 21.139 46.635 20.8703C46.115 20.6016 45.6513 20.2203 45.244 19.7263C44.8367 19.2323 44.4943 18.591 44.217 17.8023L45.01 17.4903ZM47.467 9.79429H48.494V11.9003H47.467V9.79429ZM42.566 11.2893H53.434V14.1233H52.433V12.2253H43.528V14.1233H42.566V11.2893Z" fill="white"/>
<path d="M74.3906 1H120.391C121.771 1 122.891 2.11929 122.891 3.5V30.0625C122.891 31.4432 121.771 32.5625 120.391 32.5625H74.3906C73.0099 32.5625 71.8906 31.4432 71.8906 30.0625V3.5C71.8906 2.11929 73.0099 1 74.3906 1Z" fill="#F4F4F4"/>
<path d="M74.3906 1H120.391C121.771 1 122.891 2.11929 122.891 3.5V30.0625C122.891 31.4432 121.771 32.5625 120.391 32.5625H74.3906C73.0099 32.5625 71.8906 31.4432 71.8906 30.0625V3.5C71.8906 2.11929 73.0099 1 74.3906 1Z" stroke="#DDDDDD"/>
<path d="M85.0666 20.5453H96.7276V21.3383H85.0666V20.5453ZM85.1446 12.0953H96.6626V12.9013H85.1446V12.0953ZM86.0416 18.6343H95.9086V19.4143H86.0416V18.6343ZM90.3576 10.7823H91.3326V20.9223H90.3576V10.7823ZM94.8816 9.87229L95.4016 10.6263C94.821 10.7303 94.1623 10.8256 93.4256 10.9123C92.6976 10.9903 91.9306 11.0596 91.1246 11.1203C90.3186 11.1723 89.5083 11.22 88.6936 11.2633C87.879 11.298 87.0903 11.3196 86.3276 11.3283C86.3276 11.2156 86.3016 11.0856 86.2496 10.9383C86.2063 10.7823 86.163 10.6566 86.1196 10.5613C86.8736 10.5353 87.6536 10.505 88.4596 10.4703C89.2743 10.427 90.0716 10.3793 90.8516 10.3273C91.6403 10.2666 92.377 10.1973 93.0616 10.1193C93.755 10.0413 94.3616 9.95896 94.8816 9.87229ZM87.4066 16.0343V17.0223H94.4266V16.0343H87.4066ZM87.4066 14.3963V15.3713H94.4266V14.3963H87.4066ZM86.4576 13.6943H95.4146V17.7373H86.4576V13.6943ZM105.828 11.0423V12.2123H108.025V11.0423H105.828ZM102.786 11.0423V12.2123H104.931V11.0423H102.786ZM99.8216 11.0423V12.2123H101.889V11.0423H99.8216ZM98.8856 10.3403H109V12.9273H98.8856V10.3403ZM98.2746 13.6423H109.52V14.4093H98.2746V13.6423ZM99.4056 20.4283H109.858V21.2083H99.4056V20.4283ZM98.9896 15.3713H99.9776V21.7673H98.9896V15.3713ZM102.214 17.0613V17.7893H107.505V17.0613H102.214ZM102.214 18.3743V19.1023H107.505V18.3743H102.214ZM102.214 15.7743V16.4763H107.505V15.7743H102.214ZM101.291 15.1763H108.441V19.7003H101.291V15.1763ZM103.605 12.7323L104.58 12.8103C104.519 13.2523 104.445 13.7246 104.359 14.2273C104.281 14.7213 104.203 15.1416 104.125 15.4883H103.176C103.254 15.1156 103.332 14.6736 103.41 14.1623C103.488 13.651 103.553 13.1743 103.605 12.7323Z" fill="#444444"/>
</svg>
