<?xml version="1.0" encoding="utf-8"?>
<svg version="1.1" xmlns:xlink="http://www.w3.org/1999/xlink" width="10px" height="10px" xmlns="http://www.w3.org/2000/svg">
  <g transform="matrix(1 0 0 1 -328 -82 )">
    <path d="M 0.945411392405063 6.58227848101266  L 0.945411392405063 8.42523734177215  L 3.48334899129747 5.88731210443038  C 3.52196787575669 5.84869805638189  3.58457632914838 5.84869805638189  3.6231952136076 5.88731210443038  L 4.11268789556962 6.37680478639241  C 4.15130194361811 6.41542367085162  4.15130194361811 6.47803212424331  4.11268789556962 6.51665100870253  L 1.57476265822785 9.05458860759494  L 3.41772151898734 9.05458860759494  C 3.52696054193038 9.05458860759494  3.61550632911392 9.14313439477848  3.61550632911392 9.25237341772152  L 3.61550632911392 9.84572784810127  C 3.61550632911392 9.90034461529181  3.57123069124118 9.94462025316456  3.51661392405063 9.94462025316456  L 0.450949367088608 9.94462025316456  C 0.232483682753165 9.94462025316456  0.055379746835443 9.76751631724684  0.055379746835443 9.54905063291139  L 0.055379746835443 6.48338607594937  C 0.055379746835443 6.42876930875882  0.0996553847081889 6.38449367088608  0.154272151898734 6.38449367088608  L 0.747626582278481 6.38449367088608  C 0.856865605221519 6.38449367088608  0.945411392405063 6.47303945806962  0.945411392405063 6.58227848101266  Z M 9.05458860759494 3.41772151898734  L 9.05458860759494 1.57172171677215  L 6.51514289952532 4.11117978639241  C 6.49659682955489 4.12972681208963  6.47144238708544 4.1401465029763  6.44521360759494 4.1401465029763  C 6.41898482810443 4.1401465029763  6.39383038563499 4.12972681208963  6.37528431566456 4.11117978639241  L 5.88579163370253 3.62168710443038  C 5.86724460800531 3.60314103445995  5.85682491711864 3.57798659199051  5.85682491711864 3.5517578125  C 5.85682491711864 3.52552903300949  5.86724460800531 3.50037459054005  5.88579163370253 3.48182852056962  L 8.42220876186709 0.945411392405063  L 6.58227848101266 0.945411392405063  C 6.47303945806962 0.945411392405063  6.38449367088608 0.856865605221519  6.38449367088608 0.747626582278481  L 6.38449367088608 0.154272151898734  C 6.38449367088608 0.0996553847081889  6.42876930875882 0.055379746835443  6.48338607594937 0.055379746835443  L 9.54905063291139 0.055379746835443  C 9.76751631724684 0.055379746835443  9.94462025316456 0.232483682753165  9.94462025316456 0.450949367088608  L 9.94462025316456 3.51661392405063  C 9.94462025316456 3.57123069124118  9.90034461529181 3.61550632911392  9.84572784810127 3.61550632911392  L 9.25237341772152 3.61550632911392  C 9.14313439477848 3.61550632911392  9.05458860759494 3.52696054193038  9.05458860759494 3.41772151898734  Z " fill-rule="nonzero" fill="#165dff" stroke="none" fill-opacity="0.6" transform="matrix(1 0 0 1 328 82 )" />
  </g>
</svg>