<?xml version="1.0" encoding="utf-8"?>
<svg version="1.1" xmlns:xlink="http://www.w3.org/1999/xlink" width="16px" height="15px" xmlns="http://www.w3.org/2000/svg">
  <g transform="matrix(1 0 0 1 -24 -733 )">
    <path d="M 0.838454365659807 8.22891809428967  L 0.838454365659808 9.86945941935389  C 0.838454365659808 10.5476375300487  1.40153757816604 11.0974095137619  2.09613592172345 11.0974095137619  C 2.79073426528086 11.0974095137619  3.35381747778709 10.5476375300487  3.35381747778709 9.86945941935389  L 3.35381747778709 8.22891809428967  C 3.35381747778709 7.55073998359486  2.79073426528086 7.00096799988168  2.09613592172345 7.00096799988168  C 1.40153757816604 7.00096799988168  0.838454365659807 7.55073998359486  0.838454365659807 8.22891809428967  Z M 12.3978055602104 11.3577349378583  C 11.9766927710061 10.9720005938957  11.7379689966498 10.433233765653  11.7383611949766 9.86945941935388  L 11.7383611949766 8.22891809428967  C 11.7392540277012 7.10483088636547  12.6685481205535 6.19184013450329  13.8198241750335 6.18397186493988  C 13.604760623145 3.21028604881608  11.0655015540755 0.862854784242  7.96531652678567 0.862854784242  C 4.86471226739755 0.862854784242  2.32587243042636 3.21028604881608  2.11080887853785 6.18397186493988  C 3.2617979945608 6.19250665602978  4.19069459360014 7.10510688762718  4.19227185859475 8.22891809428967  L 4.19227185859475 9.86945941935389  C 4.19227185859475 10.9997562718733  3.25379983662071 11.9160429124988  2.09613592929738 11.9160429124988  C 0.938472021974037 11.9160429124988  0 10.9997562718733  0 9.86945941935389  L 0 8.22891809428967  C 0.000488699886602721 7.41396563429355  0.496146424294923 6.67696134619514  1.26187383160316 6.35261035382044  C 1.39183425214555 2.84722214224795  4.3431936416869 0.044221392899928  7.96531652678567 0.044221392899928  C 11.5874394118844 0.044221392899928  14.5387988014258 2.84722214224795  14.6687592219682 6.35261035382044  C 15.4342660868961 6.67721717383279  15.9298162603092 7.41406154200912  15.9306330535713 8.22891809428967  L 15.9306330535713 9.86945941935389  C 15.9298511581559 10.9992159761249  14.9916084043712 11.914659965585  13.8344976104085 11.914659965585  C 13.5949329778276 11.914659965585  13.3571411544992 11.8745636798542  13.1314531282692 11.7961131121113  C 12.339815214909 12.610141981091  11.3583274233908 13.2252197360955  10.2706468116127 13.5889202585251  C 10.2503646059563 14.367166401617  9.59692107382005 14.9869808837979  8.79957861690595 14.9842808773288  L 7.5494431628726 14.9842808773288  C 6.73614242015422 14.9842808773288  6.07837496816583 14.3457468288282  6.07837496816583 13.5516724313878  C 6.07837496816583 12.7588259836425  6.73404628995839 12.1190639854469  7.54986237982305 12.1190639854469  L 8.7991593999555 12.1190639854469  C 9.32864332949903 12.1190639854469  9.79188937519822 12.389213007104  10.0509717672342 12.7964831322747  C 10.9329108031074 12.4931324641424  11.7344913746289 12.0016282691103  12.3973863281121 11.3577349378583  Z M 12.5768155606364 8.22891809428967  L 12.5768155606364 9.86945941935389  C 12.5768155606364 10.5476375300487  13.1398987731426 11.0974095137619  13.8344971167 11.0974095137619  C 14.5290954602574 11.0974095137619  15.0921786727637 10.5476375300487  15.0921786727637 9.86945941935389  L 15.0921786727637 8.22891809428967  C 15.0921786727637 7.55073998359486  14.5290954602574 7.00096799988168  13.8344971167 7.00096799988168  C 13.1398987731426 7.00096799988168  12.5768155606364 7.55073998359486  12.5768155606364 8.22891809428967  Z M 6.91724856592395 13.5516724313878  C 6.91724856592395 13.8926332434444  7.1985500016568 14.1656474859867  7.55028161192136 14.1656474859867  L 8.79957861690595 14.1656474859867  C 9.15256790831759 14.1656474859867  9.43261166290337 13.8922239367393  9.43261167805123 13.5516724313878  C 9.43261167805123 13.2107116193312  9.15131024231838 12.9376973767889  8.79957861690595 12.9376973915787  L 7.55028161192136 12.9376973915787  C 7.19729232050972 12.9376973915787  6.91724856592395 13.2111209408262  6.91724856592395 13.5516724313878  Z " fill-rule="nonzero" fill="#000000" stroke="none" fill-opacity="0.4" transform="matrix(1 0 0 1 24 733 )" />
  </g>
</svg>