<?xml version="1.0" encoding="utf-8"?>
<svg version="1.1" xmlns:xlink="http://www.w3.org/1999/xlink" width="13px" height="16px" xmlns="http://www.w3.org/2000/svg">
  <g transform="matrix(1 0 0 1 -341 -56 )">
    <path d="M 12.9205796283923 13.6701739346591  C 12.9205796283923 12.4179405362216  11.966615677683 11.4008826704545  10.7885276778372 11.4008826704545  C 10.1937369024979 11.4008826704545  9.65354044767681 11.6635462713068  9.26563342028166 12.0819754794034  L 4.10215988898026 9.03385612571023  C 4.25444931640625 8.72232489346591  4.34639763954564 8.37414291548296  4.34639763954564 7.99847290482955  C 4.34639763954564 7.77551427556818  4.30617023668791 7.56477254971591  4.25157591616982 7.36013929332387  L 9.34034142552426 4.00048868963068  C 9.71962830232319 4.363941796875  10.2167239707545 4.58995465198864  10.7626671926398 4.58995465198864  C 11.9407551924856 4.58995465198864  12.900465910259 3.56984256036932  12.900465910259 2.31760916193182  C 12.900465910259 1.06537576349432  11.94075520919 0.0452636541193182  10.7626672093442 0.0452636541193182  C 9.58457920949836 0.0452636541193182  8.62486849172492 1.06537574573864  8.62486849172492 2.31760914417614  C 8.62486849172492 2.57721850142045  8.67371604517887 2.82155672940341  8.74842406712582 3.05367805397727  L 3.70563272769326 6.37973213778409  C 3.32059908383018 5.97657405894886  2.79189617984169 5.72307315340909  2.20572555509868 5.72307315340909  C 1.02763755525288 5.72307315340909  0.0679268374794409 6.74318524502841  0.0679268374794409 7.99541864346591  C 0.0679268374794409 9.24765204190341  1.02763755525288 10.2677641335227  2.20572555509868 10.2677641335227  C 2.6338599686472 10.2677641335227  3.033260546875 10.130323881392  3.36657325375206 9.89820257457386  L 8.73118374922903 13.0654368252841  C 8.67946281224301 13.2609074041193  8.64498219315378 13.4594322088068  8.64498219315378 13.6701739346591  C 8.64498219315378 14.9224073330966  9.60469291092722 15.9425194247159  10.782780910773 15.9425194247159  C 11.9608689106188 15.9425194247159  12.9205796283923 14.9224073330966  12.9205796283923 13.6701739346591  Z M 9.69376785053454 2.31760914417614  C 9.69376785053454 1.69149243607955  10.1736232010691 1.18143639914773  10.7626672093442 1.18143639914773  C 11.3517112176192 1.18143639914773  11.8315665681538 1.69149243607955  11.8315665681538 2.31760914417614  C 11.8315665681538 2.94372585227273  11.3517112176192 3.45378188920455  10.7626672093442 3.45378188920455  C 10.1736232010691 3.45378188920455  9.69376785053454 2.94372585227273  9.69376785053454 2.31760914417614  Z M 2.20859893863076 9.13464563210227  C 1.61955493035567 9.13464563210227  1.13969957982113 8.62458959517045  1.13969957982113 7.99847288707386  C 1.13969957982113 7.37235617897727  1.61955493035567 6.86230014204546  2.20859893863076 6.86230014204546  C 2.79764294690584 6.86230014204546  3.27749829744038 7.37235617897727  3.27749829744038 7.99847288707386  C 3.27749829744038 8.62458959517045  2.79764294690584 9.13464563210227  2.20859893863076 9.13464563210227  Z M 11.8574270366468 13.6732281605114  C 11.8574270366468 14.3023990944602  11.3775716861123 14.8094009055398  10.7885276778372 14.8094009055398  C 10.1994836695621 14.8094009055398  9.71962831902755 14.299344868608  9.71962831902755 13.6732281605114  C 9.71962831902755 13.0471114524148  10.1994836695621 12.537055415483  10.7885276778372 12.537055415483  C 11.3775716861123 12.537055415483  11.8574270366468 13.0471114524148  11.8574270366468 13.6732281605114  Z " fill-rule="nonzero" fill="#000000" stroke="none" fill-opacity="0.6" transform="matrix(1 0 0 1 341 56 )" />
  </g>
</svg>