<?xml version="1.0" encoding="utf-8"?>
<svg version="1.1" xmlns:xlink="http://www.w3.org/1999/xlink" width="18px" height="18px" preserveAspectRatio="xMinYMid meet" viewBox="808 651  18 16" xmlns="http://www.w3.org/2000/svg">
  <path d="M 819.541148922792 659.255165123781  A 2 2 0 0 1 818.5 657.5 L 818.5 454  A 5 5 0 0 1 823.5 449.5 L 906 449.5  " stroke-width="1" stroke="#33cc00" fill="none" />
  <path d="M 818.505010026792 654.641474403335  A 3 3 0 0 0 815.505010026792 657.641474403335 A 3 3 0 0 0 818.505010026792 660.641474403335 A 3 3 0 0 0 821.505010026792 657.641474403335 A 3 3 0 0 0 818.505010026792 654.641474403335 Z M 905 455.8  L 911 449.5  L 905 443.2  L 905 455.8  Z " fill-rule="nonzero" fill="#33cc00" stroke="none" />
</svg>