<?xml version="1.0" encoding="utf-8"?>
<svg version="1.1" xmlns:xlink="http://www.w3.org/1999/xlink" width="20px" height="20px" xmlns="http://www.w3.org/2000/svg">
  <g transform="matrix(1 0 0 1 -1156 -296 )">
    <path d="M 1166 296  C 1171.6 296  1176 300.4  1176 306  C 1176 311.6  1171.6 316  1166 316  C 1160.4 316  1156 311.6  1156 306  C 1156 300.4  1160.4 296  1166 296  Z " fill-rule="nonzero" fill="#ffffff" stroke="none" />
    <path d="M 1166 296.5  C 1171.32 296.5  1175.5 300.68  1175.5 306  C 1175.5 311.32  1171.32 315.5  1166 315.5  C 1160.68 315.5  1156.5 311.32  1156.5 306  C 1156.5 300.68  1160.68 296.5  1166 296.5  Z " stroke-width="1" stroke="#949494" fill="none" />
  </g>
</svg>