<?xml version="1.0" encoding="utf-8"?>
<svg version="1.1" xmlns:xlink="http://www.w3.org/1999/xlink" width="18px" height="19px" preserveAspectRatio="xMidYMin meet" viewBox="792 107  16 19" xmlns="http://www.w3.org/2000/svg">
  <path d="M 507 208.5  L 555 208.5  A 5 5 0 0 0 560.5 203.5 L 560.5 125  A 5 5 0 0 1 565.5 120.5 L 795 120.5  " stroke-width="1" stroke="#33cc00" fill="none" />
  <path d="M 509 205.5  A 3 3 0 0 0 506 208.5 A 3 3 0 0 0 509 211.5 A 3 3 0 0 0 512 208.5 A 3 3 0 0 0 509 205.5 Z M 794 126.8  L 800 120.5  L 794 114.2  L 794 126.8  Z " fill-rule="nonzero" fill="#33cc00" stroke="none" />
</svg>