<?xml version="1.0" encoding="utf-8"?>
<svg version="1.1" xmlns:xlink="http://www.w3.org/1999/xlink" width="16px" height="16px" xmlns="http://www.w3.org/2000/svg">
  <g transform="matrix(1 0 0 1 -24 -218 )">
    <path d="M 16 8  C 16 12.418  12.418 16  8 16  C 3.582 16  0 12.418  0 8  C 0 3.582  3.582 0  8 0  C 12.418 0  16 3.582  16 8  Z M 3.577333328125 8.502666671875  L 6.216 11.141333328125  C 6.3722866265984 11.2976611731522  6.58428152123257 11.3854887078196  6.8053333359375 11.3854887078196  C 7.02638515064243 11.3854887078196  7.2383800452766 11.2976611731522  7.394666671875 11.141333328125  L 12.446666671875 6.089333328125  C 12.6029675871522 5.93303241077583  12.6907765268546 5.72104287566143  12.6907765268546 5.5  C 12.6907765268546 5.03970203580616  12.3176313001313 4.66655680908288  11.8573333359375 4.66655680908288  C 11.6362904564475 4.66655680908288  11.4243009179844 4.75436575181863  11.268 4.910666671875  L 6.769333328125 9.337333328125  L 4.756 7.324  C 4.59969908129723 7.16769908129723  4.38770954310333 7.07989013949611  4.1666666640625 7.07989013949611  C 3.70636869681769 7.07989013949611  3.33322346762111 7.45303536869269  3.33322346762111 7.9133333359375  C 3.33322346762111 8.13437621497834  3.42103240942223 8.34636575317223  3.577333328125 8.502666671875  Z " fill-rule="nonzero" fill="#165dff" stroke="none" fill-opacity="0.996078431372549" transform="matrix(1 0 0 1 24 218 )" />
  </g>
</svg>