<?xml version="1.0" encoding="utf-8"?>
<svg version="1.1" xmlns:xlink="http://www.w3.org/1999/xlink" width="10px" height="197.6px" preserveAspectRatio="xMidYMin meet" viewBox="556 115  8 197.6" xmlns="http://www.w3.org/2000/svg">
  <path d="M 456.842214114619 308.58289094395  A 1.39999999999998 1.39999999999998 0 0 1 457.9 308.1 L 555 308.1  A 5 5 0 0 0 560.5 303.1 L 560.5 125  A 5 5 0 0 1 565.5 120.5 L 795 120.5  " stroke-width="1" stroke="#33cc00" fill="none" />
  <path d="M 458.200885142487 305.1  A 3 3 0 0 0 455.200885142487 308.1 A 3 3 0 0 0 458.200885142487 311.1 A 3 3 0 0 0 461.200885142487 308.1 A 3 3 0 0 0 458.200885142487 305.1 Z M 794 126.8  L 800 120.5  L 794 114.2  L 794 126.8  Z " fill-rule="nonzero" fill="#33cc00" stroke="none" />
</svg>