<?xml version="1.0" encoding="utf-8"?>
<svg version="1.1" xmlns:xlink="http://www.w3.org/1999/xlink" width="10px" height="6px" xmlns="http://www.w3.org/2000/svg">
  <g transform="matrix(1 0 0 1 -1 -3 )">
    <path d="M 0.137425457884934 0.829566895707831  C -0.0239989522971862 0.651952790850903  -0.0227751966059597 0.365968105233433  0.139494709747517 0.190199858810241  C 0.302165110202814 0.0148930628765059  0.563759416390729 0.0157917074548191  0.724761059085265 0.192920048945783  L 4.9652275584644 4.86414897402108  L 9.26490155473924 0.212811469314759  C 9.42757195519454 0.0370675075301202  9.68916626138245 0.0384033179593366  9.85059065862997 0.215531659450301  C 10.0115923013245 0.393097180911143  10.0103685456333 0.679081866528615  9.8480986522144 0.854850127070783  L 5.2781528223303 5.79807417639307  C 5.27112179221854 5.80574901167169  5.26202151024421 5.80757057134789  5.2549682326159 5.81478394201807  C 5.25332172237169 5.81658121705572  5.25289898075331 5.81883994258283  5.25125247050911 5.82066150225904  C 5.17055140211093 5.90785343561747  5.06499697330298 5.95169227692018  4.95986529904801 5.95169227692018  C 4.85348762158527 5.95169227692018  4.7467094500207 5.90695480515813  4.66598612117136 5.81796559676205  L 0.137425457884934 0.829566895707831  Z " fill-rule="nonzero" fill="#000000" stroke="none" fill-opacity="0.4" transform="matrix(1 0 0 1 1 3 )" />
  </g>
</svg>