<?xml version="1.0" encoding="utf-8"?>
<svg version="1.1" xmlns:xlink="http://www.w3.org/1999/xlink" width="9px" height="8px" xmlns="http://www.w3.org/2000/svg">
  <g transform="matrix(1 0 0 1 -311 -746 )">
    <path d="M 3.68900000000002 4  L 1.214 1.52500000000001  C 0.922000000000025 1.232  0.922000000000025 0.757000000000005  1.214 0.463999999999999  C 1.50700000000001 0.171999999999997  1.98200000000003 0.171999999999997  2.27499999999998 0.463999999999999  L 4.75 2.93899999999999  L 7.22500000000002 0.463999999999999  C 7.51799999999997 0.171999999999997  7.993 0.171999999999997  8.286 0.463999999999999  C 8.57799999999997 0.757000000000005  8.57799999999997 1.232  8.286 1.52500000000001  L 5.81099999999998 4  L 8.286 6.47499999999999  C 8.57799999999997 6.768  8.57799999999997 7.243  8.286 7.536  C 7.993 7.828  7.51799999999997 7.828  7.22500000000002 7.536  L 4.75 5.06100000000001  L 2.27499999999998 7.536  C 1.98200000000003 7.828  1.50700000000001 7.828  1.214 7.536  C 0.922000000000025 7.243  0.922000000000025 6.768  1.214 6.47499999999999  L 3.68900000000002 4  Z " fill-rule="nonzero" fill="#000000" stroke="none" transform="matrix(1 0 0 1 311 746 )" />
  </g>
</svg>