<?xml version="1.0" encoding="utf-8"?>
<svg version="1.1" xmlns:xlink="http://www.w3.org/1999/xlink" width="24px" height="18px" xmlns="http://www.w3.org/2000/svg">
  <g transform="matrix(1 0 0 1 -301 -741 )">
    <path d="M 10.243 0.5  C 9.447 0.5  8.68400000000003 0.816000000000003  8.12099999999998 1.37899999999999  L 0.5 9  L 8.12099999999998 16.621  C 8.68400000000003 17.184  9.447 17.5  10.243 17.5  L 20.5 17.5  C 22.157 17.5  23.5 16.157  23.5 14.5  L 23.5 3.5  C 23.5 1.84299999999999  22.157 0.5  20.5 0.5  L 10.243 0.5  Z M 22 14.5  C 22.2 15.439  21.439 16.2  20.5 16  L 10.243 16  C 9.79199999999997 16.2  9.35899999999998 16.021  9.041 15.702  L 2.339 9  L 9.041 2.298  C 9.35899999999998 1.97900000000001  9.79199999999997 1.80000000000001  10.243 2  L 20.5 2  C 21.439 1.80000000000001  22.2 2.56100000000001  22 3.5  L 22 14.5  Z " fill-rule="nonzero" fill="#000000" stroke="none" transform="matrix(1 0 0 1 301 741 )" />
  </g>
</svg>