<?xml version="1.0" encoding="utf-8"?>
<svg version="1.1" xmlns:xlink="http://www.w3.org/1999/xlink" width="12px" height="12px" xmlns="http://www.w3.org/2000/svg">
  <g transform="matrix(1 0 0 1 -323 -181 )">
    <path d="M 10.8955384570313 0.4518461484375  L 6 5.3473846171875  L 1.10446154296875 0.4518461484375  C 0.923812850922704 0.272682038830165  0.632494840483546 0.272682038830165  0.4518461484375 0.4518461484375  C 0.364980343954315 0.538216208869193  0.316137752711583 0.655657089307352  0.316137752711583 0.778153845703125  C 0.316137752711583 0.900650602098898  0.364980343954314 1.01809148253706  0.4518461484375 1.10446154296875  L 5.3473846171875 6  L 0.4518461484375 10.8955384570313  C 0.272682038830166 11.0761871490773  0.272682038830166 11.3675051595165  0.4518461484375 11.5481538515625  C 0.538216208869193 11.6350196560457  0.655657089307352 11.6838622472884  0.778153845703125 11.6838622472884  C 0.900650602098899 11.6838622472884  1.01809148253706 11.6350196560457  1.10446154296875 11.5481538515625  L 6 6.6526153828125  L 10.8955384570313 11.5481538515625  C 11.073230765625 11.7258461601562  11.3676923085937 11.7281538515625  11.5481538515625 11.5481538515625  C 11.6350196560457 11.4617837911308  11.6838622472884 11.3443429106926  11.6838622472884 11.2218461542969  C 11.6838622472884 11.0993493979011  11.6350196560457 10.9819085174629  11.5481538515625 10.8955384570313  L 6.6526153828125 6  L 11.5481538515625 1.10446154296875  C 11.7273179611698 0.923812850922704  11.7273179611698 0.632494840483546  11.5481538515625 0.4518461484375  C 11.4617837911308 0.364980343954314  11.3443429106926 0.316137752711583  11.2218461542969 0.316137752711583  C 11.0993493979011 0.316137752711583  10.9819085174629 0.364980343954314  10.8955384570313 0.4518461484375  Z " fill-rule="nonzero" fill="#999999" stroke="none" transform="matrix(1 0 0 1 323 181 )" />
  </g>
</svg>