<?xml version="1.0" encoding="utf-8"?>
<svg version="1.1" xmlns:xlink="http://www.w3.org/1999/xlink" width="16px" height="12px" xmlns="http://www.w3.org/2000/svg">
  <g transform="matrix(1 0 0 1 -92 -16 )">
    <path d="M 15.7829365141369 6.528174609375  C 13.5063492001488 10.1158730096726  10.910119047619 11.952380952381  8 11.952380952381  C 5.08988095238095 11.952380952381  2.49365079985119 10.1158730096726  0.217063485863095 6.528174609375  C 0.0122196010220612 6.20585020969724  0.0122196010220602 5.79414979030276  0.217063485863095 5.471825390625  C 2.49365079985119 1.88412699032738  5.08988095238095 0.0476190476190476  8 0.0476190476190476  C 10.910119047619 0.0476190476190476  13.5063492001488 1.88412699032738  15.7829365141369 5.471825390625  C 15.9877803989779 5.79414979030276  15.9877803989779 6.20585020969724  15.7829365141369 6.528174609375  Z M 14.6986111049107 6  C 12.6402777715774 2.79781746651786  10.4091269903274 1.23809523809524  8 1.23809523809524  C 5.59087300967262 1.23809523809524  3.35972222842262 2.79781746651786  1.30138889508929 6  C 3.35972222842262 9.20218253348214  5.59087300967262 10.7619047619048  8 10.7619047619048  C 10.4091269903274 10.7619047619048  12.6402777715774 9.20218253348214  14.6986111049107 6  Z M 10.8025793712798 6  C 10.8025793712798 7.53412697172619  9.54781746651786 8.77777777157738  8 8.77777777157738  C 6.45218253348214 8.77777777157738  5.19742062872024 7.53412697172619  5.19742062872024 6  C 5.19742062872024 4.46587302827381  6.45218253348214 3.22222222842262  8 3.22222222842262  C 9.54781746651786 3.22222222842262  10.8025793712798 4.46587302827381  10.8025793712798 6  Z M 6.3984127046131 6  C 6.3984127046131 6.8765872953869  7.11547619047619 7.58730158110119  8 7.58730158110119  C 8.88452380952381 7.58730158110119  9.6015872953869 6.87658729538691  9.6015872953869 6  C 9.6015872953869 5.12341270461309  8.88452380952381 4.41269841889881  8 4.41269841889881  C 7.11547619047619 4.41269841889881  6.3984127046131 5.1234127046131  6.3984127046131 6  Z " fill-rule="nonzero" fill="#000000" stroke="none" fill-opacity="0.4" transform="matrix(1 0 0 1 92 16 )" />
  </g>
</svg>