<?xml version="1.0" encoding="utf-8"?>
<svg version="1.1" xmlns:xlink="http://www.w3.org/1999/xlink" width="16px" height="8px" xmlns="http://www.w3.org/2000/svg">
  <g transform="matrix(1 0 0 1 -92 -18 )">
    <path d="M 14.8223776270604 0.294466406250001  C 15.0609390625 -0.00197627377717239  15.4805194883242 -0.0363636379076065  15.7594405563187 0.216600798233696  C 16.0383616414835 0.469565217391304  16.0711288633242 0.915019769021738  15.8325674278846 1.2110671875  C 15.2810590235934 1.89551269055896  14.6466758294239 2.51038959836737  13.9436563358516 3.04189723165761  L 15.3862137877747 4.5723320142663  C 15.6407592376374 4.85296441915761  15.6335664320055 5.29920947690217  15.3694305631868 5.56996047894022  C 15.2498423037502 5.69616807500601  15.0827683618127 5.76777602494083  14.9078921016484 5.76777602494083  C 14.733015841484 5.76777602494083  14.5659418995465 5.69616807500601  14.4463536401099 5.56996047894022  L 12.778021978022 3.80079050611413  C 12.0226361975333 4.22449929370381  11.2136970867975 4.54708319571006  10.3724275755495 4.76007905910326  L 11.1436563358516 7.00553359375  C 11.2687312671703 7.37193675271739  11.0909090831044 7.77628457880435  10.7460539491758 7.90988141983695  C 10.4007992101648 8.04308299932065  10.0195804258242 7.85454544836956  9.89410588942308 7.48814228940217  L 9.04295703983517 5.002766796875  C 8.34625949119734 5.08013700707286  7.64315536731312 5.08291991241972  6.94585413804945 5.0110671875  L 6.09510489354396 7.48814228940218  C 5.96963037431319 7.85415018682066  5.58841158997253 8.04308299932065  5.24315685096154 7.90988141983696  C 4.89830169986264 7.77667984035326  4.72047953296703 7.37193675271739  4.8459540521978 7.00553359375  L 5.61158841002747 4.78023716032609  C 4.76318391189954 4.57138915723185  3.94658512135505 4.25199509833067  3.18321677541209 3.8304347826087  L 1.54285714285715 5.56956521739131  C 1.42318580750648 5.69594432706166  1.25594342148406 5.76765700301511  1.08088382449049 5.76765700301511  C 0.897759513920913 5.76765700301511  0.723609824961537 5.68920992313714  0.603396600274728 5.55256917459239  C 0.354622296117391 5.27215195791809  0.354622296117391 4.85274923094061  0.603396600274728 4.57233201426631  L 2.01238762019231 3.07747036345109  C 1.3273458394199 2.56603733857269  0.706974017247241 1.97496856157776  0.164635370879124 1.31699604279892  C -0.0719280734890081 1.019367578125  -0.0363636332417554 0.57430828804348  0.243756250000003 0.323320159646741  C 0.516683327609893 0.0790513926630455  0.92227773008242 0.106719361413045  1.16283715659341 0.386166015625001  C 2.87632367788462 2.46442688519022  5.3526473385989 3.65494072690218  7.95484515796704 3.65138340692935  C 10.6301698317308 3.65138340692935  13.115684323489 2.41027668138587  14.8223776270604 0.294466406250001  Z " fill-rule="nonzero" fill="#000000" stroke="none" fill-opacity="0.4" transform="matrix(1 0 0 1 92 18 )" />
  </g>
</svg>