<?xml version="1.0" encoding="utf-8"?>
<svg version="1.1" xmlns:xlink="http://www.w3.org/1999/xlink" width="24px" height="24px" xmlns="http://www.w3.org/2000/svg">
  <g transform="matrix(1 0 0 1 -175 -283 )">
    <path d="M 1.86089341244612 9.39358836206897  L 1.86089341244612 4.28546237823276  C 1.86089341244612 2.94640991339517  2.94640991339517 1.86089341244612  4.28546237796336 1.86089341244612  C 4.28544945726544 1.86089341244612  4.28547529893068 1.86089341244612  4.28546237823276 2  L 19.7145376217672 2  C 19.7145376217672 1.86089341244612  19.7145376220366 1.86089341244612  19.7145376220366 1.86089341244612  C 21.0535900866048 1.86089341244612  22.1391065875539 2.94640991339517  22.1391065875539 4.28546237796336  C 22.1391065875539 4.28546237796336  22.1391065875539 4.28546237823276  22 4.28546237823276  L 22 19.7145376217672  C 22.1391065875539 21.0535900863354  21.0535900866048 22.1391065872845  19.7145376220366 22  L 4.28546237823276 22  C 4.28546237823276 22.1391065872845  4.28546237796336 22.1391065872845  4.28546237796336 22.1391065872845  C 2.94640991339517 22.1391065872845  1.86089341244612 21.0535900863354  1.86089341244612 19.7145376217672  L 1.86089341244612 16.5681083442888  C 1.86089342443427 16.0810347780726  1.46616014746938 15.6863015011078  0.979231973733836 15.6863015011078  C 0.492303799998294 15.6863015011078  0.0975705230334045 16.0810347780726  0.0975705230334045 16.5679629518082  L 0.0975705350215517 19.7145376217672  C 0.0975705350215512 22.0274464208342  1.97255357916582 23.9024294649785  4.28546237796336 23.9024294649785  C 4.28546237796336 23.9024294649785  4.28546237823276 23.9024294649785  4.28546237823276 24  L 19.7145376217672 24  C 19.7145376217672 23.9024294649785  19.7145376220366 23.9024294649785  19.7145376220366 23.9024294649785  C 22.0274464208342 23.9024294649785  23.9024294649785 22.0274464208342  23.9024294649785 19.7145376220366  C 23.9024294649785 19.7145376220366  23.9024294649785 19.7145376217672  24 19.7145376217672  L 24 4.28546237823276  C 23.9024294649785 4.28546237823276  23.9024294649785 4.28546237796336  23.9024294649785 4.28546237796336  C 23.9024294649785 1.97255357916582  22.0274464208342 0.0975705350215512  19.7145376220366 0.0975705350215512  C 19.7145376220366 0.0975705350215512  19.7145376217672 0.0975705350215517  19.7145376217672 0  L 4.28546237823276 0  C 4.28546237823276 0.0975705350215517  4.28546237796336 0.0975705350215512  4.28546237796336 0.0975705350215512  C 1.97255357916582 0.0975705350215512  0.0975705350215512 1.97255357916582  0.0975705350215512 4.28546237796336  L 0.0975705350215517 9.39358836206897  C 0.0975705231681036 9.88066110916477  0.492303800132993 10.2753943861297  0.979231973868535 10.2753943861297  C 1.46616014760408 10.2753943861297  1.86089342456897 9.88066110916477  1.86089342456897 9.39373293542923  Z " fill-rule="nonzero" fill="#165dff" stroke="none" fill-opacity="0.996078431372549" transform="matrix(1 0 0 1 175 283 )" />
  </g>
</svg>