<?xml version="1.0" encoding="utf-8"?>
<svg version="1.1" xmlns:xlink="http://www.w3.org/1999/xlink" width="24px" height="26px" xmlns="http://www.w3.org/2000/svg">
  <g transform="matrix(1 0 0 1 -53 -282 )">
    <path d="M 23.890243902439 3.30539772727273  C 23.890243902439 1.52228338068182  22.4554115853659 0.0738636363636364  20.6890243902439 0.0738636363636364  L 18.4024390243902 0.0738636363636364  L 18.4024390243902 1.92045454545455  L 20.6890243902439 1.92045454545455  C 21.4464557926829 1.92045454545455  22.0609756097561 2.54079367897727  22 3.30539772727273  L 22 22.6946022727273  C 22.0609756097561 23.4592063210227  21.4464557926829 24.0795454545455  20.6890243902439 24  L 3.3109756097561 24  C 2.55354420731707 24.0795454545455  1.9390243902439 23.4592063210227  2 22.6946022727273  L 2 3.30539772727273  C 1.9390243902439 2.54079367897727  2.55354420731707 1.92045454545455  3.3109756097561 1.92045454545455  L 5.59756097560976 1.92045454545455  L 5.59756097560976 0.0738636363636364  L 3.3109756097561 0.0738636363636364  C 1.54458841463415 0.0738636363636364  0.109756097560976 1.52228338068182  0.109756097560976 3.30539772727273  L 0.109756097560976 22.6946022727273  C 0.109756097560976 24.4777166193182  1.54458841463415 25.9261363636364  3.3109756097561 26  L 20.6890243902439 26  C 22.4554115853659 25.9261363636364  23.890243902439 24.4777166193182  23.890243902439 22.6946022727273  L 23.890243902439 3.30539772727273  Z " fill-rule="nonzero" fill="#165dff" stroke="none" fill-opacity="0.996078431372549" transform="matrix(1 0 0 1 53 282 )" />
  </g>
</svg>