<?xml version="1.0" encoding="utf-8"?>
<svg version="1.1" xmlns:xlink="http://www.w3.org/1999/xlink" width="18px" height="10px" xmlns="http://www.w3.org/2000/svg">
  <g transform="matrix(1 0 0 1 -177 -289 )">
    <path d="M 10.3933660223694 6.58721202161815  L 15.033841226532 1.84133717519264  L 12.4383212070007 1.84133717519264  C 11.9417344851956 1.84133718709867  11.539291573915 1.44930756271574  11.539291573915 0.965714513457834  C 11.539291573915 0.482121464199933  11.9417344851956 0.0900918398169958  12.4381729748244 0.0900918398169958  L 16.884413276825 0.0900918517230309  C 17.4429065709641 0.0900918517230309  17.8956548407288 0.531125173868242  17.8956548407288 1.07516734776327  L 17.8956548407288 5.1829321770655  C 17.895654852951 5.66666962296864  17.4932119416704 6.05869924735158  16.9967734520416 6.05869924735158  C 16.5003349624128 6.05869924735158  16.0978920511322 5.66666962296864  16.0978920511322 5.18307657371074  L 16.0978920633545 3.2926817489833  L 11.14505560849 8.35815885086687  C 11.0787631012573 8.42273602686216  11.0787631012573 8.42273602686216  11.005728977417 8.47855696730522  C 10.509290492016 8.84125173811957  9.80501541588885 8.74324433312538  9.43268655020141 8.2596512989619  L 6.7248063432312 4.73745914624358  L 1.6292724609375 9.67597097897046  C 1.4623828489705 9.82964713506883  1.24144077192988 9.91527138161128  1.01178932816732 9.91527138161128  C 0.515350838538503 9.91527138161128  0.112907927257893 9.52324175722835  0.112907927257893 9.03964870797044  C 0.112907927257893 8.81433387657755  0.202069740901214 8.59769058957031  0.361849691436766 8.434775838506  L 6.00682484234619 2.96322871709118  C 6.21736750819828 2.75921665458806  6.50225832544516 2.64469445773578  6.79922568657678 2.64469445773578  C 7.15339356812509 2.64469445773578  7.48683106690758 2.80735919017675  7.69896904971313 3.08362683326199  L 10.3933660223694 6.58721202161815  Z " fill-rule="nonzero" fill="#165dff" stroke="none" fill-opacity="0.6" transform="matrix(1 0 0 1 177 289 )" />
  </g>
</svg>