<?xml version="1.0" encoding="utf-8"?>
<svg version="1.1" xmlns:xlink="http://www.w3.org/1999/xlink" width="35px" height="25px" xmlns="http://www.w3.org/2000/svg">
  <g transform="matrix(1 0 0 1 -480 -149 )">
    <path d="M 19.1573319755601 23.6827956989247  C 18.2900543109301 24.5609318996416  17.7376103190767 25  17.5 25  C 17.2623896809233 25  16.7099456890699 24.5609318996416  15.8426680244399 23.6827956989247  C 14.9753903598099 22.8046594982079  14.5417515274949 22.2461170848268  14.5417515274949 22.0071684587814  C 14.5417515274949 21.6248506571087  14.9130176510523 21.3022700119474  15.655549898167 21.0394265232975  C 16.3980821452817 20.7765830346476  17.0128988458927 20.6451612903226  17.5 20.6451612903226  C 17.9871011541073 20.6451612903226  18.6019178547183 20.7765830346476  19.344450101833 21.0394265232975  C 20.0869823489477 21.3022700119474  20.4582484725051 21.6248506571087  20.4582484725051 22.0071684587814  C 20.4582484725051 22.2461170848268  20.0246096401901 22.8046594982079  19.1573319755601 23.6827956989247  Z M 23.9778513238289 18.7992831541219  C 23.0808723693143 19.6953405017921  22.5254582484725 20.1433691756272  22.3116089613035 20.1433691756272  C 22.2878479293958 20.1433691756272  22.0502376103191 19.9940262843489  21.5987780040733 19.6953405017921  C 21.1473183978276 19.3966547192354  20.5443822131704 19.0979689366786  19.7899694501018 18.7992831541219  C 19.0355566870333 18.5005973715651  18.2722335369993 18.3512544802867  17.5 18.3512544802867  C 16.7277664630007 18.3512544802867  15.9644433129667 18.5005973715651  15.2100305498982 18.7992831541219  C 14.4556177868296 19.0979689366786  13.8556517311609 19.3966547192354  13.4101323828921 19.6953405017921  C 12.9646130346232 19.9940262843489  12.724032586558 20.1433691756272  12.6883910386965 20.1433691756272  C 12.4745417515275 20.1433691756272  11.9191276306857 19.6953405017921  11.0221486761711 18.7992831541219  C 10.1251697216565 17.9032258064516  9.67668024439918 17.3476702508961  9.67668024439918 17.1326164874552  C 9.67668024439918 16.9772998805257  9.73608282416837 16.8399044205496  9.85488798370672 16.7204301075269  C 10.7815682281059 15.8004778972521  11.9458587915818 15.0776583034648  13.3477596741344 14.5519713261649  C 14.749660556687 14.026284348865  16.1337406653089 13.7634408602151  17.5 13.7634408602151  C 18.8662593346911 13.7634408602151  20.250339443313 14.026284348865  21.6522403258656 14.5519713261649  C 23.0541412084182 15.0776583034648  24.2184317718941 15.8004778972521  25.1451120162933 16.7204301075269  C 25.2639171758316 16.8399044205496  25.3233197556008 16.9772998805257  25.3233197556008 17.1326164874552  C 25.3233197556008 17.3476702508961  24.8748302783435 17.9032258064516  23.9778513238289 18.7992831541219  Z M 28.8161914460285 13.9247311827957  C 27.9251527494908 14.820788530466  27.3786490156144 15.2688172043011  27.1766802443992 15.2688172043011  C 27.045994568907 15.2688172043011  26.9093686354379 15.221027479092  26.7668024439919 15.1254480286738  C 25.1510522742702 13.8709677419355  23.6541072640869 12.9480286738351  22.275967413442 12.3566308243728  C 20.897827562797 11.7652329749104  19.305838424983 11.4695340501792  17.5 11.4695340501792  C 16.490156143924 11.4695340501792  15.4773421588595 11.6009557945042  14.4615580448065 11.8637992831541  C 13.4457739307536 12.1266427718041  12.5606754921928 12.4432497013142  11.8062627291242 12.8136200716846  C 11.0518499660557 13.183990442055  10.3776306856755 13.5543608124253  9.78360488798371 13.9247311827957  C 9.18957909029192 14.2951015531661  8.72029871011541 14.6117084826762  8.37576374745417 14.8745519713262  C 8.03122878479294 15.1373954599761  7.84708078750849 15.2688172043011  7.82331975560081 15.2688172043011  C 7.62135098438561 15.2688172043011  7.07484725050916 14.820788530466  6.18380855397149 13.9247311827957  C 5.29276985743381 13.0286738351254  4.84725050916497 12.4731182795699  4.84725050916497 12.258064516129  C 4.84725050916497 12.1146953405018  4.90665308893415 11.9832735961768  5.02545824847251 11.8637992831541  C 6.59368635437882 10.2867383512545  8.49456890699253 9.0621266427718  10.7281059063136 8.18996415770609  C 12.9616429056348 7.31780167264038  15.2189409368635 6.88172043010753  17.5 6.88172043010753  C 19.7810590631365 6.88172043010753  22.0383570943652 7.31780167264038  24.2718940936864 8.18996415770609  C 26.5054310930075 9.0621266427718  28.4063136456212 10.2867383512545  29.9745417515275 11.8637992831541  C 30.0933469110659 11.9832735961768  30.152749490835 12.1146953405018  30.152749490835 12.258064516129  C 30.152749490835 12.4731182795699  29.7072301425662 13.0286738351254  28.8161914460285 13.9247311827957  Z M 33.6545315682281 9.06810035842294  C 32.7575526137135 9.96415770609319  32.2080787508486 10.4121863799283  32.0061099796334 10.4121863799283  C 31.8754243041412 10.4121863799283  31.744738628649 10.3584229390681  31.6140529531568 10.2508960573477  C 29.4874405974202 8.37514934289128  27.2806347589953 6.96236559139785  24.9936354378819 6.01254480286738  C 22.7066361167685 5.06272401433692  20.2087576374745 4.58781362007168  17.5 4.58781362007168  C 14.7912423625255 4.58781362007168  12.2933638832315 5.06272401433692  10.0063645621181 6.01254480286738  C 7.71936524100475 6.96236559139785  5.51255940257977 8.37514934289128  3.38594704684318 10.2508960573477  C 3.25526137135098 10.3584229390681  3.12457569585879 10.4121863799283  2.9938900203666 10.4121863799283  C 2.79192124915139 10.4121863799283  2.24244738628649 9.96415770609319  1.34546843177189 9.06810035842294  C 0.448489477257298 8.17204301075269  0 7.61648745519713  0 7.40143369175627  C 0 7.24611708482676  0.0594025797691786 7.10872162485066  0.178207739307536 6.98924731182796  C 2.39986422267481 4.76702508960573  5.04327902240326 3.04659498207885  8.10845213849287 1.82795698924731  C 11.1736252545825 0.60931899641577  14.3041412084182 0  17.5 0  C 20.6958587915818 0  23.8263747454175 0.60931899641577  26.8915478615071 1.82795698924731  C 29.9567209775967 3.04659498207885  32.6001357773252 4.76702508960573  34.8217922606925 6.98924731182796  C 34.9405974202308 7.10872162485066  35 7.24611708482676  35 7.40143369175627  C 35 7.61648745519713  34.5515105227427 8.17204301075269  33.6545315682281 9.06810035842294  Z " fill-rule="nonzero" fill="#000000" stroke="none" transform="matrix(1 0 0 1 480 149 )" />
  </g>
</svg>