<?xml version="1.0" encoding="utf-8"?>
<svg version="1.1" xmlns:xlink="http://www.w3.org/1999/xlink" width="35px" height="35px" xmlns="http://www.w3.org/2000/svg">
  <g transform="matrix(1 0 0 1 -172 -139 )">
    <path d="M 19.6484375 15.78125  C 20.1171875 15.2994791666667  20.3515625 14.6158854166667  20.3515625 13.73046875  C 20.3515625 12.5846354166667  19.9609375 11.796875  19.1796875 11.3671875  C 18.75 11.1328125  17.98828125 11.015625  16.89453125 11.015625  L 14.4921875 11.015625  L 14.4921875 16.50390625  L 17.65625 16.50390625  C 18.515625 16.50390625  19.1796875 16.2630208333333  19.6484375 15.78125  Z M 21.19140625 18.984375  C 21.26953125 19.1145833333333  21.328125 19.21875  21.3671875 19.296875  L 25.37109375 26.58203125  C 25.4752604166667 26.8033854166667  25.46875 27.0052083333333  25.3515625 27.1875  C 25.2473958333333 27.3958333333333  25.0716145833333 27.5  24.82421875 27.5  L 21.85546875 27.5  C 21.5950520833333 27.5  21.4127604166667 27.3893229166667  21.30859375 27.16796875  L 17.51953125 20.0390625  L 14.4921875 20.0390625  L 14.4921875 26.875  C 14.4921875 27.0572916666667  14.43359375 27.20703125  14.31640625 27.32421875  C 14.19921875 27.44140625  14.0494791666667 27.5  13.8671875 27.5  L 11.25 27.5  C 11.0677083333333 27.5  10.91796875 27.44140625  10.80078125 27.32421875  C 10.68359375 27.20703125  10.625 27.0572916666667  11 26.875  L 11 8.125  C 10.625 7.94270833333333  10.68359375 7.79296875  10.80078125 7.67578125  C 10.91796875 7.55859375  11.0677083333333 7.5  11.25 7.5  L 16.9921875 7.5  C 18.6588541666667 7.5  19.8958333333333 7.65625  20.703125 7.96875  C 21.8098958333333 8.37239583333333  22.6822916666667 9.08203125  23.3203125 10.09765625  C 23.9583333333333 11.11328125  24.27734375 12.28515625  24.27734375 13.61328125  C 24.27734375 14.8111979166667  24.0006510416667 15.888671875  23.447265625 16.845703125  C 22.8938802083333 17.802734375  22.1419270833333 18.515625  21.19140625 18.984375  Z M 23.0859375 4.267578125  C 21.3151041666667 3.505859375  19.453125 3.125  17.5 3.125  C 15.546875 3.125  13.6848958333333 3.505859375  11.9140625 4.267578125  C 10.1432291666667 5.029296875  8.61653645833333 6.05143229166667  7.333984375 7.333984375  C 6.05143229166667 8.61653645833333  5.029296875 10.1432291666667  4.267578125 11.9140625  C 3.505859375 13.6848958333333  3.125 15.546875  3.125 17.5  C 3.125 19.453125  3.505859375 21.3151041666667  4.267578125 23.0859375  C 5.029296875 24.8567708333333  6.05143229166667 26.3834635416667  7.333984375 27.666015625  C 8.61653645833333 28.9485677083333  10.1432291666667 29.970703125  11.9140625 30.732421875  C 13.6848958333333 31.494140625  15.546875 31.875  17.5 31.875  C 19.453125 31.875  21.3151041666667 31.494140625  23.0859375 30.732421875  C 24.8567708333333 29.970703125  26.3834635416667 28.9485677083333  27.666015625 27.666015625  C 28.9485677083333 26.3834635416667  29.970703125 24.8567708333333  30.732421875 23.0859375  C 31.494140625 21.3151041666667  31.875 19.453125  31.875 17.5  C 31.875 15.546875  31.494140625 13.6848958333333  30.732421875 11.9140625  C 29.970703125 10.1432291666667  28.9485677083333 8.61653645833333  27.666015625 7.333984375  C 26.3834635416667 6.05143229166667  24.8567708333333 5.029296875  23.0859375 4.267578125  Z M 33.61328125 10.703125  C 34.5377604166667 12.8645833333333  35 15.1302083333333  35 17.5  C 35 19.8697916666667  34.5377604166667 22.1354166666667  33.61328125 24.296875  C 32.6888020833333 26.4583333333333  31.4453125 28.3203125  29.8828125 29.8828125  C 28.3203125 31.4453125  26.4583333333333 32.6888020833333  24.296875 33.61328125  C 22.1354166666667 34.5377604166667  19.8697916666667 35  17.5 35  C 15.1302083333333 35  12.8645833333333 34.5377604166667  10.703125 33.61328125  C 8.54166666666667 32.6888020833333  6.6796875 31.4453125  5.1171875 29.8828125  C 3.5546875 28.3203125  2.31119791666667 26.4583333333333  1.38671875 24.296875  C 0.462239583333333 22.1354166666667  0 19.8697916666667  0 17.5  C 0 15.1302083333333  0.462239583333333 12.8645833333333  1.38671875 10.703125  C 2.31119791666667 8.54166666666666  3.5546875 6.6796875  5.1171875 5.1171875  C 6.6796875 3.5546875  8.54166666666667 2.31119791666667  10.703125 1.38671875  C 12.8645833333333 0.462239583333333  15.1302083333333 0  17.5 0  C 19.8697916666667 0  22.1354166666667 0.462239583333333  24.296875 1.38671875  C 26.4583333333333 2.31119791666667  28.3203125 3.5546875  29.8828125 5.1171875  C 31.4453125 6.6796875  32.6888020833333 8.54166666666666  33.61328125 10.703125  Z " fill-rule="nonzero" fill="#000000" stroke="none" transform="matrix(1 0 0 1 172 139 )" />
  </g>
</svg>