<?xml version="1.0" encoding="utf-8"?>
<svg version="1.1" xmlns:xlink="http://www.w3.org/1999/xlink" width="337px" height="124px" xmlns="http://www.w3.org/2000/svg">
  <g transform="matrix(1 0 0 1 -172 -1099 )">
    <path d="M 172 1099  L 509 1099  L 509 1223  L 172 1223  L 172 1099  " fill-rule="nonzero" fill="#cccccc" stroke="none" />
    <path d="M 181 1108  L 500 1108  L 500 1214  L 181 1214  L 181 1108  " fill-rule="nonzero" fill="#ffffff" stroke="none" />
    <path d="M 356.54 1136.2  C 351.332 1136.2  347.24 1132.108  347.24 1126.9  C 347.24 1121.692  351.332 1117.6  356.54 1117.6  C 361.748 1117.6  365.84 1121.692  365.84 1126.9  C 365.84 1132.108  361.748 1136.2  356.54 1136.2  " fill-rule="nonzero" fill="#cccccc" stroke="none" />
    <path d="M 184 1211  L 184 1156  L 262.25 1131  L 371.8 1188.92284866469  L 434.4 1146  L 497 1188.92284866469  L 497 1211  L 184 1211  " fill-rule="nonzero" fill="#169bd5" stroke="none" />
  </g>
</svg>