<?xml version="1.0" encoding="utf-8"?>
<svg version="1.1" xmlns:xlink="http://www.w3.org/1999/xlink" width="80px" height="80px" xmlns="http://www.w3.org/2000/svg">
  <g transform="matrix(1 0 0 1 -147 -147 )">
    <path d="M 79.8531159446023 39.9691118607955  C 79.8531159446023 17.9929208096591  62.0381036044034 0.177908469460227  40.061912553267 0.177908469460227  C 18.0857215021307 0.177908469460227  0.270709161931811 17.9929208096591  0.270709161931811 39.9691118607955  C 0.270709161931811 61.9453029119318  18.0857215021307 79.7603152521307  40.061912553267 79.7603152521307  C 62.0381036044034 79.7603152521307  79.8531159446023 61.9453029119318  79.8531159446023 39.9691118607955  Z M 64.0279363458807 24.8742553267045  C 65.1062960759943 25.9703302556818  65.1062960759943 27.7464897017045  64.0279363458807 28.8427464488636  L 36.4941496803977 56.9730377308239  C 36.400304243608 57.1138513849432  36.295829634233 57.2483056640625  36.1727312677557 57.3729484197443  C 35.0935538884943 58.4690234375  33.3441036044034 58.4690234375  32.2641993963068 57.3729484197443  L 18.5876539417614 43.4859092684659  C 17.5092941228693 42.3897433416193  17.5092941228693 40.6134931640625  18.5876539417614 39.5189625355114  C 19.6667405007102 38.4227966086648  21.4161906960227 38.4227966086648  22.4953681640625 39.5189625355114  L 34.1771751598011 51.3790123401989  L 60.1194044744318 24.8742553267045  C 61.1993995028409 23.7781803089489  62.9480321377841 23.7781803089489  64.0279363458807 24.8742553267045  Z " fill-rule="nonzero" fill="#165dff" stroke="none" fill-opacity="0.996078431372549" transform="matrix(1 0 0 1 147 147 )" />
  </g>
</svg>