<?xml version="1.0" encoding="utf-8"?>
<svg version="1.1" xmlns:xlink="http://www.w3.org/1999/xlink" width="16px" height="16px" xmlns="http://www.w3.org/2000/svg">
  <g transform="matrix(1 0 0 1 -28 -476 )">
    <path d="M 36 476.5  C 40.2 476.5  43.5 479.8  43.5 484  C 43.5 488.2  40.2 491.5  36 491.5  C 31.8 491.5  28.5 488.2  28.5 484  C 28.5 479.8  31.8 476.5  36 476.5  Z " fill-rule="nonzero" fill="#ffffff" stroke="none" />
    <path d="M 36 476.5  C 40.2 476.5  43.5 479.8  43.5 484  C 43.5 488.2  40.2 491.5  36 491.5  C 31.8 491.5  28.5 488.2  28.5 484  C 28.5 479.8  31.8 476.5  36 476.5  Z " stroke-width="1" stroke="#000000" fill="none" stroke-opacity="0.4" />
  </g>
</svg>