<svg width="204" height="34" viewBox="0 0 204 34" fill="none" xmlns="http://www.w3.org/2000/svg">
<path d="M0 3.71875C0 2.0619 1.34315 0.71875 3 0.71875H34.1563C35.8131 0.71875 37.1562 2.0619 37.1562 3.71875V30.2812C37.1562 31.9381 35.8131 33.2812 34.1563 33.2812H3C1.34314 33.2812 0 31.9381 0 30.2812V3.71875Z" fill="#444C69"/>
<g clip-path="url(#clip0_60_11)">
<path d="M23.96 17.3816C23.96 17.4016 23.9567 17.4183 23.95 17.4316C23.6433 18.7249 22.9967 19.7749 22.01 20.5816C21.0233 21.3883 19.8667 21.7916 18.54 21.7916C17.8333 21.7916 17.15 21.6583 16.49 21.3916C15.83 21.1249 15.2433 20.7449 14.73 20.2516L13.79 21.1916C13.6967 21.2783 13.5867 21.3216 13.46 21.3216C13.34 21.3216 13.2333 21.2783 13.14 21.1916C13.0467 21.0983 13 20.9883 13 20.8616V17.6116C13 17.4849 13.0467 17.3749 13.14 17.2816C13.2333 17.1949 13.34 17.1516 13.46 17.1516H16.71C16.8367 17.1516 16.9467 17.1949 17.04 17.2816C17.1333 17.3749 17.18 17.4849 17.18 17.6116C17.18 17.7383 17.1333 17.8483 17.04 17.9416L16.05 18.9316C16.39 19.2516 16.7767 19.4983 17.21 19.6716C17.65 19.8449 18.1033 19.9316 18.57 19.9316C19.2167 19.9316 19.8233 19.7749 20.39 19.4616C20.95 19.1483 21.3967 18.7149 21.73 18.1616C21.7833 18.0816 21.9133 17.7983 22.12 17.3116C22.16 17.2049 22.2333 17.1516 22.34 17.1516H23.73C23.79 17.1516 23.8433 17.1716 23.89 17.2116C23.9367 17.2583 23.96 17.3149 23.96 17.3816ZM24.14 11.5716V14.8216C24.14 14.9483 24.0967 15.0583 24.01 15.1516C23.9167 15.2449 23.8067 15.2916 23.68 15.2916H20.43C20.3033 15.2916 20.1933 15.2449 20.1 15.1516C20.0067 15.0583 19.96 14.9483 19.96 14.8216C19.96 14.7016 20.0067 14.5949 20.1 14.5016L21.1 13.5016C20.3867 12.8349 19.5433 12.5016 18.57 12.5016C17.9233 12.5016 17.32 12.6583 16.76 12.9716C16.2 13.2916 15.75 13.7249 15.41 14.2716C15.3567 14.3583 15.2267 14.6416 15.02 15.1216C14.9867 15.2349 14.9167 15.2916 14.81 15.2916H13.36C13.3 15.2916 13.2467 15.2683 13.2 15.2216C13.1533 15.1749 13.13 15.1216 13.13 15.0616V15.0116C13.4433 13.7116 14.0967 12.6583 15.09 11.8516C16.0833 11.0516 17.2433 10.6516 18.57 10.6516C19.2767 10.6516 19.9633 10.7849 20.63 11.0516C21.2967 11.3183 21.89 11.6949 22.41 12.1816L23.35 11.2516C23.4433 11.1583 23.5533 11.1116 23.68 11.1116C23.8067 11.1116 23.9167 11.1583 24.01 11.2516C24.0967 11.3449 24.14 11.4516 24.14 11.5716Z" fill="white"/>
</g>
<path d="M44.0469 0.5H200.016C201.396 0.5 202.516 1.61929 202.516 3V30.9844C202.516 32.3651 201.396 33.4844 200.016 33.4844H44.0469C42.6662 33.4844 41.5469 32.3651 41.5469 30.9844V3C41.5469 1.70566 42.5305 0.640824 43.791 0.512695L44.0469 0.5Z" fill="#F4F4F4"/>
<path d="M44.0469 0.5H200.016C201.396 0.5 202.516 1.61929 202.516 3V30.9844C202.516 32.3651 201.396 33.4844 200.016 33.4844H44.0469C42.6662 33.4844 41.5469 32.3651 41.5469 30.9844V3C41.5469 1.70566 42.5305 0.640824 43.791 0.512695L44.0469 0.5Z" stroke="#DDDDDD"/>
<g clip-path="url(#clip1_60_11)">
<path d="M61.686 18.26C61.686 19.0533 61.426 19.74 60.906 20.32C60.3927 20.8933 59.7194 21.2467 58.886 21.38V22.75C58.886 22.8233 58.8627 22.8833 58.816 22.93C58.7694 22.9767 58.7094 23 58.636 23H57.586C57.5194 23 57.4594 22.9767 57.406 22.93C57.3594 22.8767 57.336 22.8167 57.336 22.75V21.38C56.9894 21.3333 56.656 21.2533 56.336 21.14C56.016 21.0267 55.7527 20.91 55.546 20.79C55.3394 20.6767 55.146 20.5533 54.966 20.42C54.7927 20.2867 54.6727 20.1867 54.606 20.12C54.5394 20.06 54.4927 20.0133 54.466 19.98C54.3794 19.8733 54.376 19.7667 54.456 19.66L55.256 18.61C55.296 18.5567 55.356 18.5267 55.436 18.52C55.516 18.5067 55.5794 18.53 55.626 18.59C55.626 18.59 55.6294 18.5933 55.636 18.6C56.2294 19.1133 56.8627 19.44 57.536 19.58C57.7294 19.62 57.9227 19.64 58.116 19.64C58.536 19.64 58.906 19.5267 59.226 19.3C59.546 19.08 59.706 18.7633 59.706 18.35C59.706 18.2033 59.6694 18.0667 59.596 17.94C59.516 17.8067 59.4294 17.6967 59.336 17.61C59.236 17.5233 59.0827 17.4267 58.876 17.32C58.6694 17.2133 58.496 17.13 58.356 17.07C58.2227 17.01 58.016 16.9233 57.736 16.81C57.5294 16.73 57.3694 16.6667 57.256 16.62C57.136 16.5733 56.976 16.5033 56.776 16.41C56.5694 16.3167 56.406 16.2367 56.286 16.17C56.1594 16.0967 56.0127 16.0033 55.846 15.89C55.6727 15.7767 55.5327 15.6667 55.426 15.56C55.3194 15.4533 55.206 15.3267 55.086 15.18C54.966 15.0267 54.8727 14.8733 54.806 14.72C54.7394 14.5667 54.686 14.3933 54.646 14.2C54.5994 14.0067 54.576 13.8033 54.576 13.59C54.576 12.8767 54.8327 12.2467 55.346 11.7C55.8527 11.16 56.516 10.8133 57.336 10.66V9.25C57.336 9.18333 57.3594 9.12333 57.406 9.07C57.4594 9.02333 57.5194 9 57.586 9H58.636C58.7094 9 58.7694 9.02333 58.816 9.07C58.8627 9.11667 58.886 9.17667 58.886 9.25V10.62C59.186 10.6533 59.476 10.7133 59.756 10.8C60.036 10.8933 60.2627 10.9833 60.436 11.07C60.6094 11.1567 60.7727 11.2533 60.926 11.36C61.086 11.4667 61.1894 11.5433 61.236 11.59C61.2827 11.63 61.3194 11.6667 61.346 11.7C61.4394 11.7933 61.4527 11.89 61.386 11.99L60.756 13.13C60.716 13.21 60.656 13.2533 60.576 13.26C60.5027 13.2733 60.4327 13.2533 60.366 13.2C60.3527 13.1867 60.316 13.1567 60.256 13.11C60.196 13.0633 60.0927 12.9933 59.946 12.9C59.806 12.8133 59.656 12.73 59.496 12.65C59.3294 12.5767 59.1327 12.51 58.906 12.45C58.6794 12.39 58.4594 12.36 58.246 12.36C57.746 12.36 57.3394 12.4733 57.026 12.7C56.7194 12.92 56.566 13.2067 56.566 13.56C56.566 13.7 56.586 13.8267 56.626 13.94C56.6727 14.0533 56.7494 14.16 56.856 14.26C56.9694 14.36 57.0727 14.4467 57.166 14.52C57.266 14.5867 57.4127 14.6667 57.606 14.76C57.7994 14.8533 57.956 14.9233 58.076 14.97C58.196 15.0233 58.3794 15.0967 58.626 15.19C58.8994 15.29 59.1094 15.37 59.256 15.43C59.4027 15.49 59.5994 15.5833 59.846 15.71C60.0994 15.83 60.296 15.94 60.436 16.04C60.5827 16.14 60.746 16.27 60.926 16.43C61.106 16.59 61.2427 16.7567 61.336 16.93C61.436 17.0967 61.5194 17.2933 61.586 17.52C61.6527 17.7533 61.686 18 61.686 18.26Z" fill="#1E90FF"/>
</g>
<path d="M76.5635 18.004L77.3615 17.542C77.6415 17.85 77.9122 18.186 78.1735 18.55C78.4442 18.914 78.6822 19.2733 78.8875 19.628C79.1022 19.9827 79.2562 20.3093 79.3495 20.608L78.4955 21.14C78.3928 20.8507 78.2388 20.524 78.0335 20.16C77.8375 19.796 77.6088 19.4273 77.3475 19.054C77.0955 18.6807 76.8342 18.3307 76.5635 18.004ZM71.7055 17.234L72.4475 16.646C72.7648 16.842 73.0822 17.0753 73.3995 17.346C73.7262 17.6073 74.0295 17.8733 74.3095 18.144C74.5988 18.4053 74.8275 18.648 74.9955 18.872L74.2115 19.544C74.0435 19.3107 73.8195 19.0587 73.5395 18.788C73.2688 18.508 72.9702 18.2327 72.6435 17.962C72.3262 17.682 72.0135 17.4393 71.7055 17.234ZM69.8715 17.626H70.9775V20.51C70.9775 20.7153 71.0382 20.8507 71.1595 20.916C71.2902 20.9813 71.5795 21.014 72.0275 21.014C72.1115 21.014 72.2468 21.014 72.4335 21.014C72.6295 21.014 72.8535 21.014 73.1055 21.014C73.3575 21.014 73.6095 21.014 73.8615 21.014C74.1135 21.014 74.3468 21.014 74.5615 21.014C74.7762 21.014 74.9348 21.014 75.0375 21.014C75.2708 21.014 75.4435 20.9813 75.5555 20.916C75.6768 20.8507 75.7608 20.7153 75.8075 20.51C75.8542 20.3047 75.8915 19.9967 75.9195 19.586C75.9942 19.642 76.0922 19.6933 76.2135 19.74C76.3348 19.7867 76.4562 19.8333 76.5775 19.88C76.6988 19.9173 76.8108 19.9453 76.9135 19.964C76.8575 20.496 76.7735 20.9067 76.6615 21.196C76.5495 21.4947 76.3722 21.6953 76.1295 21.798C75.8868 21.91 75.5508 21.966 75.1215 21.966C75.0468 21.966 74.9022 21.966 74.6875 21.966C74.4822 21.966 74.2395 21.966 73.9595 21.966C73.6795 21.966 73.3995 21.966 73.1195 21.966C72.8395 21.966 72.5922 21.966 72.3775 21.966C72.1722 21.966 72.0368 21.966 71.9715 21.966C71.4208 21.966 70.9915 21.924 70.6835 21.84C70.3848 21.756 70.1748 21.6067 70.0535 21.392C69.9322 21.1867 69.8715 20.8973 69.8715 20.524V17.626ZM67.8555 17.85L68.8495 18.032C68.7282 18.6013 68.5508 19.1893 68.3175 19.796C68.0935 20.4027 67.8228 20.916 67.5055 21.336L66.5395 20.874C66.7355 20.6407 66.9175 20.356 67.0855 20.02C67.2535 19.684 67.4028 19.3293 67.5335 18.956C67.6642 18.5733 67.7715 18.2047 67.8555 17.85ZM69.5355 9.716L70.4315 9.296C70.7488 9.66 71.0475 10.0613 71.3275 10.5C71.6075 10.9293 71.8128 11.312 71.9435 11.648L70.9775 12.138C70.9028 11.914 70.7908 11.662 70.6415 11.382C70.4922 11.102 70.3195 10.8173 70.1235 10.528C69.9368 10.2293 69.7408 9.95867 69.5355 9.716ZM75.5135 9.254L76.5915 9.688C76.2835 10.22 75.9615 10.7613 75.6255 11.312C75.2895 11.8627 74.9675 12.3387 74.6595 12.74L73.8055 12.32C74.0015 12.0493 74.2022 11.7367 74.4075 11.382C74.6222 11.018 74.8275 10.6493 75.0235 10.276C75.2195 9.90267 75.3828 9.562 75.5135 9.254ZM69.6475 13.062V15.526H76.2555V13.062H69.6475ZM68.5415 12.068H77.4175V16.534H68.5415V12.068ZM86.8815 10.248C86.4988 10.7987 86.0042 11.3727 85.3975 11.97C84.8002 12.558 84.1328 13.1227 83.3955 13.664C82.6675 14.2053 81.9068 14.686 81.1135 15.106C81.0668 15.022 81.0062 14.9287 80.9315 14.826C80.8568 14.7233 80.7775 14.6253 80.6935 14.532C80.6188 14.4293 80.5395 14.3407 80.4555 14.266C81.2675 13.8647 82.0468 13.384 82.7935 12.824C83.5495 12.2547 84.2308 11.6573 84.8375 11.032C85.4442 10.4067 85.9295 9.80467 86.2935 9.226H87.3575C87.7308 9.72067 88.1555 10.2107 88.6315 10.696C89.1075 11.1813 89.6115 11.6387 90.1435 12.068C90.6848 12.488 91.2355 12.8707 91.7955 13.216C92.3648 13.5613 92.9248 13.8553 93.4755 14.098C93.3448 14.2287 93.2188 14.378 93.0975 14.546C92.9762 14.714 92.8688 14.8773 92.7755 15.036C92.2435 14.756 91.6975 14.434 91.1375 14.07C90.5775 13.6967 90.0315 13.3 89.4995 12.88C88.9768 12.4507 88.4915 12.0167 88.0435 11.578C87.5955 11.13 87.2082 10.6867 86.8815 10.248ZM83.4235 13.51H90.4375V14.448H83.4235V13.51ZM81.6035 16.324H92.2575V17.248H81.6035V16.324ZM80.9595 20.748H92.9295V21.672H80.9595V20.748ZM86.3215 13.874H87.4275V21.224H86.3215V13.874ZM82.7655 17.962L83.6195 17.626C83.8155 17.878 84.0022 18.158 84.1795 18.466C84.3662 18.7647 84.5295 19.0633 84.6695 19.362C84.8095 19.6513 84.9075 19.9127 84.9635 20.146L84.0535 20.538C83.9975 20.3047 83.9042 20.0387 83.7735 19.74C83.6428 19.4413 83.4888 19.138 83.3115 18.83C83.1342 18.522 82.9522 18.2327 82.7655 17.962ZM90.1015 17.598L91.0955 17.99C90.8248 18.4287 90.5355 18.886 90.2275 19.362C89.9288 19.8287 89.6442 20.2207 89.3735 20.538L88.5895 20.202C88.7575 19.9687 88.9348 19.7027 89.1215 19.404C89.3082 19.096 89.4855 18.7833 89.6535 18.466C89.8308 18.1487 89.9802 17.8593 90.1015 17.598ZM101.148 10.08H107.28V11.004H101.148V10.08ZM103.836 10.612L104.746 10.836C104.615 11.2 104.48 11.5687 104.34 11.942C104.2 12.3153 104.064 12.6373 103.934 12.908L103.122 12.684C103.206 12.4973 103.29 12.2827 103.374 12.04C103.467 11.788 103.556 11.536 103.64 11.284C103.724 11.032 103.789 10.808 103.836 10.612ZM101.372 12.46H106.762V19.04H105.838V13.314H102.268V19.068H101.372V12.46ZM103.64 14.098H104.564C104.545 15.2553 104.494 16.2727 104.41 17.15C104.335 18.0273 104.176 18.788 103.934 19.432C103.691 20.0667 103.327 20.608 102.842 21.056C102.366 21.504 101.712 21.8773 100.882 22.176C100.835 22.064 100.756 21.9333 100.644 21.784C100.541 21.6347 100.443 21.518 100.35 21.434C101.106 21.1633 101.703 20.832 102.142 20.44C102.58 20.048 102.902 19.5673 103.108 18.998C103.322 18.4193 103.462 17.7287 103.528 16.926C103.593 16.1233 103.63 15.1807 103.64 14.098ZM104.27 19.824L104.83 19.18C105.138 19.3947 105.464 19.6327 105.81 19.894C106.155 20.1553 106.482 20.412 106.79 20.664C107.098 20.916 107.35 21.14 107.546 21.336L106.958 22.078C106.762 21.8727 106.51 21.6347 106.202 21.364C105.903 21.1027 105.581 20.8367 105.236 20.566C104.9 20.2953 104.578 20.048 104.27 19.824ZM94.7915 10.584H100.896V12.698H99.9435V11.452H95.7155V12.698H94.7915V10.584ZM95.7015 17.738H100.084V21.994H99.1035V18.592H96.6535V22.022H95.7015V17.738ZM96.0655 20.706H99.5375V21.56H96.0655V20.706ZM96.9195 11.914L97.8715 12.082C97.5915 12.67 97.2322 13.258 96.7935 13.846C96.3548 14.434 95.7948 14.966 95.1135 15.442C95.0762 15.3767 95.0202 15.302 94.9455 15.218C94.8708 15.1247 94.7962 15.0407 94.7215 14.966C94.6468 14.882 94.5722 14.8213 94.4975 14.784C95.1042 14.3827 95.6082 13.9207 96.0095 13.398C96.4202 12.8753 96.7235 12.3807 96.9195 11.914ZM97.0455 12.894H99.5795V13.72H96.6395L97.0455 12.894ZM99.3835 12.894H99.5935L99.7895 12.852L100.364 13.23C100.018 13.9953 99.5562 14.6813 98.9775 15.288C98.4082 15.8947 97.7735 16.422 97.0735 16.87C96.3735 17.318 95.6548 17.682 94.9175 17.962C94.8895 17.8687 94.8475 17.7613 94.7915 17.64C94.7448 17.5187 94.6935 17.402 94.6375 17.29C94.5908 17.178 94.5395 17.0893 94.4835 17.024C95.1742 16.7907 95.8415 16.4873 96.4855 16.114C97.1295 15.7313 97.7035 15.2833 98.2075 14.77C98.7208 14.2567 99.1128 13.692 99.3835 13.076V12.894ZM96.9335 9.506L97.8855 9.282C98.0348 9.534 98.1888 9.80933 98.3475 10.108C98.5155 10.4067 98.6462 10.6633 98.7395 10.878L97.7315 11.158C97.6568 10.9433 97.5402 10.682 97.3815 10.374C97.2322 10.0567 97.0828 9.76733 96.9335 9.506ZM96.0235 15.176L96.6955 14.546C97.0408 14.714 97.4095 14.9007 97.8015 15.106C98.1935 15.3113 98.5808 15.5213 98.9635 15.736C99.3555 15.9413 99.7242 16.1467 100.07 16.352C100.415 16.548 100.709 16.73 100.952 16.898L100.238 17.626C100.004 17.4673 99.7195 17.2853 99.3835 17.08C99.0568 16.8653 98.6975 16.6507 98.3055 16.436C97.9228 16.212 97.5308 15.9927 97.1295 15.778C96.7375 15.554 96.3688 15.3533 96.0235 15.176ZM114.938 13.384C114.658 13.384 114.41 13.2907 114.196 13.104C113.981 12.908 113.874 12.6513 113.874 12.334C113.874 12.0167 113.981 11.7647 114.196 11.578C114.41 11.382 114.658 11.284 114.938 11.284C115.218 11.284 115.465 11.382 115.68 11.578C115.894 11.7647 116.002 12.0167 116.002 12.334C116.002 12.6513 115.894 12.908 115.68 13.104C115.465 13.2907 115.218 13.384 114.938 13.384ZM114.938 20.244C114.658 20.244 114.41 20.1507 114.196 19.964C113.981 19.768 113.874 19.5113 113.874 19.194C113.874 18.8673 113.981 18.6107 114.196 18.424C114.41 18.228 114.658 18.13 114.938 18.13C115.218 18.13 115.465 18.228 115.68 18.424C115.894 18.6107 116.002 18.8673 116.002 19.194C116.002 19.5113 115.894 19.768 115.68 19.964C115.465 20.1507 115.218 20.244 114.938 20.244Z" fill="#1E90FF"/>
<path d="M121.938 10.5312C121.938 9.0815 123.113 7.90625 124.562 7.90625H187.391C188.84 7.90625 190.016 9.0815 190.016 10.5312V22.5156C190.016 23.9654 188.84 25.1406 187.391 25.1406H124.563C123.113 25.1406 121.938 23.9654 121.938 22.5156V10.5312Z" fill="#F39C12"/>
<path d="M129.914 16.228H131.321V15.1465C131.321 14.9295 131.328 14.681 131.342 14.401C131.363 14.114 131.377 13.8655 131.384 13.6555H131.342C131.258 13.8375 131.171 14.023 131.08 14.212C130.989 14.401 130.894 14.59 130.796 14.779L129.914 16.228ZM131.321 19V17.404H128.434V16.3435L130.87 12.3325H132.76V16.228H133.526V17.404H132.76V19H131.321ZM134.17 19V18.118C134.737 17.579 135.238 17.0925 135.672 16.6585C136.113 16.2175 136.456 15.815 136.701 15.451C136.946 15.08 137.068 14.737 137.068 14.422C137.068 14.093 136.981 13.8445 136.806 13.6765C136.638 13.5015 136.41 13.414 136.123 13.414C135.885 13.414 135.668 13.484 135.472 13.624C135.283 13.757 135.105 13.9145 134.937 14.0965L134.097 13.267C134.426 12.917 134.762 12.6545 135.105 12.4795C135.448 12.2975 135.857 12.2065 136.333 12.2065C136.774 12.2065 137.159 12.294 137.488 12.469C137.817 12.644 138.073 12.8925 138.255 13.2145C138.444 13.5295 138.538 13.9005 138.538 14.3275C138.538 14.6985 138.433 15.08 138.223 15.472C138.02 15.857 137.758 16.2455 137.436 16.6375C137.114 17.0225 136.771 17.404 136.407 17.782C136.575 17.761 136.764 17.7435 136.974 17.7295C137.184 17.7085 137.366 17.698 137.52 17.698H138.864V19H134.17ZM142.101 19.126C141.387 19.126 140.81 18.8285 140.369 18.2335C139.935 17.6385 139.718 16.774 139.718 15.64C139.718 14.506 139.935 13.652 140.369 13.078C140.81 12.497 141.387 12.2065 142.101 12.2065C142.815 12.2065 143.389 12.497 143.823 13.078C144.264 13.652 144.485 14.506 144.485 15.64C144.485 16.774 144.264 17.6385 143.823 18.2335C143.389 18.8285 142.815 19.126 142.101 19.126ZM142.101 17.929C142.276 17.929 142.434 17.866 142.574 17.74C142.714 17.607 142.822 17.376 142.899 17.047C142.983 16.718 143.025 16.249 143.025 15.64C143.025 15.031 142.983 14.5655 142.899 14.2435C142.822 13.9215 142.714 13.701 142.574 13.582C142.434 13.463 142.276 13.4035 142.101 13.4035C141.933 13.4035 141.779 13.463 141.639 13.582C141.499 13.701 141.387 13.9215 141.303 14.2435C141.219 14.5655 141.177 15.031 141.177 15.64C141.177 16.249 141.219 16.718 141.303 17.047C141.387 17.376 141.499 17.607 141.639 17.74C141.779 17.866 141.933 17.929 142.101 17.929ZM146.556 16.228H147.963V15.1465C147.963 14.9295 147.97 14.681 147.984 14.401C148.005 14.114 148.019 13.8655 148.026 13.6555H147.984C147.9 13.8375 147.813 14.023 147.722 14.212C147.631 14.401 147.536 14.59 147.438 14.779L146.556 16.228ZM147.963 19V17.404H145.076V16.3435L147.512 12.3325H149.402V16.228H150.168V17.404H149.402V19H147.963ZM152.104 16.228H153.511V15.1465C153.511 14.9295 153.518 14.681 153.532 14.401C153.553 14.114 153.567 13.8655 153.574 13.6555H153.532C153.448 13.8375 153.36 14.023 153.269 14.212C153.178 14.401 153.084 14.59 152.986 14.779L152.104 16.228ZM153.511 19V17.404H150.623V16.3435L153.059 12.3325H154.949V16.228H155.716V17.404H154.949V19H153.511ZM157.641 19C157.683 18.258 157.763 17.593 157.882 17.005C158.001 16.417 158.183 15.8535 158.428 15.3145C158.673 14.7755 159.006 14.2155 159.426 13.6345H156.433V12.3325H161.074V13.2775C160.689 13.7465 160.378 14.1875 160.14 14.6005C159.909 15.0135 159.727 15.437 159.594 15.871C159.468 16.298 159.377 16.7635 159.321 17.2675C159.265 17.7715 159.223 18.349 159.195 19H157.641ZM164.406 15.9235C164.231 15.9235 164.053 15.976 163.871 16.081C163.696 16.179 163.538 16.347 163.398 16.585C163.468 17.11 163.601 17.474 163.797 17.677C163.993 17.873 164.207 17.971 164.438 17.971C164.669 17.971 164.865 17.887 165.026 17.719C165.194 17.544 165.278 17.2675 165.278 16.8895C165.278 16.5395 165.194 16.291 165.026 16.144C164.865 15.997 164.658 15.9235 164.406 15.9235ZM164.469 19.126C164.042 19.126 163.636 19.014 163.251 18.79C162.866 18.559 162.551 18.202 162.306 17.719C162.068 17.229 161.949 16.5955 161.949 15.8185C161.949 14.9855 162.075 14.303 162.327 13.771C162.586 13.239 162.919 12.847 163.325 12.595C163.738 12.336 164.179 12.2065 164.648 12.2065C165.089 12.2065 165.47 12.287 165.792 12.448C166.114 12.602 166.38 12.7875 166.59 13.0045L165.782 13.9285C165.67 13.8025 165.516 13.694 165.32 13.603C165.131 13.505 164.938 13.456 164.742 13.456C164.497 13.456 164.273 13.5225 164.07 13.6555C163.867 13.7815 163.703 13.9985 163.577 14.3065C163.458 14.6075 163.388 15.017 163.367 15.535C163.542 15.311 163.755 15.1395 164.007 15.0205C164.266 14.8945 164.497 14.8315 164.7 14.8315C165.274 14.8315 165.747 14.9995 166.118 15.3355C166.496 15.6645 166.685 16.1825 166.685 16.8895C166.685 17.3515 166.583 17.7505 166.38 18.0865C166.177 18.4155 165.908 18.671 165.572 18.853C165.243 19.035 164.875 19.126 164.469 19.126ZM168.641 19.126C168.375 19.126 168.151 19.035 167.969 18.853C167.794 18.664 167.706 18.433 167.706 18.16C167.706 17.88 167.794 17.649 167.969 17.467C168.151 17.278 168.375 17.1835 168.641 17.1835C168.907 17.1835 169.127 17.278 169.302 17.467C169.484 17.649 169.575 17.88 169.575 18.16C169.575 18.433 169.484 18.664 169.302 18.853C169.127 19.035 168.907 19.126 168.641 19.126ZM171.894 16.228H173.301V15.1465C173.301 14.9295 173.308 14.681 173.322 14.401C173.343 14.114 173.357 13.8655 173.364 13.6555H173.322C173.238 13.8375 173.15 14.023 173.059 14.212C172.968 14.401 172.874 14.59 172.776 14.779L171.894 16.228ZM173.301 19V17.404H170.413V16.3435L172.849 12.3325H174.739V16.228H175.506V17.404H174.739V19H173.301ZM177.441 16.228H178.848V15.1465C178.848 14.9295 178.855 14.681 178.869 14.401C178.89 14.114 178.904 13.8655 178.911 13.6555H178.869C178.785 13.8375 178.698 14.023 178.607 14.212C178.516 14.401 178.421 14.59 178.323 14.779L177.441 16.228ZM178.848 19V17.404H175.961V16.3435L178.397 12.3325H180.287V16.228H181.053V17.404H180.287V19H178.848Z" fill="white"/>
<defs>
<clipPath id="clip0_60_11">
<rect width="11.1429" height="11.1429" fill="white" transform="translate(13 10.6473)"/>
</clipPath>
<clipPath id="clip1_60_11">
<rect width="7.28931" height="14" fill="white" transform="translate(54.3984 9)"/>
</clipPath>
</defs>
</svg>
