<?xml version="1.0" encoding="utf-8"?>
<svg version="1.1" xmlns:xlink="http://www.w3.org/1999/xlink" width="35px" height="28px" xmlns="http://www.w3.org/2000/svg">
  <g transform="matrix(1 0 0 1 -198 -219 )">
    <path d="M 198 219  L 233 219  L 233 247  L 198 247  L 198 219  " fill-rule="nonzero" fill="#cccccc" stroke="none" />
    <path d="M 200 221  L 231 221  L 231 245  L 200 245  L 200 221  " fill-rule="nonzero" fill="#ffffff" stroke="none" />
    <path d="M 218.3 227.4  C 217.124 227.4  216.2 226.476  216.2 225.3  C 216.2 224.124  217.124 223.2  218.3 223.2  C 219.476 223.2  220.4 224.124  220.4 225.3  C 220.4 226.476  219.476 227.4  218.3 227.4  " fill-rule="nonzero" fill="#cccccc" stroke="none" />
    <path d="M 201 245  L 201 232.35  L 208.5 226.6  L 219 233.96  L 225 230.05  L 231 233.96  L 231 245  L 201 245  " fill-rule="nonzero" fill="#169bd5" stroke="none" />
  </g>
</svg>