<?xml version="1.0" encoding="utf-8"?>
<svg version="1.1" xmlns:xlink="http://www.w3.org/1999/xlink" width="24px" height="12px" xmlns="http://www.w3.org/2000/svg">
  <g transform="matrix(1 0 0 1 -336 -16 )">
    <path d="M 23.9973998713235 5.01334588341346  C 23.9973716636029 4.46891499399039  23.6038690257353 4.02669176682692  23.1194257444853 4.02669173677885  L 23.1194257444853 2.05341424278846  C 23.1194257444853 0.963722295673077  22.3332387683824 0.0801367487980761  21.3635056709559 0  L 1.75849196691176 0  C 0.788787077205883 0.0801367487980761  0.00257189338235348 0.963722295673077  0.00257189338235348 2.05341424278846  L 0.00257189338235348 9.94652424879808  C 0.00257189338235348 11.0367081730769  0.788787077205883 11.9198017427885  1.75849196691176 12  L 21.3635338786765 12  C 22.3332669761029 11.9198017728365  23.1194539522059 11.036708203125  23.1194539522059 9.94652424879808  L 23.1194539522059 7.9732467548077  C 23.6038972610294 7.9732467548077  23.9973998713235 7.53188446514423  23.9973998713235 6.98662337740385  L 23.9973998713235 5.01334588341346  Z M 22.2414515900735 9.94652424879808  C 22.2414515900735 10.4918468149038  21.8479489797794 10.9331476262019  21.3634774356618 11  L 1.75849196691176 11  C 1.27323038602941 10.9331476262019  0.880517812500001 10.4918160757212  0.88051784007353 9.94652424879808  L 0.88051784007353 2.05344498197115  C 0.88051784007353 1.50901409254808  1.27323041360294 1.06682160456731  1.75849196691176 1  L 21.3635338786765 1  C 21.8479771875 1.06682160456731  22.2414797977941 1.50907560096154  22.2414797977941 2.05344498197115  L 22.2414797977941 9.94652424879808  Z " fill-rule="nonzero" fill="#000000" stroke="none" fill-opacity="0.898039215686275" transform="matrix(1 0 0 1 336 16 )" />
  </g>
</svg>