<?xml version="1.0" encoding="utf-8"?>
<svg version="1.1" xmlns:xlink="http://www.w3.org/1999/xlink" width="10px" height="6px" xmlns="http://www.w3.org/2000/svg">
  <g transform="matrix(1 0 0 1 -348 -170 )">
    <path d="M 9.86257454211507 0.829566895707831  C 10.0239989522972 0.651952790850903  10.022775196606 0.365968105233433  9.86050529025248 0.190199858810241  C 9.69783488979719 0.0148930628765059  9.43624058360927 0.0157917074548191  9.27523894091473 0.192920048945783  L 5.0347724415356 4.86414897402108  L 0.735098445260762 0.212811469314759  C 0.572428044805464 0.0370675075301202  0.31083373861755 0.0384033179593366  0.149409341370033 0.215531659450301  C -0.0115923013245036 0.393097180911143  -0.0103685456332783 0.679081866528615  0.151901347785596 0.854850127070783  L 4.7218471776697 5.79807417639307  C 4.72887820778146 5.80574901167169  4.73797848975579 5.80757057134789  4.74503176738411 5.81478394201807  C 4.74667827762831 5.81658121705572  4.74710101924669 5.81883994258283  4.74874752949089 5.82066150225904  C 4.82944859788907 5.90785343561747  4.93500302669702 5.95169227692018  5.04013470095199 5.95169227692018  C 5.14651237841473 5.95169227692018  5.2532905499793 5.90695480515813  5.33401387882864 5.81796559676205  L 9.86257454211507 0.829566895707831  Z " fill-rule="nonzero" fill="#000000" stroke="none" fill-opacity="0.4" transform="matrix(1 0 0 1 348 170 )" />
  </g>
</svg>