<?xml version="1.0" encoding="utf-8"?>
<svg version="1.1" xmlns:xlink="http://www.w3.org/1999/xlink" width="16px" height="16px" xmlns="http://www.w3.org/2000/svg">
  <g transform="matrix(1 0 0 1 -284 -56 )">
    <path d="M 15.9792091145833 15.4408477896341  C 15.9791901041667 15.3223330221037  15.9375611979167 15.2073085746951  15.8542081845238 15.1005711699695  L 12.2092128162202 11.4977455983232  L 12.2433801339286 11.4538729039634  C 13.2249241629464 10.2088633574695  13.7655100260417 8.64132128429878  13.7655100260417 7.04088441310975  C 13.7655100260417 3.15908700457317  10.6824955543155 0.000604058689023576  6.89401651785714 0.000604058689023576  C 3.10437637648809 0.000604058689023576  0.0207718191964278 3.15908700457317  0.0207718191964278 7.04088441310975  C 0.0207718191964278 10.9226623285061  3.10437637648809 14.0808527820122  6.89401651785714 14.0808527820122  C 8.55447168898809 14.0808527820122  10.1587363653274 13.4625207888719  11.4111634114583 12.3413687309451  L 11.4522593563988 12.3045936737805  L 15.0885177827381 15.8671538681402  L 15.1249692522321 15.8671538681402  L 15.1255593191964 15.8980012385671  C 15.2175921502976 15.9643757431402  15.3211981026786 15.9993569169207  15.4340358816964 15.9993569169207  C 15.7350127790179 15.9993569169207  15.9792091145833 15.7479761242378  15.9792091145833 15.4408477896341  Z M 12.6733933407738 7.04090392530488  C 12.6733933407738 10.3061047446646  10.0805798363095 12.9621381097561  6.89399748883929 12.9621381097561  C 3.70652049851191 12.9621381097561  1.11374507068452 10.3061047446646  1.11374507068452 7.04090392530488  C 1.11374507068452 3.77599557926829  3.70652049851191 1.12054719893293  6.89399748883929 1.12054719893293  C 10.0805608072917 1.12054719893293  12.6733933407738 3.77599557926829  12.6733933407738 7.04090392530488  Z " fill-rule="nonzero" fill="#000000" stroke="none" fill-opacity="0.6" transform="matrix(1 0 0 1 284 56 )" />
  </g>
</svg>