<?xml version="1.0" encoding="utf-8"?>
<svg version="1.1" xmlns:xlink="http://www.w3.org/1999/xlink" width="16px" height="16px" xmlns="http://www.w3.org/2000/svg">
  <g transform="matrix(1 0 0 1 -316 -56 )">
    <path d="M 15.9593866666667 0.469377483443707  C 15.95976 0.344980132450331  15.90744 0.22558940397351  15.81392 0.137536423841059  C 15.7205066666667 0.0494834437086095  15.5936533333333 0  15.4613333333333 0  L 0.498106666666667 0  C 0.22304 0  0 0.209615894039735  0 0.468238410596027  L 0 1.75827814569536  C 0 1.86876821192053  0.0416000000000001 1.97570860927152  0.117306666666667 2.06015894039735  L 5.81208 8.40784105960265  L 5.78562666666667 15.4315761589404  C 5.78501333333333 15.5990728476821  5.8796 15.7541456953642  6.03368 15.8382251655629  C 6.11098666666667 15.8803973509934  6.19733333333333 15.9014834437086  6.28370666666667 15.9014834437086  C 6.36952 15.9014834437086  6.45538666666667 15.8806357615894  6.53229333333333 15.8389933774834  L 9.91517333333333 14.0072052980132  C 10.0702933333333 13.9232317880795  10.16552 13.7674966887417  10.16464 13.5992317880795  L 10.13848 8.40776158940397  L 15.8385333333333 2.06034437086093  C 15.91416 1.97613245033112  15.95576 1.86961589403973  15.9560266666667 1.75941721854305  L 15.9593866666667 0.469377483443707  Z M 14.9620533333333 1  L 14.9603733333333 1.58654304635762  L 9.25898666666667 7.93539072847682  C 9.18264 8.02045033112583  9.14093333333333 8.12834437086093  9.14146666666667 8.23965562913907  L 9.1672 13.3314966887417  L 6.78488 14.6214834437086  L 6.80888 8.23909933774835  C 6.80930666666667 8.12805298013245  6.76773333333334 8.02047682119206  6.69157333333333 7.9355761589404  L 0.99616 1.58717880794702  L 0.99616 1  L 14.9620533333333 1  Z " fill-rule="nonzero" fill="#000000" stroke="none" fill-opacity="0.6" transform="matrix(1 0 0 1 316 56 )" />
  </g>
</svg>