<?xml version="1.0" encoding="utf-8"?>
<svg version="1.1" xmlns:xlink="http://www.w3.org/1999/xlink" width="16px" height="13px" xmlns="http://www.w3.org/2000/svg">
  <g transform="matrix(1 0 0 1 -16 -13 )">
    <path d="M 15.9495080034722 6.59623474934896  C 15.9495080034722 6.32646764322917  15.7162261805556 6.10490120442708  15.4284746006944 6  L 1.84834859375 6  L 8.07760071180556 0.9139873046875  C 8.29269043402778 0.734758821614583  8.31207284722222 0.426018147786458  8.12087803819444 0.224371533203125  C 7.92970098958333 0.0227748860677079  7.60043090277778 0.00455390624999967  7.38532340277778 0.183799039713541  L 0.232679583333333 6.14419124348958  C 0.121430572916667 6.23686175130208  0.0577937152777778 6.36975498046875  0.0577937152777778 6.50927705078125  C 0.0577937152777778 6.64879912109375  0.121430572916667 6.78169235026042  0.232679583333333 6.87436285807292  L 7.38534119791667 12.8347217285156  C 7.48459835069445 12.917465625  7.60817678819445 12.9581047363281  7.73127553819444 12.9581047363281  C 7.87492925347222 12.9581047363281  8.01797892361111 12.902708968099  8.12089581597222 12.7941325683594  C 8.31207286458333 12.5925192545573  8.29270821180556 12.2837619303385  8.07761848958333 12.1045500976563  L 2.05707819444444 7  L 15.4284746006944 7  C 15.7162261631944 7.08756829427083  15.9495080034722 6.86600185546875  15.9495080034722 6.59623474934896  Z " fill-rule="nonzero" fill="#000000" stroke="none" fill-opacity="0.6" transform="matrix(1 0 0 1 16 13 )" />
  </g>
</svg>