<?xml version="1.0" encoding="utf-8"?>
<svg version="1.1" xmlns:xlink="http://www.w3.org/1999/xlink" width="8px" height="8px" xmlns="http://www.w3.org/2000/svg">
  <g transform="matrix(1 0 0 1 -4 -4 )">
    <path d="M 3.3333333359375 0.6683333359375  L 3.3333333359375 3.3333333359375  L 0.6683333359375 3.3333333359375  C 0.667999892085928 3.33333283610481  0.667666447906664 3.33333258618836  0.667333003680467 3.33333258618836  C 0.299035011133344 3.33333258618836  0.00036751915263357 3.6317021908239  0 4  C 0 4.3706666640625  0.2993333359375 4.6666666640625  0.6683333359375 4.6666666640625  L 3.3333333359375 4.6666666640625  L 3.3333333359375 7.3316666640625  C 3.3333333359375 7.701  3.631666671875 8  4 8  C 4.3706666640625 8  4.6666666640625 7.7006666640625  4.6666666640625 7.3316666640625  L 4.6666666640625 4.6666666640625  L 7.3316666640625 4.6666666640625  C 7.33200010791381 4.66666716389519  7.3323335520936 4.66666741381164  7.33266699631953 4.66666741381164  C 7.70096498886666 4.66666741381164  7.99963248084737 4.3682978091761  8 4  C 8 3.6293333359375  7.7006666640625 3.3333333359375  7.3316666640625 3.3333333359375  L 4.6666666640625 3.3333333359375  L 4.6666666640625 0.6683333359375  C 4.66666716389519 0.667999892086191  4.66666741381164 0.6676664479064  4.66666741381164 0.667333003680467  C 4.66666741381164 0.299035011133343  4.3682978091761 0.000367519152632916  4 0  C 3.6293333359375 0  3.3333333359375 0.2993333359375  3.3333333359375 0.6683333359375  Z " fill-rule="nonzero" fill="#165dff" stroke="none" fill-opacity="0.8" transform="matrix(1 0 0 1 4 4 )" />
  </g>
</svg>