<?xml version="1.0" encoding="utf-8"?>
<svg version="1.1" xmlns:xlink="http://www.w3.org/1999/xlink" width="16px" height="16px" xmlns="http://www.w3.org/2000/svg">
  <g>
    <path d="M 1 3  A 2 2 0 0 1 3 1 L 13 1  A 2 2 0 0 1 15 3 L 15 13  A 2 2 0 0 1 13 15 L 3 15  A 2 2 0 0 1 1 13 L 1 3  Z " fill-rule="nonzero" fill="#ffffff" stroke="none" />
    <path d="M 0.5 3  A 2.5 2.5 0 0 1 3 0.5 L 13 0.5  A 2.5 2.5 0 0 1 15.5 3 L 15.5 13  A 2.5 2.5 0 0 1 13 15.5 L 3 15.5  A 2.5 2.5 0 0 1 0.5 13 L 0.5 3  Z " stroke-width="1" stroke="#000000" fill="none" stroke-opacity="0.4" />
  </g>
</svg>