<?xml version="1.0" encoding="utf-8"?>
<svg version="1.1" xmlns:xlink="http://www.w3.org/1999/xlink" width="11px" height="7px" xmlns="http://www.w3.org/2000/svg">
  <g transform="matrix(1 0 0 1 -3 -5 )">
    <path d="M 9.86413043478261 0.217514120431673  C 10.1219914157131 -0.0297977467385145  10.5319932369265 -0.026499018874736  10.7857789816151 0.224929374668962  C 11.0358973418665 0.475415044154912  11.0358973418665 0.879104722132164  10.7857789816151 1.12959039161811  L 5.03419384447181 6.77507062533104  C 4.92727784773004 6.87978376495522  4.78756585596807 6.94517792919534  4.63813406186311 6.96045198126324  L 4.55095108695652 6.96045198126324  C 4.38598102824279 6.95578160501781  4.22908744230725 6.88855405286061  4.11254528596298 6.77259886619439  L 0.211730068571671 2.953742933991  C -0.0380978654013053 2.70410224534204  -0.0380978654013056 2.30119436482746  0.211730068571671 2.0515536761785  C 0.466446688539332 1.79951274794424  0.878662007112842 1.79951274794424  1.1333786270805 2.0515536761785  L 4.5708786270805 5.40819208653337  L 9.86413043478261 0.217514120431673  Z " fill-rule="nonzero" fill="#000000" stroke="none" fill-opacity="0.4" transform="matrix(1 0 0 1 3 5 )" />
  </g>
</svg>