<?xml version="1.0" encoding="utf-8"?>
<svg version="1.1" xmlns:xlink="http://www.w3.org/1999/xlink" width="15px" height="11px" xmlns="http://www.w3.org/2000/svg">
  <g transform="matrix(1 0 0 1 -316 -16 )">
    <path d="M 15 3.362734375  C 10.8609375 -0.662578125  4.145625 -0.662578125  0 3.362734375  L 1.3640625 4.68875  C 4.7521875 1.393046875  10.2478125 1.393046875  13.6359375 4.68875  L 15 3.362734375  Z M 9.545625 8.666796875  C 8.420625 7.566796875  6.5859375 7.566796875  5.454375 8.666796875  L 7.5 10.65625  L 9.545625 8.666796875  Z M 2.728125 6.015625  L 4.0921875 7.341640625  C 5.97375 5.511171875  9.028125 5.511171875  10.9096875 7.341640625  L 12.2728125 6.015625  C 9.64125 3.45640625  5.36625 3.45640625  2.7271875 6.015625  Z " fill-rule="nonzero" fill="#000000" stroke="none" fill-opacity="0.898039215686275" transform="matrix(1 0 0 1 316 16 )" />
  </g>
</svg>