<svg width="52" height="23" viewBox="0 0 52 23" fill="none" xmlns="http://www.w3.org/2000/svg">
<path d="M0.015625 2.98437C0.015625 1.8798 0.911055 0.984375 2.01562 0.984375H49.3594C50.4639 0.984375 51.3594 1.87981 51.3594 2.98438V20.9844C51.3594 22.0889 50.4639 22.9844 49.3594 22.9844H2.01562C0.911055 22.9844 0.015625 22.0889 0.015625 20.9844V2.98437Z" fill="#444C69"/>
<g clip-path="url(#clip0_51_198)">
<path d="M7.72563 15.1986V16.4886C7.72563 16.542 7.70562 16.592 7.66562 16.6386C7.62562 16.6786 7.57562 16.6986 7.51562 16.6986H6.22562C6.17229 16.6986 6.12229 16.6786 6.07562 16.6386C6.03562 16.592 6.01562 16.542 6.01562 16.4886V15.1986C6.01562 15.1386 6.03562 15.0886 6.07562 15.0486C6.12229 15.0086 6.17229 14.9886 6.22562 14.9886H7.51562C7.57562 14.9886 7.62562 15.0086 7.66562 15.0486C7.70562 15.0886 7.72563 15.1386 7.72563 15.1986ZM7.72563 12.6286V13.9086C7.72563 13.9686 7.70562 14.0186 7.66562 14.0586C7.62562 14.1053 7.57562 14.1286 7.51562 14.1286H6.22562C6.17229 14.1286 6.12229 14.1053 6.07562 14.0586C6.03562 14.0186 6.01562 13.9686 6.01562 13.9086V12.6286C6.01562 12.5686 6.03562 12.5186 6.07562 12.4786C6.12229 12.432 6.17229 12.4086 6.22562 12.4086H7.51562C7.57562 12.4086 7.62562 12.432 7.66562 12.4786C7.70562 12.5186 7.72563 12.5686 7.72563 12.6286ZM7.72563 10.0586V11.3386C7.72563 11.3986 7.70562 11.4486 7.66562 11.4886C7.62562 11.5353 7.57562 11.5586 7.51562 11.5586H6.22562C6.17229 11.5586 6.12229 11.5353 6.07562 11.4886C6.03562 11.4486 6.01562 11.3986 6.01562 11.3386V10.0586C6.01562 9.99865 6.03562 9.94865 6.07562 9.90865C6.12229 9.86198 6.17229 9.83865 6.22562 9.83865H7.51562C7.57562 9.83865 7.62562 9.86198 7.66562 9.90865C7.70562 9.94865 7.72563 9.99865 7.72563 10.0586ZM18.0156 15.1986V16.4886C18.0156 16.542 17.9956 16.592 17.9556 16.6386C17.909 16.6786 17.859 16.6986 17.8056 16.6986H8.80562C8.74562 16.6986 8.69563 16.6786 8.65563 16.6386C8.60896 16.592 8.58562 16.542 8.58562 16.4886V15.1986C8.58562 15.1386 8.60896 15.0886 8.65563 15.0486C8.69563 15.0086 8.74562 14.9886 8.80562 14.9886H17.8056C17.859 14.9886 17.909 15.0086 17.9556 15.0486C17.9956 15.0886 18.0156 15.1386 18.0156 15.1986ZM7.72563 7.48865V8.76865C7.72563 8.82865 7.70562 8.87865 7.66562 8.91865C7.62562 8.96531 7.57562 8.98865 7.51562 8.98865H6.22562C6.17229 8.98865 6.12229 8.96531 6.07562 8.91865C6.03562 8.87865 6.01562 8.82865 6.01562 8.76865V7.48865C6.01562 7.42865 6.03562 7.37865 6.07562 7.33865C6.12229 7.29198 6.17229 7.26865 6.22562 7.26865H7.51562C7.57562 7.26865 7.62562 7.29198 7.66562 7.33865C7.70562 7.37865 7.72563 7.42865 7.72563 7.48865ZM18.0156 12.6286V13.9086C18.0156 13.9686 17.9956 14.0186 17.9556 14.0586C17.909 14.1053 17.859 14.1286 17.8056 14.1286H8.80562C8.74562 14.1286 8.69563 14.1053 8.65563 14.0586C8.60896 14.0186 8.58562 13.9686 8.58562 13.9086V12.6286C8.58562 12.5686 8.60896 12.5186 8.65563 12.4786C8.69563 12.432 8.74562 12.4086 8.80562 12.4086H17.8056C17.859 12.4086 17.909 12.432 17.9556 12.4786C17.9956 12.5186 18.0156 12.5686 18.0156 12.6286ZM18.0156 10.0586V11.3386C18.0156 11.3986 17.9956 11.4486 17.9556 11.4886C17.909 11.5353 17.859 11.5586 17.8056 11.5586H8.80562C8.74562 11.5586 8.69563 11.5353 8.65563 11.4886C8.60896 11.4486 8.58562 11.3986 8.58562 11.3386V10.0586C8.58562 9.99865 8.60896 9.94865 8.65563 9.90865C8.69563 9.86198 8.74562 9.83865 8.80562 9.83865H17.8056C17.859 9.83865 17.909 9.86198 17.9556 9.90865C17.9956 9.94865 18.0156 9.99865 18.0156 10.0586ZM18.0156 7.48865V8.76865C18.0156 8.82865 17.9956 8.87865 17.9556 8.91865C17.909 8.96531 17.859 8.98865 17.8056 8.98865H8.80562C8.74562 8.98865 8.69563 8.96531 8.65563 8.91865C8.60896 8.87865 8.58562 8.82865 8.58562 8.76865V7.48865C8.58562 7.42865 8.60896 7.37865 8.65563 7.33865C8.69563 7.29198 8.74562 7.26865 8.80562 7.26865H17.8056C17.859 7.26865 17.909 7.29198 17.9556 7.33865C17.9956 7.37865 18.0156 7.42865 18.0156 7.48865Z" fill="white"/>
</g>
<path d="M27.882 5.91637H28.794C28.794 6.77237 28.778 7.62837 28.746 8.48438C28.722 9.34037 28.658 10.1764 28.554 10.9924C28.45 11.8084 28.282 12.5844 28.05 13.3204C27.826 14.0484 27.514 14.7204 27.114 15.3364C26.714 15.9524 26.198 16.4884 25.566 16.9444C25.494 16.8404 25.39 16.7284 25.254 16.6084C25.126 16.4884 25.002 16.3924 24.882 16.3204C25.49 15.8884 25.982 15.3844 26.358 14.8084C26.742 14.2324 27.038 13.6004 27.246 12.9124C27.454 12.2164 27.602 11.4844 27.69 10.7164C27.778 9.94837 27.83 9.16037 27.846 8.35237C27.87 7.53637 27.882 6.72437 27.882 5.91637ZM28.686 9.56437C28.718 9.78837 28.77 10.1044 28.842 10.5124C28.914 10.9204 29.022 11.3844 29.166 11.9044C29.31 12.4244 29.502 12.9564 29.742 13.5004C29.99 14.0364 30.302 14.5484 30.678 15.0364C31.054 15.5164 31.506 15.9284 32.034 16.2724C31.914 16.3524 31.794 16.4524 31.674 16.5724C31.554 16.7004 31.454 16.8204 31.374 16.9324C30.822 16.5564 30.354 16.1084 29.97 15.5884C29.586 15.0684 29.27 14.5164 29.022 13.9324C28.774 13.3404 28.574 12.7644 28.422 12.2044C28.27 11.6444 28.154 11.1404 28.074 10.6924C27.994 10.2364 27.93 9.88437 27.882 9.63637L28.686 9.56437ZM22.122 6.68437L22.722 6.13237C22.922 6.30037 23.138 6.48837 23.37 6.69637C23.61 6.90437 23.834 7.10837 24.042 7.30837C24.25 7.50837 24.422 7.68037 24.558 7.82437L23.922 8.48438C23.794 8.33237 23.626 8.15237 23.418 7.94437C23.21 7.72837 22.99 7.51237 22.758 7.29637C22.534 7.07237 22.322 6.86837 22.122 6.68437ZM22.842 16.4644L22.674 15.6244L22.938 15.2404L25.362 13.6204C25.386 13.7404 25.426 13.8764 25.482 14.0284C25.538 14.1724 25.586 14.2884 25.626 14.3764C25.05 14.7764 24.586 15.1004 24.234 15.3484C23.89 15.5964 23.622 15.7924 23.43 15.9364C23.246 16.0804 23.11 16.1884 23.022 16.2604C22.942 16.3404 22.882 16.4084 22.842 16.4644ZM20.982 9.67237H23.598V10.5364H20.982V9.67237ZM22.842 16.4644C22.81 16.4004 22.766 16.3244 22.71 16.2364C22.654 16.1564 22.594 16.0764 22.53 15.9964C22.466 15.9164 22.402 15.8524 22.338 15.8044C22.466 15.7164 22.606 15.5764 22.758 15.3844C22.918 15.1844 22.998 14.9404 22.998 14.6524V9.67237H23.874V15.3124C23.874 15.3124 23.838 15.3404 23.766 15.3964C23.702 15.4524 23.618 15.5244 23.514 15.6124C23.41 15.7004 23.306 15.8004 23.202 15.9124C23.098 16.0164 23.01 16.1164 22.938 16.2124C22.874 16.3084 22.842 16.3924 22.842 16.4644ZM37.938 5.88037L38.814 5.97637C38.734 6.24037 38.654 6.50437 38.574 6.76837C38.494 7.03237 38.422 7.25637 38.358 7.44037L37.638 7.34437C37.694 7.12837 37.75 6.88437 37.806 6.61237C37.87 6.33237 37.914 6.08837 37.938 5.88037ZM37.374 9.19237V10.1884H39.306V9.19237H37.374ZM37.374 7.57237V8.55637H39.306V7.57237H37.374ZM36.642 6.91237H40.062V10.8484H36.642V6.91237ZM36.45 11.8804H40.386V12.6244H36.45V11.8804ZM37.638 13.4644H39.666V14.1484H37.506L37.638 13.4644ZM39.306 13.4644H40.074C40.074 13.4644 40.07 13.5044 40.062 13.5844C40.062 13.6564 40.058 13.7244 40.05 13.7884C40.018 14.3884 39.978 14.8804 39.93 15.2644C39.882 15.6404 39.826 15.9284 39.762 16.1284C39.706 16.3284 39.638 16.4764 39.558 16.5724C39.486 16.6604 39.402 16.7204 39.306 16.7524C39.21 16.7924 39.094 16.8164 38.958 16.8244C38.862 16.8404 38.722 16.8444 38.538 16.8364C38.362 16.8364 38.174 16.8324 37.974 16.8244C37.966 16.7284 37.946 16.6164 37.914 16.4884C37.89 16.3684 37.85 16.2644 37.794 16.1764C37.986 16.1924 38.154 16.2044 38.298 16.2124C38.45 16.2204 38.558 16.2244 38.622 16.2244C38.694 16.2244 38.754 16.2164 38.802 16.2004C38.85 16.1844 38.894 16.1564 38.934 16.1164C38.982 16.0524 39.026 15.9324 39.066 15.7564C39.114 15.5804 39.158 15.3164 39.198 14.9644C39.238 14.6124 39.274 14.1524 39.306 13.5844V13.4644ZM37.422 12.3724H38.19C38.158 13.0924 38.094 13.7444 37.998 14.3284C37.902 14.9044 37.73 15.4124 37.482 15.8524C37.234 16.2924 36.874 16.6604 36.402 16.9564C36.354 16.8684 36.278 16.7684 36.174 16.6564C36.078 16.5444 35.986 16.4564 35.898 16.3924C36.314 16.1364 36.626 15.8204 36.834 15.4444C37.05 15.0604 37.198 14.6124 37.278 14.1004C37.358 13.5884 37.406 13.0124 37.422 12.3724ZM41.262 5.90437L42.03 6.01237C41.95 6.74837 41.842 7.46437 41.706 8.16037C41.578 8.84837 41.414 9.49237 41.214 10.0924C41.022 10.6924 40.786 11.2244 40.506 11.6884C40.474 11.6404 40.422 11.5804 40.35 11.5084C40.278 11.4364 40.202 11.3644 40.122 11.2924C40.042 11.2204 39.974 11.1604 39.918 11.1124C40.174 10.6964 40.386 10.2124 40.554 9.66037C40.73 9.10837 40.874 8.51237 40.986 7.87237C41.098 7.23237 41.19 6.57637 41.262 5.90437ZM41.298 8.38837H43.95V9.20438H41.07L41.298 8.38837ZM41.394 9.21637C41.522 10.2244 41.698 11.1844 41.922 12.0964C42.146 13.0084 42.438 13.8244 42.798 14.5444C43.158 15.2564 43.594 15.8324 44.106 16.2724C44.042 16.3204 43.97 16.3804 43.89 16.4524C43.81 16.5324 43.734 16.6164 43.662 16.7044C43.598 16.7924 43.542 16.8724 43.494 16.9444C42.966 16.4484 42.526 15.8124 42.174 15.0364C41.822 14.2524 41.534 13.3764 41.31 12.4084C41.094 11.4324 40.918 10.4004 40.782 9.31237L41.394 9.21637ZM42.81 8.61637L43.482 8.92838C43.402 9.81637 43.286 10.6644 43.134 11.4724C42.982 12.2804 42.786 13.0324 42.546 13.7284C42.306 14.4244 42.014 15.0484 41.67 15.6004C41.334 16.1444 40.938 16.5924 40.482 16.9444C40.418 16.8484 40.326 16.7364 40.206 16.6084C40.094 16.4884 39.986 16.3884 39.882 16.3084C40.482 15.8764 40.982 15.2804 41.382 14.5204C41.782 13.7604 42.094 12.8804 42.318 11.8804C42.55 10.8724 42.714 9.78437 42.81 8.61637ZM37.746 11.1124L38.514 10.9324C38.618 11.1084 38.718 11.3004 38.814 11.5084C38.91 11.7164 38.978 11.8964 39.018 12.0484L38.214 12.2524C38.174 12.1084 38.11 11.9284 38.022 11.7124C37.934 11.4884 37.842 11.2884 37.746 11.1124ZM33.174 13.8004C33.158 13.7444 33.134 13.6684 33.102 13.5724C33.07 13.4764 33.038 13.3804 33.006 13.2844C32.974 13.1884 32.942 13.1044 32.91 13.0324C33.03 13.0084 33.15 12.9244 33.27 12.7804C33.398 12.6364 33.538 12.4524 33.69 12.2284C33.778 12.1164 33.898 11.9364 34.05 11.6884C34.21 11.4324 34.39 11.1364 34.59 10.8004C34.79 10.4564 34.99 10.0884 35.19 9.69637C35.39 9.29637 35.57 8.89637 35.73 8.49637L36.462 8.88037C36.078 9.68837 35.65 10.4844 35.178 11.2684C34.706 12.0524 34.226 12.7404 33.738 13.3324V13.3564C33.738 13.3564 33.71 13.3724 33.654 13.4044C33.598 13.4364 33.53 13.4764 33.45 13.5244C33.378 13.5644 33.314 13.6084 33.258 13.6564C33.202 13.7044 33.174 13.7524 33.174 13.8004ZM33.174 13.8004L33.114 13.0804L33.498 12.7804L36.114 12.1564C36.114 12.2604 36.118 12.3844 36.126 12.5284C36.134 12.6644 36.146 12.7764 36.162 12.8644C35.562 13.0244 35.074 13.1604 34.698 13.2724C34.33 13.3764 34.042 13.4604 33.834 13.5244C33.634 13.5884 33.486 13.6404 33.39 13.6804C33.302 13.7204 33.23 13.7604 33.174 13.8004ZM33.09 10.9084C33.074 10.8524 33.05 10.7764 33.018 10.6804C32.986 10.5764 32.95 10.4724 32.91 10.3684C32.878 10.2644 32.846 10.1764 32.814 10.1044C32.91 10.0724 33.006 9.99237 33.102 9.86437C33.206 9.72837 33.314 9.56037 33.426 9.36037C33.49 9.25637 33.578 9.08837 33.69 8.85637C33.802 8.62437 33.926 8.35237 34.062 8.04037C34.198 7.72837 34.334 7.39237 34.47 7.03237C34.606 6.66437 34.722 6.30437 34.818 5.95237L35.622 6.30037C35.454 6.78837 35.262 7.28037 35.046 7.77637C34.83 8.27237 34.598 8.74837 34.35 9.20438C34.11 9.66037 33.866 10.0684 33.618 10.4284V10.4644C33.618 10.4644 33.59 10.4804 33.534 10.5124C33.486 10.5364 33.426 10.5724 33.354 10.6204C33.282 10.6684 33.218 10.7204 33.162 10.7764C33.114 10.8244 33.09 10.8684 33.09 10.9084ZM33.09 10.9084L33.078 10.2604L33.498 9.98438L35.454 9.79237C35.438 9.90437 35.422 10.0324 35.406 10.1764C35.39 10.3124 35.386 10.4244 35.394 10.5124C34.794 10.5924 34.338 10.6564 34.026 10.7044C33.722 10.7524 33.506 10.7924 33.378 10.8244C33.25 10.8564 33.154 10.8844 33.09 10.9084ZM32.874 15.3484C33.29 15.2124 33.782 15.0444 34.35 14.8444C34.926 14.6364 35.518 14.4244 36.126 14.2084L36.282 14.9404C35.722 15.1564 35.162 15.3724 34.602 15.5884C34.05 15.8044 33.542 16.0004 33.078 16.1764L32.874 15.3484Z" fill="white"/>
<defs>
<clipPath id="clip0_51_198">
<rect width="12" height="9.42857" fill="white" transform="translate(6.01562 7.27008)"/>
</clipPath>
</defs>
</svg>
