<?xml version="1.0" encoding="utf-8"?>
<svg version="1.1" xmlns:xlink="http://www.w3.org/1999/xlink" width="12px" height="12px" viewBox="1480 1154  12 12" xmlns="http://www.w3.org/2000/svg">
  <path d="M 1486 1154  C 1489.36 1154  1492 1156.64  1492 1160  C 1492 1163.36  1489.36 1166  1486 1166  C 1482.64 1166  1480 1163.36  1480 1160  C 1480 1156.64  1482.64 1154  1486 1154  Z " fill-rule="nonzero" fill="#f0f0f0" stroke="none" />
  <path d="M 1486 1154.5  C 1489.08 1154.5  1491.5 1156.92  1491.5 1160  C 1491.5 1163.08  1489.08 1165.5  1486 1165.5  C 1482.92 1165.5  1480.5 1163.08  1480.5 1160  C 1480.5 1156.92  1482.92 1154.5  1486 1154.5  Z " stroke-width="1" stroke="#797979" fill="none" />
  <path d="M 1486 1163  C 1484.32 1163  1483 1161.68  1483 1160  C 1483 1158.32  1484.32 1157  1486 1157  C 1487.68 1157  1489 1158.32  1489 1160  C 1489 1161.68  1487.68 1163  1486 1163  " fill-rule="nonzero" fill="#797979" stroke="none" />
</svg>