<svg width="109" height="22" viewBox="0 0 109 22" fill="none" xmlns="http://www.w3.org/2000/svg">
<path d="M0.453125 1.99219C0.453125 0.887617 1.34856 -0.0078125 2.45312 -0.0078125H106.586C107.691 -0.0078125 108.586 0.887618 108.586 1.99219V19.9922C108.586 21.0968 107.691 21.9922 106.586 21.9922H2.45313C1.34856 21.9922 0.453125 21.0968 0.453125 19.9922V1.99219Z" fill="#444C69"/>
<g clip-path="url(#clip0_16_1560)">
<path d="M8.16313 13.7065V14.9965C8.16313 15.0498 8.14312 15.0998 8.10312 15.1465C8.06313 15.1865 8.01312 15.2065 7.95312 15.2065H6.66312C6.60979 15.2065 6.55979 15.1865 6.51312 15.1465C6.47312 15.0998 6.45312 15.0498 6.45312 14.9965V13.7065C6.45312 13.6465 6.47312 13.5965 6.51312 13.5565C6.55979 13.5165 6.60979 13.4965 6.66312 13.4965H7.95312C8.01312 13.4965 8.06313 13.5165 8.10312 13.5565C8.14312 13.5965 8.16313 13.6465 8.16313 13.7065ZM8.16313 11.1365V12.4165C8.16313 12.4765 8.14312 12.5265 8.10312 12.5665C8.06313 12.6131 8.01312 12.6365 7.95312 12.6365H6.66312C6.60979 12.6365 6.55979 12.6131 6.51312 12.5665C6.47312 12.5265 6.45312 12.4765 6.45312 12.4165V11.1365C6.45312 11.0765 6.47312 11.0265 6.51312 10.9865C6.55979 10.9398 6.60979 10.9165 6.66312 10.9165H7.95312C8.01312 10.9165 8.06313 10.9398 8.10312 10.9865C8.14312 11.0265 8.16313 11.0765 8.16313 11.1365ZM8.16313 8.56646V9.84646C8.16313 9.90646 8.14312 9.95646 8.10312 9.99646C8.06313 10.0431 8.01312 10.0665 7.95312 10.0665H6.66312C6.60979 10.0665 6.55979 10.0431 6.51312 9.99646C6.47312 9.95646 6.45312 9.90646 6.45312 9.84646V8.56646C6.45312 8.50646 6.47312 8.45646 6.51312 8.41646C6.55979 8.36979 6.60979 8.34646 6.66312 8.34646H7.95312C8.01312 8.34646 8.06313 8.36979 8.10312 8.41646C8.14312 8.45646 8.16313 8.50646 8.16313 8.56646ZM18.4531 13.7065V14.9965C18.4531 15.0498 18.4331 15.0998 18.3931 15.1465C18.3465 15.1865 18.2965 15.2065 18.2431 15.2065H9.24312C9.18313 15.2065 9.13313 15.1865 9.09313 15.1465C9.04646 15.0998 9.02312 15.0498 9.02312 14.9965V13.7065C9.02312 13.6465 9.04646 13.5965 9.09313 13.5565C9.13313 13.5165 9.18313 13.4965 9.24312 13.4965H18.2431C18.2965 13.4965 18.3465 13.5165 18.3931 13.5565C18.4331 13.5965 18.4531 13.6465 18.4531 13.7065ZM8.16313 5.99646V7.27646C8.16313 7.33646 8.14312 7.38646 8.10312 7.42646C8.06313 7.47313 8.01312 7.49646 7.95312 7.49646H6.66312C6.60979 7.49646 6.55979 7.47313 6.51312 7.42646C6.47312 7.38646 6.45312 7.33646 6.45312 7.27646V5.99646C6.45312 5.93646 6.47312 5.88646 6.51312 5.84646C6.55979 5.79979 6.60979 5.77646 6.66312 5.77646H7.95312C8.01312 5.77646 8.06313 5.79979 8.10312 5.84646C8.14312 5.88646 8.16313 5.93646 8.16313 5.99646ZM18.4531 11.1365V12.4165C18.4531 12.4765 18.4331 12.5265 18.3931 12.5665C18.3465 12.6131 18.2965 12.6365 18.2431 12.6365H9.24312C9.18313 12.6365 9.13313 12.6131 9.09313 12.5665C9.04646 12.5265 9.02312 12.4765 9.02312 12.4165V11.1365C9.02312 11.0765 9.04646 11.0265 9.09313 10.9865C9.13313 10.9398 9.18313 10.9165 9.24312 10.9165H18.2431C18.2965 10.9165 18.3465 10.9398 18.3931 10.9865C18.4331 11.0265 18.4531 11.0765 18.4531 11.1365ZM18.4531 8.56646V9.84646C18.4531 9.90646 18.4331 9.95646 18.3931 9.99646C18.3465 10.0431 18.2965 10.0665 18.2431 10.0665H9.24312C9.18313 10.0665 9.13313 10.0431 9.09313 9.99646C9.04646 9.95646 9.02312 9.90646 9.02312 9.84646V8.56646C9.02312 8.50646 9.04646 8.45646 9.09313 8.41646C9.13313 8.36979 9.18313 8.34646 9.24312 8.34646H18.2431C18.2965 8.34646 18.3465 8.36979 18.3931 8.41646C18.4331 8.45646 18.4531 8.50646 18.4531 8.56646ZM18.4531 5.99646V7.27646C18.4531 7.33646 18.4331 7.38646 18.3931 7.42646C18.3465 7.47313 18.2965 7.49646 18.2431 7.49646H9.24312C9.18313 7.49646 9.13313 7.47313 9.09313 7.42646C9.04646 7.38646 9.02312 7.33646 9.02312 7.27646V5.99646C9.02312 5.93646 9.04646 5.88646 9.09313 5.84646C9.13313 5.79979 9.18313 5.77646 9.24312 5.77646H18.2431C18.2965 5.77646 18.3465 5.79979 18.3931 5.84646C18.4331 5.88646 18.4531 5.93646 18.4531 5.99646Z" fill="white"/>
</g>
<path d="M29.3835 9.57019H40.3755V10.5542H29.3835V9.57019ZM42.7275 4.62619L43.5195 4.83019C43.3835 5.28619 43.2235 5.74219 43.0395 6.19819C42.8555 6.64619 42.6475 7.06619 42.4155 7.45819C42.1915 7.85019 41.9515 8.19819 41.6955 8.50219C41.6635 8.44619 41.6155 8.37419 41.5515 8.28619C41.4875 8.19819 41.4195 8.10619 41.3475 8.01019C41.2835 7.91419 41.2235 7.83819 41.1675 7.78219C41.5035 7.39019 41.8075 6.91819 42.0795 6.36619C42.3515 5.81419 42.5675 5.23419 42.7275 4.62619ZM42.5115 6.00619H44.8635V6.83419H42.3435L42.5115 6.00619ZM42.7275 15.5582L42.5835 14.7782L42.8235 14.4302L44.7795 13.1222C44.8115 13.2342 44.8515 13.3582 44.8995 13.4942C44.9555 13.6222 45.0075 13.7262 45.0555 13.8062C44.5835 14.1342 44.2035 14.4022 43.9155 14.6102C43.6355 14.8102 43.4155 14.9702 43.2555 15.0902C43.0955 15.2102 42.9755 15.3022 42.8955 15.3662C42.8235 15.4302 42.7675 15.4942 42.7275 15.5582ZM41.9235 8.16619H44.8155V8.95819H41.9235V8.16619ZM41.4675 10.5782H44.9355V11.4062H41.4675V10.5782ZM42.7275 15.5582C42.6955 15.4942 42.6515 15.4182 42.5955 15.3302C42.5395 15.2502 42.4755 15.1662 42.4035 15.0782C42.3395 14.9982 42.2835 14.9342 42.2355 14.8862C42.3395 14.8062 42.4635 14.6662 42.6075 14.4662C42.7595 14.2662 42.8355 14.0262 42.8355 13.7462V8.55019H43.6035V14.4782C43.6035 14.4782 43.5555 14.5182 43.4595 14.5982C43.3715 14.6782 43.2715 14.7742 43.1595 14.8862C43.0475 15.0062 42.9475 15.1262 42.8595 15.2462C42.7715 15.3662 42.7275 15.4702 42.7275 15.5582ZM49.2195 4.69819H49.9395V14.3582H49.2195V4.69819ZM47.4915 7.23019H52.4355V7.92619H47.4915V7.23019ZM47.4555 12.1742H52.1595V12.8822H47.4555V12.1742ZM47.7555 10.4822H51.8955V11.1902H47.7555V10.4822ZM45.0915 5.35819H46.9395V6.19819H45.0915V5.35819ZM46.7595 8.87419H46.9035L47.0355 8.86219L47.4795 8.92219C47.3995 10.1542 47.2475 11.2142 47.0235 12.1022C46.8075 12.9822 46.5115 13.7222 46.1355 14.3222C45.7675 14.9142 45.3155 15.3942 44.7795 15.7622C44.7315 15.6662 44.6595 15.5542 44.5635 15.4262C44.4755 15.3062 44.3955 15.2062 44.3235 15.1262C44.7955 14.8222 45.1995 14.3982 45.5355 13.8542C45.8715 13.3102 46.1395 12.6382 46.3395 11.8382C46.5475 11.0382 46.6875 10.1022 46.7595 9.03019V8.87419ZM45.7635 10.7342C45.9715 11.5982 46.2395 12.2942 46.5675 12.8222C46.8955 13.3502 47.2755 13.7582 47.7075 14.0462C48.1395 14.3262 48.5995 14.5182 49.0875 14.6222C49.5835 14.7182 50.0995 14.7662 50.6355 14.7662C50.7075 14.7662 50.8195 14.7662 50.9715 14.7662C51.1315 14.7662 51.3075 14.7662 51.4995 14.7662C51.6915 14.7662 51.8715 14.7662 52.0395 14.7662C52.2075 14.7662 52.3395 14.7622 52.4355 14.7542C52.3795 14.8582 52.3235 14.9862 52.2675 15.1382C52.2195 15.2902 52.1835 15.4222 52.1595 15.5342H51.8115H50.5875C49.9795 15.5342 49.3995 15.4742 48.8475 15.3542C48.2955 15.2342 47.7835 15.0142 47.3115 14.6942C46.8475 14.3742 46.4315 13.9182 46.0635 13.3262C45.6955 12.7262 45.3915 11.9462 45.1515 10.9862L45.7635 10.7342ZM47.7915 5.61019H51.7035V9.57019H47.7915V8.89819H51.0315V6.27019H47.7915V5.61019ZM45.5715 8.87419H46.9515V9.64219H45.3195L45.5715 8.87419ZM45.2595 9.84619C45.2435 9.79019 45.2115 9.72619 45.1635 9.65419C45.1155 9.57419 45.0675 9.49419 45.0195 9.41419C44.9715 9.33419 44.9275 9.27019 44.8875 9.22219C44.9915 9.19819 45.1035 9.11419 45.2235 8.97019C45.3515 8.82619 45.4635 8.66219 45.5595 8.47819C45.6315 8.35019 45.7395 8.13019 45.8835 7.81819C46.0355 7.49819 46.1915 7.12619 46.3515 6.70219C46.5195 6.27819 46.6595 5.85419 46.7715 5.43019V5.38219L47.0595 5.23819L47.5635 5.57419C47.3235 6.28619 47.0515 6.98219 46.7475 7.66219C46.4515 8.33419 46.1515 8.91419 45.8475 9.40219V9.42619C45.8475 9.42619 45.8155 9.44219 45.7515 9.47419C45.6955 9.49819 45.6275 9.53419 45.5475 9.58219C45.4755 9.62219 45.4075 9.66619 45.3435 9.71419C45.2875 9.76219 45.2595 9.80619 45.2595 9.84619ZM53.4075 6.06619H57.8595V6.90619H53.4075V6.06619ZM55.7715 7.93819H56.6355V15.6542H55.7715V7.93819ZM53.3355 12.7382C53.7435 12.6742 54.2115 12.5982 54.7395 12.5102C55.2755 12.4222 55.8395 12.3262 56.4315 12.2222C57.0235 12.1182 57.6195 12.0142 58.2195 11.9102L58.2555 12.6902C57.4235 12.8582 56.5875 13.0262 55.7475 13.1942C54.9155 13.3542 54.1755 13.4942 53.5275 13.6142L53.3355 12.7382ZM53.8275 10.7582C53.8115 10.7022 53.7875 10.6262 53.7555 10.5302C53.7315 10.4262 53.6995 10.3262 53.6595 10.2302C53.6195 10.1262 53.5835 10.0382 53.5515 9.96619C53.6555 9.94219 53.7515 9.84219 53.8395 9.66619C53.9355 9.48219 54.0355 9.26219 54.1395 9.00619C54.1955 8.87019 54.2755 8.65819 54.3795 8.37019C54.4835 8.07419 54.5955 7.72619 54.7155 7.32619C54.8355 6.92619 54.9515 6.49819 55.0635 6.04219C55.1755 5.57819 55.2635 5.11819 55.3275 4.66219L56.2155 4.84219C56.0715 5.49019 55.8995 6.14219 55.6995 6.79819C55.5075 7.44619 55.2955 8.07019 55.0635 8.67019C54.8315 9.26219 54.5955 9.79419 54.3555 10.2662V10.2902C54.3555 10.2902 54.3275 10.3062 54.2715 10.3382C54.2235 10.3702 54.1635 10.4142 54.0915 10.4702C54.0195 10.5182 53.9555 10.5702 53.8995 10.6262C53.8515 10.6742 53.8275 10.7182 53.8275 10.7582ZM53.8275 10.7582V10.0142L54.3195 9.77419H57.8715V10.5902H54.7035C54.4955 10.5902 54.3075 10.6062 54.1395 10.6382C53.9795 10.6702 53.8755 10.7102 53.8275 10.7582ZM59.6115 10.5662H63.1995V11.4062H59.6115V10.5662ZM62.9835 10.5662H63.1275L63.2715 10.5062L63.9075 10.8182C63.6835 11.1462 63.4315 11.5062 63.1515 11.8982C62.8795 12.2902 62.5955 12.6862 62.2995 13.0862C62.0035 13.4782 61.7115 13.8502 61.4235 14.2022L60.6555 13.8542C60.9275 13.5102 61.2075 13.1382 61.4955 12.7382C61.7915 12.3382 62.0715 11.9582 62.3355 11.5982C62.5995 11.2302 62.8155 10.9182 62.9835 10.6622V10.5662ZM59.2275 13.1702L59.8035 12.5942C60.2195 12.8342 60.6395 13.0982 61.0635 13.3862C61.4875 13.6662 61.8835 13.9502 62.2515 14.2382C62.6275 14.5262 62.9355 14.7862 63.1755 15.0182L62.5755 15.7142C62.3435 15.4742 62.0435 15.2022 61.6755 14.8982C61.3075 14.6022 60.9075 14.3022 60.4755 13.9982C60.0515 13.6862 59.6355 13.4102 59.2275 13.1702ZM60.9555 4.66219L61.8555 4.78219C61.7195 5.31819 61.5715 5.88619 61.4115 6.48619C61.2515 7.07819 61.0835 7.67819 60.9075 8.28619C60.7395 8.88619 60.5755 9.45819 60.4155 10.0022C60.2635 10.5382 60.1195 11.0062 59.9835 11.4062H59.0115C59.1635 10.9822 59.3275 10.4942 59.5035 9.94219C59.6795 9.38219 59.8555 8.79819 60.0315 8.19019C60.2075 7.57419 60.3755 6.96619 60.5355 6.36619C60.6955 5.75819 60.8355 5.19019 60.9555 4.66219ZM58.4355 6.06619H63.9315V6.90619H58.4355V6.06619ZM57.9675 8.32219H64.3635V9.17419H57.9675V8.32219ZM69.8115 6.22219H75.7995V7.03819H69.8115V6.22219ZM69.3315 10.7342H76.3035V11.5622H69.3315V10.7342ZM69.1995 8.56219H76.3755V9.39019H69.1995V8.56219ZM72.3675 4.72219H73.2315V9.00619H72.3675V4.72219ZM73.9515 9.21019H74.8155V14.6102C74.8155 14.8822 74.7795 15.0862 74.7075 15.2222C74.6435 15.3662 74.5195 15.4742 74.3355 15.5462C74.1675 15.6182 73.9315 15.6582 73.6275 15.6662C73.3235 15.6822 72.9515 15.6902 72.5115 15.6902C72.4955 15.5622 72.4595 15.4142 72.4035 15.2462C72.3555 15.0862 72.2995 14.9422 72.2355 14.8142C72.5715 14.8302 72.8795 14.8382 73.1595 14.8382C73.4395 14.8382 73.6275 14.8342 73.7235 14.8262C73.8115 14.8262 73.8715 14.8102 73.9035 14.7782C73.9355 14.7462 73.9515 14.6902 73.9515 14.6102V9.21019ZM70.2315 12.2942L70.9275 11.8982C71.1035 12.1062 71.2795 12.3342 71.4555 12.5822C71.6315 12.8302 71.7955 13.0742 71.9475 13.3142C72.0995 13.5542 72.2155 13.7702 72.2955 13.9622L71.5515 14.4302C71.4715 14.2382 71.3595 14.0182 71.2155 13.7702C71.0795 13.5222 70.9235 13.2702 70.7475 13.0142C70.5795 12.7502 70.4075 12.5102 70.2315 12.2942ZM65.1915 11.0342C65.6555 10.9062 66.2235 10.7422 66.8955 10.5422C67.5675 10.3342 68.2475 10.1222 68.9355 9.90619L69.0555 10.7342C68.4235 10.9422 67.7875 11.1502 67.1475 11.3582C66.5155 11.5662 65.9395 11.7542 65.4195 11.9222L65.1915 11.0342ZM65.3595 7.08619H69.0195V7.92619H65.3595V7.08619ZM66.9075 4.67419H67.7475V14.6222C67.7475 14.8622 67.7155 15.0502 67.6515 15.1862C67.5955 15.3222 67.4915 15.4262 67.3395 15.4982C67.1955 15.5702 67.0035 15.6182 66.7635 15.6422C66.5235 15.6662 66.2115 15.6742 65.8275 15.6662C65.8195 15.5542 65.7875 15.4142 65.7315 15.2462C65.6835 15.0862 65.6315 14.9462 65.5755 14.8262C65.8315 14.8342 66.0635 14.8382 66.2715 14.8382C66.4875 14.8382 66.6315 14.8382 66.7035 14.8382C66.7755 14.8382 66.8275 14.8222 66.8595 14.7902C66.8915 14.7582 66.9075 14.6982 66.9075 14.6102V4.67419ZM80.0835 8.92219H85.3635V9.78619H80.0835V8.92219ZM79.6035 8.92219H80.5395V13.8182C80.5395 14.0102 80.5675 14.1542 80.6235 14.2502C80.6875 14.3462 80.8035 14.4142 80.9715 14.4542C81.1475 14.4862 81.4035 14.5022 81.7395 14.5022C81.8355 14.5022 81.9955 14.5022 82.2195 14.5022C82.4435 14.5022 82.6995 14.5022 82.9875 14.5022C83.2755 14.5022 83.5675 14.5022 83.8635 14.5022C84.1595 14.5022 84.4275 14.5022 84.6675 14.5022C84.9075 14.5022 85.0875 14.5022 85.2075 14.5022C85.5115 14.5022 85.7395 14.4582 85.8915 14.3702C86.0435 14.2742 86.1515 14.0942 86.2155 13.8302C86.2795 13.5662 86.3275 13.1822 86.3595 12.6782C86.4395 12.7262 86.5315 12.7782 86.6355 12.8342C86.7395 12.8822 86.8475 12.9262 86.9595 12.9662C87.0715 12.9982 87.1755 13.0262 87.2715 13.0502C87.2075 13.6582 87.1155 14.1342 86.9955 14.4782C86.8755 14.8222 86.6795 15.0582 86.4075 15.1862C86.1355 15.3222 85.7475 15.3902 85.2435 15.3902C85.1795 15.3902 85.0555 15.3902 84.8715 15.3902C84.6955 15.3902 84.4835 15.3902 84.2355 15.3902C83.9955 15.3902 83.7395 15.3902 83.4675 15.3902C83.2035 15.3902 82.9515 15.3902 82.7115 15.3902C82.4715 15.3902 82.2595 15.3902 82.0755 15.3902C81.8995 15.3902 81.7835 15.3902 81.7275 15.3902C81.1835 15.3902 80.7555 15.3462 80.4435 15.2582C80.1395 15.1782 79.9235 15.0222 79.7955 14.7902C79.6675 14.5662 79.6035 14.2422 79.6035 13.8182V8.92219ZM82.8075 4.65019L83.6475 5.01019C83.2155 5.72219 82.6955 6.39419 82.0875 7.02619C81.4795 7.65019 80.8155 8.22219 80.0955 8.74219C79.3835 9.25419 78.6435 9.69419 77.8755 10.0622C77.8115 9.94219 77.7155 9.81019 77.5875 9.66619C77.4675 9.51419 77.3475 9.38619 77.2275 9.28219C77.9795 8.95419 78.7075 8.55419 79.4115 8.08219C80.1155 7.61019 80.7595 7.08219 81.3435 6.49819C81.9275 5.91419 82.4155 5.29819 82.8075 4.65019ZM83.2155 5.22619C83.9275 6.13019 84.7275 6.89019 85.6155 7.50619C86.5115 8.11419 87.4755 8.65419 88.5075 9.12619C88.3875 9.22219 88.2675 9.34219 88.1475 9.48619C88.0355 9.62219 87.9475 9.75819 87.8835 9.89419C87.1875 9.53419 86.5235 9.15019 85.8915 8.74219C85.2675 8.32619 84.6715 7.86219 84.1035 7.35019C83.5355 6.83819 82.9875 6.25019 82.4595 5.58619L83.2155 5.22619ZM85.1115 8.92219H86.0235C86.0235 8.92219 86.0235 8.95019 86.0235 9.00619C86.0235 9.05419 86.0195 9.11019 86.0115 9.17419C86.0115 9.23819 86.0115 9.29019 86.0115 9.33019C85.9795 10.0262 85.9435 10.5942 85.9035 11.0342C85.8635 11.4662 85.8155 11.8022 85.7595 12.0422C85.7035 12.2742 85.6315 12.4462 85.5435 12.5582C85.4395 12.6702 85.3195 12.7502 85.1835 12.7982C85.0555 12.8382 84.8995 12.8622 84.7155 12.8702C84.5475 12.8942 84.3115 12.9022 84.0075 12.8942C83.7115 12.8862 83.3955 12.8742 83.0595 12.8582C83.0515 12.7382 83.0275 12.6062 82.9875 12.4622C82.9475 12.3102 82.8995 12.1742 82.8435 12.0542C83.1715 12.0862 83.4755 12.1062 83.7555 12.1142C84.0355 12.1222 84.2315 12.1262 84.3435 12.1262C84.5515 12.1262 84.6915 12.0902 84.7635 12.0182C84.8275 11.9462 84.8795 11.8062 84.9195 11.5982C84.9595 11.3822 84.9955 11.0742 85.0275 10.6742C85.0595 10.2662 85.0875 9.73419 85.1115 9.07819V8.92219Z" fill="white"/>
<defs>
<clipPath id="clip0_16_1560">
<rect width="12" height="9.42857" fill="white" transform="translate(6.45312 5.77789)"/>
</clipPath>
</defs>
</svg>
