<svg width="77" height="23" viewBox="0 0 77 23" fill="none" xmlns="http://www.w3.org/2000/svg">
<path d="M0.78125 2.98437C0.78125 1.8798 1.67668 0.984375 2.78125 0.984375H74.125C75.2296 0.984375 76.125 1.87981 76.125 2.98438V20.9844C76.125 22.0889 75.2296 22.9844 74.125 22.9844H2.78125C1.67668 22.9844 0.78125 22.0889 0.78125 20.9844V2.98437Z" fill="#444C69"/>
<g clip-path="url(#clip0_51_193)">
<path d="M8.49125 15.1986V16.4886C8.49125 16.542 8.47125 16.592 8.43125 16.6386C8.39125 16.6786 8.34125 16.6986 8.28125 16.6986H6.99125C6.93792 16.6986 6.88792 16.6786 6.84125 16.6386C6.80125 16.592 6.78125 16.542 6.78125 16.4886V15.1986C6.78125 15.1386 6.80125 15.0886 6.84125 15.0486C6.88792 15.0086 6.93792 14.9886 6.99125 14.9886H8.28125C8.34125 14.9886 8.39125 15.0086 8.43125 15.0486C8.47125 15.0886 8.49125 15.1386 8.49125 15.1986ZM8.49125 12.6286V13.9086C8.49125 13.9686 8.47125 14.0186 8.43125 14.0586C8.39125 14.1053 8.34125 14.1286 8.28125 14.1286H6.99125C6.93792 14.1286 6.88792 14.1053 6.84125 14.0586C6.80125 14.0186 6.78125 13.9686 6.78125 13.9086V12.6286C6.78125 12.5686 6.80125 12.5186 6.84125 12.4786C6.88792 12.432 6.93792 12.4086 6.99125 12.4086H8.28125C8.34125 12.4086 8.39125 12.432 8.43125 12.4786C8.47125 12.5186 8.49125 12.5686 8.49125 12.6286ZM8.49125 10.0586V11.3386C8.49125 11.3986 8.47125 11.4486 8.43125 11.4886C8.39125 11.5353 8.34125 11.5586 8.28125 11.5586H6.99125C6.93792 11.5586 6.88792 11.5353 6.84125 11.4886C6.80125 11.4486 6.78125 11.3986 6.78125 11.3386V10.0586C6.78125 9.99865 6.80125 9.94865 6.84125 9.90865C6.88792 9.86198 6.93792 9.83865 6.99125 9.83865H8.28125C8.34125 9.83865 8.39125 9.86198 8.43125 9.90865C8.47125 9.94865 8.49125 9.99865 8.49125 10.0586ZM18.7812 15.1986V16.4886C18.7812 16.542 18.7612 16.592 18.7212 16.6386C18.6746 16.6786 18.6246 16.6986 18.5712 16.6986H9.57125C9.51125 16.6986 9.46125 16.6786 9.42125 16.6386C9.37458 16.592 9.35125 16.542 9.35125 16.4886V15.1986C9.35125 15.1386 9.37458 15.0886 9.42125 15.0486C9.46125 15.0086 9.51125 14.9886 9.57125 14.9886H18.5712C18.6246 14.9886 18.6746 15.0086 18.7212 15.0486C18.7612 15.0886 18.7812 15.1386 18.7812 15.1986ZM8.49125 7.48865V8.76865C8.49125 8.82865 8.47125 8.87865 8.43125 8.91865C8.39125 8.96531 8.34125 8.98865 8.28125 8.98865H6.99125C6.93792 8.98865 6.88792 8.96531 6.84125 8.91865C6.80125 8.87865 6.78125 8.82865 6.78125 8.76865V7.48865C6.78125 7.42865 6.80125 7.37865 6.84125 7.33865C6.88792 7.29198 6.93792 7.26865 6.99125 7.26865H8.28125C8.34125 7.26865 8.39125 7.29198 8.43125 7.33865C8.47125 7.37865 8.49125 7.42865 8.49125 7.48865ZM18.7812 12.6286V13.9086C18.7812 13.9686 18.7612 14.0186 18.7212 14.0586C18.6746 14.1053 18.6246 14.1286 18.5712 14.1286H9.57125C9.51125 14.1286 9.46125 14.1053 9.42125 14.0586C9.37458 14.0186 9.35125 13.9686 9.35125 13.9086V12.6286C9.35125 12.5686 9.37458 12.5186 9.42125 12.4786C9.46125 12.432 9.51125 12.4086 9.57125 12.4086H18.5712C18.6246 12.4086 18.6746 12.432 18.7212 12.4786C18.7612 12.5186 18.7812 12.5686 18.7812 12.6286ZM18.7812 10.0586V11.3386C18.7812 11.3986 18.7612 11.4486 18.7212 11.4886C18.6746 11.5353 18.6246 11.5586 18.5712 11.5586H9.57125C9.51125 11.5586 9.46125 11.5353 9.42125 11.4886C9.37458 11.4486 9.35125 11.3986 9.35125 11.3386V10.0586C9.35125 9.99865 9.37458 9.94865 9.42125 9.90865C9.46125 9.86198 9.51125 9.83865 9.57125 9.83865H18.5712C18.6246 9.83865 18.6746 9.86198 18.7212 9.90865C18.7612 9.94865 18.7812 9.99865 18.7812 10.0586ZM18.7812 7.48865V8.76865C18.7812 8.82865 18.7612 8.87865 18.7212 8.91865C18.6746 8.96531 18.6246 8.98865 18.5712 8.98865H9.57125C9.51125 8.98865 9.46125 8.96531 9.42125 8.91865C9.37458 8.87865 9.35125 8.82865 9.35125 8.76865V7.48865C9.35125 7.42865 9.37458 7.37865 9.42125 7.33865C9.46125 7.29198 9.51125 7.26865 9.57125 7.26865H18.5712C18.6246 7.26865 18.6746 7.29198 18.7212 7.33865C18.7612 7.37865 18.7812 7.42865 18.7812 7.48865Z" fill="white"/>
</g>
<path d="M26.0676 11.1244C26.6036 12.4364 27.4356 13.5284 28.5636 14.4004C29.6996 15.2644 31.0956 15.8564 32.7516 16.1764C32.6956 16.2404 32.6276 16.3164 32.5476 16.4044C32.4756 16.5004 32.4076 16.5964 32.3436 16.6924C32.2796 16.7964 32.2276 16.8924 32.1876 16.9804C31.0596 16.7244 30.0516 16.3444 29.1636 15.8404C28.2756 15.3364 27.5116 14.7084 26.8716 13.9564C26.2316 13.2044 25.7076 12.3404 25.2996 11.3644L26.0676 11.1244ZM30.3516 10.7884H30.5316L30.6996 10.7404L31.3116 11.0284C31.0476 11.8684 30.6876 12.6124 30.2316 13.2604C29.7756 13.9084 29.2476 14.4724 28.6476 14.9524C28.0556 15.4324 27.4116 15.8364 26.7156 16.1644C26.0196 16.4924 25.2956 16.7604 24.5436 16.9684C24.4956 16.8564 24.4236 16.7204 24.3276 16.5604C24.2396 16.4084 24.1516 16.2884 24.0636 16.2004C24.7676 16.0324 25.4476 15.8004 26.1036 15.5044C26.7596 15.2004 27.3636 14.8324 27.9156 14.4004C28.4756 13.9604 28.9636 13.4564 29.3796 12.8884C29.7956 12.3124 30.1196 11.6644 30.3516 10.9444V10.7884ZM25.8036 10.7884H30.4956V11.6524H25.5396L25.8036 10.7884ZM26.6196 5.85637L27.6276 6.02437C27.4676 7.16037 27.2556 8.22437 26.9916 9.21637C26.7276 10.2004 26.3836 11.1084 25.9596 11.9404C25.5356 12.7724 25.0156 13.5284 24.3996 14.2084C23.7916 14.8804 23.0636 15.4764 22.2156 15.9964C22.1756 15.9324 22.1156 15.8564 22.0356 15.7684C21.9556 15.6724 21.8716 15.5844 21.7836 15.5044C21.7036 15.4164 21.6236 15.3484 21.5436 15.3004C22.6076 14.6524 23.4796 13.8684 24.1596 12.9484C24.8476 12.0204 25.3876 10.9644 25.7796 9.78037C26.1716 8.58837 26.4516 7.28037 26.6196 5.85637ZM29.2596 6.50437L29.9556 6.07237C30.1316 6.24837 30.3156 6.44437 30.5076 6.66037C30.7076 6.86837 30.8956 7.07237 31.0716 7.27237C31.2476 7.47237 31.3916 7.64437 31.5036 7.78837L30.7956 8.28037C30.6836 8.12837 30.5396 7.94837 30.3636 7.74037C30.1876 7.53237 30.0036 7.32037 29.8116 7.10437C29.6196 6.88837 29.4356 6.68837 29.2596 6.50437ZM22.9116 9.70837C22.8956 9.63637 22.8676 9.54837 22.8276 9.44437C22.7956 9.34037 22.7596 9.23637 22.7196 9.13237C22.6876 9.02037 22.6516 8.92837 22.6116 8.85637C22.6996 8.83237 22.7756 8.78037 22.8396 8.70037C22.9116 8.62037 22.9836 8.51237 23.0556 8.37637C23.1036 8.29637 23.1756 8.14837 23.2716 7.93237C23.3756 7.70837 23.4836 7.44837 23.5956 7.15237C23.7076 6.84837 23.7956 6.54437 23.8596 6.24037L24.8196 6.42037C24.7236 6.75637 24.6076 7.09637 24.4716 7.44037C24.3436 7.77637 24.2076 8.09237 24.0636 8.38837C23.9196 8.68437 23.7796 8.94437 23.6436 9.16837V9.19237C23.6436 9.19237 23.6076 9.20837 23.5356 9.24037C23.4636 9.27237 23.3756 9.31637 23.2716 9.37238C23.1756 9.42037 23.0916 9.47637 23.0196 9.54037C22.9476 9.59637 22.9116 9.65237 22.9116 9.70837ZM22.9116 9.70837V9.00037L23.5236 8.64037H32.3556L32.3436 9.50437H24.1956C23.8116 9.50437 23.5156 9.52437 23.3076 9.56437C23.1076 9.59637 22.9756 9.64437 22.9116 9.70837ZM33.9156 7.74037H44.4756V8.61637H33.9156V7.74037ZM39.2916 9.19237H40.2036V16.9564H39.2916V9.19237ZM35.8476 10.8124H43.3116V11.6644H36.7476V15.8284H35.8476V10.8124ZM42.9156 10.8124H43.8156V14.6884C43.8156 14.9284 43.7836 15.1164 43.7196 15.2524C43.6556 15.3884 43.5276 15.4924 43.3356 15.5644C43.1516 15.6284 42.8916 15.6684 42.5556 15.6844C42.2276 15.7004 41.8076 15.7084 41.2956 15.7084C41.2796 15.5804 41.2396 15.4444 41.1756 15.3004C41.1196 15.1484 41.0596 15.0124 40.9956 14.8924C41.2516 14.9004 41.4916 14.9044 41.7156 14.9044C41.9476 14.9044 42.1436 14.9044 42.3036 14.9044C42.4716 14.9044 42.5876 14.9044 42.6516 14.9044C42.7556 14.8964 42.8236 14.8764 42.8556 14.8444C42.8956 14.8124 42.9156 14.7564 42.9156 14.6764V10.8124ZM37.9716 5.89237L38.8956 6.10837C38.6076 7.03637 38.2436 7.95637 37.8036 8.86837C37.3716 9.77237 36.8476 10.6204 36.2316 11.4124C35.6236 12.1964 34.9116 12.8764 34.0956 13.4524C34.0556 13.3724 34.0036 13.2884 33.9396 13.2004C33.8756 13.1044 33.8076 13.0084 33.7356 12.9124C33.6716 12.8164 33.6116 12.7404 33.5556 12.6844C34.1236 12.3004 34.6396 11.8524 35.1036 11.3404C35.5676 10.8204 35.9836 10.2604 36.3516 9.66037C36.7196 9.06037 37.0356 8.44037 37.2996 7.80037C37.5716 7.16037 37.7956 6.52437 37.9716 5.89237ZM46.3356 8.05237H56.0076V13.6924H55.0836V8.92838H47.2356V13.7524H46.3356V8.05237ZM46.8156 12.1204H55.6236V13.0084H46.8156V12.1204ZM50.6796 5.90437H51.6276V16.9324H50.6796V5.90437ZM60.7116 11.1484H65.5956V11.9164H60.7116V11.1484ZM59.1876 6.96037H62.9076V7.70437H59.1876V6.96037ZM63.7716 6.96037H68.4516V7.70437H63.7716V6.96037ZM59.4036 5.84437L60.2556 6.06037C60.1036 6.49237 59.9276 6.91637 59.7276 7.33237C59.5276 7.74837 59.3116 8.14037 59.0796 8.50837C58.8476 8.87637 58.6116 9.20037 58.3716 9.48037C58.3236 9.43237 58.2516 9.38037 58.1556 9.32437C58.0596 9.26037 57.9636 9.20037 57.8676 9.14437C57.7796 9.08037 57.6996 9.02837 57.6276 8.98837C58.0036 8.60437 58.3476 8.13237 58.6596 7.57237C58.9716 7.01237 59.2196 6.43637 59.4036 5.84437ZM64.0716 5.84437L64.9236 6.04837C64.7396 6.54437 64.5036 7.02037 64.2156 7.47637C63.9276 7.93237 63.6236 8.32037 63.3036 8.64037C63.2556 8.58437 63.1836 8.52837 63.0876 8.47237C62.9996 8.40837 62.9076 8.34837 62.8116 8.29237C62.7236 8.22837 62.6436 8.17637 62.5716 8.13637C62.8916 7.84837 63.1836 7.50437 63.4476 7.10437C63.7116 6.69637 63.9196 6.27637 64.0716 5.84437ZM59.9916 7.54837L60.7716 7.34437C60.9396 7.60837 61.0996 7.90037 61.2516 8.22037C61.4116 8.54037 61.5196 8.81637 61.5756 9.04837L60.7716 9.28837C60.7076 9.05637 60.5996 8.78037 60.4476 8.46037C60.3036 8.13237 60.1516 7.82837 59.9916 7.54837ZM65.0316 7.53637L65.8236 7.34437C66.0556 7.60037 66.2756 7.89237 66.4836 8.22037C66.6996 8.54837 66.8596 8.83637 66.9636 9.08437L66.1116 9.30037C66.0236 9.06037 65.8756 8.77637 65.6676 8.44837C65.4676 8.11237 65.2556 7.80837 65.0316 7.53637ZM63.5796 8.85637C63.8596 9.11237 64.1956 9.36837 64.5876 9.62437C64.9876 9.88037 65.4236 10.1244 65.8956 10.3564C66.3676 10.5804 66.8476 10.7844 67.3356 10.9684C67.8236 11.1444 68.2956 11.2924 68.7516 11.4124C68.6556 11.4924 68.5516 11.6084 68.4396 11.7604C68.3276 11.9044 68.2396 12.0364 68.1756 12.1564C67.7116 12.0204 67.2356 11.8484 66.7476 11.6404C66.2676 11.4244 65.7916 11.1844 65.3196 10.9204C64.8476 10.6564 64.4076 10.3764 63.9996 10.0804C63.5916 9.78437 63.2356 9.48037 62.9316 9.16837L63.5796 8.85637ZM63.2076 8.29237L63.9396 8.66437C63.4916 9.19237 62.9516 9.68437 62.3196 10.1404C61.6956 10.5964 61.0236 11.0044 60.3036 11.3644C59.5916 11.7164 58.8716 12.0164 58.1436 12.2644C58.0876 12.1524 58.0076 12.0284 57.9036 11.8924C57.8076 11.7484 57.7076 11.6324 57.6036 11.5444C58.3076 11.3364 59.0116 11.0724 59.7156 10.7524C60.4276 10.4244 61.0876 10.0524 61.6956 9.63637C62.3036 9.22037 62.8076 8.77237 63.2076 8.29237ZM57.9396 15.8284H68.3916V16.6324H57.9396V15.8284ZM66.2916 12.4204L67.1076 12.6604C66.9076 13.0924 66.6836 13.5444 66.4356 14.0164C66.1956 14.4804 65.9516 14.9284 65.7036 15.3604C65.4556 15.7844 65.2156 16.1644 64.9836 16.5004C64.9196 16.4524 64.8396 16.4004 64.7436 16.3444C64.6556 16.2884 64.5636 16.2324 64.4676 16.1764C64.3796 16.1204 64.2956 16.0764 64.2156 16.0444C64.4716 15.7324 64.7196 15.3764 64.9596 14.9764C65.2076 14.5684 65.4436 14.1444 65.6676 13.7044C65.8996 13.2644 66.1076 12.8364 66.2916 12.4204ZM62.2716 12.6244L62.9916 12.3604C63.1436 12.6164 63.2916 12.8924 63.4356 13.1884C63.5796 13.4764 63.7116 13.7604 63.8316 14.0404C63.9516 14.3124 64.0396 14.5564 64.0956 14.7724L63.3276 15.0844C63.2716 14.8684 63.1876 14.6204 63.0756 14.3404C62.9636 14.0524 62.8356 13.7604 62.6916 13.4644C62.5556 13.1604 62.4156 12.8804 62.2716 12.6244ZM59.2956 12.9604L60.0156 12.6364C60.1996 12.8764 60.3756 13.1364 60.5436 13.4164C60.7196 13.6964 60.8796 13.9684 61.0236 14.2324C61.1756 14.4884 61.2916 14.7204 61.3716 14.9284L60.6156 15.3004C60.5356 15.0924 60.4236 14.8564 60.2796 14.5924C60.1436 14.3204 59.9876 14.0444 59.8116 13.7644C59.6436 13.4764 59.4716 13.2084 59.2956 12.9604Z" fill="white"/>
<defs>
<clipPath id="clip0_51_193">
<rect width="12" height="9.42857" fill="white" transform="translate(6.78125 7.27008)"/>
</clipPath>
</defs>
</svg>
