<svg width="390" height="34" viewBox="0 0 390 34" fill="none" xmlns="http://www.w3.org/2000/svg">
<path d="M0 3.98438C0 2.32752 1.34315 0.984375 3 0.984375H34.1563C35.8131 0.984375 37.1562 2.32752 37.1562 3.98438V30.5469C37.1562 32.2037 35.8131 33.5469 34.1563 33.5469H3C1.34314 33.5469 0 32.2037 0 30.5469V3.98438Z" fill="#444C69"/>
<g clip-path="url(#clip0_47_33)">
<path d="M23.96 17.6472C23.96 17.6672 23.9567 17.6839 23.95 17.6972C23.6433 18.9905 22.9967 20.0405 22.01 20.8472C21.0233 21.6539 19.8667 22.0572 18.54 22.0572C17.8333 22.0572 17.15 21.9239 16.49 21.6572C15.83 21.3905 15.2433 21.0105 14.73 20.5172L13.79 21.4572C13.6967 21.5439 13.5867 21.5872 13.46 21.5872C13.34 21.5872 13.2333 21.5439 13.14 21.4572C13.0467 21.3639 13 21.2539 13 21.1272V17.8772C13 17.7505 13.0467 17.6405 13.14 17.5472C13.2333 17.4605 13.34 17.4172 13.46 17.4172H16.71C16.8367 17.4172 16.9467 17.4605 17.04 17.5472C17.1333 17.6405 17.18 17.7505 17.18 17.8772C17.18 18.0039 17.1333 18.1139 17.04 18.2072L16.05 19.1972C16.39 19.5172 16.7767 19.7639 17.21 19.9372C17.65 20.1105 18.1033 20.1972 18.57 20.1972C19.2167 20.1972 19.8233 20.0405 20.39 19.7272C20.95 19.4139 21.3967 18.9805 21.73 18.4272C21.7833 18.3472 21.9133 18.0639 22.12 17.5772C22.16 17.4705 22.2333 17.4172 22.34 17.4172H23.73C23.79 17.4172 23.8433 17.4372 23.89 17.4772C23.9367 17.5239 23.96 17.5805 23.96 17.6472ZM24.14 11.8372V15.0872C24.14 15.2139 24.0967 15.3239 24.01 15.4172C23.9167 15.5105 23.8067 15.5572 23.68 15.5572H20.43C20.3033 15.5572 20.1933 15.5105 20.1 15.4172C20.0067 15.3239 19.96 15.2139 19.96 15.0872C19.96 14.9672 20.0067 14.8605 20.1 14.7672L21.1 13.7672C20.3867 13.1005 19.5433 12.7672 18.57 12.7672C17.9233 12.7672 17.32 12.9239 16.76 13.2372C16.2 13.5572 15.75 13.9905 15.41 14.5372C15.3567 14.6239 15.2267 14.9072 15.02 15.3872C14.9867 15.5005 14.9167 15.5572 14.81 15.5572H13.36C13.3 15.5572 13.2467 15.5339 13.2 15.4872C13.1533 15.4405 13.13 15.3872 13.13 15.3272V15.2772C13.4433 13.9772 14.0967 12.9239 15.09 12.1172C16.0833 11.3172 17.2433 10.9172 18.57 10.9172C19.2767 10.9172 19.9633 11.0505 20.63 11.3172C21.2967 11.5839 21.89 11.9605 22.41 12.4472L23.35 11.5172C23.4433 11.4239 23.5533 11.3772 23.68 11.3772C23.8067 11.3772 23.9167 11.4239 24.01 11.5172C24.0967 11.6105 24.14 11.7172 24.14 11.8372Z" fill="white"/>
</g>
<path d="M41.0469 3.98438C41.0469 2.32752 42.39 0.984375 44.0469 0.984375H103.891C105.547 0.984375 106.891 2.32752 106.891 3.98438V30.5469C106.891 32.2037 105.547 33.5469 103.891 33.5469H44.0469C42.39 33.5469 41.0469 32.2037 41.0469 30.5469V3.98438Z" fill="#18BC9C"/>
<g clip-path="url(#clip1_47_33)">
<path d="M64.2569 15.7915V17.1815C64.2569 17.3748 64.1902 17.5382 64.0569 17.6715C63.9235 17.8115 63.7602 17.8815 63.5669 17.8815H60.5469V20.8915C60.5469 21.0848 60.4802 21.2515 60.3469 21.3915C60.2069 21.5248 60.0402 21.5915 59.8469 21.5915H58.4569C58.2635 21.5915 58.1002 21.5248 57.9669 21.3915C57.8269 21.2515 57.7569 21.0848 57.7569 20.8915V17.8815H54.7469C54.5535 17.8815 54.3869 17.8115 54.2469 17.6715C54.1135 17.5382 54.0469 17.3748 54.0469 17.1815V15.7915C54.0469 15.5982 54.1135 15.4315 54.2469 15.2915C54.3869 15.1582 54.5535 15.0915 54.7469 15.0915H57.7569V12.0715C57.7569 11.8782 57.8269 11.7148 57.9669 11.5815C58.1002 11.4482 58.2635 11.3815 58.4569 11.3815H59.8469C60.0402 11.3815 60.2069 11.4482 60.3469 11.5815C60.4802 11.7148 60.5469 11.8782 60.5469 12.0715V15.0915H63.5669C63.7602 15.0915 63.9235 15.1582 64.0569 15.2915C64.1902 15.4315 64.2569 15.5982 64.2569 15.7915Z" fill="white"/>
</g>
<path d="M72.0682 17.4677L72.8482 17.7407C72.7528 18.1047 72.6272 18.4817 72.4712 18.8717C72.3238 19.253 72.1418 19.617 71.9252 19.9637C71.7085 20.3103 71.4485 20.6137 71.1452 20.8737L70.4302 20.3147C70.7075 20.0807 70.9502 19.8077 71.1582 19.4957C71.3662 19.1837 71.5438 18.8543 71.6912 18.5077C71.8472 18.1523 71.9728 17.8057 72.0682 17.4677ZM75.1752 17.9617L75.9162 17.7017C76.1328 18.135 76.3235 18.6117 76.4882 19.1317C76.6615 19.643 76.7785 20.0893 76.8392 20.4707L76.0462 20.7567C76.0202 20.5053 75.9595 20.2193 75.8642 19.8987C75.7775 19.5693 75.6735 19.2357 75.5522 18.8977C75.4395 18.5597 75.3138 18.2477 75.1752 17.9617ZM76.7742 17.6627L77.5412 17.2857C77.8098 17.6063 78.0698 17.9617 78.3212 18.3517C78.5812 18.733 78.8108 19.11 79.0102 19.4827C79.2182 19.8467 79.3742 20.1803 79.4782 20.4837L78.6462 20.9127C78.5508 20.6093 78.4035 20.267 78.2042 19.8857C78.0048 19.5043 77.7795 19.123 77.5282 18.7417C77.2855 18.3517 77.0342 17.992 76.7742 17.6627ZM76.3322 13.9187C76.5488 14.326 76.8218 14.7203 77.1512 15.1017C77.4805 15.483 77.8488 15.8253 78.2562 16.1287C78.6635 16.4233 79.0795 16.666 79.5042 16.8567C79.4348 16.9087 79.3568 16.9823 79.2702 17.0777C79.1835 17.173 79.1012 17.2727 79.0232 17.3767C78.9538 17.472 78.8932 17.5587 78.8412 17.6367C78.3905 17.4113 77.9528 17.121 77.5282 16.7657C77.1122 16.4103 76.7265 16.016 76.3712 15.5827C76.0245 15.1407 75.7298 14.6813 75.4872 14.2047L76.3322 13.9187ZM74.1222 11.6437L75.1102 11.7997C74.7635 13.247 74.2262 14.4603 73.4982 15.4397C72.7788 16.419 71.8558 17.2077 70.7292 17.8057C70.6858 17.7363 70.6252 17.654 70.5472 17.5587C70.4692 17.4633 70.3868 17.368 70.3002 17.2727C70.2135 17.1773 70.1355 17.0993 70.0662 17.0387C71.1582 16.5273 72.0335 15.8253 72.6922 14.9327C73.3595 14.04 73.8362 12.9437 74.1222 11.6437ZM77.7752 10.3957L78.5422 11.1497C78.0742 11.297 77.5455 11.427 76.9562 11.5397C76.3668 11.6523 75.7428 11.752 75.0842 11.8387C74.4342 11.9253 73.7755 11.9947 73.1082 12.0467C72.4408 12.0987 71.7952 12.142 71.1712 12.1767C71.1625 12.0553 71.1278 11.9167 71.0672 11.7607C71.0152 11.596 70.9632 11.4573 70.9112 11.3447C71.5178 11.31 72.1418 11.2667 72.7832 11.2147C73.4332 11.154 74.0658 11.0847 74.6812 11.0067C75.2965 10.9287 75.8685 10.8377 76.3972 10.7337C76.9345 10.6297 77.3938 10.517 77.7752 10.3957ZM70.4562 13.5027H79.1792V14.4127H70.4562V13.5027ZM73.6932 16.1027H74.6032V21.1597C74.6032 21.411 74.5728 21.606 74.5122 21.7447C74.4515 21.892 74.3302 22.0003 74.1482 22.0697C73.9748 22.1477 73.7408 22.191 73.4462 22.1997C73.1602 22.217 72.7962 22.2257 72.3542 22.2257C72.3368 22.1043 72.3022 21.9613 72.2502 21.7967C72.1982 21.632 72.1375 21.4847 72.0682 21.3547C72.3975 21.3633 72.6922 21.3677 72.9522 21.3677C73.2122 21.3677 73.3855 21.3677 73.4722 21.3677C73.6195 21.359 73.6932 21.2897 73.6932 21.1597V16.1027ZM67.9732 11.0977L68.5452 10.3957C68.7878 10.5083 69.0435 10.6427 69.3122 10.7987C69.5808 10.9547 69.8322 11.115 70.0662 11.2797C70.3088 11.4357 70.5038 11.5873 70.6512 11.7347L70.0662 12.5277C69.9275 12.3717 69.7412 12.2113 69.5072 12.0467C69.2732 11.8733 69.0218 11.7043 68.7532 11.5397C68.4845 11.3663 68.2245 11.219 67.9732 11.0977ZM67.3622 14.6207L67.8952 13.9057C68.1638 14.001 68.4368 14.1223 68.7142 14.2697C68.9915 14.4083 69.2515 14.5557 69.4942 14.7117C69.7368 14.859 69.9362 15.002 70.0922 15.1407L69.5332 15.9337C69.3772 15.795 69.1778 15.6477 68.9352 15.4917C68.7012 15.327 68.4455 15.171 68.1682 15.0237C67.8908 14.8677 67.6222 14.7333 67.3622 14.6207ZM67.6482 21.5237C67.8215 21.1943 68.0122 20.813 68.2202 20.3797C68.4368 19.9377 68.6492 19.474 68.8572 18.9887C69.0738 18.4947 69.2732 18.0137 69.4552 17.5457L70.2352 18.0917C70.0705 18.525 69.8885 18.9757 69.6892 19.4437C69.4985 19.9117 69.3035 20.371 69.1042 20.8217C68.9135 21.2637 68.7185 21.6797 68.5192 22.0697L67.6482 21.5237ZM87.7332 20.1457H91.2692V21.0817H87.7332V20.1457ZM80.5572 12.7357H85.5622V13.6977H80.5572V12.7357ZM87.3042 11.8907H91.7372V21.9397H90.7622V12.8397H88.2402V22.0437H87.3042V11.8907ZM85.3022 12.7357H86.2382C86.2382 12.7357 86.2382 12.7703 86.2382 12.8397C86.2382 12.9003 86.2382 12.974 86.2382 13.0607C86.2382 13.1387 86.2382 13.1993 86.2382 13.2427C86.2122 14.69 86.1862 15.9077 86.1602 16.8957C86.1342 17.8837 86.0995 18.694 86.0562 19.3267C86.0128 19.9507 85.9565 20.4317 85.8872 20.7697C85.8265 21.1077 85.7442 21.346 85.6402 21.4847C85.5188 21.6493 85.3932 21.7663 85.2632 21.8357C85.1332 21.9137 84.9728 21.9657 84.7822 21.9917C84.6002 22.0177 84.3662 22.0263 84.0802 22.0177C83.8028 22.0177 83.5212 22.009 83.2352 21.9917C83.2265 21.8443 83.1962 21.6797 83.1442 21.4977C83.1008 21.3157 83.0358 21.1553 82.9492 21.0167C83.2525 21.0427 83.5342 21.06 83.7942 21.0687C84.0542 21.0687 84.2405 21.0687 84.3532 21.0687C84.4485 21.0773 84.5308 21.0687 84.6002 21.0427C84.6695 21.008 84.7345 20.9473 84.7952 20.8607C84.8645 20.7653 84.9252 20.5617 84.9772 20.2497C85.0292 19.929 85.0768 19.4653 85.1202 18.8587C85.1635 18.252 85.1982 17.4677 85.2242 16.5057C85.2502 15.535 85.2762 14.3563 85.3022 12.9697V12.7357ZM82.4032 10.4477H83.3652C83.3565 11.6523 83.3348 12.8267 83.3002 13.9707C83.2655 15.1147 83.1745 16.198 83.0272 17.2207C82.8885 18.2433 82.6545 19.1837 82.3252 20.0417C82.0045 20.891 81.5582 21.6277 80.9862 22.2517C80.9342 22.1737 80.8648 22.0913 80.7782 22.0047C80.6915 21.9267 80.6005 21.8487 80.5052 21.7707C80.4098 21.6927 80.3188 21.6277 80.2322 21.5757C80.6655 21.125 81.0165 20.5963 81.2852 19.9897C81.5625 19.383 81.7792 18.72 81.9352 18.0007C82.0912 17.2727 82.1995 16.5013 82.2602 15.6867C82.3295 14.8633 82.3685 14.014 82.3772 13.1387C82.3945 12.2547 82.4032 11.3577 82.4032 10.4477Z" fill="white"/>
<path d="M251.188 3.98438C251.188 2.32752 252.531 0.984375 254.187 0.984375H315.891C317.547 0.984375 318.891 2.32752 318.891 3.98438V30.5469C318.891 32.2037 317.547 33.5469 315.891 33.5469H254.188C252.531 33.5469 251.188 32.2037 251.188 30.5469V3.98438Z" fill="#F75444"/>
<g clip-path="url(#clip2_47_33)">
<path d="M273.337 21.2194C273.431 21.126 273.477 21.0194 273.477 20.8994C273.477 20.7727 273.431 20.6627 273.337 20.5694C273.244 20.476 273.134 20.4294 273.007 20.4294C272.881 20.4294 272.771 20.476 272.677 20.5694C272.591 20.6627 272.547 20.7727 272.547 20.8994C272.547 21.0194 272.591 21.126 272.677 21.2194C272.771 21.3127 272.881 21.3594 273.007 21.3594C273.134 21.3594 273.244 21.3127 273.337 21.2194ZM275.198 21.2194C275.284 21.126 275.328 21.0194 275.328 20.8994C275.328 20.7727 275.284 20.6627 275.198 20.5694C275.104 20.476 274.994 20.4294 274.868 20.4294C274.741 20.4294 274.631 20.476 274.538 20.5694C274.444 20.6627 274.398 20.7727 274.398 20.8994C274.398 21.0194 274.444 21.126 274.538 21.2194C274.631 21.3127 274.741 21.3594 274.868 21.3594C274.994 21.3594 275.104 21.3127 275.198 21.2194ZM276.257 19.2694V21.5894C276.257 21.7827 276.191 21.9494 276.057 22.0894C275.924 22.2227 275.757 22.2894 275.557 22.2894H264.887C264.694 22.2894 264.528 22.2227 264.388 22.0894C264.254 21.9494 264.188 21.7827 264.188 21.5894V19.2694C264.188 19.076 264.254 18.9127 264.388 18.7794C264.528 18.6394 264.694 18.5694 264.887 18.5694H267.977C268.084 18.8427 268.257 19.066 268.497 19.2394C268.731 19.4127 268.998 19.4994 269.298 19.4994H271.148C271.448 19.4994 271.717 19.4127 271.957 19.2394C272.197 19.066 272.367 18.8427 272.467 18.5694H275.557C275.757 18.5694 275.924 18.6394 276.057 18.7794C276.191 18.9127 276.257 19.076 276.257 19.2694ZM273.898 14.5694C273.818 14.7627 273.677 14.8594 273.477 14.8594H271.617V18.1094C271.617 18.236 271.571 18.346 271.477 18.4394C271.384 18.526 271.274 18.5694 271.148 18.5694H269.298C269.171 18.5694 269.061 18.526 268.968 18.4394C268.874 18.346 268.827 18.236 268.827 18.1094V14.8594H266.977C266.771 14.8594 266.627 14.7627 266.547 14.5694C266.461 14.3827 266.494 14.216 266.648 14.0694L269.898 10.8194C269.984 10.726 270.094 10.6794 270.227 10.6794C270.354 10.6794 270.461 10.726 270.548 10.8194L273.797 14.0694C273.951 14.216 273.984 14.3827 273.898 14.5694Z" fill="white"/>
</g>
<path d="M279.674 17.4157H291.14V18.3257H279.674V17.4157ZM287.292 16.4017H288.293V21.0817C288.293 21.359 288.245 21.5713 288.15 21.7187C288.063 21.8747 287.903 21.983 287.669 22.0437C287.435 22.113 287.114 22.152 286.707 22.1607C286.3 22.178 285.784 22.1867 285.16 22.1867C285.134 22.0653 285.086 21.918 285.017 21.7447C284.948 21.58 284.878 21.437 284.809 21.3157C285.13 21.3243 285.437 21.3287 285.732 21.3287C286.027 21.3287 286.282 21.3287 286.499 21.3287C286.724 21.3287 286.876 21.3287 286.954 21.3287C287.084 21.32 287.171 21.294 287.214 21.2507C287.266 21.216 287.292 21.151 287.292 21.0557V16.4017ZM281.611 18.8327L282.287 18.2477C282.564 18.4643 282.842 18.7113 283.119 18.9887C283.405 19.2573 283.665 19.526 283.899 19.7947C284.133 20.0633 284.319 20.3103 284.458 20.5357L283.73 21.1857C283.609 20.9517 283.431 20.696 283.197 20.4187C282.963 20.1413 282.707 19.864 282.43 19.5867C282.161 19.3093 281.888 19.058 281.611 18.8327ZM280.623 11.1887H281.637V14.5817C281.637 14.7637 281.68 14.9067 281.767 15.0107C281.854 15.106 282.018 15.1753 282.261 15.2187C282.504 15.2533 282.863 15.2707 283.34 15.2707C283.453 15.2707 283.639 15.2707 283.899 15.2707C284.159 15.2707 284.458 15.2707 284.796 15.2707C285.134 15.2707 285.485 15.2707 285.849 15.2707C286.222 15.2707 286.586 15.2707 286.941 15.2707C287.296 15.2707 287.613 15.2707 287.89 15.2707C288.167 15.2707 288.384 15.2707 288.54 15.2707C288.895 15.2707 289.164 15.2447 289.346 15.1927C289.528 15.132 289.654 15.0193 289.723 14.8547C289.801 14.6813 289.857 14.4387 289.892 14.1267C290.022 14.196 290.174 14.2567 290.347 14.3087C290.529 14.3607 290.694 14.3997 290.841 14.4257C290.789 14.8677 290.689 15.21 290.542 15.4527C290.403 15.6867 290.182 15.8513 289.879 15.9467C289.576 16.0333 289.151 16.0767 288.605 16.0767C288.518 16.0767 288.341 16.0767 288.072 16.0767C287.812 16.0767 287.5 16.0767 287.136 16.0767C286.772 16.0767 286.391 16.0767 285.992 16.0767C285.593 16.0767 285.212 16.0767 284.848 16.0767C284.493 16.0767 284.185 16.0767 283.925 16.0767C283.665 16.0767 283.496 16.0767 283.418 16.0767C282.699 16.0767 282.135 16.0377 281.728 15.9597C281.329 15.8817 281.043 15.7387 280.87 15.5307C280.705 15.314 280.623 15.002 280.623 14.5947V11.1887ZM280.974 13.0217H288.644V11.6567H280.623V10.7987H289.606V13.8927H280.974V13.0217ZM294.832 11.0717H298.511V12.0597H294.832V11.0717ZM298.017 11.0717H299.005C299.005 11.453 299.022 11.9037 299.057 12.4237C299.092 12.9437 299.165 13.5027 299.278 14.1007C299.391 14.69 299.564 15.3053 299.798 15.9467C300.032 16.588 300.348 17.2293 300.747 17.8707C301.146 18.5033 301.644 19.1187 302.242 19.7167C302.849 20.3147 303.581 20.865 304.439 21.3677C304.37 21.4283 304.279 21.5063 304.166 21.6017C304.062 21.7057 303.962 21.8097 303.867 21.9137C303.78 22.0263 303.707 22.1217 303.646 22.1997C302.779 21.671 302.034 21.0903 301.41 20.4577C300.795 19.8163 300.279 19.149 299.863 18.4557C299.456 17.7623 299.126 17.069 298.875 16.3757C298.632 15.6737 298.446 14.9977 298.316 14.3477C298.195 13.689 298.112 13.078 298.069 12.5147C298.034 11.9513 298.017 11.4703 298.017 11.0717ZM297.64 13.6197L298.745 13.8147C298.433 15.132 298.026 16.3193 297.523 17.3767C297.029 18.434 296.427 19.3657 295.716 20.1717C295.014 20.969 294.182 21.6493 293.22 22.2127C293.168 22.1433 293.086 22.061 292.973 21.9657C292.869 21.8703 292.756 21.7707 292.635 21.6667C292.522 21.5713 292.423 21.4933 292.336 21.4327C293.783 20.67 294.932 19.6387 295.781 18.3387C296.63 17.03 297.25 15.457 297.64 13.6197Z" fill="white"/>
<g opacity="0.65">
<path d="M110.781 3.98438C110.781 2.32752 112.124 0.984375 113.781 0.984375H174.563C176.219 0.984375 177.562 2.32752 177.562 3.98438V30.5469C177.562 32.2037 176.219 33.5469 174.563 33.5469H113.781C112.124 33.5469 110.781 32.2037 110.781 30.5469V3.98438Z" fill="#18BC9C"/>
<g clip-path="url(#clip3_47_33)">
<path d="M125.641 21.0511H126.411L127.071 20.3911L125.371 18.6911L124.711 19.3511V20.1211H125.641V21.0511ZM130.211 14.3211C130.211 14.2144 130.158 14.1611 130.051 14.1611C130.005 14.1611 129.961 14.1777 129.921 14.2111L125.991 18.1411C125.958 18.1744 125.941 18.2144 125.941 18.2611C125.941 18.3677 125.995 18.4211 126.101 18.4211C126.148 18.4211 126.188 18.4044 126.221 18.3711L130.161 14.4411C130.195 14.4077 130.211 14.3677 130.211 14.3211ZM123.781 18.9611L129.821 12.9211L132.831 15.9411L126.801 21.9811H123.781V18.9611ZM134.771 13.6211C134.771 13.8811 134.681 14.0977 134.501 14.2711L133.301 15.4811L130.281 12.4611L131.481 11.2611C131.661 11.0811 131.881 10.9911 132.141 10.9911C132.395 10.9911 132.615 11.0811 132.801 11.2611L134.501 12.9611C134.681 13.1477 134.771 13.3677 134.771 13.6211Z" fill="white"/>
</g>
<path d="M138.424 18.8327C138.407 18.772 138.381 18.6897 138.346 18.5857C138.311 18.473 138.272 18.3603 138.229 18.2477C138.194 18.135 138.16 18.0397 138.125 17.9617C138.264 17.9357 138.402 17.8447 138.541 17.6887C138.688 17.5327 138.857 17.3333 139.048 17.0907C139.143 16.9693 139.282 16.7743 139.464 16.5057C139.655 16.2283 139.867 15.9033 140.101 15.5307C140.344 15.1493 140.582 14.742 140.816 14.3087C141.059 13.8667 141.28 13.4247 141.479 12.9827L142.272 13.4377C141.969 14.027 141.639 14.6163 141.284 15.2057C140.937 15.795 140.573 16.354 140.192 16.8827C139.819 17.4113 139.442 17.8923 139.061 18.3257V18.3517C139.061 18.3517 139.026 18.369 138.957 18.4037C138.896 18.4297 138.823 18.4687 138.736 18.5207C138.649 18.564 138.576 18.616 138.515 18.6767C138.454 18.7287 138.424 18.7807 138.424 18.8327ZM138.424 18.8327L138.359 18.0527L138.801 17.7277L141.882 17.0777C141.873 17.2077 141.878 17.3507 141.895 17.5067C141.912 17.654 141.93 17.7797 141.947 17.8837C141.228 18.0483 140.647 18.187 140.205 18.2997C139.772 18.4037 139.438 18.4903 139.204 18.5597C138.97 18.6203 138.797 18.6723 138.684 18.7157C138.571 18.759 138.485 18.798 138.424 18.8327ZM138.333 15.6997C138.316 15.639 138.29 15.5523 138.255 15.4397C138.22 15.327 138.181 15.2143 138.138 15.1017C138.103 14.989 138.069 14.8937 138.034 14.8157C138.147 14.781 138.255 14.6943 138.359 14.5557C138.472 14.4083 138.593 14.222 138.723 13.9967C138.792 13.884 138.892 13.7063 139.022 13.4637C139.152 13.2123 139.295 12.9133 139.451 12.5667C139.616 12.22 139.772 11.8517 139.919 11.4617C140.075 11.063 140.214 10.6687 140.335 10.2787L141.271 10.6037C141.063 11.1583 140.829 11.713 140.569 12.2677C140.318 12.8137 140.049 13.338 139.763 13.8407C139.477 14.3347 139.191 14.781 138.905 15.1797V15.2057C138.905 15.2057 138.875 15.223 138.814 15.2577C138.762 15.2837 138.697 15.327 138.619 15.3877C138.541 15.4397 138.472 15.4917 138.411 15.5437C138.359 15.5957 138.333 15.6477 138.333 15.6997ZM138.333 15.6997L138.307 14.9717L138.775 14.6857L141.024 14.4517C140.998 14.573 140.976 14.7117 140.959 14.8677C140.95 15.0237 140.946 15.1537 140.946 15.2577C140.435 15.3183 140.019 15.3747 139.698 15.4267C139.386 15.47 139.139 15.509 138.957 15.5437C138.775 15.5697 138.636 15.5957 138.541 15.6217C138.454 15.6477 138.385 15.6737 138.333 15.6997ZM138.06 20.4967C138.545 20.332 139.122 20.124 139.789 19.8727C140.456 19.6127 141.145 19.3483 141.856 19.0797L142.038 19.8597C141.388 20.137 140.734 20.41 140.075 20.6787C139.425 20.9387 138.831 21.177 138.294 21.3937L138.06 20.4967ZM145.652 16.2977H146.315V21.8097H145.652V16.2977ZM147.238 16.2847H147.901V21.7967H147.238V16.2847ZM148.863 15.8297H149.63V21.2897C149.63 21.4717 149.613 21.619 149.578 21.7317C149.543 21.8443 149.465 21.9353 149.344 22.0047C149.231 22.0653 149.093 22.1043 148.928 22.1217C148.772 22.139 148.577 22.1477 148.343 22.1477C148.334 22.035 148.308 21.9093 148.265 21.7707C148.222 21.632 148.174 21.5107 148.122 21.4067C148.269 21.4153 148.395 21.4197 148.499 21.4197C148.612 21.4197 148.69 21.4197 148.733 21.4197C148.82 21.411 148.863 21.3677 148.863 21.2897V15.8297ZM142.922 11.6827H143.819V14.5037C143.819 15.0323 143.802 15.6173 143.767 16.2587C143.732 16.9 143.663 17.5587 143.559 18.2347C143.464 18.9107 143.321 19.5737 143.13 20.2237C142.939 20.8737 142.688 21.4717 142.376 22.0177C142.324 21.9657 142.25 21.9007 142.155 21.8227C142.06 21.7533 141.964 21.684 141.869 21.6147C141.774 21.5453 141.691 21.4977 141.622 21.4717C141.917 20.9517 142.151 20.3927 142.324 19.7947C142.506 19.188 142.636 18.577 142.714 17.9617C142.801 17.3377 142.857 16.731 142.883 16.1417C142.909 15.5437 142.922 14.9977 142.922 14.5037V11.6827ZM143.39 11.6827H149.5V14.7247H143.39V13.9057H148.59V12.5147H143.39V11.6827ZM143.793 15.8427H149.279V16.6487H144.573V22.1347H143.793V15.8427ZM144.196 18.5727H149.214V19.3397H144.196V18.5727ZM145.405 10.4607L146.315 10.2007C146.471 10.4433 146.614 10.7163 146.744 11.0197C146.883 11.3143 146.987 11.5743 147.056 11.7997L146.094 12.1247C146.042 11.8993 145.947 11.6307 145.808 11.3187C145.678 11.0067 145.544 10.7207 145.405 10.4607ZM151.151 11.8127H155.896V12.7487H151.151V11.8127ZM153.712 13.8147H154.609V22.1867H153.712V13.8147ZM151.06 19.0277C151.476 18.967 151.953 18.889 152.49 18.7937C153.036 18.6983 153.608 18.5987 154.206 18.4947C154.813 18.382 155.424 18.2693 156.039 18.1567L156.091 19.0017C155.242 19.1837 154.392 19.3613 153.543 19.5347C152.694 19.6993 151.935 19.8467 151.268 19.9767L151.06 19.0277ZM151.593 16.8827C151.576 16.822 151.55 16.7397 151.515 16.6357C151.48 16.523 151.441 16.4147 151.398 16.3107C151.363 16.198 151.329 16.1027 151.294 16.0247C151.407 15.9987 151.511 15.8903 151.606 15.6997C151.701 15.5003 151.801 15.2577 151.905 14.9717C151.957 14.833 152.035 14.6033 152.139 14.2827C152.243 13.962 152.351 13.585 152.464 13.1517C152.585 12.7097 152.702 12.2417 152.815 11.7477C152.928 11.2537 153.019 10.764 153.088 10.2787L154.037 10.4737C153.907 11.167 153.747 11.8647 153.556 12.5667C153.365 13.2687 153.157 13.9447 152.932 14.5947C152.707 15.236 152.477 15.8167 152.243 16.3367V16.3627C152.243 16.3627 152.208 16.38 152.139 16.4147C152.078 16.4493 152.005 16.497 151.918 16.5577C151.831 16.6097 151.753 16.666 151.684 16.7267C151.623 16.7873 151.593 16.8393 151.593 16.8827ZM151.593 16.8827V16.0767L152.113 15.8167H155.805V16.7007H152.529C152.312 16.7007 152.113 16.718 151.931 16.7527C151.758 16.7873 151.645 16.8307 151.593 16.8827ZM161.135 14.4777H162.045V22.2387H161.135V14.4777ZM157.703 11.4357V12.7487H161.187V11.4357H157.703ZM156.806 10.6947H162.136V13.4767H156.806V10.6947ZM156.039 14.2437H162.929V15.0627H156.039V14.2437ZM157.339 16.1807H161.395V16.9217H157.339V16.1807ZM157.339 18.0527H161.434V18.7937H157.339V18.0527ZM156.923 14.4517H157.82V20.4057L156.923 20.5097V14.4517ZM155.74 20.2107C156.329 20.176 157.018 20.1327 157.807 20.0807C158.596 20.0287 159.436 19.9723 160.329 19.9117C161.23 19.8423 162.127 19.773 163.02 19.7037L163.007 20.5227C162.158 20.592 161.3 20.6613 160.433 20.7307C159.575 20.8 158.756 20.865 157.976 20.9257C157.196 20.9863 156.503 21.0427 155.896 21.0947L155.74 20.2107Z" fill="white"/>
</g>
<g opacity="0.65">
<path d="M181.453 3.98438C181.453 2.32752 182.796 0.984375 184.453 0.984375H244.297C245.954 0.984375 247.297 2.32752 247.297 3.98438V30.5469C247.297 32.2037 245.954 33.5469 244.297 33.5469H184.453C182.796 33.5469 181.453 32.2037 181.453 30.5469V3.98438Z" fill="#F75444"/>
<g clip-path="url(#clip4_47_33)">
<path d="M198.163 19.9672V14.8572C198.163 14.7905 198.143 14.7372 198.103 14.6972C198.056 14.6505 198 14.6272 197.933 14.6272H197.473C197.406 14.6272 197.35 14.6505 197.303 14.6972C197.263 14.7372 197.243 14.7905 197.243 14.8572V19.9672C197.243 20.0339 197.263 20.0905 197.303 20.1372C197.35 20.1772 197.406 20.1972 197.473 20.1972H197.933C198 20.1972 198.056 20.1772 198.103 20.1372C198.143 20.0905 198.163 20.0339 198.163 19.9672ZM200.023 19.9672V14.8572C200.023 14.7905 200.003 14.7372 199.963 14.6972C199.916 14.6505 199.86 14.6272 199.793 14.6272H199.333C199.26 14.6272 199.203 14.6505 199.163 14.6972C199.116 14.7372 199.093 14.7905 199.093 14.8572V19.9672C199.093 20.0339 199.116 20.0905 199.163 20.1372C199.203 20.1772 199.26 20.1972 199.333 20.1972H199.793C199.86 20.1972 199.916 20.1772 199.963 20.1372C200.003 20.0905 200.023 20.0339 200.023 19.9672ZM201.883 19.9672V14.8572C201.883 14.7905 201.86 14.7372 201.813 14.6972C201.773 14.6505 201.72 14.6272 201.653 14.6272H201.183C201.116 14.6272 201.063 14.6505 201.023 14.6972C200.976 14.7372 200.953 14.7905 200.953 14.8572V19.9672C200.953 20.0339 200.976 20.0905 201.023 20.1372C201.063 20.1772 201.116 20.1972 201.183 20.1972H201.653C201.72 20.1972 201.773 20.1772 201.813 20.1372C201.86 20.0905 201.883 20.0339 201.883 19.9672ZM198.293 11.9172L197.933 12.7672H201.183L200.833 11.9172C200.8 11.8772 200.76 11.8505 200.713 11.8372H198.413C198.366 11.8505 198.326 11.8772 198.293 11.9172ZM204.663 12.9972V13.4672C204.663 13.5339 204.643 13.5905 204.603 13.6372C204.556 13.6772 204.5 13.6972 204.433 13.6972H203.743V20.5772C203.743 20.9772 203.626 21.3239 203.393 21.6172C203.166 21.9105 202.896 22.0572 202.583 22.0572H196.543C196.223 22.0572 195.95 21.9139 195.723 21.6272C195.496 21.3472 195.383 21.0072 195.383 20.6072V13.6972H194.683C194.616 13.6972 194.563 13.6772 194.523 13.6372C194.476 13.5905 194.453 13.5339 194.453 13.4672V12.9972C194.453 12.9305 194.476 12.8772 194.523 12.8372C194.563 12.7905 194.616 12.7672 194.683 12.7672H196.923L197.433 11.5572C197.506 11.3772 197.636 11.2239 197.823 11.0972C198.016 10.9772 198.21 10.9172 198.403 10.9172H200.723C200.916 10.9172 201.106 10.9772 201.293 11.0972C201.48 11.2239 201.61 11.3772 201.683 11.5572L202.193 12.7672H204.433C204.5 12.7672 204.556 12.7905 204.603 12.8372C204.643 12.8772 204.663 12.9305 204.663 12.9972Z" fill="white"/>
</g>
<path d="M216.491 11.7217H217.284V19.0667H216.491V11.7217ZM218.376 10.4997H219.234V21.1337C219.234 21.4023 219.2 21.606 219.13 21.7447C219.061 21.892 218.944 22.0003 218.779 22.0697C218.615 22.139 218.394 22.1823 218.116 22.1997C217.848 22.2257 217.505 22.2387 217.089 22.2387C217.072 22.126 217.033 21.983 216.972 21.8097C216.92 21.645 216.864 21.4977 216.803 21.3677C217.115 21.3763 217.393 21.3807 217.635 21.3807C217.887 21.3807 218.056 21.3807 218.142 21.3807C218.229 21.3807 218.29 21.3633 218.324 21.3287C218.359 21.294 218.376 21.229 218.376 21.1337V10.4997ZM208.99 10.6947H211.278V11.5657H208.99V10.6947ZM208.678 10.6947H209.497V16.8957C209.497 17.4677 209.476 18.0787 209.432 18.7287C209.389 19.3787 209.294 20.0113 209.146 20.6267C209.008 21.242 208.791 21.7837 208.496 22.2517C208.453 22.1997 208.388 22.139 208.301 22.0697C208.215 22.009 208.124 21.9483 208.028 21.8877C207.933 21.827 207.851 21.7837 207.781 21.7577C208.059 21.3157 208.258 20.8217 208.379 20.2757C208.509 19.7297 208.592 19.1663 208.626 18.5857C208.661 17.9963 208.678 17.433 208.678 16.8957V10.6947ZM210.706 10.6947H211.525V21.0557C211.525 21.281 211.499 21.463 211.447 21.6017C211.395 21.7403 211.296 21.8443 211.148 21.9137C211.01 21.9917 210.828 22.0393 210.602 22.0567C210.377 22.0827 210.091 22.0957 209.744 22.0957C209.736 21.9743 209.705 21.827 209.653 21.6537C209.601 21.489 209.549 21.3503 209.497 21.2377C209.731 21.2463 209.944 21.2463 210.134 21.2377C210.325 21.2377 210.455 21.2377 210.524 21.2377C210.594 21.2377 210.641 21.2247 210.667 21.1987C210.693 21.164 210.706 21.112 210.706 21.0427V10.6947ZM212.747 10.6947H215.022V11.5657H212.747V10.6947ZM212.435 10.6947H213.254V16.3237C213.254 16.7743 213.241 17.264 213.215 17.7927C213.198 18.3127 213.159 18.837 213.098 19.3657C213.046 19.8943 212.96 20.4057 212.838 20.8997C212.717 21.385 212.561 21.827 212.37 22.2257C212.318 22.1823 212.249 22.1303 212.162 22.0697C212.076 22.0177 211.985 21.9657 211.889 21.9137C211.803 21.8617 211.725 21.8227 211.655 21.7967C211.837 21.4153 211.98 20.9993 212.084 20.5487C212.197 20.098 212.275 19.63 212.318 19.1447C212.37 18.6507 212.401 18.1653 212.409 17.6887C212.427 17.212 212.435 16.7613 212.435 16.3367V10.6947ZM214.463 10.6947H215.282V21.0557C215.282 21.281 215.256 21.463 215.204 21.6017C215.152 21.7403 215.053 21.8487 214.905 21.9267C214.775 21.996 214.598 22.0393 214.372 22.0567C214.147 22.0827 213.857 22.0957 213.501 22.0957C213.493 21.9743 213.462 21.827 213.41 21.6537C213.367 21.489 213.315 21.3503 213.254 21.2377C213.488 21.2463 213.701 21.2507 213.891 21.2507C214.082 21.2507 214.212 21.2507 214.281 21.2507C214.351 21.242 214.398 21.2247 214.424 21.1987C214.45 21.1727 214.463 21.1207 214.463 21.0427V10.6947ZM207.846 15.3487H215.958V16.2457H207.846V15.3487ZM226.202 14.0747H231.246V14.9067H226.202V14.0747ZM225.331 16.5317H232.26V17.3767H225.331V16.5317ZM228.659 11.2017C228.417 11.609 228.105 12.0337 227.723 12.4757C227.342 12.909 226.922 13.3293 226.462 13.7367C226.012 14.1353 225.535 14.4907 225.032 14.8027C224.98 14.6813 224.907 14.547 224.811 14.3997C224.716 14.2523 224.625 14.131 224.538 14.0357C225.032 13.741 225.513 13.39 225.981 12.9827C226.449 12.5667 226.874 12.129 227.255 11.6697C227.637 11.2017 227.944 10.7467 228.178 10.3047H229.062C229.383 10.7813 229.751 11.2493 230.167 11.7087C230.592 12.168 231.038 12.5883 231.506 12.9697C231.983 13.351 232.451 13.6673 232.91 13.9187C232.824 14.0313 232.728 14.1657 232.624 14.3217C232.52 14.469 232.434 14.6077 232.364 14.7377C231.922 14.4517 231.467 14.1137 230.999 13.7237C230.531 13.3337 230.094 12.922 229.686 12.4887C229.288 12.0467 228.945 11.6177 228.659 11.2017ZM228.217 14.4777H229.153V21.1337C229.153 21.385 229.119 21.5843 229.049 21.7317C228.989 21.879 228.872 21.9917 228.698 22.0697C228.534 22.1477 228.313 22.1953 228.035 22.2127C227.758 22.23 227.416 22.2387 227.008 22.2387C226.991 22.1173 226.948 21.9657 226.878 21.7837C226.818 21.6103 226.753 21.4587 226.683 21.3287C226.987 21.3373 227.26 21.3417 227.502 21.3417C227.754 21.3417 227.923 21.3417 228.009 21.3417C228.096 21.333 228.152 21.3157 228.178 21.2897C228.204 21.2637 228.217 21.2073 228.217 21.1207V14.4777ZM226.189 18.0787L227.047 18.2867C226.839 18.876 226.562 19.4523 226.215 20.0157C225.877 20.5703 225.522 21.0383 225.149 21.4197C225.097 21.3677 225.028 21.307 224.941 21.2377C224.863 21.1683 224.777 21.099 224.681 21.0297C224.595 20.9517 224.517 20.891 224.447 20.8477C224.811 20.501 225.145 20.085 225.448 19.5997C225.752 19.1057 225.999 18.5987 226.189 18.0787ZM230.102 18.4167L230.843 18.0527C231.086 18.3473 231.324 18.6723 231.558 19.0277C231.792 19.3743 232.009 19.7123 232.208 20.0417C232.408 20.371 232.564 20.67 232.676 20.9387L231.87 21.3547C231.766 21.0947 231.615 20.7957 231.415 20.4577C231.225 20.111 231.017 19.76 230.791 19.4047C230.566 19.0493 230.336 18.72 230.102 18.4167ZM221.327 10.8377H224.382V11.7217H222.198V22.2387H221.327V10.8377ZM224.096 10.8377H224.265L224.408 10.7987L225.045 11.1757C224.915 11.531 224.777 11.9123 224.629 12.3197C224.491 12.7183 224.343 13.117 224.187 13.5157C224.04 13.9057 223.893 14.274 223.745 14.6207C224.222 15.158 224.534 15.6607 224.681 16.1287C224.837 16.588 224.915 17.0213 224.915 17.4287C224.915 17.7753 224.872 18.0787 224.785 18.3387C224.707 18.5987 224.577 18.7937 224.395 18.9237C224.309 18.9843 224.205 19.0363 224.083 19.0797C223.971 19.1143 223.849 19.1403 223.719 19.1577C223.451 19.1837 223.16 19.1923 222.848 19.1837C222.84 19.0623 222.814 18.9193 222.77 18.7547C222.736 18.59 222.679 18.447 222.601 18.3257C222.749 18.3343 222.887 18.3387 223.017 18.3387C223.147 18.3387 223.26 18.3387 223.355 18.3387C223.529 18.33 223.667 18.291 223.771 18.2217C223.875 18.1437 223.945 18.0267 223.979 17.8707C224.023 17.706 224.044 17.5283 224.044 17.3377C224.044 16.9737 223.962 16.5793 223.797 16.1547C223.641 15.7213 223.329 15.249 222.861 14.7377C222.983 14.443 223.1 14.131 223.212 13.8017C223.334 13.4637 223.446 13.1343 223.55 12.8137C223.663 12.4843 223.763 12.1723 223.849 11.8777C223.945 11.583 224.027 11.3273 224.096 11.1107V10.8377Z" fill="white"/>
</g>
<g opacity="0.65">
<path d="M322.781 3.98438C322.781 2.32752 324.124 0.984375 325.781 0.984375H386.563C388.219 0.984375 389.562 2.32752 389.562 3.98438V30.5469C389.562 32.2037 388.219 33.5469 386.563 33.5469H325.781C324.124 33.5469 322.781 32.2037 322.781 30.5469V3.98438Z" fill="#444C69"/>
<g clip-path="url(#clip5_47_33)">
<path d="M342.661 17.7972C343.028 17.4372 343.211 17.0005 343.211 16.4872C343.211 15.9739 343.028 15.5339 342.661 15.1672C342.301 14.8072 341.865 14.6272 341.351 14.6272C340.838 14.6272 340.401 14.8072 340.041 15.1672C339.675 15.5339 339.491 15.9739 339.491 16.4872C339.491 17.0005 339.675 17.4372 340.041 17.7972C340.401 18.1572 340.838 18.3372 341.351 18.3372C341.865 18.3372 342.301 18.1572 342.661 17.7972ZM346.921 15.6972V17.3072C346.921 17.3605 346.901 17.4139 346.861 17.4672C346.828 17.5205 346.781 17.5539 346.721 17.5672L345.381 17.7672C345.288 18.0272 345.191 18.2472 345.091 18.4272C345.265 18.6672 345.525 19.0005 345.871 19.4272C345.918 19.4872 345.941 19.5472 345.941 19.6072C345.941 19.6739 345.921 19.7305 345.881 19.7772C345.748 19.9572 345.508 20.2172 345.161 20.5572C344.815 20.9039 344.588 21.0772 344.481 21.0772C344.421 21.0772 344.358 21.0539 344.291 21.0072L343.291 20.2272C343.078 20.3405 342.858 20.4339 342.631 20.5072C342.551 21.1605 342.481 21.6105 342.421 21.8572C342.388 21.9905 342.301 22.0572 342.161 22.0572H340.551C340.478 22.0572 340.418 22.0372 340.371 21.9972C340.318 21.9572 340.291 21.9039 340.291 21.8372L340.081 20.5072C339.848 20.4272 339.631 20.3372 339.431 20.2372L338.411 21.0072C338.358 21.0539 338.295 21.0772 338.221 21.0772C338.155 21.0772 338.095 21.0505 338.041 20.9972C337.435 20.4439 337.038 20.0372 336.851 19.7772C336.818 19.7305 336.801 19.6739 336.801 19.6072C336.801 19.5539 336.818 19.5005 336.851 19.4472C336.925 19.3405 337.048 19.1772 337.221 18.9572C337.395 18.7372 337.528 18.5672 337.621 18.4472C337.488 18.2072 337.388 17.9672 337.321 17.7272L335.991 17.5372C335.931 17.5239 335.881 17.4939 335.841 17.4472C335.801 17.3939 335.781 17.3372 335.781 17.2772V15.6672C335.781 15.6072 335.801 15.5505 335.841 15.4972C335.881 15.4439 335.928 15.4139 335.981 15.4072L337.331 15.1972C337.398 14.9772 337.491 14.7572 337.611 14.5372C337.418 14.2572 337.158 13.9205 336.831 13.5272C336.785 13.4739 336.761 13.4172 336.761 13.3572C336.761 13.3105 336.781 13.2539 336.821 13.1872C336.948 13.0139 337.188 12.7539 337.541 12.4072C337.895 12.0672 338.121 11.8972 338.221 11.8972C338.288 11.8972 338.351 11.9205 338.411 11.9672L339.411 12.7372C339.625 12.6305 339.845 12.5405 340.071 12.4672C340.151 11.8072 340.225 11.3572 340.291 11.1172C340.325 10.9839 340.411 10.9172 340.551 10.9172H342.161C342.228 10.9172 342.285 10.9372 342.331 10.9772C342.385 11.0172 342.415 11.0672 342.421 11.1272L342.621 12.4672C342.861 12.5405 343.078 12.6305 343.271 12.7372L344.301 11.9572C344.348 11.9172 344.408 11.8972 344.481 11.8972C344.541 11.8972 344.601 11.9205 344.661 11.9672C345.288 12.5405 345.688 12.9505 345.861 13.1972C345.895 13.2372 345.911 13.2905 345.911 13.3572C345.911 13.4172 345.891 13.4739 345.851 13.5272C345.778 13.6272 345.655 13.7872 345.481 14.0072C345.308 14.2272 345.178 14.3972 345.091 14.5172C345.218 14.7572 345.315 14.9939 345.381 15.2272L346.711 15.4372C346.778 15.4439 346.828 15.4739 346.861 15.5272C346.901 15.5739 346.921 15.6305 346.921 15.6972Z" fill="white"/>
</g>
<path d="M350.385 10.9677H361.695V11.8517H350.385V10.9677ZM355.611 11.3447H356.625V16.3887C356.625 16.8913 356.586 17.381 356.508 17.8577C356.43 18.3257 356.278 18.7763 356.053 19.2097C355.828 19.643 355.498 20.0503 355.065 20.4317C354.632 20.813 354.06 21.1553 353.349 21.4587C352.647 21.762 351.776 22.0263 350.736 22.2517C350.701 22.1737 350.649 22.0827 350.58 21.9787C350.511 21.8747 350.437 21.7663 350.359 21.6537C350.29 21.5497 350.22 21.463 350.151 21.3937C351.165 21.203 352.006 20.9777 352.673 20.7177C353.34 20.4577 353.869 20.1673 354.259 19.8467C354.658 19.5173 354.952 19.1707 355.143 18.8067C355.334 18.434 355.459 18.044 355.52 17.6367C355.581 17.2293 355.611 16.809 355.611 16.3757V11.3447ZM352.504 15.8557V17.1817H359.914V15.8557H352.504ZM352.504 13.7757V15.0757H359.914V13.7757H352.504ZM351.568 12.9567H360.889V17.9877H351.568V12.9567ZM352.816 18.1047C353.232 18.746 353.73 19.266 354.311 19.6647C354.892 20.0633 355.563 20.371 356.326 20.5877C357.097 20.8043 357.964 20.9603 358.926 21.0557C359.888 21.1423 360.958 21.203 362.137 21.2377C362.05 21.3503 361.964 21.4977 361.877 21.6797C361.799 21.8617 361.747 22.035 361.721 22.1997C360.516 22.1477 359.416 22.0567 358.419 21.9267C357.422 21.8053 356.521 21.6103 355.715 21.3417C354.909 21.0817 354.194 20.7177 353.57 20.2497C352.946 19.7817 352.417 19.1793 351.984 18.4427L352.816 18.1047ZM365.803 13.1517L366.466 12.5797C366.787 12.727 367.12 12.9003 367.467 13.0997C367.822 13.299 368.152 13.5027 368.455 13.7107C368.767 13.9187 369.023 14.1137 369.222 14.2957L368.533 14.9327C368.342 14.7507 368.095 14.5557 367.792 14.3477C367.489 14.131 367.164 13.9187 366.817 13.7107C366.47 13.494 366.132 13.3077 365.803 13.1517ZM371.822 11.3707H372.017L372.186 11.3317L372.81 11.7087C372.385 12.4627 371.844 13.1473 371.185 13.7627C370.526 14.3693 369.79 14.9067 368.975 15.3747C368.169 15.834 367.324 16.2283 366.44 16.5577C365.565 16.8783 364.698 17.134 363.84 17.3247C363.797 17.1947 363.732 17.0473 363.645 16.8827C363.558 16.7093 363.472 16.5663 363.385 16.4537C364.208 16.3063 365.04 16.0897 365.881 15.8037C366.722 15.509 367.528 15.1537 368.299 14.7377C369.07 14.313 369.759 13.832 370.366 13.2947C370.981 12.7573 371.467 12.168 371.822 11.5267V11.3707ZM367.467 11.3707H372.056V12.2027H367.467V11.3707ZM368.429 10.2527L369.534 10.4867C368.927 11.18 368.178 11.8387 367.285 12.4627C366.401 13.0867 365.357 13.6413 364.152 14.1267C364.109 14.0487 364.048 13.962 363.97 13.8667C363.892 13.7713 363.81 13.6847 363.723 13.6067C363.636 13.52 363.554 13.4507 363.476 13.3987C364.265 13.1213 364.975 12.8093 365.608 12.4627C366.241 12.116 366.795 11.752 367.272 11.3707C367.749 10.9893 368.134 10.6167 368.429 10.2527ZM367.467 17.9097L368.195 17.3507C368.533 17.524 368.884 17.7277 369.248 17.9617C369.621 18.187 369.967 18.421 370.288 18.6637C370.609 18.8977 370.873 19.123 371.081 19.3397L370.314 19.9637C370.123 19.747 369.868 19.5217 369.547 19.2877C369.235 19.045 368.897 18.8023 368.533 18.5597C368.169 18.317 367.814 18.1003 367.467 17.9097ZM373.707 15.9207H373.915L374.097 15.8817L374.734 16.2327C374.318 17.1773 373.768 17.9963 373.083 18.6897C372.398 19.383 371.614 19.968 370.73 20.4447C369.846 20.9127 368.897 21.294 367.883 21.5887C366.878 21.8833 365.846 22.1087 364.789 22.2647C364.754 22.1347 364.694 21.9787 364.607 21.7967C364.529 21.6233 364.447 21.4847 364.36 21.3807C365.365 21.2593 366.349 21.0687 367.311 20.8087C368.282 20.54 369.183 20.1933 370.015 19.7687C370.856 19.344 371.592 18.8283 372.225 18.2217C372.866 17.6063 373.36 16.8913 373.707 16.0767V15.9207ZM369.495 15.9207H373.967V16.7657H369.495V15.9207ZM370.535 14.7117L371.627 14.9587C370.968 15.7213 370.123 16.445 369.092 17.1297C368.061 17.8143 366.83 18.408 365.4 18.9107C365.365 18.8327 365.309 18.746 365.231 18.6507C365.162 18.5553 365.088 18.4643 365.01 18.3777C364.941 18.2823 364.871 18.2087 364.802 18.1567C365.712 17.862 366.54 17.5283 367.285 17.1557C368.03 16.783 368.676 16.3843 369.222 15.9597C369.768 15.535 370.206 15.119 370.535 14.7117Z" fill="white"/>
</g>
<defs>
<clipPath id="clip0_47_33">
<rect width="11.1429" height="11.1429" fill="white" transform="translate(13 10.9129)"/>
</clipPath>
<clipPath id="clip1_47_33">
<rect width="10.2143" height="10.2143" fill="white" transform="translate(54.0469 11.3772)"/>
</clipPath>
<clipPath id="clip2_47_33">
<rect width="12.0714" height="11.6071" fill="white" transform="translate(264.188 10.6808)"/>
</clipPath>
<clipPath id="clip3_47_33">
<rect width="10.9905" height="10.9905" fill="white" transform="translate(123.781 10.9891)"/>
</clipPath>
<clipPath id="clip4_47_33">
<rect width="10.2143" height="11.1429" fill="white" transform="translate(194.453 10.9129)"/>
</clipPath>
<clipPath id="clip5_47_33">
<rect width="11.1429" height="11.1429" fill="white" transform="translate(335.781 10.9129)"/>
</clipPath>
</defs>
</svg>
