<?xml version="1.0" encoding="utf-8"?>
<svg version="1.1" xmlns:xlink="http://www.w3.org/1999/xlink" width="10px" height="10px" xmlns="http://www.w3.org/2000/svg">
  <g transform="matrix(1 0 0 1 -935 -247 )">
    <path d="M 0.514423076923094 0.0231799450548351  C 0.23076923076917 0.0257554945055745  0 0.293612637362457  0 0.623282967033447  C 0 0.772664835164505  0.0480769230769056 0.916895604395904  0.134615384615358 1.02764423076951  L 3.79326923076917 5.65848214285688  C 3.87980769230774 5.76923076923049  3.92788461538464 5.91346153846189  3.92788461538464 6.06284340659386  L 3.92788461538464 8.81868131868123  C 3.92788461538464 9.07623626373606  4.06971153846155 9.30288461538476  4.27884615384619 9.38530219780205  L 5.60096153846155 9.89526098901115  C 5.83173076923083 9.98540521978066  6.07211538461536 9.78451236263754  6.07211538461536 9.50120192307713  L 6.07211538461536 6.06026785714312  C 6.07211538461536 5.91088598901115  6.12019230769226 5.76665521978066  6.20673076923083 5.65590659340705  L 9.86538461538464 1.02506868131877  C 9.95192307692309 0.914320054945165  10 0.770089285714676  10 0.620707417582707  C 10 0.291037087911718  9.76923076923083 0.0231799450548351  9.48557692307691 0.0231799450548351  L 0.514423076923094 0.0231799450548351  Z " fill-rule="nonzero" fill="#2d8cf0" stroke="none" transform="matrix(1 0 0 1 935 247 )" />
  </g>
</svg>