<?xml version="1.0" encoding="utf-8"?>
<svg version="1.1" xmlns:xlink="http://www.w3.org/1999/xlink" width="8px" height="6px" xmlns="http://www.w3.org/2000/svg">
  <g transform="matrix(1 0 0 1 -106 -295 )">
    <path d="M 0.973809523809507 0.30204081632653  L 4 3.75782312925173  L 7.02380952380952 0.299319727891157  C 7.24761904761903 0.0435374149659765  7.60952380952381 0.0435374149659765  7.83095238095234 0.299319727891157  C 8.05238095238093 0.555102040816337  8.05238095238093 0.96870748299325  7.83095238095234 1.22448979591836  L 4.40476190476193 5.14285714285713  C 4.18809523809523 5.39047619047619  3.84047619047618 5.39591836734694  3.61666666666667 5.16190476190482  L 0.166666666666686 1.22721088435374  C 0.0547619047619037 1.09931972789118  0 0.930612244897952  0 0.764625850340099  C 0 0.598639455782313  0.0547619047619037 0.429931972789154  0.166666666666686 0.30204081632653  C 0.390476190476193 0.04625850340135  0.752380952380975 0.04625850340135  0.973809523809507 0.30204081632653  Z " fill-rule="nonzero" fill="#515a6e" stroke="none" transform="matrix(1 0 0 1 106 295 )" />
  </g>
</svg>