<?xml version="1.0" encoding="utf-8"?>
<svg version="1.1" xmlns:xlink="http://www.w3.org/1999/xlink" width="132px" height="107px" xmlns="http://www.w3.org/2000/svg">
  <g>
    <path d="M 1 2  A 1 1 0 0 1 2 1 L 130 1  A 1 1 0 0 1 131 2 L 131 105  A 1 1 0 0 1 130 106 L 2 106  A 1 1 0 0 1 1 105 L 1 2  Z " fill-rule="nonzero" fill="#ffffff" stroke="none" />
    <path d="M 0.5 2  A 1.5 1.5 0 0 1 2 0.5 L 130 0.5  A 1.5 1.5 0 0 1 131.5 2 L 131.5 105  A 1.5 1.5 0 0 1 130 106.5 L 2 106.5  A 1.5 1.5 0 0 1 0.5 105 L 0.5 2  Z " stroke-width="1" stroke="#e8eaec" fill="none" stroke-opacity="0.8" />
  </g>
</svg>