<?xml version="1.0" encoding="utf-8"?>
<svg version="1.1" xmlns:xlink="http://www.w3.org/1999/xlink" width="6px" height="4px" xmlns="http://www.w3.org/2000/svg">
  <g transform="matrix(1 0 0 1 -371 -90 )">
    <path d="M 0.730357142857201 0.154285714285649  L 3 2.57333333333335  L 5.26785714285711 0.152380952380923  C 5.43571428571431 -0.0266666666670119  5.7071428571428 -0.0266666666670119  5.87321428571431 0.152380952380923  C 6.03928571428571 0.331428571428845  6.03928571428571 0.620952380952446  5.87321428571431 0.799999999999997  L 3.30357142857144 3.54285714285761  C 3.14107142857154 3.7161904761906  2.88035714285718 3.72000000000007  2.71249999999998 3.55619047619075  L 0.125 0.801904761904737  C 0.0410714285713993 0.712380952381139  0 0.594285714285803  0 0.478095238095193  C 0 0.361904761904583  0.0410714285713993 0.243809523809617  0.125 0.154285714285649  C 0.292857142857201 -0.0247619047619025  0.564285714285688 -0.0247619047619025  0.730357142857201 0.154285714285649  Z " fill-rule="nonzero" fill="#808695" stroke="none" transform="matrix(1 0 0 1 371 90 )" />
  </g>
</svg>