<?xml version="1.0" encoding="utf-8"?>
<svg version="1.1" xmlns:xlink="http://www.w3.org/1999/xlink" width="8px" height="7px" xmlns="http://www.w3.org/2000/svg">
  <g transform="matrix(1 0 0 1 -18 -52 )">
    <path d="M 7.1154375 3.03496981534091  C 7.54615625 3.03496981534091  7.895125 2.80316938920455  7.895125 2.51786221590909  C 7.895125 2.23282433712121  7.54615625 2.00152107007576  7.1154375 2.00152107007576  L 5.471375 2.00152107007576  L 7.0329375 0.966394412878787  C 7.33740625 0.764589251893939  7.33740625 0.437437855113636  7.0329375 0.235901988636363  C 6.7285 0.0338689630681818  6.235 0.0338689630681818  5.93128125 0.235901988636363  L 3.99959375 1.51639737215909  L 2.06859375 0.235901988636364  C 1.764125 0.0338689630681833  1.271375 0.0338689630681833  0.966937499999999 0.235901988636364  C 0.663218749999999 0.437458570075758  0.663218749999999 0.764609966856062  0.966937499999999 0.966394412878789  L 2.52921875 2.00152107007576  L 0.88375 2.00152107007576  C 0.45375 2.00152107007576  0.104781249999999 2.23284505208333  0.104781249999999 2.51788293087121  C 0.104781249999999 2.80319010416667  0.453749999999998 3.03496981534091  0.88375 3.03496981534091  L 3.220625 3.03496981534091  L 3.220625 4.06719637784091  L 0.88375 4.06719637784091  C 0.45375 4.06719637784091  0.104781249999999 4.29852035984849  0.104781249999999 4.58355823863636  C 0.104781249999999 4.86907256155303  0.453749999999998 5.10016867897728  0.88375 5.10016867897728  L 3.22065625 5.10016867897728  L 3.22065625 6.4774443655303  C 3.22065625 6.76248224431818  3.568875 6.99378551136364  3.999625 6.99378551136364  C 4.4303125 6.99378551136364  4.77859375 6.76246152935606  4.77859375 6.4774443655303  L 4.77859375 5.10016867897728  L 7.11546875 5.10016867897728  C 7.5461875 5.10016867897728  7.89515625 4.86909327651515  7.89515625 4.58355823863636  C 7.89515625 4.29852035984849  7.5461875 4.06719637784091  7.11546875 4.06719637784091  L 4.77859375 4.06719637784091  L 4.77859375 3.03496981534091  L 7.11546875 3.03496981534091  Z " fill-rule="nonzero" fill="#e76558" stroke="none" transform="matrix(1 0 0 1 18 52 )" />
  </g>
</svg>