<?xml version="1.0" encoding="utf-8"?>
<svg version="1.1" xmlns:xlink="http://www.w3.org/1999/xlink" width="16px" height="14px" xmlns="http://www.w3.org/2000/svg">
  <g transform="matrix(1 0 0 1 -14 -47 )">
    <path d="M 15.9900568181818 7.28644990808823  C 15.9900568181818 4.51147748161765  13.8861860795455 2.1817578125  11.0493963068182 1.51590533088235  C 10.4595525568182 0.648658088235294  9.40472301136364 0.0675551470588235  8.20014204545455 0.0675551470588235  C 7.04078480113636 0.0675551470588235  6.01745383522727 0.604698988970588  5.41640625 1.41841681985294  C 2.34650213068182 1.92588465073529  0.00994318181818182 4.36076516544118  0.00994318181818182 7.28644990808823  L 0.00994318181818182 7.94816865808823  C 0.00994318181818182 11.2409512867647  2.96745383522727 13.9195611213235  6.60191761363636 13.9195611213235  L 9.39767400568182 13.9195611213235  C 13.0329723011364 13.9195611213235  15.9900568181818 11.2409512867647  15.9900568181818 7.94816865808823  L 15.9900568181818 7.28644990808823  Z M 5.7814453125 3.10086167279412  C 5.7814453125 1.89279871323529  6.86654829545455 0.910193014705882  8.20014204545454 0.910193014705882  C 9.53371803977273 0.910193014705882  10.6188210227273 1.89279871323529  10.6188210227273 3.10086167279412  C 10.6188210227273 3.32387408088235  10.5806818181818 3.53844209558823  10.5109907670455 3.74115579044118  L 5.88929332386364 3.74115579044118  C 5.82084517045455 3.53842601102941  5.7814453125 3.32387408088235  5.7814453125 3.10086167279412  Z M 15.0600674715909 7.28643382352941  L 15.0600674715909 7.94815257352941  C 15.0600674715909 10.7765096507353  12.5202414772727 13.0776470588235  9.39765625 13.0776470588235  L 6.60189985795455 13.0776470588235  C 3.47970525568182 13.0776470588235  0.939897017045455 10.7765096507353  0.939897017045455 7.94813648897059  L 0.939897017045455 7.28641773897059  C 0.939897017045455 4.97831571691176  2.63227982954545 3.02325367647059  4.95142045454545 2.38165670955882  C 4.88879616477273 2.61292049632353  4.85227272727273 2.85266084558824  4.85227272727273 3.10086167279412  C 4.85227272727273 3.32068933823529  4.87965198863636 3.53429227941177  4.92901278409091 3.74115579044118  L 4.45903764204545 3.74115579044118  C 4.21432883522727 3.74115579044118  4.01603338068182 3.92036994485294  4.01603338068182 4.14188648897059  C 4.01603338068182 4.36340303308824  4.21432883522727 4.54319623161765  4.45903764204545 4.54319623161765  L 11.8362571022727 4.54319623161765  C 12.0809659090909 4.54319623161765  12.2788352272727 4.36338694852941  12.2788352272727 4.14188648897059  C 12.2788352272727 3.92056295955882  12.0810014204545 3.74115579044118  11.8362571022727 3.74115579044118  L 11.4720703125 3.74115579044118  C 11.5214311079545 3.53429227941177  11.5487926136364 3.32068933823529  11.5487926136364 3.10086167279412  C 11.5487926136364 2.90434053308824  11.5264026988636 2.7125  11.4865767045455 2.52595128676471  C 13.5763139204545 3.28084788602941  15.0600674715909 5.12693704044118  15.0600674715909 7.28643382352941  Z " fill-rule="nonzero" fill="#165dff" stroke="none" fill-opacity="0.996078431372549" transform="matrix(1 0 0 1 14 47 )" />
  </g>
</svg>