<?xml version="1.0" encoding="utf-8"?>
<svg version="1.1" xmlns:xlink="http://www.w3.org/1999/xlink" width="15px" height="15px" viewBox="226 15.5  15 15" xmlns="http://www.w3.org/2000/svg">
  <path d="M 233.5 15.5  C 237.7 15.5  241 18.8  241 23  C 241 27.2  237.7 30.5  233.5 30.5  C 229.3 30.5  226 27.2  226 23  C 226 18.8  229.3 15.5  233.5 15.5  Z " fill-rule="nonzero" fill="#ffffff" stroke="none" />
  <path d="M 233.5 16  C 237.42 16  240.5 19.08  240.5 23  C 240.5 26.92  237.42 30  233.5 30  C 229.58 30  226.5 26.92  226.5 23  C 226.5 19.08  229.58 16  233.5 16  Z " stroke-width="1" stroke="#409eff" fill="none" />
  <path d="M 233.5 26.75  C 231.4 26.75  229.75 25.1  229.75 23  C 229.75 20.9  231.4 19.25  233.5 19.25  C 235.6 19.25  237.25 20.9  237.25 23  C 237.25 25.1  235.6 26.75  233.5 26.75  " fill-rule="nonzero" fill="#409eff" stroke="none" />
</svg>