<?xml version="1.0" encoding="utf-8"?>
<svg version="1.1" xmlns:xlink="http://www.w3.org/1999/xlink" width="34px" height="34px" xmlns="http://www.w3.org/2000/svg">
  <g transform="matrix(1 0 0 1 -473 -698 )">
    <path d="M 28.08984375 21.6774821544452  C 28.7243923611111 20.1845122215012  29.0416666666667 18.6216742375081  29.0416666666667 16.9889682024659  C 29.0416666666667 14.6208089984858  28.3997395833333 12.451222150119  27.1158854166667 10.4802076573653  L 10.42578125 27.0940947436729  C 12.4474826388889 28.4032013843824  14.6388888888889 29.0577547047372  17 29.0577547047372  C 18.6380208333333 29.0577547047372  20.1985677083333 28.7378325762492  21.681640625 28.0979883192732  C 23.1647135416667 27.4581440622972  24.4448784722222 26.6013411204845  25.5221354166667 25.5275794938352  C 26.5993923611111 24.4538178671858  27.4552951388889 23.1704520873891  28.08984375 21.6774821544452  Z M 4.95833333333333 16.9889682024659  C 4.95833333333333 19.3718364698248  5.61501736111111 21.5708414449492  6.92838541666667 23.5859831278391  L 23.640625 6.95003244646334  C 21.6484375 5.61150767899632  19.4348958333333 4.94224529526281  17 4.94224529526281  C 14.8159722222222 4.94224529526281  12.8016493055556 5.4791261085875  10.95703125 6.55288773523686  C 9.11241319444444 7.62664936188622  7.65147569444444 9.09020116807268  6.57421875 10.9435431537962  C 5.49696180555556 12.7968851395198  4.95833333333333 14.8120268224097  4.95833333333333 16.9889682024659  Z M 32.6497395833333 10.3809214795587  C 33.5499131944444 12.4769630110318  34 14.6796452520009  34 16.9889682024659  C 34 19.298291152931  33.5499131944444 21.5046506597448  32.6497395833333 23.6080467229072  C 31.7495659722222 25.7114427860696  30.5431857638889 27.5206575816569  29.0305989583333 29.035691109669  C 27.5180121527778 30.5507246376812  25.7102864583333 31.7568678347393  23.607421875 32.6541207008436  C 21.5045572916667 33.5513735669479  19.3020833333333 34  17 34  C 14.6979166666667 34  12.4954427083333 33.5513735669479  10.392578125 32.6541207008436  C 8.28971354166667 31.7568678347393  6.48198784722222 30.5507246376812  4.96940104166667 29.035691109669  C 3.45681423611111 27.5206575816569  2.25043402777778 25.7114427860696  1.35026041666667 23.6080467229072  C 0.450086805555556 21.5046506597448  0 19.298291152931  0 16.9889682024659  C 0 14.6796452520009  0.450086805555556 12.4769630110318  1.35026041666667 10.3809214795587  C 2.25043402777778 8.28487994808566  3.45681423611111 6.47934241834307  4.96940104166667 4.96430889033095  C 6.48198784722222 3.44927536231884  8.28971354166667 2.24313216526065  10.392578125 1.34587929915639  C 12.4954427083333 0.448626433052127  14.6979166666667 0  17 0  C 19.3020833333333 0  21.5045572916667 0.448626433052127  23.607421875 1.34587929915639  C 25.7102864583333 2.24313216526065  27.5180121527778 3.44927536231884  29.0305989583333 4.96430889033095  C 30.5431857638889 6.47934241834307  31.7495659722222 8.28487994808566  32.6497395833333 10.3809214795587  Z " fill-rule="nonzero" fill="#d9001b" stroke="none" transform="matrix(1 0 0 1 473 698 )" />
  </g>
</svg>