<?xml version="1.0" encoding="utf-8"?>
<svg version="1.1" xmlns:xlink="http://www.w3.org/1999/xlink" width="34px" height="29px" xmlns="http://www.w3.org/2000/svg">
  <g transform="matrix(1 0 0 1 -405 -703 )">
    <path d="M 28.377630787733 15.9211647727273  C 28.6502305071157 16.0310132575758  28.786530366807 16.2301136363636  28.786530366807 16.5184659090909  L 28.786530366807 23.0681818181818  C 28.786530366807 24.702178030303  28.2106634596111 26.0993134469697  27.0589296452195 27.2595880681818  C 25.9071958308278 28.4198626893939  24.5203447584686 29  22.8983764281419 29  L 5.88815393866506 29  C 4.26618560833835 29  2.87933453597915 28.4198626893939  1.72760072158749 27.2595880681818  C 0.575866907195831 26.0993134469697  0 24.702178030303  0 23.0681818181818  L 0 5.93181818181818  C 0 4.29782196969697  0.575866907195831 2.9006865530303  1.72760072158749 1.74041193181818  C 2.87933453597915 0.580137310606058  4.26618560833835 0  5.88815393866506 0  L 22.8983764281419 0  C 23.7570655441972 0  24.5544197233915 0.171638257575756  25.2904389657246 0.514914772727271  C 25.4948887552616 0.611032196969695  25.6175586289838 0.768939393939393  25.6584485868912 0.988636363636363  C 25.6993385447986 1.22206439393939  25.6380036079375 1.42116477272727  25.4744437763079 1.5859375  L 24.4726398075767 2.59517045454545  C 24.3363399478853 2.73248106060606  24.1795951092403 2.80113636363636  24.0024052916416 2.80113636363636  C 23.9615153337342 2.80113636363636  23.9001803968731 2.7874053030303  23.8184004810583 2.75994318181818  C 23.5049108037683 2.67755681818182  23.1982361194628 2.63636363636364  22.8983764281419 3  L 5.88815393866506 3  C 4.98857486470235 2.63636363636364  4.21848065744638 2.95904356060606  3.57787131689717 3.60440340909091  C 2.93726197634797 4.24976325757576  2.61695730607336 5.02556818181818  3 5.93181818181818  L 3 23.0681818181818  C 2.61695730607336 23.9744318181818  2.93726197634797 24.7502367424242  3.57787131689717 25.3955965909091  C 4.21848065744638 26.0409564393939  4.98857486470235 26.3636363636364  5.88815393866506 26  L 22.8983764281419 26  C 23.7979555021046 26.3636363636364  24.5680497093606 26.0409564393939  25.2086590499098 25.3955965909091  C 25.849268390459 24.7502367424242  26.1695730607336 23.9744318181818  26.1695730607336 23.0681818181818  L 26.1695730607336 17.8366477272727  C 26.1695730607336 17.6581439393939  26.2309079975947 17.5071022727273  26.3535778713169 17.3835227272727  L 27.6620565243536 16.0653409090909  C 27.7983563840449 15.9280303030303  27.9551012226899 15.859375  28.1322910402886 15.859375  C 28.2140709561034 15.859375  28.2958508719182 15.8799715909091  28.377630787733 15.9211647727273  Z M 34 5.27272727272727  C 34 5.72585227272727  33.8364401683704 6.1171875  33.5093205051112 6.44673295454545  L 16.867107636801 23.2123579545455  C 16.5399879735418 23.5419034090909  16.1515333734215 23.7066761363636  15.7017438364402 23.7066761363636  C 15.2519542994588 23.7066761363636  14.8634996993385 23.5419034090909  14.5363800360794 23.2123579545455  L 5.74503908598918 14.3558238636364  C 5.41791942273001 14.0262784090909  5.25435959110042 13.6349431818182  5.25435959110042 13.1818181818182  C 5.25435959110042 12.7286931818182  5.41791942273001 12.3373579545455  5.74503908598918 12.0078125  L 7.99398677089597 9.7421875  C 8.32110643415514 9.41264204545455  8.70956103427541 9.24786931818182  9.15935057125677 9.24786931818182  C 9.60914010823812 9.24786931818182  9.99759470835839 9.41264204545455  10.3247143716176 9.7421875  L 15.7017438364402 15.1590909090909  L 28.9296452194829 1.83309659090909  C 29.256764882742 1.50355113636364  29.6452194828623 1.33877840909091  30.0950090198437 1.33877840909091  C 30.544798556825 1.33877840909091  30.9332531569453 1.50355113636364  31.2603728202045 1.83309659090909  L 33.5093205051112 4.09872159090909  C 33.8364401683704 4.42826704545455  34 4.81960227272727  34 5.27272727272727  Z " fill-rule="nonzero" fill="#18bc9c" stroke="none" transform="matrix(1 0 0 1 405 703 )" />
  </g>
</svg>